<svg width="120" height="120" viewBox="0 0 120 120" fill="none" xmlns="http://www.w3.org/2000/svg">
<path d="M59.0039 53.7125L44.9412 61.8318C44.0379 62.3535 43.4766 63.3257 43.4766 64.3686V80.6066C43.4766 81.65 44.0379 82.6222 44.9414 83.1437L59.0039 91.2627C59.4558 91.5236 59.9623 91.6539 60.4688 91.6539C60.9752 91.6539 61.4817 91.5233 61.9336 91.2627L75.9961 83.1437C76.8996 82.622 77.4609 81.6498 77.4609 80.6066V64.3686C77.4609 63.3257 76.8996 62.3535 75.9961 61.8315L61.9338 53.7128C61.0301 53.1906 59.907 53.1911 59.0039 53.7125ZM60.4688 56.9263L72.1875 63.692L60.4688 70.4579L48.75 63.692L60.4688 56.9263ZM46.9922 66.7368L58.7109 73.5027V87.0343L46.9922 80.2684V66.7368ZM62.2266 87.0343V73.5025L73.9453 66.7365V80.2682L62.2266 87.0343Z" fill="url(#paint0_linear_157_1028)"/>
<path d="M44.7656 48.6982H36.7969C35.8259 48.6982 35.0391 49.4853 35.0391 50.4561V58.4248C35.0391 59.3956 35.8259 60.1826 36.7969 60.1826C37.7679 60.1826 38.5547 59.3956 38.5547 58.4248V52.2139H44.7656C45.7366 52.2139 46.5234 51.4268 46.5234 50.4561C46.5234 49.4853 45.7366 48.6982 44.7656 48.6982Z" fill="url(#paint1_linear_157_1028)"/>
<path d="M84.8438 48.6982H76.875C75.904 48.6982 75.1172 49.4853 75.1172 50.4561C75.1172 51.4268 75.904 52.2139 76.875 52.2139H83.0859V58.4248C83.0859 59.3956 83.8727 60.1826 84.8438 60.1826C85.8148 60.1826 86.6016 59.3956 86.6016 58.4248V50.4561C86.6016 49.4853 85.8148 48.6982 84.8438 48.6982Z" fill="url(#paint2_linear_157_1028)"/>
<path d="M83.0859 86.5498V92.7607H76.875C75.904 92.7607 75.1172 93.5478 75.1172 94.5186C75.1172 95.4893 75.904 96.2764 76.875 96.2764H84.8438C85.8148 96.2764 86.6016 95.4893 86.6016 94.5186V86.5498C86.6016 85.579 85.8148 84.792 84.8438 84.792C83.8727 84.792 83.0859 85.579 83.0859 86.5498Z" fill="url(#paint3_linear_157_1028)"/>
<path d="M35.0391 94.5186C35.0391 95.4893 35.8259 96.2764 36.7969 96.2764H44.7656C45.7366 96.2764 46.5234 95.4893 46.5234 94.5186C46.5234 93.5478 45.7366 92.7607 44.7656 92.7607H38.5547V86.5498C38.5547 85.579 37.7679 84.792 36.7969 84.792C35.8259 84.792 35.0391 85.579 35.0391 86.5498V94.5186Z" fill="url(#paint4_linear_157_1028)"/>
<path d="M101.719 64.167H83.6719C82.7009 64.167 81.9141 64.954 81.9141 65.9248C81.9141 66.8956 82.7009 67.6826 83.6719 67.6826H101.719C102.69 67.6826 103.477 66.8956 103.477 65.9248C103.477 64.954 102.69 64.167 101.719 64.167Z" fill="url(#paint5_linear_157_1028)"/>
<path d="M101.719 70.7295H92.5781C91.6071 70.7295 90.8203 71.5165 90.8203 72.4873C90.8203 73.4581 91.6071 74.2451 92.5781 74.2451H101.719C102.69 74.2451 103.477 73.4581 103.477 72.4873C103.477 71.5165 102.69 70.7295 101.719 70.7295Z" fill="url(#paint6_linear_157_1028)"/>
<path d="M101.719 77.292H92.5781C91.6071 77.292 90.8203 78.079 90.8203 79.0498C90.8203 80.0206 91.6071 80.8076 92.5781 80.8076H101.719C102.69 80.8076 103.477 80.0206 103.477 79.0498C103.477 78.079 102.69 77.292 101.719 77.292Z" fill="url(#paint7_linear_157_1028)"/>
<path d="M17.1094 82.0312H26.25C27.221 82.0312 28.0078 81.2442 28.0078 80.2734C28.0078 79.3027 27.221 78.5156 26.25 78.5156H17.1094C16.1384 78.5156 15.3516 79.3027 15.3516 80.2734C15.3516 81.2442 16.1384 82.0312 17.1094 82.0312Z" fill="url(#paint8_linear_157_1028)"/>
<path d="M17.1094 88.5938H26.25C27.221 88.5938 28.0078 87.8067 28.0078 86.8359C28.0078 85.8652 27.221 85.0781 26.25 85.0781H17.1094C16.1384 85.0781 15.3516 85.8652 15.3516 86.8359C15.3516 87.8067 16.1384 88.5938 17.1094 88.5938Z" fill="url(#paint9_linear_157_1028)"/>
<path d="M17.1094 95.1562H26.25C27.221 95.1562 28.0078 94.3692 28.0078 93.3984C28.0078 92.4277 27.221 91.6406 26.25 91.6406H17.1094C16.1384 91.6406 15.3516 92.4277 15.3516 93.3984C15.3516 94.3692 16.1384 95.1562 17.1094 95.1562Z" fill="url(#paint10_linear_157_1028)"/>
<path d="M66.5039 16.2891C66.5039 17.2598 67.2907 18.0469 68.2617 18.0469H110.449C111.42 18.0469 112.207 17.2598 112.207 16.2891C112.207 15.3183 111.42 14.5312 110.449 14.5312H68.2617C67.2907 14.5312 66.5039 15.3183 66.5039 16.2891Z" fill="url(#paint11_linear_157_1028)"/>
<path d="M110.039 31.3034H28.8563V12.143C28.8563 8.93672 26.2477 6.32812 23.0414 6.32812C19.8352 6.32812 17.2266 8.93672 17.2266 12.143V31.3031H9.96094C4.46836 31.3031 0 35.7715 0 41.2641V103.711C0 109.204 4.46836 113.672 9.96094 113.672H84.1406C85.1116 113.672 85.8984 112.885 85.8984 111.914C85.8984 110.943 85.1116 110.156 84.1406 110.156H9.96094C6.40711 110.156 3.51562 107.265 3.51562 103.711V41.2643C3.51562 37.7102 6.40711 34.819 9.96094 34.819H17.2266V38.3346H9.96094C8.34539 38.3346 7.03125 39.6488 7.03125 41.2643V52.5C7.03125 53.4708 7.81805 54.2578 8.78906 54.2578C9.76008 54.2578 10.5469 53.4708 10.5469 52.5V41.8502H17.2266V62.5537C17.2266 63.3127 17.3723 64.0535 17.6597 64.7555L20.914 72.7109C21.2688 73.5788 22.1039 74.1394 23.0416 74.1394C23.9791 74.1394 24.8142 73.5785 25.1691 72.7109L28.4234 64.7557C28.7107 64.0535 28.8565 63.3127 28.8565 62.5537V41.8502H109.453V103.125H10.5469V60.7031C10.5469 59.7323 9.76008 58.9453 8.78906 58.9453C7.81805 58.9453 7.03125 59.7323 7.03125 60.7031V103.711C7.03125 105.326 8.34539 106.641 9.96094 106.641H110.039C111.655 106.641 112.969 105.326 112.969 103.711V41.2643C112.969 39.6488 111.655 38.3346 110.039 38.3346H28.8563V34.819H110.039C113.593 34.819 116.484 37.7102 116.484 41.2643V103.711C116.484 107.265 113.593 110.156 110.039 110.156H92.3438C91.3727 110.156 90.5859 110.943 90.5859 111.914C90.5859 112.885 91.3727 113.672 92.3438 113.672H110.039C115.532 113.672 120 109.204 120 103.711V41.2643C120 35.7717 115.532 31.3034 110.039 31.3034ZM25.3406 62.5537C25.3406 62.8537 25.283 63.1465 25.1695 63.4244L23.0414 68.6264L20.9135 63.424C20.8001 63.1465 20.7424 62.8537 20.7424 62.5537V12.143C20.7424 10.8752 21.7739 9.84375 23.0419 9.84375C24.3098 9.84375 25.3411 10.8752 25.3411 12.143V62.5537H25.3406Z" fill="url(#paint12_linear_157_1028)" fill-opacity="0.8"/>
<path d="M115.898 6.32812H105.938C104.966 6.32812 104.18 7.11516 104.18 8.08594C104.18 9.05672 104.966 9.84375 105.938 9.84375H115.898C116.222 9.84375 116.484 10.1067 116.484 10.4297V22.1484C116.484 22.4714 116.222 22.7344 115.898 22.7344H62.8125C62.4893 22.7344 62.2266 22.4714 62.2266 22.1484V10.4297C62.2266 10.1067 62.4893 9.84375 62.8125 9.84375H97.7344C98.7054 9.84375 99.4922 9.05672 99.4922 8.08594C99.4922 7.11516 98.7054 6.32812 97.7344 6.32812H62.8125C60.551 6.32812 58.7109 8.1682 58.7109 10.4297V22.1484C58.7109 24.4099 60.551 26.25 62.8125 26.25H115.898C118.16 26.25 120 24.4099 120 22.1484V10.4297C120 8.1682 118.16 6.32812 115.898 6.32812Z" fill="url(#paint13_linear_157_1028)" fill-opacity="0.8"/>
<defs>
<linearGradient id="paint0_linear_157_1028" x1="60.4688" y1="53.3213" x2="60.4688" y2="91.6539" gradientUnits="userSpaceOnUse">
<stop stop-color="white"/>
<stop offset="1" stop-color="white" stop-opacity="0.5"/>
</linearGradient>
<linearGradient id="paint1_linear_157_1028" x1="40.7812" y1="48.6982" x2="40.7812" y2="60.1826" gradientUnits="userSpaceOnUse">
<stop stop-color="white"/>
<stop offset="1" stop-color="white" stop-opacity="0.5"/>
</linearGradient>
<linearGradient id="paint2_linear_157_1028" x1="80.8594" y1="48.6982" x2="80.8594" y2="60.1826" gradientUnits="userSpaceOnUse">
<stop stop-color="white"/>
<stop offset="1" stop-color="white" stop-opacity="0.5"/>
</linearGradient>
<linearGradient id="paint3_linear_157_1028" x1="80.8594" y1="84.792" x2="80.8594" y2="96.2764" gradientUnits="userSpaceOnUse">
<stop stop-color="white"/>
<stop offset="1" stop-color="white" stop-opacity="0.5"/>
</linearGradient>
<linearGradient id="paint4_linear_157_1028" x1="40.7812" y1="84.792" x2="40.7812" y2="96.2764" gradientUnits="userSpaceOnUse">
<stop stop-color="white"/>
<stop offset="1" stop-color="white" stop-opacity="0.5"/>
</linearGradient>
<linearGradient id="paint5_linear_157_1028" x1="92.6953" y1="64.167" x2="92.6953" y2="67.6826" gradientUnits="userSpaceOnUse">
<stop stop-color="white"/>
<stop offset="1" stop-color="white" stop-opacity="0.5"/>
</linearGradient>
<linearGradient id="paint6_linear_157_1028" x1="97.1484" y1="70.7295" x2="97.1484" y2="74.2451" gradientUnits="userSpaceOnUse">
<stop stop-color="white"/>
<stop offset="1" stop-color="white" stop-opacity="0.5"/>
</linearGradient>
<linearGradient id="paint7_linear_157_1028" x1="97.1484" y1="77.292" x2="97.1484" y2="80.8076" gradientUnits="userSpaceOnUse">
<stop stop-color="white"/>
<stop offset="1" stop-color="white" stop-opacity="0.5"/>
</linearGradient>
<linearGradient id="paint8_linear_157_1028" x1="21.6797" y1="78.5156" x2="21.6797" y2="82.0312" gradientUnits="userSpaceOnUse">
<stop stop-color="white"/>
<stop offset="1" stop-color="white" stop-opacity="0.5"/>
</linearGradient>
<linearGradient id="paint9_linear_157_1028" x1="21.6797" y1="85.0781" x2="21.6797" y2="88.5938" gradientUnits="userSpaceOnUse">
<stop stop-color="white"/>
<stop offset="1" stop-color="white" stop-opacity="0.5"/>
</linearGradient>
<linearGradient id="paint10_linear_157_1028" x1="21.6797" y1="91.6406" x2="21.6797" y2="95.1562" gradientUnits="userSpaceOnUse">
<stop stop-color="white"/>
<stop offset="1" stop-color="white" stop-opacity="0.5"/>
</linearGradient>
<linearGradient id="paint11_linear_157_1028" x1="89.3555" y1="14.5312" x2="89.3555" y2="18.0469" gradientUnits="userSpaceOnUse">
<stop stop-color="white"/>
<stop offset="1" stop-color="white" stop-opacity="0.5"/>
</linearGradient>
<linearGradient id="paint12_linear_157_1028" x1="60" y1="6.32812" x2="60" y2="113.672" gradientUnits="userSpaceOnUse">
<stop stop-color="white"/>
<stop offset="1" stop-color="white" stop-opacity="0.5"/>
</linearGradient>
<linearGradient id="paint13_linear_157_1028" x1="89.3555" y1="6.32812" x2="89.3555" y2="26.25" gradientUnits="userSpaceOnUse">
<stop stop-color="white"/>
<stop offset="1" stop-color="white" stop-opacity="0.5"/>
</linearGradient>
</defs>
</svg>
