<svg preserveAspectRatio="none" width="100%" height="100%" overflow="visible" style="display: block;" viewBox="0 0 400 302" fill="none" xmlns="http://www.w3.org/2000/svg">
<g id="Skyline-01 1">
<path id="Vector" d="M382.733 218.497H17.2667V221.064H382.733V218.497Z" fill="var(--fill-0, white)"/>
<path id="Vector_2" d="M102.467 113.174V110.909H101.533V110.23H85.6L85.1333 110.909H82.2667V113.174H81.2V217.742H103.533V113.174H102.467Z" fill="var(--fill-0, #858586)"/>
<path id="Vector_3" d="M276.6 104.417V98.2255C276.6 98.2255 276.6 98.15 276.6 98.0745C276.6 93.771 271.4 90.2225 264.8 89.9205V93.469H263V89.9205C256.4 90.2225 251.2 93.771 251.2 98.0745C251.2 102.378 251.2 98.15 251.2 98.2255V104.417H249.867V216.987H277.933V104.417H276.6ZM265.667 114.76H262.133V104.417H265.667V114.76Z" fill="var(--fill-0, #858586)"/>
<path id="Vector_4" d="M208.133 122.159V116.949H202.933L202.267 116.27H202.2H198.067H191.133C191.067 116.27 190.733 116.496 190.333 116.949H185.467V121.857C185.133 122.234 184.867 122.461 184.867 122.461V217.893H208.467V132.276V122.461L208.133 122.159Z" fill="var(--fill-0, #858586)"/>
<path id="Vector_5" d="M221.133 206.568V203.472H219.4V201.887V158.097H218.133V154.247H215.667V148.131H203.4V154.247H200.867V158.097H199.6V201.887V203.472H197.933V206.568H196.267V217.817H208.733H210.267H222.8V206.568H221.133Z" fill="var(--fill-0, #545455)"/>
<path id="Vector_6" d="M270 191.996V190.033H266.667V167.006H266V165.949H265.4V165.647H254.933L254.667 165.949H252.733V167.006H252.067V217.969H266.667H281.267V191.996H270Z" fill="var(--fill-0, #6D6D6D)"/>
<path id="Vector_7" d="M236.333 105.172V105.021V95.3565C236.333 95.281 231.867 95.281 231.867 95.281V90.5245L230.867 89.3165V88.335H230.733V89.392L230.533 89.694H230.467C230.467 89.7695 230.467 89.7695 230.467 89.7695L230.267 89.996H230.2L230 90.2225H229.933C229.933 90.298 229.933 90.298 229.933 90.298L229.733 90.5245V93.3935H222.2V87.882L221.333 86.825V82.446L221.133 82.2195L220.4 81.389V81.1625H220.267V81.3135L220 81.6155L219.533 82.2195L219.333 82.5215V86.7495C219.333 86.825 218.467 87.9575 218.467 87.9575V93.469H210.933V90.6L210.733 90.3735L210.267 89.845L210 89.543V88.486H209.933V89.4675L209.667 89.7695L209.2 90.3735L209 90.6755V90.8265V90.9775V91.1285V91.808V91.959V92.11V92.261V92.412V92.563V93.2425V93.3935V93.8465V93.9975V94.677V94.828V94.979V95.13V95.432C209 95.5075 204.533 95.5075 204.533 95.5075V122.159V138.089V138.92V140.808V146.319V147.074V155.454V163.835V188.977V196.376V196.526V197.281V197.433V207.021V207.172V207.625V207.776V217.666H236.533V212.91V211.778V211.626V211.174V211.023V188.826V163.684V155.304V146.923V146.168V140.657V138.694V137.863V130.011V129.181V121.933V113.929V113.778V113.326V113.174V105.927V105.776V105.323L236.333 105.172ZM229.733 93.6955V94.375H228.4H226.933V93.6955H229.667H229.733ZM210.4 95.13H210.6C210.6 95.2055 210.4 95.2055 210.4 95.2055V95.13ZM209.333 93.469H210.267V93.62L209.8 93.9975L209.4 93.6955V93.469H209.333ZM210.267 93.771V94.2995L209.933 94.073L210.267 93.8465V93.771ZM230.867 94.073L231.2 93.8465V94.375L230.867 94.1485V94.073ZM231.267 93.62L230.8 93.9975L230.4 93.6955V93.469H231.333V93.62H231.267ZM230.667 94.073L230.333 94.2995V93.8465L230.667 94.073ZM228.467 95.2055C228.467 95.13 229.8 95.13 229.8 95.13C229.8 95.2055 228.467 95.2055 228.467 95.2055ZM229.733 94.979H228.4V94.828H229.733V94.979ZM220.133 91.355V92.4875H219.867V91.355H220.133ZM220.533 92.4875V91.355H220.8V92.4875H220.533ZM220.533 90.902V88.2595H220.8V90.902H220.533ZM220.133 90.902H219.867V88.2595H220.133V90.902ZM219.667 88.788V90.298L219.467 89.543L219.667 88.788ZM219.333 89.241L219.067 88.2595H219.6L219.333 89.241ZM219.6 90.902H219.067L219.333 89.9205L219.6 90.902ZM219.667 91.053V91.204H219V91.053H219.667ZM219.533 91.355L219.333 92.0345L219.133 91.355H219.533ZM219.667 91.657V92.4875H219.533V92.261L219.667 91.657ZM212.133 94.979H210.8V94.828H212.133V94.979ZM210.867 95.13H212.2C212.2 95.2055 210.867 95.2055 210.867 95.2055V95.13ZM229.933 95.2055C229.933 95.13 230.133 95.13 230.133 95.13C230.133 95.2055 229.933 95.2055 229.933 95.2055ZM229.733 94.7525H228.4V94.6015H229.733V94.7525ZM221.133 92.4875H221V91.5815L221.2 92.261V92.4875H221.133ZM221.067 91.355H221.467L221.267 92.0345L221.067 91.355ZM220.933 90.902L221.2 89.9205L221.467 90.902H220.933ZM220.933 90.2225V88.939L221.133 89.543L220.933 90.147V90.2225ZM220.933 88.2595H221.467L221.2 89.241L220.933 88.2595ZM219.667 88.1085H219V87.9575H219.667V88.1085ZM219.267 89.543L219 90.449V88.5615L219.267 89.4675V89.543ZM219.267 92.3365V92.563H219V91.5815L219.267 92.3365ZM212.133 94.7525H210.8V94.6015H212.133V94.7525ZM210.267 94.526V94.979H209.333V94.4505L209.733 94.1485L210.2 94.526H210.267ZM230.333 95.2055C230.333 95.13 231.267 95.13 231.267 95.13C231.267 95.2055 230.333 95.2055 230.333 95.2055ZM230.333 94.979V94.4505L230.733 94.1485L231.2 94.526V94.979H230.267H230.333ZM231.667 94.4505H231.467V93.771H231.667V94.4505ZM230.333 93.318V93.0915L230.733 92.7895L231.2 93.167V93.318H230.267H230.333ZM230.867 92.6385L231.2 92.412V92.9405L230.867 92.714V92.6385ZM231.667 93.016H231.467V92.3365H231.667V93.016ZM230.333 90.6H231.267V90.751L230.8 91.1285L230.4 90.8265V90.6H230.333ZM231.267 90.9775V91.506L230.933 91.2795L231.267 91.053V90.9775ZM231.667 91.5815H231.467V90.902H231.667V91.5815ZM230.667 91.204L230.333 91.4305V90.9775L230.667 91.204ZM230.333 91.657L230.733 91.355L231.2 91.7325V91.959H230.267V91.7325L230.333 91.657ZM231.267 92.0345V92.1855L230.8 92.563L230.4 92.261V92.0345H231.333H231.267ZM230.667 92.6385L230.333 92.865V92.412L230.667 92.6385ZM230.133 93.6955V94.375H229.933V93.6955H230.133ZM226.8 94.375H225.267V93.6955H226.8V94.375ZM225.267 93.62V93.469H226.333V93.62H225.267ZM221.4 92.4875V92.261L221.533 91.7325V92.4875H221.4ZM220.933 91.204V91.053H221.533V91.204H220.933ZM221.333 89.543L221.6 88.637V90.3735L221.333 89.4675V89.543ZM221.533 88.1085H220.933V87.9575H221.533V88.1085ZM220.333 87.731L219.533 86.7495H221.2L220.4 87.731H220.333ZM220.733 86.372V86.5985H219.8V86.372L220.2 86.07L220.667 86.4475L220.733 86.372ZM220.4 85.919L220.733 85.6925V86.221L220.4 85.9945V85.919ZM221.2 86.4475H221V86.372V85.5415H221.2V86.523V86.4475ZM220.4 84.56L220.733 84.3335V84.862L220.4 84.6355V84.56ZM221.2 84.862H221V84.1825H221.2V84.862ZM219.867 82.446H220.8V82.597L220.333 82.9745L219.933 82.6725V82.446H219.867ZM220.733 82.8235V83.352L220.4 83.1255L220.733 82.899V82.8235ZM221.2 83.503H221V82.8235H221.2V83.503ZM220.133 83.1255L219.8 83.352V82.899L220.133 83.1255ZM219.867 83.503L220.267 83.201L220.733 83.5785V83.805H219.8V83.5785L219.867 83.503ZM220.733 83.8805V84.0315L220.267 84.409L219.867 84.107V83.8805H220.8H220.733ZM220.133 84.56L219.8 84.7865V84.3335L220.133 84.56ZM219.867 85.013L220.267 84.711L220.733 85.0885V85.2395H219.8V85.013H219.867ZM220.733 85.315V85.466L220.267 85.8435L219.867 85.5415V85.315H220.8H220.733ZM220.133 85.919L219.8 86.1455V85.6925L220.133 85.919ZM220.133 87.8065H218.6L219.333 86.9005L220.067 87.8065H220.133ZM218.6 88.2595H218.8V90.902H218.6V88.2595ZM218.8 91.355V92.4875H218.6V91.355H218.8ZM215.333 93.62H214.2V93.469H215.333V93.62ZM215.333 93.6955V94.375H213.8V93.6955H215.333ZM213.6 93.6955V94.375H212.133H210.8V93.6955H213.6ZM210.667 94.4505H210.467V93.771H210.667V94.4505ZM209.333 93.318V93.0915L209.733 92.7895L210.2 93.167V93.318H209.267H209.333ZM210.267 92.412V92.9405L209.933 92.714L210.267 92.4875V92.412ZM210.667 93.016H210.467V92.3365H210.667V93.016ZM209.333 90.6H210.267V90.751L209.8 91.1285L209.4 90.8265V90.6H209.333ZM210.267 90.9775V91.506L209.933 91.2795L210.267 91.053V90.9775ZM210.667 91.5815H210.467V90.902H210.667V91.5815ZM209.667 91.204L209.333 91.4305V90.9775L209.667 91.204ZM209.333 91.657L209.733 91.355L210.2 91.7325V91.8835H209.267V91.657H209.333ZM210.267 92.0345V92.1855L209.8 92.563L209.4 92.261V92.0345H210.333H210.267ZM209.667 92.6385L209.333 92.865V92.412L209.667 92.6385ZM209.667 94.073L209.333 94.2995V93.8465L209.667 94.073ZM209.333 95.13H210.267C210.267 95.2055 209.333 95.2055 209.333 95.2055V95.13ZM231.667 95.2055H231.467C231.467 95.13 231.667 95.13 231.667 95.13V95.2055ZM229.933 90.902H230.133V91.5815H229.933V90.902ZM229.933 92.3365H230.133V93.016H229.933V92.3365ZM229.733 93.62H227.4V93.469H229.733V93.62ZM222 92.4875H221.8V91.355H222V92.4875ZM222 90.902H221.8V88.2595H222V90.902ZM221.933 87.8065H220.467L221.2 86.9005L221.933 87.8065ZM219.467 82.748H219.667V83.4275H219.467V82.748ZM219.467 84.1825H219.667V84.862H219.467V84.1825ZM219.467 85.617H219.667V86.2965H219.467V85.617ZM213.2 93.469V93.62H210.8V93.469H213.2ZM208.933 90.902H209.133V91.5815H208.933V90.902ZM208.933 92.3365H209.133V93.016H208.933V92.3365ZM208.933 93.6955H209.133V94.375H208.933V93.6955ZM208.933 95.13H209.133C209.133 95.2055 208.933 95.2055 208.933 95.2055V95.13Z" fill="var(--fill-0, #6D6D6D)"/>
<path id="Vector_8" d="M332.267 123.669V123.065H332V122.612H328V122.461H310.933V122.612H306.933V123.065H306.667V123.669H305.467V216.911H333.467V123.669H332.267Z" fill="var(--fill-0, #858586)"/>
<path id="Vector_9" d="M345.133 200V178.784H343.067V178.482H345.133V174.783L323.667 171.083V174.783H319.4V178.482H321.467V178.784H319.333V205.436H314.333V216.761H353.067V200H345.133Z" fill="var(--fill-0, #545455)"/>
<path id="Vector_10" d="M311.2 161.419H301.2L299.067 160.211V217.666H313.267V160.211L311.2 161.419Z" fill="var(--fill-0, #545455)"/>
<path id="Vector_11" d="M268.4 210.871V208.078H259.267H259.6H259.667H260.133H260.8H261.2H261.333H261.733H262.467V204.831H256.6V121.706V117.629V113.174V109.173H255.2V108.947H254.533V108.796H254.333V107.889H254.267V108.796H254V108.418H253.933V108.796H253.867V108.871H253.667V108.418H253.6V108.871H253.533V107.588H253.467V108.871H252.867V108.947H244.333V108.796H244.133V107.889H244.067V108.796H243.8V108.418H243.733V108.796H243.667V108.947H234.267V107.889H234.2V108.947V108.644H233.4V108.947H232.8V109.173H231.6V113.174V117.629V204.605V217.666H234.133H235.8H236.2H236.267H237H237.067H238.2H238.267H239.4H239.467H240.2H240.267H240.667H242.467H242.667H248.933H249.267H250.533H251.133H251.267H251.933H255.2H255.267H256H256.067H256.6H256.8H256.867H257.6H257.667H258.4H258.467H259.2H259.267H260H260.067H260.8H260.867H261.6H261.667H262.4H262.467H263.133H263.267H263.933H264.067H264.733H264.867H265.533H265.667H266.333H266.467H267.133H267.2H267.933H268H268.533H272.533V210.871H268.4Z" fill="var(--fill-0, #CCCCCC)"/>
<path id="Vector_12" d="M127.133 200.679V159.154H126.867H125.4H123.267H122.733H122.333V154.926H120.6H120.067H118.867V153.794V151.755H118.533H117.133H116.8H115.4H115.067H113.667H113.333H111.867H111.6H110.133H109.8H108.4H108.067H106.667H106.333H104.933H104.6H103.133H102.867H101.4H101.067V153.794V154.926H99.0667V154.851H98.5333V154.926H96.3333V154.851H95.8V154.926H93.8H93.2667H92.6V211.777V215.175V217.591H93.8H101.2H101.933H109.333H110H117.4H118.067H125.467H126.333H133.733H134.6V211.777V200.679H127.133Z" fill="var(--fill-0, #545455)"/>
<path id="Vector_13" d="M87.1333 170.328H63.0667V169.648H55.3333V169.271H52.4667V169.648H52V170.328H51.3333V173.877H48.0667V173.423H48V172.744H47.6667V173.423H45.2667V173.877H44.7333V217.591H80.5333V217.516H87.1333V170.328Z" fill="var(--fill-0, #858586)"/>
<path id="Vector_14" d="M150.8 109.928V107.21H149.533V102.378H148.267L137.6 93.6955L126.6 102.378H125.667V107.21H124.733V109.928H122.6V217.364H152.6V109.928H150.8Z" fill="var(--fill-0, #858586)"/>
<path id="Vector_15" d="M174 210.569V210.192H174.067V209.814H174V208.833V208.456V205.36V204.983V201.887V201.509V198.565V198.188V195.998V195.621V192.525V192.148V189.052V188.674V185.579V185.202V182.106V181.729V178.633V178.256V175.16V174.783V171.687V171.309V168.214V167.837V164.741V164.364V161.344V160.966V157.871V157.493V154.398V154.02V150.924V150.547V147.452V147.074V146.017H173.467V143.148V142.771V138.844V138.467V136.429H173.267H173.133H172.667H172.533H172.067H171.933H171.467H171.333H170.8H170.667H170.2H170.067H169.6H169.467H169H168.867H168.4H168.267H168.133V134.314H167.8H167.4H153.867H153.467H153.133V136.429H153.067H152.933H152.467H152.333H151.867H151.733H151.267H151.133H150.667H150.533H150H149.867H149.4H149.267H148.8H148.667H148.2H148.067H147.867H147.8V138.467V138.844V142.771V143.148V146.017H147.867H147.267V147.074V147.452V150.547V150.924V154.02V154.398V157.493V157.871V160.966V161.344V164.364V164.741V167.837V168.214V171.309V171.687V174.783V175.16V178.256V178.633V181.729V182.106V185.202V185.579V188.674V189.052V192.148V192.525V195.621V195.998V196.829H138.4V197.886V198.112H138.467V213.891V214.571V217.44H138.6H138.733H138.8H139.667H139.8H139.933H140V216.232H145.4V217.44H145.533H145.6H145.667H146.4H146.533H146.667H146.733H147.067H147.2H148H148.067H148.867H149H149.867H150H150.867H150.933H151.6H151.8H151.933H152.133H152.6H152.733H153.533H153.667H154.467H154.6H155.467H155.6H156.067H156.333H156.4H156.6H157.133H157.267H158.067H158.133H159H159.133H160H160.067H160.667H161H161.4H161.467H161.733H162.4H162.667H163.067H163.4H163.8H163.933H164.067H164.333H164.4H164.6H164.867H165.267H165.667H166H166.133H166.467H166.8H166.933H167.4H167.733H168.133H174V217.063V215.93V215.553H174.067V215.175H174V214.118V213.741H174.067V213.363H174V212.381V212.004H174.067V211.626H174V210.569Z" fill="var(--fill-0, #545455)"/>
<path id="Vector_16" d="M157.533 163.608V163.457V161.646V160.891V160.664V158.323H142.933H141.933H140.267V158.248H140.2V158.323H134.067H134H133.667H133.533H133.2V158.248H133.133V158.323H132.333V158.248H132.267V158.323H130.067V158.399V160.664V160.891V161.646V163.608V164.439V166.402V167.157V169.12V169.951V171.913V172.668V174.707V175.462V177.198V177.425V178.18V179.992V180.218V180.973V182.861V182.936V183.087V183.691V185.579V185.73V186.485V188.448V188.674V189.203V191.091V191.241V191.317V191.996V193.733V193.959V194.714V196.677V196.753V196.904V197.508V199.32V199.471V199.546V200.226V202.264V202.416V203.019V204.907V204.982V205.058V205.737V207.549V207.701V207.776V208.531V209.135V209.211V209.286H130.133V211.853H128V212.608V212.684V213.439V217.516H128.333H128.467H129.333H129.467H130.133H130.333H130.4H131.333H131.4H132.267H132.333H133.2H133.333H134.2H134.333H135.2H135.333H136.2H136.333H136.667H137.2H137.333H138.2H138.267H139.2H139.267H139.733H140.2H140.267H141.2H141.267H142.2H142.267H142.8H142.933H143.267H143.4H143.733H143.8H144.2H144.267H144.6H144.733H145.067H145.133H145.467H145.6H145.933H146H146.4H146.467H146.8H146.933H147.267H147.4H147.667H147.8H148.133H148.267H148.6H148.667H148.8H149.067H157.533V216.761V216.534V214.646V213.891V213.816V213.589V211.702V210.947V210.721V209.211V208.531V207.776V207.701V207.549V205.737V205.058V204.907V203.019V202.416V202.264V200.226V199.546V199.32V197.508V196.904V196.677V194.714V193.959V193.733V191.996V191.317V191.091V189.203V188.674V188.448V186.485V185.73V185.579V183.691V183.238V183.087V182.861V180.973V180.218V179.992V178.18V177.425V177.198V175.462V174.782V174.631V174.556V172.668V171.913V171.687V169.951V169.196V168.969V167.157V166.553V166.326V164.439V163.608Z" fill="var(--fill-0, #545455)"/>
<path id="Vector_17" d="M70 209.966V208.531H68.4V180.596H66.4667V179.917H58.9333V180.596H56.9333V208.531H41.5333V185.353H39.8667V184.748H39.4V184.371H39.1333V184.748H34.8667V184.598H33.9333V183.541H33.7333V184.598H33.5333V184.748H33.2667V185.353H31.5333V208.531H30.8V209.966H29.8667V217.742H70.9333V209.966H70Z" fill="var(--fill-0, #545455)"/>
<path id="Vector_18" d="M157.533 163.608V163.457V161.646V160.891V160.664V158.323H142.933H141.933H140.267V158.248H140.2V158.323H134.067H134H133.667H133.533H133.2V158.248H133.133V158.323H132.333V158.248H132.267V158.323H130.067V158.399V160.664V160.891V161.646V163.608V164.439V166.402V167.157V169.12V169.951V171.913V172.668V174.707V175.462V177.198V177.425V178.18V179.992V180.218V180.973V182.861V182.936V183.087V183.691V185.579V185.73V186.485V188.448V188.674V189.203V191.091V191.241V191.317V191.996V193.733V193.959V194.714V196.677V196.753V196.904V197.508V199.32V199.471V199.546V200.226V202.264V202.416V203.019V204.907V204.982V205.058V205.737V207.549V207.701V207.776V208.531V209.135V209.211V209.286H130.133V211.853H128V212.608V212.684V213.439V217.516H128.333H128.467H129.333H129.467H130.133H130.333H130.4H131.333H131.4H132.267H132.333H133.2H133.333H134.2H134.333H135.2H135.333H136.2H136.333H136.667H137.2H137.333H138.2H138.267H139.2H139.267H139.733H140.2H140.267H141.2H141.267H142.2H142.267H142.8H142.933H143.267H143.4H143.733H143.8H144.2H144.267H144.6H144.733H145.067H145.133H145.467H145.6H145.933H146H146.4H146.467H146.8H146.933H147.267H147.4H147.667H147.8H148.133H148.267H148.6H148.667H148.8H149.067H157.533V216.761V216.534V214.646V213.891V213.816V213.589V211.702V210.947V210.721V209.211V208.531V207.776V207.701V207.549V205.737V205.058V204.907V203.019V202.416V202.264V200.226V199.546V199.32V197.508V196.904V196.677V194.714V193.959V193.733V191.996V191.317V191.091V189.203V188.674V188.448V186.485V185.73V185.579V183.691V183.238V183.087V182.861V180.973V180.218V179.992V178.18V177.425V177.198V175.462V174.782V174.631V174.556V172.668V171.913V171.687V169.951V169.196V168.969V167.157V166.553V166.326V164.439V163.608Z" fill="var(--fill-0, #545455)"/>
<path id="Vector_19" d="M188.867 177.048V176.897V175.538V175.009V174.934V174.858V173.046H174.267H173.267H171.6H171.467H165.4H165.333H164.933H164.867H164.533H164.467H163.667H163.6H161.4V173.122V174.858V174.934V175.009V175.538V177.048V177.652V179.162V179.69V181.2V181.804V183.239V183.843V185.353V185.957V187.24V187.391V187.995V189.354V189.505V190.109V191.544V191.695V192.148V193.506V193.658V194.186V195.696V195.847V196.3V197.735V197.81V197.886V198.339V199.698V199.849V200.453V201.887V201.963V202.038V202.491V203.85V204.001V204.605V206.04V206.115V206.266V206.644V208.078V208.154V208.229V208.758V210.041V210.192V210.268V210.796V211.249V211.325V211.4H161.467V213.288H159.333V213.892V214.496V217.591H159.667H159.8H160.667H160.733H161.467H161.667H161.733H162.667H162.733H163.533H163.667H164.533H164.667H165.533H165.667H166.533H166.667H167.533H167.6H167.933H168.533H168.6H169.533H169.6H170.533H170.6H171.067H171.533H171.6H172.533H172.6H173.467H173.6H174.133H174.267H174.6H174.733H175H175.133H175.467H175.6H175.933H176H176.4H176.467H176.8H176.933H177.267H177.333H177.733H177.8H178.133H178.2H178.6H178.667H179H179.067H179.467H179.533H179.933H180H180.133H180.333H188.867V216.987V216.836V215.402V214.798V214.647V213.212V212.608V212.457V211.325V210.796V210.268V210.192V210.041V208.758V208.229V208.078V206.644V206.266V206.04V204.605V204.001V203.85V202.491V202.038V201.887V200.453V199.849V199.698V198.339V197.886V197.735V196.3V195.847V195.696V194.186V193.658V193.506V192.148V191.77V191.695V191.544V190.109V189.505V189.354V187.995V187.391V187.24V185.957V185.428V185.277V183.843V183.239V183.088V181.804V181.2V181.049V179.69V179.237V179.086V177.652V177.048Z" fill="var(--fill-0, #6D6D6D)"/>
<path id="Vector_20" d="M50.2667 217.515H50.1333C50.1333 217.44 50 217.364 49.8667 217.364C49.8667 217.364 49.8667 217.289 49.8 217.289C49.7333 217.138 49.5333 216.987 49.3333 216.987C49.1333 216.987 49 217.063 48.8667 217.214C48.6667 216.912 48.3333 216.685 48 216.685C47.6667 216.685 47.8 216.685 47.7333 216.685C47.7333 216.458 47.6 216.307 47.4 216.307C47.2 216.307 47.1333 216.383 47.0667 216.534C46.8 216.232 46.4667 216.081 46.0667 216.081C45.6667 216.081 45.9333 216.081 45.9333 216.081C45.8667 216.006 45.7333 215.93 45.6 215.93C45.4667 215.93 45.4667 215.93 45.4 215.93C45.2667 215.628 45 215.477 44.7333 215.477C44.4667 215.477 44 215.854 44 216.232C43.7333 216.005 43.3333 215.854 43 215.854C42.6667 215.854 42.6667 215.854 42.5333 215.854C42.5333 215.854 42.5333 215.854 42.4667 215.854C42.4 215.854 42.4667 215.854 42.4 215.854C42.4 215.854 42.4 215.854 42.3333 215.854C42.2667 215.854 42.2667 215.854 42.2 215.854C42.0667 215.703 41.8667 215.552 41.6667 215.552C41.4667 215.552 41.2 215.703 41.0667 215.93C40.9333 215.779 40.7333 215.779 40.5333 215.779C40.0667 215.779 39.6667 216.156 39.6 216.685C39.6 216.685 39.5333 216.685 39.4667 216.76C39.4 216.609 39.2667 216.534 39.1333 216.534C39 216.534 39 216.534 39 216.534C38.9333 216.232 38.6667 216.081 38.4 216.081C38.1333 216.081 38.0667 216.156 37.9333 216.307C37.8667 216.156 37.7333 216.005 37.5333 216.005C37.3333 216.005 37.0667 216.232 37.0667 216.534C36.8667 216.534 36.7333 216.609 36.6 216.76C36.6 216.76 36.4667 216.609 36.3333 216.609C36.2 216.609 36.0667 216.685 36 216.836C36 216.836 36 216.836 35.9333 216.836C35.8667 216.836 35.8 216.836 35.7333 216.987C35.4667 216.987 35.2 217.213 35.1333 217.515H50.6C50.6 217.364 50.4667 217.289 50.3333 217.289L50.2667 217.515Z" fill="var(--fill-0, #858586)"/>
<path id="Vector_21" d="M74.0667 217.214C74.0667 217.214 73.9333 217.214 73.8667 217.214C73.8 217.138 73.6667 216.987 73.5333 216.987C73.5333 216.987 73.5333 216.836 73.4 216.836C73.2667 216.61 73.0667 216.459 72.8667 216.459C72.6667 216.459 72.4667 216.609 72.3333 216.76C72.0667 216.383 71.6667 216.156 71.2667 216.156C70.8667 216.156 71.0667 216.156 70.9333 216.156C70.9333 215.93 70.7333 215.704 70.5333 215.704C70.3333 215.704 70.2 215.854 70.1333 216.005C70.1333 216.005 70.1333 216.005 70.0667 216.005C69.7333 215.628 69.3333 215.401 68.8667 215.401C68.4 215.401 68.7333 215.401 68.6667 215.401C68.6 215.25 68.4667 215.175 68.2667 215.175C68.0667 215.175 68.0667 215.175 68 215.25C67.8667 214.873 67.5333 214.646 67.1333 214.646C66.7333 214.646 66.2667 215.099 66.2 215.628C65.8667 215.326 65.4 215.175 64.9333 215.175C64.4667 215.175 64.5333 215.175 64.4 215.25C64.4 215.25 64.4 215.25 64.3333 215.25C64.2667 215.25 64.2667 215.25 64.2667 215.25C64.2667 215.25 64.2 215.25 64.1333 215.25C64.0667 215.25 64 215.25 64 215.25C63.8667 215.024 63.6 214.873 63.3333 214.873C63.0667 214.873 62.7333 215.024 62.6 215.326C62.4 215.175 62.2 215.099 61.9333 215.099C61.3333 215.099 60.8667 215.552 60.7333 216.232C60.7333 216.232 60.6 216.232 60.6 216.383C60.5333 216.232 60.3333 216.081 60.1333 216.081C59.9333 216.081 60 216.081 59.9333 216.081C59.8667 215.704 59.5333 215.477 59.2 215.477C58.8667 215.477 58.8 215.552 58.6667 215.779C58.6 215.552 58.4 215.401 58.1333 215.401C57.8667 215.401 57.6 215.703 57.6 216.005C57.6 216.005 57.6 216.005 57.5333 216.005C57.3333 216.005 57.1333 216.081 57 216.232C56.9333 216.156 56.8 216.081 56.6667 216.081C56.5333 216.081 56.3333 216.156 56.2667 216.383C56.2667 216.383 56.2667 216.383 56.2 216.383C56.1333 216.383 56 216.383 56 216.534C55.6667 216.534 55.3333 216.836 55.2667 217.214H74.4C74.4 217.063 74.2 216.987 74.0667 216.987V217.214Z" fill="var(--fill-0, #59595A)"/>
<path id="Vector_22" d="M95.4667 89.4675V89.996V92.7895V93.8465V94.9035V217.516H96H103.2V217.742H103.933V217.516H111.467V217.742H112.133V217.591H113.067V217.516H119.467H119.867V217.44V200.377V116.346V94.9035V93.8465V92.7895V89.996V89.4675H95.4667Z" fill="var(--fill-0, #CCCCCC)"/>
<path id="Vector_23" d="M364.4 210.796V209.664H354.533V210.796H347.733V196.074H345.6V194.564H342.333V193.054H341.333V192.903H341.2C341.2 192.827 341.133 192.752 341 192.676H341.067V192.525H340.867C340.733 192.374 340.533 192.299 340.333 192.148H340.4V191.997H340C339.733 191.846 339.4 191.77 339.067 191.695H339.133V191.544H335.867V191.695H335.933C335.6 191.77 335.267 191.846 335 191.997H334.6V192.148H334.667C334.467 192.223 334.333 192.374 334.133 192.525H333.933V192.676C333.933 192.752 333.8 192.827 333.8 192.903H333.733V193.054H332.733V194.564H327.933V196.074H325.733V197.584H324.067V199.32C324.067 199.396 323.067 199.396 323.067 199.396V210.796H318.2V217.742H366.133V210.796H364.333H364.4Z" fill="var(--fill-0, #6D6D6D)"/>
<path id="Vector_24" d="M283.467 155.53H281.267V149.188V147.451H278.867H278.6V147.301V145.488H276.4H276H272.067H271.8H271.733V146.168H271.467V145.488H267.2H264.6V147.301V147.451H264.333H264.267H264H261.933V150.396V152.359V153.567V155.53H259.733H258.933V156.662V158.701V159.833V161.947V163.156V165.269V166.251V166.402V168.516V169.648V171.762V172.895V175.009V176.141V178.256V179.463V181.577V182.71V184.824V185.956V188.146V189.354V191.317V192.449V194.186V195.319V197.281V198.489V200.452V201.661V203.624V204.756V206.87V208.078V210.192V211.324V213.439V214.571V216.685V217.817V217.969H261.933V217.817H268.933V217.969H269.2V217.817H269.267V217.969H269.533V217.817H273.933V217.969H274.267V217.817V217.969H274.6V217.817H281.267V217.969H284.267V217.817V216.685V214.571V213.439V211.324V210.192V208.078V206.87V204.756V203.624V201.661V200.452V198.489V197.281V195.319V194.186V192.449V191.317V189.354V188.146V185.956V184.824V182.71V181.577V179.463V178.256V176.141V175.009V172.895V171.762V169.648V168.516V166.402V166.251V165.269V163.156V161.947V159.833V158.701V156.662V155.53H283.467Z" fill="var(--fill-0, #545455)"/>
<path id="Vector_25" d="M142 126.991V126.311H141.667V125.707H140H136.8H135.067V126.991H121.867V127.066V217.44V217.516H142.733V217.44V217.364V127.066V126.991H142Z" fill="var(--fill-0, #CCCCCC)"/>
<path id="Vector_26" d="M308 210.494V207.247H306.067V170.252H299.8V149.867H297.333V144.582H295.933V138.92H295V138.241H294.733V138.92H293.8V130.766H293.733V130.464H293.8V130.313C293.8 130.238 291.267 130.237 291.267 130.237L290.533 121.555H290.667V121.177V120.8H290.533C290.533 120.8 290.4 120.724 290.4 120.649V120.498H290.267C290.267 120.423 290.267 120.422 290.267 120.422V120.271C290.267 120.196 290.267 120.196 290.267 120.196V120.045C290.267 119.969 290.267 119.969 290.267 119.969V119.818C290.267 119.743 290.267 119.743 290.267 119.743V119.592C290.267 119.516 290.267 119.516 290.267 119.516V119.366C290.267 119.29 290.267 119.29 290.267 119.29V119.139C290.267 119.063 290.267 119.063 290.267 119.063V118.912C290.267 118.837 290.267 118.837 290.267 118.837V118.686C290.267 118.61 290.267 118.611 290.267 118.611V118.459C290.267 118.384 290.267 118.384 290.267 118.384V118.233C290.267 118.158 290.267 118.157 290.267 118.157V118.006C290.267 117.931 290.267 117.931 290.267 117.931V117.78C290.267 117.704 290.267 117.704 290.267 117.704V117.553C290.267 117.478 290.267 117.478 290.267 117.478V117.327C290.267 117.251 290.267 117.251 290.267 117.251V117.101C290.267 117.025 290.267 117.025 290.267 117.025V116.874C290.267 116.798 290.267 116.798 290.267 116.798V116.647C290.267 116.572 290.267 116.572 290.267 116.572V116.421C290.267 116.345 290.267 116.346 290.267 116.346H290.2V116.043H290.133V116.346H290C290 116.421 290 116.421 290 116.421V116.572C290 116.647 290 116.647 290 116.647V116.798C290 116.874 290 116.874 290 116.874V117.025C290 117.1 290 117.101 290 117.101V117.251C290 117.327 290 117.327 290 117.327V117.478C290 117.554 290 117.553 290 117.553V117.704C290 117.78 290 117.78 290 117.78V117.931C290 118.006 290 118.006 290 118.006V118.157C290 118.233 290 118.233 290 118.233V118.384C290 118.459 290 118.459 290 118.459V118.611C290 118.686 290 118.686 290 118.686V118.837C290 118.912 290 118.912 290 118.912V119.063C290 119.139 290 119.139 290 119.139V119.29C290 119.365 290 119.366 290 119.366V119.516C290 119.592 290 119.592 290 119.592V119.743C290 119.819 290 119.818 290 119.818V119.969C290 120.045 290 120.045 290 120.045V120.196C290 120.271 290 120.271 290 120.271V120.422C290 120.498 290 120.498 290 120.498H289.867V120.649C289.867 120.649 289.733 120.649 289.667 120.8H289.533V121.177V121.555H289.667L288.933 130.237H286.333V130.388C286.333 130.464 286.4 130.464 286.4 130.464V130.766H286.333V138.92H285.333V138.241H285.067V138.92H284.133V144.582H282.733V149.867H280.267V170.252H274V207.247H272.067V217.666H307.867V210.494H308ZM287.867 130.539H289V130.841H287.867V130.539ZM291.267 130.841V130.539H291.933V130.841H291.267ZM293.6 130.841H292V130.539H293.6V130.841ZM286.533 130.539H287.8V130.841H286.533V130.539Z" fill="var(--fill-0, #6D6D6D)"/>
<path id="Vector_27" d="M122.2 217.742C122.067 217.289 121.867 216.911 121.533 216.609C122.067 216.534 122.4 216.005 122.4 215.401C122.4 214.797 121.933 214.194 121.333 214.194C120.733 214.194 120.267 214.722 120.267 215.401C120.267 216.081 120.267 215.628 120.267 215.779C120.2 215.779 120.133 215.854 120.067 215.93C120.067 215.93 119.933 215.854 119.867 215.854C119.733 215.854 119.533 216.005 119.533 216.156C119.133 216.307 118.733 216.609 118.467 216.987C118.467 216.987 118.333 216.987 118.267 216.987C118.133 216.987 118.067 216.987 118 217.138C118 216.912 117.8 216.685 117.6 216.685C117.4 216.685 117.4 216.685 117.333 216.761C117.267 216.383 117 216.156 116.667 216.156C116.667 216.005 116.533 215.854 116.4 215.854C116.2 214.646 115.267 213.665 114.133 213.665C113 213.665 113.267 213.816 112.867 214.118C112.6 213.59 112.067 213.212 111.533 213.212C111 213.212 110.6 213.438 110.333 213.891C110.267 213.816 110.2 213.741 110.067 213.741C109.933 213.741 109.933 213.741 109.867 213.816C109.867 213.741 109.8 213.665 109.667 213.665C109.533 213.665 109.533 213.665 109.467 213.816C109.133 213.741 108.8 213.665 108.4 213.665C107.467 213.665 106.667 213.967 106 214.571C105.933 213.514 105.133 212.759 104.2 212.759C103.267 212.759 102.933 213.212 102.6 213.891C102.467 213.816 102.267 213.741 102.133 213.741C101.8 213.741 101.533 213.892 101.4 214.194C101.267 214.194 101.133 214.194 101 214.194C100.067 214.194 99.2667 214.647 98.6667 215.251C98.6667 215.251 98.6667 215.251 98.6 215.251C98.6 215.251 98.5333 215.251 98.4667 215.251C98.3333 214.949 98.0667 214.646 97.7333 214.646C97.4 214.646 96.9333 215.024 96.9333 215.552C96.9333 216.081 96.9333 215.628 96.9333 215.704C96.7333 215.704 96.5333 215.628 96.3333 215.628C95.4667 215.628 94.7333 216.081 94.2667 216.836C94.0667 216.459 93.6667 216.232 93.2667 216.232C92.8667 216.232 92.4 216.534 92.2 216.911C92.2 216.911 92.2 216.911 92.1333 216.911C92 216.911 91.9333 216.987 91.8667 217.138C91.6 217.138 91.4 217.365 91.2667 217.591C91.2 217.591 91.0667 217.516 90.9333 217.516C90.6667 217.516 90.4 217.742 90.3333 217.969H122.133L122.2 217.742Z" fill="var(--fill-0, #858586)"/>
<path id="Vector_28" d="M192.667 217.742C192.867 216.911 193.333 216.156 193.933 215.552C193 215.326 192.267 214.42 192.267 213.287C192.267 212.155 193.2 211.022 194.267 211.022C195.333 211.022 196.267 212.079 196.267 213.287C196.267 214.495 196.267 213.74 196.2 213.967C196.333 213.967 196.467 214.118 196.533 214.269C196.667 214.193 196.8 214.118 196.933 214.118C197.267 214.118 197.533 214.344 197.6 214.722C198.4 215.024 199.067 215.552 199.6 216.232C199.733 216.232 199.8 216.156 199.933 216.156C200.133 216.156 200.333 216.232 200.467 216.459C200.467 216.006 200.8 215.552 201.267 215.552C201.733 215.552 201.6 215.553 201.733 215.704C201.867 215.024 202.4 214.495 203 214.495C203 214.193 203.2 213.967 203.467 213.967C203.8 211.626 205.6 209.89 207.733 209.89C209.867 209.89 209.4 210.192 210.133 210.72C210.667 209.739 211.6 209.059 212.733 209.059C213.867 209.059 214.467 209.512 215.067 210.267C215.2 210.116 215.4 210.041 215.6 210.041C215.8 210.041 215.933 210.041 216 210.192C216 210.041 216.2 209.965 216.333 209.965C216.467 209.965 216.6 210.041 216.667 210.192C217.333 209.965 217.933 209.89 218.667 209.89C220.4 209.89 221.933 210.494 223.2 211.626C223.333 209.663 224.8 208.154 226.6 208.154C228.4 208.154 229.067 208.984 229.6 210.267C229.867 210.116 230.2 209.965 230.533 209.965C231.133 209.965 231.667 210.268 231.933 210.796C232.133 210.796 232.4 210.796 232.667 210.796C234.4 210.796 236 211.551 237.133 212.834C237.133 212.834 237.2 212.834 237.267 212.834C237.333 212.834 237.467 212.834 237.533 212.834C237.733 212.23 238.267 211.702 238.933 211.702C239.6 211.702 240.4 212.457 240.4 213.363C240.4 214.269 240.4 213.514 240.4 213.589C240.8 213.514 241.133 213.439 241.533 213.439C243.133 213.439 244.6 214.345 245.467 215.704C245.867 215.024 246.6 214.571 247.4 214.571C248.2 214.571 249 215.099 249.4 215.854H249.533C249.733 215.854 249.933 216.081 250 216.307C250.467 216.458 250.867 216.76 251.133 217.138C251.333 216.987 251.533 216.911 251.8 216.911C252.333 216.911 252.8 217.289 252.933 217.817H192.667V217.742Z" fill="var(--fill-0, #858586)"/>
<path id="Vector_29" d="M291.4 217.742C291.467 217.515 291.733 217.289 291.933 217.289C292.067 217.289 292.133 217.289 292.2 217.364C292.4 216.836 292.867 216.383 293.4 216.383C293.733 216.383 294 216.534 294.267 216.76C294.533 216.534 294.933 216.383 295.333 216.383C295.533 216.383 295.733 216.383 295.933 216.534C296.333 215.099 297.467 214.118 298.8 214.118C299.467 214.118 300.133 214.42 300.6 214.873C301.2 214.495 301.867 214.344 302.6 214.344C303.467 214.344 304.267 214.646 304.933 215.175C305.4 213.363 306.8 211.928 308.467 211.626C309.533 209.059 311.867 207.323 314.533 207.399C317.4 207.399 319.8 209.512 320.733 212.381C320.933 212.381 321.067 212.381 321.267 212.381C322.6 212.381 323.867 212.985 324.8 213.891C325.4 213.438 326.133 213.212 326.933 213.212C328.667 213.212 330.133 214.571 330.533 216.383C331.067 215.703 331.8 215.25 332.667 215.25C333.533 215.25 334.333 215.779 334.8 216.459C334.667 215.855 334.533 215.175 334.533 214.495C334.533 210.947 337.133 208.078 340.267 208.078C343.133 208.078 345.533 210.569 345.867 213.74C346.333 213.514 346.867 213.439 347.4 213.439C347.667 213.439 347.933 213.438 348.2 213.514C348.733 211.475 350.467 209.966 352.4 210.041C354.733 210.041 356.667 212.155 356.733 214.797C357.067 214.873 357.4 215.024 357.667 215.25C357.867 214.042 358.8 213.136 359.933 213.136C360.667 213.136 361.333 213.59 361.733 214.194C362.933 214.571 363.733 215.854 363.733 217.289C363.733 217.44 363.733 217.591 363.733 217.666H291.4V217.742Z" fill="var(--fill-0, #858586)"/>
<path id="Vector_30" d="M200.6 209.89V209.286H199.467V208.833H198.467V135.824C202.133 134.39 204.8 130.464 204.8 125.934C204.8 121.404 200.533 115.364 195.333 115.364C190.133 115.364 192.533 115.742 191.333 116.346C188.133 118.007 185.867 121.631 185.867 125.859C185.867 130.087 188.533 134.39 192.2 135.824V208.758H191.133V209.211H190V209.814H175.6V202.944C175.6 202.944 175.6 202.944 175.6 202.793V199.924C175.6 199.848 174.267 199.849 174.267 199.849H168.6V199.471V199.32V198.188V195.319C168.6 195.243 168.6 195.243 168.6 195.243H167.267H161.6V193.204V190.336C161.6 190.26 160.267 190.26 160.267 190.26H158.467H155.867V173.424C155.867 173.348 155.6 173.348 155.6 173.348H146.733C146.733 173.424 146.733 173.424 146.733 173.424V173.952V174.103V174.556V174.707V175.16V175.311V175.764V175.915V176.368V176.519V176.67H143.4V179.614H136.6V184.899H127.2V190.184H118.667V193.582C118.667 193.657 113.8 193.658 113.8 193.658V196.678H110.333V209.588C110.333 209.664 103.2 209.664 103.2 209.664C103.2 209.739 110.333 209.739 110.333 209.739H109.8H103.133V210.268V210.419V210.796V210.947V212.533V212.684V217.666H118.6H119.067H119.2H119.867H120.333H120.733C120.733 217.742 121.133 217.742 121.133 217.742C121.133 217.666 121.133 217.666 121.133 217.666H129.333H137.933H144.733H206.4V215.93V211.174V209.89C206.4 209.815 200.667 209.814 200.667 209.814L200.6 209.89ZM189.333 130.766L190.067 130.389C190.067 130.389 190.067 130.389 190.133 130.464C190.667 131.295 191.4 131.974 192.2 132.427L189.333 130.766ZM192 132.956L190.4 133.559L189.933 132.956L189.467 131.37L192 132.956ZM195.067 118.611H194.267V119.819L193.533 119.517V118.611L195.133 118.007V118.611H195.067ZM201.133 120.724L198.4 122.159V118.988L201.133 120.649V120.724ZM198.4 118.611L200 118.007L200.467 118.611L200.933 120.196L198.4 118.611ZM193.467 204.983V203.85H194.2V205.964H193.467V204.983ZM193.467 201.887V199.849H194.2V203.397H193.467V201.887ZM193.467 198.263V197.131H194.2V199.396H193.467V198.263ZM193.467 185.654V184.673H194.2V187.089H193.467V185.579V185.654ZM193.467 183.616V181.502H194.2V184.371H193.467V183.616ZM193.467 171.461V169.347H194.2V171.461H193.467ZM193.467 167.837V166.402H194.2V168.894H193.467V167.837ZM197.067 167.837V168.894H196.333V166.402H197.067V167.837ZM197.067 169.951V171.461H196.333V169.347H197.067V169.951ZM197.067 182.031V184.296H196.333V181.427H197.067V182.031ZM197.067 185.654V187.164H196.333V184.749H197.067V185.73V185.654ZM197.067 198.263V199.396H196.333V197.131H197.067V198.263ZM197.067 201.359V203.397H196.333V199.849H197.067V201.359ZM197.067 204.983V205.964H196.333V203.85H197.067V204.983ZM197.067 134.843V135.145L196.333 134.843V134.088H197.067V134.843ZM196.333 135.9V135.372C196.333 135.296 197.067 135.598 197.067 135.598V135.824C196.8 135.824 196.6 135.9 196.333 135.976V135.9ZM196.333 133.333C196.533 133.333 196.8 133.257 197 133.182L196.333 133.484V133.333ZM194.267 133.409L193.533 133.107C193.8 133.107 194 133.258 194.267 133.258V133.409ZM197.067 133.635H196.733L197.067 133.484V133.635ZM197.067 122.839L196.333 123.141V122.839H197.067ZM194.267 123.141L193.6 122.839H194.267V123.141ZM193.467 133.559L193.8 133.711H193.467V133.559ZM193.467 134.843V134.088H194.2V134.843L193.467 135.221V134.843ZM194.267 135.372V135.9C194 135.9 193.733 135.825 193.533 135.749V135.523L194.267 135.221V135.372ZM193.467 120.121V119.969L193.8 120.121H193.467ZM201.533 128.35V127.519L202.2 127.897V128.577L201.533 128.803V128.35ZM201.533 127.067V124.726L202 124.499L202.133 127.444L201.467 127.067H201.533ZM201.533 124.273V123.216H198.4V122.989L201.8 122.763L201.933 124.047L201.467 124.198L201.533 124.273ZM198.467 122.612L201.267 121.102L201.667 122.386L198.467 122.612ZM197.067 120.121H196.733L197.067 119.969V120.121ZM192.133 119.29L190.733 119.819L190.867 119.064H192.133V119.366V119.29ZM192.133 119.743V122.234L190.4 121.933L190.667 120.272L192.133 119.743ZM192.133 122.612V123.216H190.333V122.31L192.133 122.612ZM190.067 121.857L188.333 122.537V121.253C188.4 121.253 188.467 121.102 188.467 121.102L190.333 120.423L190.067 121.857ZM190 122.31V123.216H189.067V124.122L188.2 123.669V122.989L190 122.31ZM189.067 124.575V126.764L188.4 127.067L188.267 124.122L189.067 124.575ZM189.067 127.218V128.652H188.6L188.467 127.519L189.067 127.293V127.218ZM189.067 129.029V129.634H189.533C189.533 129.785 189.667 129.86 189.733 130.011C189.733 130.011 189.733 130.011 189.733 130.087L189.067 130.464L188.6 129.105H189L189.067 129.029ZM198.467 135.372V134.239L199 135.145C198.8 135.221 198.667 135.296 198.467 135.372ZM199.533 132.654L199.267 134.843L198.467 133.559V132.578C198.6 132.503 198.8 132.352 198.933 132.276L199.667 131.974L199.533 132.654ZM199.6 134.768L199.867 132.956L201.267 133.484C200.733 134.013 200.2 134.39 199.6 134.768ZM201.4 133.107L199.933 132.578L200.067 131.748H200.2L201.6 132.503L201.467 133.107H201.4ZM200.667 131.521L201.867 131.068L201.667 132.049L200.667 131.521ZM201.867 132.88V132.729H201.933C201.933 132.729 201.933 132.805 201.867 132.88ZM200.133 131.294V130.993C200.267 130.842 200.4 130.69 200.533 130.539C200.667 130.388 200.733 130.238 200.8 130.087C200.8 130.087 200.8 130.087 200.8 130.011C200.867 129.86 200.933 129.785 201 129.634H201.467V129.256L202.067 129.029V130.313C202 130.313 201.933 130.615 201.933 130.615L200.133 131.294ZM202.2 132.427L202 132.276L202.333 130.917L203.067 131.144C202.8 131.597 202.533 132.049 202.2 132.427ZM203.2 130.766L202.333 130.539C202.333 130.464 202.333 130.464 202.333 130.464L202.4 129.181L203.6 129.86C203.467 130.238 203.333 130.54 203.2 130.842V130.766ZM203.8 129.332L202.533 128.652V127.897L204.267 127.067C204.2 127.897 204 128.652 203.8 129.332ZM204.333 125.934C204.333 126.161 204.333 126.387 204.333 126.614L202.6 127.444L202.467 124.575L204.333 125.406V125.254C204.333 125.481 204.4 125.708 204.4 125.934H204.333ZM204.267 124.953L202.333 124.122L202.2 122.763L203.667 122.159C204 123.065 204.2 124.047 204.333 125.028L204.267 124.953ZM203.467 121.706L202.067 122.31L201.667 121.027H203.2C203.333 121.253 203.4 121.48 203.533 121.706H203.467ZM202.933 120.574H201.867L202.467 119.819C202.6 120.045 202.8 120.272 202.933 120.574ZM202.267 119.517L201.467 120.423L200.8 118.309L200 117.252C200.867 117.856 201.667 118.611 202.333 119.441L202.267 119.517ZM199.067 116.799L199.733 117.704L198.2 118.309V116.421C198.467 116.572 198.8 116.648 199.067 116.799ZM195.4 115.893C196.067 115.893 196.733 116.043 197.4 116.194L195.4 117.025V115.893ZM195.4 117.403L197.8 116.421V118.384L195.4 117.478V117.403ZM197.067 118.611V119.517L196.333 119.819V118.611H195.467V117.931L197.133 118.611H197.067ZM195.067 115.893V116.949L193.2 116.194C193.8 116.043 194.467 115.893 195.067 115.893ZM193 116.572L195.067 117.403V117.554L192.867 118.459L193 116.572ZM191.533 116.799C191.867 116.648 192.2 116.497 192.533 116.346H192.6L192.467 118.384L191.333 117.478L191.533 116.723V116.799ZM192.067 118.535H191L191.2 117.931L192.067 118.535ZM191.067 117.025V117.252C191 117.252 190.867 117.176 190.867 117.176C190.933 117.176 191 117.101 191.067 117.025ZM190.533 117.403L190.933 117.704L190.667 118.611L189.6 118.233C189.933 117.931 190.267 117.705 190.6 117.478L190.533 117.403ZM188.933 118.762C189 118.686 189.133 118.61 189.2 118.459L190.533 118.913L190.4 119.819L188.933 118.988V118.686V118.762ZM188.8 119.441L189.933 120.121L188.533 120.649L188.8 119.441ZM188.4 119.366L188 121.102V122.386C187.933 122.386 186.933 121.857 186.933 121.857C187.333 120.951 187.8 120.045 188.4 119.29V119.366ZM186.867 122.31L187.933 122.914V123.669L186.333 124.349C186.467 123.594 186.6 122.914 186.867 122.234V122.31ZM186.2 125.934C186.2 125.557 186.2 125.179 186.2 124.877L187.8 124.122L187.933 126.991L186.133 126.236C186.133 126.161 186.133 126.085 186.133 126.009L186.2 125.934ZM186.267 126.614L188.067 127.369L188.2 128.728L186.733 129.407C186.467 128.501 186.267 127.595 186.2 126.614H186.267ZM186.933 129.86L188.333 129.256L189.6 133.258L190.8 134.843C189.067 133.711 187.667 132.05 186.867 129.936L186.933 129.86ZM191.733 135.221L190.733 133.862L192.2 133.333V135.372C192.067 135.372 191.933 135.296 191.733 135.221ZM128.333 185.051H127.933H127.133H128.333Z" fill="var(--fill-0, white)"/>
<path id="Vector_31" d="M279.667 183.012H278.867H278.733H277.933H277.8H277H276.867H276.067H276H275.933H275.067H275H274.133H274H273.2H273.067H272.267H272.133H271.333H271.2H270.4H270.267H269.467H269.333H268.467H268.4H267.533H267.467H266.6H266.467H265.667V182.634H261.8V183.012V217.893H261.933V217.969H275.067H276.067H279.8V217.893V216.911V216.685V215.779V215.552V214.722V214.495V213.287V213.061V212.23V212.004V211.098V210.947V210.041V209.814V208.984V208.757V207.927V207.701V206.794V206.644V205.737V205.586V204.681V204.454V203.624V203.397V202.566V202.34V201.434V201.283V200.377V200.151V199.32V199.094V198.263V198.036V197.131V196.979V196.074V195.847V195.016V194.79V193.959V193.733V192.827V192.676V191.77V191.619V190.713V190.486V189.656V189.429V188.523V188.372V187.466V187.316V186.409V186.183V185.352V185.126V184.296V184.069V183.163V183.012H279.667Z" fill="var(--fill-0, white)"/>
<path id="Vector_32" d="M57.6 214.043V213.589H56.5333V212.834H56.2667V210.721C56.2667 210.645 56.2667 210.569 56.2667 210.494C56.1333 210.041 56 209.588 55.8667 209.211L54.8 195.168V194.941H54.7333L54.4667 190.939C54.4667 190.864 54.4667 190.789 54.4667 190.713L54 184.22V183.993L53.6667 179.388V177.425C53.2667 176.972 53.0667 176.745 52.6667 176.217H52.4C52 176.67 51.8 176.972 51.4 177.425L50.9333 183.238L50.0667 194.866C50.0667 194.941 49.9333 196.602 49.9333 196.602C49.9333 196.677 48.9333 209.588 48.9333 209.588C48.8667 209.815 48.7333 210.117 48.6667 210.419V212.759H48.4V213.514H47.3333V213.967H44.4V217.666H70.8V213.967H57.8L57.6 214.043ZM50.2667 205.511C50.3333 205.285 50.4 205.058 50.4667 204.907C50.4667 204.907 50.6 204.832 50.6 204.756C50.8667 205.058 51 205.209 51.2667 205.511C51.6667 205.964 51.8667 206.191 52.2 206.644H49.8667C50 206.266 50.0667 205.889 50.2 205.511H50.2667ZM51.2 200.453V201.736H49.6667L51.2 200.301V200.453ZM50.2 196.602L51.2 195.243V196.224H51.4V195.243C51.7333 195.621 51.9333 195.847 52.2667 196.224V196.602H51.4V196.224H51.2V196.602H50.2ZM51.2 196.829V197.734L50.3333 196.829H51.2ZM51.2 191.166V191.77L50.9333 191.393C51 191.317 51.0667 191.242 51.2 191.091V191.166ZM50.8667 191.317L50.6 190.939H51.1333C51 191.09 50.9333 191.166 50.8667 191.317ZM51.8667 180.596C51.7333 180.445 51.6667 180.294 51.6 180.218H52.2C52.0667 180.369 52 180.445 51.8667 180.596ZM52.2667 180.369V181.049C52.2 180.898 52.0667 180.823 52 180.672C52.0667 180.596 52.2 180.445 52.2667 180.369ZM51.7333 180.747C51.6667 180.898 51.5333 180.973 51.4 181.124V180.369C51.4667 180.445 51.6 180.596 51.7333 180.747ZM51.8667 180.898C52 181.049 52.1333 181.276 52.2667 181.427C52 181.804 51.6667 182.181 51.4 182.483V181.427C51.6 181.2 51.7333 181.049 51.8667 180.898ZM51.6667 182.483C51.8667 182.257 52.0667 182.03 52.2667 181.728V182.483H51.6667ZM52.2667 182.71V183.465C52 183.163 51.8667 182.937 51.6 182.71H52.2667ZM51.4 182.786C51.7333 183.163 51.8667 183.389 52.2667 183.767V183.993H51.4V182.786ZM52.2667 184.447V185.126C52.2 184.975 52.0667 184.9 52 184.824C52.0667 184.749 52.2 184.597 52.2667 184.522V184.447ZM51.8667 184.598C51.8 184.522 51.6667 184.371 51.6 184.22H52.2C52.0667 184.371 52 184.447 51.9333 184.598H51.8667ZM51.7333 184.748C51.6 184.899 51.5333 184.975 51.4 185.126V184.371C51.5333 184.522 51.6 184.673 51.7333 184.748ZM51.8667 184.899C52 185.05 52.1333 185.202 52.2667 185.353V186.485H51.4V185.428C51.6 185.202 51.7333 185.05 51.8667 184.899ZM52.2667 186.712V187.467C52 187.165 51.8667 186.938 51.6 186.712H52.2667ZM52.2667 189.958V190.713H51.6C51.8 190.487 52.0667 190.185 52.2667 189.958ZM52.2667 190.939V191.694C52 191.392 51.8667 191.166 51.6 190.939H52.2667ZM52.2667 189.354C52.2 189.203 52.0667 189.128 52 188.977C52.0667 188.901 52.2 188.75 52.2667 188.599V189.278V189.354ZM51.8667 188.826C51.7333 188.675 51.6667 188.599 51.6 188.448H52.2C52.0667 188.599 52 188.675 51.8667 188.826ZM51.7333 188.977C51.6667 189.128 51.5333 189.203 51.4 189.354V188.599C51.4667 188.75 51.6 188.826 51.7333 188.977ZM51.8667 189.128C52 189.279 52.1333 189.429 52.2667 189.656C52 189.958 51.6667 190.336 51.4 190.638V189.656C51.6 189.429 51.7333 189.279 51.8667 189.128ZM52.2667 192.072V192.449H51.6667L51.4 192.072V191.015C51.7333 191.393 51.9333 191.619 52.2667 191.997V192.072ZM51.4667 194.941L52.2667 193.884V194.941H51.4667ZM52.2667 195.168V195.923C52 195.621 51.8667 195.394 51.6 195.168H52.2667ZM52.2667 192.827V193.356L52.0667 193.053C52.0667 193.053 52.2 192.902 52.2667 192.827ZM51.9333 192.903L51.8 192.676H52.1333C52.0667 192.751 52 192.827 51.9333 192.903ZM51.7333 193.129C51.6 193.28 51.5333 193.355 51.4 193.506V192.752C51.5333 192.903 51.6 193.054 51.7333 193.129ZM51.8667 193.28C51.9333 193.356 52.0667 193.506 52.1333 193.582L51.4 194.564V193.809C51.6 193.582 51.7333 193.431 51.8667 193.28ZM52 210.721C51.6667 211.098 51.4 211.4 51.0667 211.778H50.6C50.4667 211.4 50.4 211.023 50.3333 210.721H52ZM51.7333 210.041C51.8667 210.192 52 210.343 52.1333 210.494H51.8C51.8 210.343 51.7333 210.192 51.6667 210.041H51.7333ZM52.2667 210.721V211.778H51.3333C51.6 211.4 51.8667 211.174 52.2667 210.721ZM51.6667 209.814C51.5333 209.361 51.4667 208.984 51.3333 208.456C51.6 208.758 51.9333 209.059 52.3333 209.437V210.494C52.1333 210.267 51.9333 210.041 51.7333 209.89L51.6667 209.814ZM50.8 204.605C50.9333 204.53 51 204.379 51.1333 204.303C51.5333 204.303 51.8667 204.303 52.3333 204.303V206.417C52.0667 206.115 51.8667 205.888 51.6 205.586C51.2667 205.209 51.1333 204.983 50.8 204.681V204.605ZM52.2667 203.171V204.076C51.8667 204.076 51.6 204.076 51.3333 204.076C51.6667 203.774 51.9333 203.548 52.2667 203.171ZM51.7333 202.114C51.7333 202.114 51.6667 202.038 51.6 201.963H51.7333V202.114ZM51.8 203.321C51.8 203.019 51.8 202.793 51.8 202.566C51.9333 202.717 52 202.793 52.1333 202.944C52 203.095 51.8667 203.17 51.7333 203.321H51.8ZM52.2667 209.059C51.8667 208.682 51.5333 208.305 51.2 208.003C51.5333 207.625 51.8667 207.323 52.2667 206.87V209.059ZM51.0667 207.927C50.7333 207.625 50.4 207.323 50 206.946H52C51.6667 207.323 51.3333 207.625 51.0667 207.927ZM51.4 209.513C51.1333 209.286 50.9333 208.984 50.6 208.682C50.7333 208.531 50.8667 208.38 51.0667 208.229C51.2 208.757 51.3333 209.135 51.4 209.513ZM52.2667 202.718C52.1333 202.567 52 202.415 51.8667 202.189C51.8667 202.113 51.8667 201.962 51.8667 201.887H52.2667V202.718ZM51.4 201.736V200.151L51.7333 199.849C51.8667 200.075 52.0667 200.226 52.2667 200.453V201.736H51.4ZM51.7333 197.357C51.6 197.508 51.5333 197.583 51.4 197.734V196.979C51.5333 197.13 51.6 197.281 51.7333 197.357ZM51.6 196.829H52.2C52.0667 196.98 52 197.055 51.9333 197.206C51.8667 197.131 51.7333 196.98 51.6667 196.829H51.6ZM51.4 199.094V198.339L52.1333 199.094C51.9333 199.094 51.7333 199.094 51.4667 199.094H51.4ZM51.8667 199.32L51.7333 199.471C51.7333 199.471 51.6667 199.396 51.6 199.32H51.8667ZM51.6 199.622L51.4667 199.773V199.396C51.4667 199.396 51.6 199.546 51.6 199.622ZM51.8667 199.698L52.2 199.396V200.151C52.0667 200 51.9333 199.849 51.8 199.698H51.8667ZM51.4667 198.036C51.6 197.885 51.7333 197.659 51.8667 197.508C52 197.659 52.1333 197.81 52.2667 197.961V198.791L51.4667 197.961V198.036ZM52 197.357C52.0667 197.281 52.2 197.131 52.2667 197.055V197.734C52.2 197.583 52.0667 197.508 52 197.433V197.357ZM51.4 202.038C51.5333 202.189 51.6 202.34 51.7333 202.416C51.7333 202.718 51.7333 203.02 51.7333 203.473C51.4667 203.699 51.2667 203.925 51 204.152C50.9333 204.152 50.8667 204.152 50.7333 204.152C50.9333 203.472 51.1333 202.869 51.4 202.038ZM50.7333 204.303C50.7333 204.303 50.6667 204.378 50.6 204.454C50.6 204.454 50.6 204.379 50.6 204.303H50.6667H50.7333ZM50 207.172C50.3333 207.474 50.6667 207.776 50.9333 208.078C50.6 208.456 50.3333 208.757 50 209.059C50 208.304 50 207.851 50 207.172ZM50.5333 208.758C50.9333 209.135 51.2 209.437 51.4667 209.739C51.4667 209.965 51.6 210.192 51.6667 210.494H50.3333C50.2667 210.116 50.1333 209.739 50 209.286C50.2 209.135 50.3333 208.909 50.5333 208.758ZM50.4667 211.778H50.0667C49.6667 211.4 49.4 211.098 49 210.721H50.2C50.2667 211.023 50.4 211.4 50.4667 211.778ZM52.2667 178.482V179.237C52 178.935 51.8667 178.708 51.6 178.482H52.2667ZM51.6 178.256C51.8 178.029 51.9333 177.878 52.1333 177.652H52.2667V178.256H51.6ZM53.4 201.963C53.6667 202.793 53.8667 203.397 54.0667 204.076C54 204.076 53.9333 204.076 53.8 204.076C53.5333 203.85 53.3333 203.623 53.0667 203.397C53.0667 203.019 53.0667 202.718 53.0667 202.34C53.1333 202.189 53.2667 202.114 53.4 201.963ZM53.0667 202.038C53.0667 202.038 53.0667 201.962 53.0667 201.887H53.2C53.2 201.887 53.1333 201.963 53.0667 202.038ZM53.4 196.979V197.734C53.2667 197.583 53.2 197.508 53.0667 197.357C53.1333 197.206 53.2667 197.13 53.4 196.979ZM52.9333 197.206C52.8667 197.131 52.7333 196.98 52.6667 196.829H53.2667C53.1333 196.98 53.0667 197.055 53 197.206H52.9333ZM53.4 199.094H52.5333L53.4667 198.188V199.094H53.4ZM53.4 199.396V199.999L53.1333 199.698C53.2 199.622 53.3333 199.471 53.4 199.396ZM53.2 199.32C53.1333 199.396 53.0667 199.471 53 199.622L52.7333 199.32H53.2ZM53.4 200.377V201.434C53.0667 201.056 52.8667 200.83 52.5333 200.377C52.7333 200.15 52.8667 200 53 199.849L53.4667 200.301L53.4 200.377ZM54.1333 204.303C54.1333 204.303 54.1333 204.378 54.1333 204.454C54.1333 204.454 54.0667 204.379 54 204.303H54.0667H54.1333ZM54.2 204.756C54.2 204.756 54.2667 204.831 54.3333 204.907C54.3333 205.133 54.4667 205.285 54.5333 205.511C54.6667 205.964 54.8 206.341 54.8667 206.719H52.5333C52.9333 206.266 53.9333 205.058 54.1333 204.756H54.2ZM52.6667 210.721H54.3333C54.2667 211.023 54.1333 211.4 54.0667 211.778H53.6C53.2667 211.4 53 211.098 52.6667 210.721ZM53.3333 211.778H52.4667V210.796C52.8 211.174 53.0667 211.476 53.3333 211.778ZM52.6 210.494C52.7333 210.343 52.8667 210.192 53 210.041C53 210.192 52.9333 210.343 52.8667 210.494H52.5333H52.6ZM53.0667 210.494C53.1333 210.192 53.2 209.965 53.2667 209.739C53.5333 209.437 53.8667 209.135 54.2 208.758C54.4 208.909 54.5333 209.135 54.7333 209.286C54.6 209.739 54.5333 210.116 54.4 210.494H53.0667ZM53.8 208.078C54.0667 207.776 54.4 207.549 54.7333 207.172C54.7333 207.851 54.7333 208.304 54.7333 209.059C54.4 208.757 54.1333 208.38 53.8 208.078ZM54.7333 206.87C54.3333 207.248 54 207.549 53.6667 207.851C53.4 207.549 53.0667 207.248 52.7333 206.87H54.7333ZM53.6667 208.229C53.8 208.38 54 208.531 54.1333 208.682C53.8 208.984 53.6 209.286 53.3333 209.513C53.4667 209.135 53.5333 208.682 53.6667 208.229ZM53.0667 209.814C52.8667 209.965 52.7333 210.192 52.4667 210.419V209.361C52.8 208.984 53.1333 208.758 53.4 208.456C53.2667 208.984 53.1333 209.361 53 209.814H53.0667ZM56.0667 211.853V210.796C56.0667 210.796 56.0667 210.796 56.0667 210.721V211.853ZM56 210.343V210.116C56 210.192 56 210.268 56 210.343ZM55.8667 212.834H55.4667L55.2 211.778H54.9333C55.2 211.551 55.4 211.325 55.7333 211.023L55.8667 212.834ZM55.7333 210.721C55.3333 211.098 55.0667 211.4 54.6667 211.702H54.2667C54.4 211.324 54.4667 210.947 54.5333 210.645H55.7333V210.721ZM55.7333 210.494H54.6C54.6667 210.192 54.8 209.89 54.8667 209.513C55.1333 209.815 55.4 210.041 55.6667 210.343V210.494H55.7333ZM54.9333 206.946C55.1333 207.55 55.2667 208.003 55.4 208.531C55.2 208.758 55.0667 208.833 54.8667 208.984C54.8667 208.229 54.8667 207.701 54.8667 206.946H54.9333ZM55.6667 210.041C55.4 209.815 55.2 209.513 55 209.286C55.2 209.135 55.3333 208.984 55.5333 208.758C55.5333 208.833 55.6 208.984 55.6667 209.135V210.041ZM55.5333 208.229C55.4 207.776 55.2667 207.323 55.1333 206.87H55.4667L55.6 208.229H55.5333ZM55.4 206.644H55.0667C54.9333 206.266 54.8 205.889 54.6667 205.36C54.6 205.134 54.5333 204.832 54.4667 204.681C54.2 203.775 53.9333 203.095 53.6 201.963H54.8667H55L55.3333 206.719L55.4 206.644ZM53.6 201.736V200.604L54.7333 201.736H53.6ZM55.0667 201.736L53.6 200.226V198.036L54.7333 196.979L55.0667 201.736ZM53.6 197.659V196.829H54.4L53.6 197.659ZM54.6667 196.602H54.5333L53.6 195.243V195.092H54.6L54.7333 196.602H54.6667ZM54.5333 194.941H53.6V192.072L53.9333 191.619C54.1333 191.846 54.2667 192.072 54.3333 192.148L54.5333 194.866V194.941ZM53.7333 191.468L53.6 191.694V191.317L53.7333 191.468ZM53.6 190.939H54.1333L53.8667 191.242C53.8 191.166 53.6667 191.015 53.6 190.939ZM54.3333 191.846C54.2667 191.77 54.1333 191.619 54.0667 191.543L54.2667 191.242V191.921L54.3333 191.846ZM54.2 190.713H53.5333V188.373C53.7333 188.146 53.8667 187.995 53.9333 187.844L54.1333 190.713H54.2ZM53.6 182.257V182.786V182.333V182.257ZM53.6 183.767V183.012C53.6 183.012 53.6 183.012 53.6 183.088V183.993V183.767ZM53.4 179.841V179.992H52.4667V179.614C52.8 179.237 53 179.011 53.2667 178.633V179.841H53.4ZM53.2 178.482C52.9333 178.784 52.8 178.935 52.5333 179.237V178.482H53.2ZM52.4667 178.256V177.652H52.6C52.8 177.878 52.9333 178.029 53.1333 178.256H52.5333H52.4667ZM52.4667 180.294C52.6 180.445 52.7333 180.596 52.8 180.672C52.6667 180.823 52.6 180.973 52.4667 181.124V180.294ZM52.6667 180.218H53.2667C53.2 180.294 53.0667 180.445 53 180.596C52.9333 180.52 52.8 180.369 52.7333 180.218H52.6667ZM52.5333 181.427C52.6667 181.2 52.8 181.049 52.9333 180.898C53.0667 181.049 53.2 181.2 53.4 181.427V182.483C53.1333 182.181 52.8667 181.804 52.5333 181.427ZM53.1333 182.483H52.5333V181.728C52.7333 182.03 52.9333 182.257 53.1333 182.483ZM53.0667 180.747C53.2 180.596 53.3333 180.445 53.4 180.369V181.124C53.2667 180.973 53.2 180.898 53.0667 180.747ZM52.8667 177.652H53.2667V178.18C53.1333 178.029 53 177.878 52.8667 177.652ZM52.4667 176.519C52.7333 176.897 52.9333 177.123 53.2667 177.425H52.6667C52.6667 177.425 52.5333 177.274 52.4667 177.198V176.519ZM52.4667 182.71H53.1333C52.8667 183.012 52.7333 183.239 52.4667 183.465V182.71ZM52.4667 183.767C52.8 183.389 53 183.163 53.3333 182.786V183.993H52.4V183.767H52.4667ZM53.4 184.371V185.126C53.2667 184.975 53.2 184.899 53.0667 184.748C53.1333 184.597 53.2667 184.522 53.4 184.371ZM52.9333 184.598C52.8667 184.522 52.7333 184.371 52.6667 184.22H53.2667C53.1333 184.371 53.0667 184.447 53 184.598H52.9333ZM52.4667 184.371C52.6 184.522 52.6667 184.673 52.8 184.748C52.6667 184.899 52.6 184.975 52.4667 185.126V184.371ZM52.4667 185.428C52.6667 185.202 52.8 185.05 52.9333 184.899C53.0667 185.05 53.2 185.202 53.4 185.428V186.485H52.5333V185.428H52.4667ZM52.4667 186.712H53.1333C52.8667 187.014 52.7333 187.165 52.4667 187.467V186.712ZM52.4667 187.844C52.8667 187.391 53.0667 187.164 53.4 186.787V187.844H53.6V184.296H53.7333L54 187.618C53.9333 187.693 53.8 187.844 53.6 188.071V187.844H53.4V188.222H52.4667V187.844ZM53.4 189.656V190.713C53.1333 190.411 52.8 190.033 52.5333 189.656C52.6667 189.505 52.8 189.279 53 189.128C53.1333 189.279 53.2667 189.429 53.4667 189.656H53.4ZM52.6667 188.448H53.2667C53.2 188.524 53.0667 188.675 52.9333 188.826C52.8667 188.75 52.7333 188.599 52.6 188.448H52.6667ZM53.0667 188.977C53.2 188.826 53.2667 188.75 53.4 188.599V189.354C53.2667 189.203 53.2 189.128 53.0667 188.977ZM52.4667 188.599C52.6 188.75 52.7333 188.901 52.8 188.977C52.6667 189.128 52.6 189.203 52.4667 189.354V188.523V188.599ZM52.4667 189.883C52.6667 190.185 52.9333 190.411 53.1333 190.713H52.4667V189.883ZM52.4667 190.939H53.2C52.9333 191.241 52.7333 191.468 52.4667 191.77V190.939ZM52.4667 192.072C52.8 191.619 53 191.393 53.3333 191.015V191.921L52.9333 192.449H52.4V192.072H52.4667ZM52.8 193.129C52.7333 193.205 52.6667 193.28 52.5333 193.431L52.7333 193.129H52.8ZM52.6667 192.676H52.8667V192.827C52.7333 192.827 52.7333 192.751 52.6667 192.676ZM52.9333 193.28C53.0667 193.431 53.2 193.582 53.4 193.809V194.866L52.6 193.733C52.7333 193.582 52.8667 193.431 53 193.28H52.9333ZM52.9333 192.978L53.2 192.676H53.2667C53.1333 192.827 53.0667 192.902 53 193.053L52.9333 192.978ZM53.0667 193.129C53.1333 192.978 53.2667 192.903 53.4 192.752V193.506C53.2667 193.355 53.2 193.28 53.0667 193.129ZM52.4667 192.752L52.6 192.903L52.4667 193.129V192.752ZM52.4667 194.111L53 194.941H52.4667V194.111ZM52.4667 195.168H53.1333C52.8667 195.47 52.7333 195.621 52.4667 195.923V195.168ZM52.4667 196.224C52.8 195.847 53 195.621 53.2667 195.319V195.469C53.3333 195.696 53.3333 195.998 53.3333 196.3H53.5333V195.771L54.2 196.678H53.5333V196.3H53.3333V196.678H52.4V196.3L52.4667 196.224ZM52.4667 196.979C52.6 197.13 52.6667 197.281 52.8 197.357C52.6667 197.508 52.6 197.583 52.4667 197.734V196.979ZM52.4667 198.036C52.6667 197.81 52.8 197.659 52.9333 197.508C53.0667 197.659 53.1333 197.81 53.2667 197.961L52.4667 198.716V198.036ZM52.4667 199.471L52.8 199.849C52.6667 200 52.6 200.075 52.4667 200.226V199.471ZM52.4667 200.83C52.7333 201.208 52.9333 201.434 53.2667 201.736H52.4667V200.83ZM53 203.246C52.8667 203.171 52.7333 203.02 52.6 202.869C52.7333 202.718 52.8 202.567 52.9333 202.491C52.9333 202.718 52.9333 202.944 52.9333 203.246H53ZM52.4667 201.963H52.9333C52.9333 202.038 52.9333 202.113 52.9333 202.264C52.8 202.415 52.6667 202.642 52.4667 202.793V201.963ZM52.4667 203.095C52.8667 203.473 53.1333 203.774 53.4667 204.076C53.1333 204.076 52.8667 204.076 52.4667 204.076V203.095ZM52.4667 205.586V204.303C52.9333 204.303 53.2667 204.303 53.6667 204.303C53.8 204.379 53.8667 204.53 54 204.605C53.7333 204.907 52.9333 205.813 52.4667 206.341V205.586ZM53.5333 208.003C53.2 208.305 52.8667 208.606 52.4667 208.984V206.87C52.8667 207.248 53.2 207.625 53.5333 208.003ZM52.2667 176.519V177.123C52.2 177.199 52.1333 177.274 52.0667 177.349H51.5333C51.8 177.047 52 176.821 52.2667 176.443V176.519ZM51.4 177.652H51.8667C51.7333 177.803 51.6 177.953 51.4 178.18V177.652ZM51.4 179.539V178.558C51.7333 178.935 51.9333 179.162 52.2667 179.539V179.917H51.4V179.539ZM51.2 179.917C51.2 181.049 51.2 181.729 51.2 182.71C51.1333 182.786 51.0667 182.936 50.9333 183.012L51.2 179.917ZM50.9333 183.389C51 183.314 51.0667 183.163 51.2 183.088V184.069H50.8667V183.389H50.9333ZM50.8667 184.22H51.2V187.768H51.4V186.787C51.7333 187.164 51.9333 187.391 52.2667 187.768V188.146H51.4V187.768H51.2V187.995C50.9333 187.693 50.7333 187.467 50.6667 187.316L50.9333 184.22H50.8667ZM50.6667 187.693C50.8 187.844 51 188.146 51.2667 188.373V190.713H50.4667C50.4667 190.638 50.4667 190.638 50.4667 190.638L50.6667 187.693ZM50.4 191.015L50.7333 191.468C50.6 191.619 50.4667 191.77 50.3333 191.921V191.015H50.4ZM50.2667 192.298C50.4 192.147 50.5333 191.921 50.8 191.694L51.2 192.298V194.866C50.8667 194.941 50.5333 194.941 50.1333 194.941L50.3333 192.298H50.2667ZM50.0667 195.168H51L49.9333 196.602L50.0667 195.168ZM49.9333 196.829L51.2 198.112V199.924L49.5333 201.509L49.8667 196.829H49.9333ZM49.5333 201.963H51.2C50.8667 203.095 50.6 203.775 50.3333 204.756C50.2667 204.983 50.2 205.285 50.0667 205.511C49.9333 205.889 49.8 206.266 49.7333 206.644H49.2L49.5333 201.887V201.963ZM49.8 207.021C49.8 207.852 49.8 208.304 49.8 209.059C49.6667 208.908 49.5333 208.757 49.3333 208.606C49.5333 208.078 49.6667 207.55 49.8667 207.021H49.8ZM49.2 206.87H49.6667C49.4667 207.55 49.2667 208.078 49.0667 208.758L49.2 206.87ZM49 209.588C49.0667 209.286 49.2 209.06 49.2667 208.833C49.4667 208.984 49.6 209.135 49.8 209.286C49.5333 209.513 49.2667 209.814 49 210.116V209.588ZM48.9333 210.419C49.2667 210.041 49.5333 209.739 49.8667 209.437C50 209.814 50.0667 210.117 50.1333 210.419H48.9333ZM48.8667 210.947C49.2 211.249 49.4 211.476 49.7333 211.778H49.4667L49.2 212.834H48.7333L48.8667 210.947Z" fill="var(--fill-0, #6D6D6D)"/>
<path id="Vector_33" d="M230.2 213.589L229.667 213.287L228.133 212.381L227.6 212.079L226.067 211.174L225.6 210.871L224.067 209.966L223.533 209.664L222 208.757L221.467 208.456L220.4 207.851L219.333 208.456L218.867 208.757L217.333 209.664L216.8 209.966L215.267 210.871L214.733 211.174L213.2 212.079L212.733 212.381L211.2 213.287L210.667 213.589L208.533 214.873V215.854V216.76V216.987V217.817H220.4H222.6H232.333V216.987V216.76V215.854V214.873L230.2 213.589Z" fill="var(--fill-0, white)"/>
<path id="Vector_34" d="M82 217.742C81.8667 217.214 81.6 216.761 81.2 216.383C81.8 216.232 82.2667 215.704 82.2667 214.949C82.2667 214.194 81.7333 213.514 81 213.514C80.2667 213.514 79.7333 214.118 79.7333 214.949C79.7333 215.779 79.7333 215.25 79.7333 215.401C79.6667 215.401 79.6 215.477 79.5333 215.628C79.4667 215.628 79.4 215.553 79.2667 215.553C79.0667 215.553 78.9333 215.704 78.8667 215.93C78.4 216.081 77.9333 216.459 77.6667 216.836C77.6667 216.836 77.5333 216.836 77.4667 216.836C77.3333 216.836 77.2 216.836 77.1333 216.987C77.1333 216.685 76.9333 216.459 76.6667 216.459C76.4 216.459 76.4667 216.458 76.4 216.534C76.3333 216.156 76 215.779 75.6 215.779C75.6 215.628 75.4667 215.477 75.3333 215.477C75.1333 214.043 74 212.986 72.6667 212.986C71.3333 212.986 71.6 213.136 71.2 213.514C70.8667 212.91 70.2667 212.457 69.6 212.457C68.9333 212.457 68.5333 212.759 68.2 213.212C68.1333 213.137 68 213.061 67.8667 213.061C67.7333 213.061 67.6667 213.061 67.6 213.136C67.6 213.061 67.4667 212.986 67.4 212.986C67.3333 212.986 67.2 212.985 67.2 213.136C66.8 212.985 66.4 212.986 66 212.986C64.9333 212.986 63.9333 213.363 63.2 214.043C63.0667 212.835 62.2 211.853 61.0667 211.853C59.9333 211.853 59.5333 212.381 59.2 213.136C59.0667 212.985 58.8667 212.986 58.6667 212.986C58.3333 212.986 58 213.212 57.8 213.514C57.6667 213.514 57.5333 213.514 57.3333 213.514C56.2667 213.514 55.2667 213.967 54.6 214.798C54.6 214.798 54.6 214.798 54.5333 214.798H54.4C54.2667 214.42 53.9333 214.118 53.5333 214.118C53.1333 214.118 52.6 214.571 52.6 215.175C52.6 215.779 52.6 215.251 52.6 215.326C52.4 215.326 52.1333 215.251 51.8667 215.251C50.8667 215.251 50 215.779 49.4667 216.685C49.2 216.232 48.7333 215.93 48.2667 215.93C47.8 215.93 47.2667 216.232 47 216.761C47 216.761 47 216.761 46.9333 216.761C46.8 216.761 46.6667 216.912 46.6667 217.063C46.4 217.138 46.1333 217.289 46 217.591C45.8667 217.516 45.7333 217.44 45.6 217.44C45.2667 217.44 45 217.667 44.8667 217.969H82.2L82 217.742Z" fill="var(--fill-0, #858586)"/>
<path id="Vector_35" d="M74.0667 217.44C74.0667 217.44 73.9333 217.44 73.8667 217.44C73.8 217.364 73.6667 217.214 73.5333 217.214C73.5333 217.214 73.5333 217.062 73.4 217.062C73.2667 216.836 73.0667 216.685 72.8667 216.685C72.6667 216.685 72.4667 216.836 72.3333 216.987C72.0667 216.609 71.6667 216.383 71.2667 216.383C70.8667 216.383 71.0667 216.383 70.9333 216.383C70.9333 216.157 70.7333 215.93 70.5333 215.93C70.3333 215.93 70.2 216.081 70.1333 216.232C70.1333 216.232 70.1333 216.232 70.0667 216.232C69.7333 215.854 69.3333 215.628 68.8667 215.628C68.4 215.628 68.7333 215.628 68.6667 215.628C68.6 215.477 68.4667 215.401 68.2667 215.401C68.0667 215.401 68.0667 215.401 68 215.477C67.8667 215.099 67.5333 214.873 67.1333 214.873C66.7333 214.873 66.2667 215.326 66.2 215.854C65.8667 215.552 65.4 215.401 64.9333 215.401C64.4667 215.401 64.5333 215.401 64.4 215.477C64.4 215.477 64.4 215.477 64.3333 215.477C64.2667 215.477 64.2667 215.477 64.2667 215.477C64.2667 215.477 64.2 215.477 64.1333 215.477C64.0667 215.477 64 215.477 64 215.477C63.8667 215.25 63.6 215.099 63.3333 215.099C63.0667 215.099 62.7333 215.25 62.6 215.552C62.4 215.401 62.2 215.326 61.9333 215.326C61.3333 215.326 60.8667 215.779 60.7333 216.459C60.7333 216.459 60.6 216.458 60.6 216.609C60.5333 216.458 60.3333 216.307 60.1333 216.307C59.9333 216.307 60 216.307 59.9333 216.307C59.8667 215.93 59.5333 215.704 59.2 215.704C58.8667 215.704 58.8 215.779 58.6667 216.006C58.6 215.779 58.4 215.628 58.1333 215.628C57.8667 215.628 57.6 215.93 57.6 216.232C57.6 216.232 57.6 216.232 57.5333 216.232C57.3333 216.232 57.1333 216.308 57 216.459C56.9333 216.383 56.8 216.307 56.6667 216.307C56.5333 216.307 56.3333 216.383 56.2667 216.609C56.2667 216.609 56.2667 216.609 56.2 216.609C56.1333 216.609 56 216.61 56 216.761C55.6667 216.761 55.3333 217.062 55.2667 217.44H74.4C74.4 217.289 74.2 217.214 74.0667 217.214V217.44Z" fill="var(--fill-0, #545455)"/>
<path id="Vector_36" d="M89.1333 143.223L89.0667 143.148L88.9333 142.771H88.8667L88.8 142.619L88.7333 142.544L88.6 142.091L88.4667 141.94V141.864L88.2 141.336L88.1333 141.261V141.185L88.0667 141.034L87.9333 140.732L87.7333 140.354V140.279L87.6 140.053L87.4667 139.751L87.4 139.675L87.3333 139.524L87.2667 139.373L87.0667 138.996L87 138.844L86.9333 138.693L86.8667 138.543L86.7333 138.241V138.165L86.6667 138.089L86.6 138.014L86.5333 137.863L86.4667 137.637L86.1333 136.957L86 136.655L85.9333 136.504L85.8667 136.428L85.8 136.278L85.4667 135.673V135.598L85.4 135.447L85.2667 135.145V134.466H85.1333V134.918L85.0667 134.692H85V134.541L84.9333 134.466L84.8 134.239L84.6667 133.937L84.6 133.711L84.5333 133.635L84.4 133.333L84.3333 133.258L84.2 132.88H84.1333L84.0667 132.729V132.653L84 132.503L83.8667 132.201L83.7333 131.898L83.6 131.748L83.5333 131.521L83.4667 131.446L83.4 131.219L83.3333 131.068L83.2667 130.917L83.2 130.842L83.0667 130.539L82.8667 130.162L82.5333 129.483L82.4667 129.256L82.4 129.181L82.3333 129.105L82.0667 128.501V128.426L82 128.35L81.9333 128.199L81.4 127.142V126.991H81.3333L80.9333 126.085L80.8667 126.009V125.858H80.8L80.3333 124.877V124.802H80.2667L79.8 123.744L79.7333 123.593L79.6667 123.443L79.4 122.914L79.3333 122.763L78.8667 121.782V121.706H78.8L78.6667 121.404V121.253H78.6L78 120.045V119.969L77.8667 119.743V119.668L76.8667 117.629L76.8 117.478L76.7333 117.403L76.6667 117.176V117.101L76.6 117.025L76.5333 117.101L76.1333 117.856L76.0667 118.007L75.6 118.837L74.2667 121.253L74.2 121.404L73.6667 122.386L72.6667 124.198L72.6 124.348L72.4667 124.575L72.4 124.802H72.2667V124.877V124.953L72.1333 125.103V125.179L71.8 125.858H71.7333L71.6667 126.009L71.6 126.161L71.1333 126.991L71.0667 127.142L71 127.218L70.5333 128.123L70.4667 128.199V128.35H70.4L70.3333 128.426L69.9333 129.181L69.8667 129.332L69.6 129.86L69.3333 130.313L69.2667 130.464L69.2 130.539L69.0667 130.766L69 130.917L68.9333 130.993L68.7333 131.446L68.6667 131.521L68.6 131.672L68.1333 132.503L68.0667 132.653L67.9333 132.88L67.8 133.107L67.7333 133.258L67.6 133.484L67.5333 133.635H67.4667L67.4 133.786H67.4667L67.4 133.862L67.2667 134.013L67.0667 134.466V134.541H67L66.9333 134.692L66.8667 134.843L66.5333 135.447L66.4667 135.598L66.4 135.673L66.2 136.051L66.1333 136.202L66 136.428L65.9333 136.504L65.8667 136.655L65.8 136.806L65.5333 137.259V137.334H65.4667L65.4 137.486L65.3333 137.637L65.1333 138.014V138.089H65.0667L65 138.165V138.241L64.6667 138.769L64.6 138.92V138.996L64.4667 139.222L64.4 139.373L64.2667 139.524V139.599L64.1333 139.751L64.0667 139.977L63.9333 140.203L63.8 140.354L63.7333 140.581L63.6 140.808L63.5333 140.958L63.4 141.185L63.3333 141.261L63.2667 141.412L63.2 141.563L63.0667 141.789L62.8667 142.091V142.167L62.7333 142.318L62.6667 142.468V142.544V142.619L62.5333 142.771L62.4 142.922L62.3333 143.223H62.2667V143.374V143.526V143.978V144.129V144.205V144.733V144.884V144.96V145.488V145.564V145.715V146.168V146.319V146.47V146.923V147.074V147.225V147.678V147.829V147.904V148.433V148.508V148.659V149.188V149.263V149.414V149.868V150.018V150.169V150.623V150.773V150.924V151.378V151.528V151.604V152.133V152.208V152.359V152.888V152.963V153.114V153.567V153.718V153.869V154.322V154.473V154.548V155.077V155.228V155.303V155.832V155.908V156.058V156.512V156.663V156.813V157.267V157.418V157.568V158.022V158.173V158.248V158.777V158.852V159.003V159.532V159.607V159.758V160.211V160.362V160.513V160.966V161.117V161.268V161.721V161.872V161.948V162.476V162.552V162.703V163.231V163.307V163.458V163.911V164.062V164.213V164.666V164.817V164.892V165.421V165.572V165.647V166.176V166.251V166.402V166.855V167.006V167.157V167.61V167.761V167.912V168.365V168.516V168.592V168.893V169.044V169.196V169.498V169.573V169.724V170.253V170.328V170.479V170.932V171.083V171.234V171.687V171.838V171.913V172.442V172.593V172.668V173.197V173.273V173.423V173.726V173.877V173.952V174.254V174.405V174.556V175.009V175.16V175.311V175.764V175.915V175.991V176.519V176.594V176.746V177.274V177.349V177.501V177.953V178.104V178.256V178.558V178.633V178.784V179.086V179.237V179.313V179.841V179.917V180.068V180.596V180.672V180.823V181.276V181.427V181.578V182.031V182.182V182.257V182.786V182.937V183.012V183.314V183.465V183.616V184.069V184.22V184.296V184.824V184.975V185.051V185.579V185.654V185.806V186.258V186.409V186.561V187.013V187.164V187.316V187.768V187.919V187.995V188.297V188.448V188.599V188.901V188.977V189.128V189.581V189.732V189.883V190.336V190.487V190.638V191.091V191.242V191.317V191.846V191.921V192.072V192.601V192.676V192.827V193.129V193.28V193.356V193.884V193.959V194.111V194.639V194.714V194.866V195.319V195.469V195.621V196.074V196.224V196.3V196.829V196.979V197.055V197.584V197.659V197.81V198.112V198.263V198.339V198.867V198.943V199.094V199.622V199.698V199.849V200.301V200.453V200.604V201.056V201.208V201.359V201.811V201.963V202.038V202.566V202.642V202.793V203.095V203.246V203.321V203.85V204.001V204.076V204.605V204.681V204.831V205.284V205.436V205.586V206.039V206.191V206.341V206.794V206.946V207.021V207.549V207.625V207.776V208.078V208.229V208.38V208.833V208.984V209.059V209.588V209.664V209.814V210.343V210.419V210.569V211.023V211.174V211.324V211.551V211.778V211.929V212.004V212.079V212.533V212.684V212.759V213.061V213.212V213.363V213.665V213.741V213.891V214.344V214.496V214.646V215.099V215.251V215.326V215.854V216.006V216.081V216.609V216.685V216.836V217.289V217.44V217.591V217.893H62.3333H62.4667H62.5333H62.6667H62.7333H62.8667H62.9333H63.0667H63.2H63.2667H63.4H63.5333H63.6H63.7333H63.8H63.9333H64.0667H64.1333H64.2667H64.4H64.4667H64.6H64.7333H64.8H64.9333H65H65.1333H65.2H65.3333H65.4667H65.5333H65.6667H65.8H65.8667H66H66.1333H66.2H66.3333H66.4H66.5333H66.6667H66.7333H66.8667H67H67.0667H67.2H67.2667H67.4H67.4667H67.6H67.7333H67.8H67.9333H68.0667H68.1333H68.2667H68.4H68.4667H68.6H68.6667H68.8H68.9333H69H69.1333H69.2667H69.3333H69.4667H69.5333H69.6H69.6667H69.8H69.8667H70H70.0667H70.2H70.3333H70.4H70.5333H70.6667H70.7333H70.8667H70.9333H71.0667H71.2H71.2667H71.4H71.5333H71.6H71.7333H71.8667H71.9333H72.0667H72.1333H72.2667H72.3333H72.4667H72.6H72.6667H72.8H72.8667H72.9333H73H73.1333H73.2H73.2667H73.3333H73.4667H73.5333H73.6667H73.8H73.8667H74H74.1333H74.2H74.3333H74.4667H74.5333H74.6667H74.7333H74.8667H74.9333H75.0667H75.2H75.2667H75.4H75.5333H75.6H75.7333H75.8H75.9333H76.0667H76.1333H76.2667H76.4H76.4667H76.6H76.7333H76.8H76.9333H77H77.1333H77.2H77.3333H77.4667H77.5333H77.6667H77.8H77.8667H78H78.1333H78.2H78.3333H78.4H78.5333H78.6667H78.7333H78.8667H79H79.0667H79.2H79.2667H79.4H79.4667H79.6H79.7333H79.8H79.8667H79.9333H80.0667H80.1333H80.2667H80.4H80.4667H80.6H80.6667H80.9333H81H81.1333H81.2667H81.3333H81.4667H81.6H81.6667H81.8H81.8667H82H82.0667H82.2H82.3333H82.4H82.5333H82.6667H82.8667H82.9333H83.0667H83.2H83.2667H83.4H83.5333H83.6H83.7333H83.8667H83.9333H84.0667H84.1333H84.2667H84.3333H84.4667H84.6H84.6667H84.8H84.9333H85H85.1333H85.2667H85.3333H85.4667H85.5333H85.6667H85.8H85.8667H86H86.1333H86.2H86.3333H86.4667H86.5333H86.6H86.7333V218.044H86.8667V217.893H86.9333H87.0667H87.2H87.2667H87.4H87.5333H87.6H87.7333H87.8H87.9333H88.0667H88.1333H88.2667H88.4H88.4667H88.6H88.7333H88.8H88.9333H89.0667H89.1333V143.223Z" fill="var(--fill-0, #CCCCCC)"/>
<path id="Vector_37" d="M350.333 216.006V215.93V215.779H347.467L346.8 215.93H344.133V215.779V215.553V215.401V214.949V214.873V214.42V214.345V213.891V213.741V213.288V213.212V212.759V212.684V212.231V212.08V211.626V211.551V211.098V211.023V210.57V210.419V209.966V209.89V209.437V209.286V208.909V208.758V208.305V208.229V207.776V207.625V207.172V207.096V206.644V206.568V206.115V205.964V205.511V205.436V204.983V204.907V204.454V204.303V203.85V203.775V203.321V203.246V202.793V202.642V202.265V202.189V202.114H343.267V201.359L340.733 200.755L338 201.208L330.467 201.359H330.4L317.6 201.585V202.114H316.733V202.189V202.265V202.642V202.793V203.246V203.321V203.775V203.85V204.303V204.454V204.907V204.983V205.436V205.511V205.964V206.115V206.568V206.644V207.096V207.172V207.625V207.776V208.229V208.305V208.758V208.909V209.286V209.437V209.89V209.966V210.419V210.57V211.023V211.098V211.551V211.626V212.08V212.231V212.684V212.759V213.212V213.288V213.741V213.891V214.345V214.42V214.873V214.949V215.401H313.333H312.733H309.333V216.685V216.911V217.214V217.289V217.591V217.969H309.667H309.8H310.2H310.333H310.733H310.867H311.267H311.4H311.8H311.933H312.333H312.467H312.733H313.333H314.333H316.733H316.867H317H317.4H317.533H317.733H317.933H318.067H318.467H318.533H318.6H319H319.133H319.6H319.667H320.133H320.2H320.4H320.467H320.667H320.733H321H321.2H321.333H321.733H321.867H322.267H322.4H322.8H322.933H323.333H323.467H323.867H324H324.4H324.533H325H325.067H325.533H325.6H326.067H326.133H326.6H326.733H327.133H327.267H327.667H327.8H328.2H328.333H328.733H328.867H329.267H329.4H329.8H329.933H330.4H330.467H330.933H331H331.467H331.533H332H332.133H332.533H332.667H333.067H333.2H333.6H333.733H334.133H334.267H334.667H334.8H335.2H335.333H335.733H335.867H336.333H336.4H336.867H336.933H337.133H337.4H337.467H337.933H338.067H338.467H338.6H339H339.133H339.533H339.667H340.067H340.2H340.6H340.733H341.133H341.267H341.6H341.733H341.8H341.867H341.933H342.267H342.333H342.4H342.467H342.8H342.867H342.933H343H343.333H343.467H343.6H343.867H344H344.133H344.6H344.667H345.133H345.2H345.667H345.733H346.2H346.267H346.6H347.667H347.8H348.2H348.333H348.733H348.867H349.8H350H350.067H350.267H350.333V216.836H350.467V216.685V216.534V216.308V216.156V216.006H350.333Z" fill="var(--fill-0, #CCCCCC)"/>
<path id="Vector_38" d="M84.4667 203.85V204.001V204.53V205.209V205.36V206.493V206.644V206.719V214.798V214.949V215.401V217.818H84.9333H86.6667H87.6H89.0667H90.0667H91.6667H92.6667H94.2667H94.4667H94.7333H94.8667H95.1333H95.2667H95.4H95.4667H96.6H96.6667H96.8667H97.2H97.2667H97.6H97.8H99.4H99.8667V215.401V214.949V214.798V206.719V206.493V205.36V205.209V204.53V204.001V203.85H84.4667Z" fill="var(--fill-0, white)"/>
<path id="Vector_39" d="M110.333 217.591C110.333 217.591 110.267 217.591 110.2 217.591C110.2 217.516 110.067 217.44 110 217.44C110 217.44 110 217.364 109.933 217.364C109.867 217.213 109.733 217.138 109.533 217.138C109.333 217.138 109.267 217.213 109.133 217.364C108.933 217.138 108.667 216.911 108.4 216.911C108.133 216.911 108.267 216.911 108.2 216.911C108.2 216.76 108.067 216.609 107.933 216.609C107.8 216.609 107.733 216.685 107.667 216.836C107.467 216.61 107.133 216.459 106.8 216.459C106.467 216.459 106.733 216.459 106.667 216.459C106.667 216.383 106.533 216.307 106.4 216.307C106.267 216.307 106.267 216.307 106.2 216.307C106.067 216.081 105.867 215.93 105.6 215.93C105.333 215.93 105 216.232 104.933 216.609C104.667 216.383 104.4 216.307 104.067 216.307C103.733 216.307 103.8 216.307 103.667 216.307C103.667 216.307 103.667 216.307 103.6 216.307C103.533 216.307 103.533 216.307 103.533 216.307C103.4 216.156 103.267 216.081 103.067 216.081C102.867 216.081 102.667 216.232 102.6 216.383C102.467 216.307 102.333 216.232 102.133 216.232C101.733 216.232 101.4 216.534 101.333 216.987C101.333 216.987 101.267 216.987 101.267 217.062C101.267 216.911 101.067 216.836 100.933 216.836C100.8 216.836 100.867 216.836 100.8 216.836C100.8 216.61 100.533 216.459 100.333 216.459C100.133 216.459 100.067 216.534 99.9333 216.685C99.9333 216.534 99.7333 216.459 99.6 216.459C99.4667 216.459 99.2 216.685 99.2 216.911C99.0667 216.911 98.9333 216.911 98.8 217.062C98.8 217.062 98.6667 216.987 98.6 216.987C98.5333 216.987 98.4 216.987 98.3333 217.138C98.2667 217.138 98.2 217.138 98.2 217.289C97.9333 217.289 97.7333 217.515 97.6667 217.742H110.867C110.867 217.666 110.733 217.591 110.667 217.591H110.333Z" fill="var(--fill-0, #545455)"/>
<path id="Vector_40" d="M87.9333 217.591C87.9333 217.591 87.8667 217.591 87.8 217.591C87.8 217.516 87.6667 217.44 87.6 217.44C87.6 217.44 87.6 217.364 87.5333 217.364C87.4667 217.213 87.3333 217.138 87.1333 217.138C86.9333 217.138 86.8667 217.213 86.7333 217.364C86.5333 217.138 86.2667 216.911 86 216.911C85.7333 216.911 85.8667 216.911 85.8 216.911C85.8 216.76 85.6667 216.609 85.5333 216.609C85.4 216.609 85.3333 216.685 85.2667 216.836C85.0667 216.61 84.7333 216.459 84.4 216.459C84.0667 216.459 84.3333 216.459 84.2667 216.459C84.2667 216.383 84.1333 216.307 84 216.307C83.8667 216.307 83.8667 216.307 83.8 216.307C83.6667 216.081 83.4667 215.93 83.2 215.93C82.9333 215.93 82.6 216.232 82.5333 216.609C82.2667 216.383 82 216.307 81.6667 216.307C81.3333 216.307 81.4 216.307 81.2667 216.307C81.2667 216.307 81.2667 216.307 81.2 216.307C81.1333 216.307 81.1333 216.307 81.1333 216.307C81 216.156 80.8667 216.081 80.6667 216.081C80.4667 216.081 80.2667 216.232 80.2 216.383C80.0667 216.307 79.9333 216.232 79.7333 216.232C79.3333 216.232 79 216.534 78.9333 216.987C78.9333 216.987 78.8667 216.987 78.8667 217.062C78.8667 216.911 78.6667 216.836 78.5333 216.836C78.4 216.836 78.4667 216.836 78.4 216.836C78.4 216.61 78.1333 216.459 77.9333 216.459C77.7333 216.459 77.6667 216.534 77.5333 216.685C77.5333 216.534 77.3333 216.459 77.2 216.459C77.0667 216.459 76.8 216.685 76.8 216.911C76.6667 216.911 76.5333 216.911 76.4 217.062C76.4 217.062 76.2667 216.987 76.2 216.987C76.1333 216.987 76 216.987 75.9333 217.138C75.8667 217.138 75.8 217.138 75.8 217.289C75.5333 217.289 75.3333 217.515 75.2667 217.742H88.4667C88.4667 217.666 88.3333 217.591 88.2667 217.591H87.9333Z" fill="var(--fill-0, #545455)"/>
<path id="Vector_41" d="M237.467 217.44C237.533 217.44 237.6 217.44 237.667 217.44C237.733 217.289 237.867 217.214 238 217.214C238 217.138 238.067 217.063 238.133 217.063C238.267 216.836 238.533 216.685 238.8 216.685C239.067 216.685 239.267 216.836 239.4 217.063C239.667 216.61 240.133 216.308 240.667 216.308C241.2 216.308 240.933 216.308 241 216.308C241 216.308 241 216.308 241 216.232C241 215.93 241.2 215.704 241.467 215.704C241.733 215.704 241.867 215.855 241.933 216.081C241.933 216.081 241.933 216.081 242 216.081C242.333 215.704 242.867 215.401 243.4 215.401C243.933 215.401 243.533 215.401 243.6 215.401C243.733 215.25 243.867 215.175 244.067 215.175C244.267 215.175 244.267 215.175 244.333 215.251C244.533 214.873 244.867 214.571 245.267 214.571C245.667 214.571 246.267 215.024 246.333 215.704C246.733 215.402 247.267 215.175 247.8 215.175C248.333 215.175 248.2 215.175 248.4 215.251C248.4 215.251 248.4 215.175 248.533 215.175C248.667 215.175 248.6 215.175 248.667 215.251C248.667 215.251 248.733 215.251 248.8 215.251C248.867 215.251 248.933 215.251 248.933 215.251C249.133 215.024 249.4 214.873 249.667 214.873C249.933 214.873 250.333 215.099 250.467 215.401C250.667 215.25 250.933 215.175 251.2 215.175C251.867 215.175 252.467 215.704 252.533 216.459C252.6 216.459 252.667 216.459 252.667 216.61C252.8 216.383 252.933 216.308 253.2 216.308C253.467 216.308 253.333 216.308 253.4 216.308C253.533 215.93 253.8 215.628 254.2 215.628C254.6 215.628 254.667 215.779 254.867 215.93C255 215.704 255.2 215.477 255.467 215.477C255.733 215.477 256.133 215.779 256.133 216.232C256.133 216.232 256.133 216.232 256.2 216.232C256.467 216.232 256.667 216.383 256.8 216.534C256.867 216.458 257 216.383 257.133 216.383C257.267 216.383 257.467 216.534 257.6 216.685C257.6 216.685 257.6 216.685 257.733 216.685C257.867 216.685 257.933 216.76 258 216.911C258.4 216.911 258.733 217.213 258.867 217.666H237C237 217.515 237.2 217.365 237.333 217.365L237.467 217.44Z" fill="var(--fill-0, #545455)"/>
<path id="Vector_42" d="M300.867 217.742C300.667 217.364 300.4 217.138 300 217.138C299.6 217.138 299.667 217.138 299.533 217.289C299.533 217.289 299.4 217.214 299.333 217.214C299.267 217.214 299.133 217.213 299.067 217.289C298.867 217.062 298.6 216.911 298.333 216.911C298.067 216.911 297.867 216.987 297.733 217.138C297.733 216.987 297.6 216.911 297.467 216.911C297.333 216.911 297.333 216.911 297.267 216.987C297.133 216.836 297 216.76 296.8 216.76C296.6 216.76 296.6 216.761 296.467 216.836C296.2 216.459 295.8 216.232 295.4 216.232C295 216.232 294.267 216.685 294.067 217.289C293.733 217.062 293.333 216.911 292.933 216.911C292.533 216.911 292.2 217.063 291.933 217.214C291.8 217.138 291.667 217.062 291.533 217.062C291.4 217.062 291.333 217.062 291.267 217.138C291.267 216.836 291 216.534 290.733 216.534C290.467 216.534 290.467 216.534 290.333 216.76C290 216.76 289.667 216.987 289.533 217.364C289.333 216.911 288.867 216.609 288.4 216.609C287.933 216.609 288.2 216.609 288.133 216.609C287.8 215.93 287.2 215.477 286.467 215.477C285.733 215.477 285.2 215.855 284.867 216.459C284.667 216.383 284.4 216.307 284.133 216.307C283.667 216.307 283.267 216.458 282.933 216.685C282.8 216.685 282.667 216.609 282.533 216.534C282.533 216.005 282.133 215.552 281.667 215.552C281.2 215.552 281.133 215.703 281 215.93C280.733 215.703 280.4 215.552 280.067 215.552C279.4 215.552 278.867 216.005 278.667 216.685C278.4 216.685 278.2 216.836 278 217.062C277.867 216.911 277.733 216.836 277.533 216.836C277.267 216.836 277.067 216.987 277 217.289C277 217.289 277 217.289 276.933 217.289C276.8 217.289 276.6 217.364 276.533 217.515C276.533 217.515 276.467 217.515 276.4 217.515C276.267 217.515 276.2 217.591 276.2 217.666H301L300.867 217.742Z" fill="var(--fill-0, #545455)"/>
<path id="Vector_43" d="M382.733 217.742H17.2667V220.989H382.733V217.742Z" fill="var(--fill-0, white)"/>
</g>
</svg>
