<svg preserveAspectRatio="none" width="100%" height="100%" overflow="visible" style="display: block;" viewBox="0 0 311.071 98.2125" fill="none" xmlns="http://www.w3.org/2000/svg">
<g id="Group">
<g id="Group_2">
<path id="Vector" d="M93.081 26.481H70.2842V98.2125H93.081V26.481Z" fill="var(--fill-0, #6D6D6D)"/>
<path id="Vector_2" d="M90.9688 21.243H72.3235V34.1925H90.9688V21.243Z" fill="var(--fill-0, #6D6D6D)"/>
<path id="Vector_3" d="M87.7642 16.296H75.601V29.2455H87.7642V16.296Z" fill="var(--fill-0, #6D6D6D)"/>
<path id="Vector_4" d="M85.4335 11.5672H77.8588V24.5167H85.4335V11.5672Z" fill="var(--fill-0, #6D6D6D)"/>
<path id="Vector_5" d="M81.6462 14.4772V1.52588e-06" stroke="var(--stroke-0, #6D6D6D)" stroke-width="1.1" stroke-miterlimit="10"/>
</g>
<g id="Group_3">
<path id="Vector_6" d="M228.624 28.1542H195.121V98.1397H228.624V28.1542Z" fill="var(--fill-0, #6D6D6D)"/>
<path id="Vector_7" d="M225.565 23.0617H198.252V35.7203H225.565V23.0617Z" fill="var(--fill-0, #6D6D6D)"/>
<path id="Vector_8" d="M220.831 18.2603H202.987V30.9188H220.831V18.2603Z" fill="var(--fill-0, #6D6D6D)"/>
<g id="Group_4">
<path id="Vector_9" d="M214.931 22.9163V2.328" stroke="var(--stroke-0, #6D6D6D)" stroke-width="1.1" stroke-miterlimit="10"/>
<path id="Vector_10" d="M208.813 22.9163V2.328" stroke="var(--stroke-0, #6D6D6D)" stroke-width="1.1" stroke-miterlimit="10"/>
</g>
</g>
<path id="Vector_11" d="M146.104 11.7128H131.537V98.2125H146.104V11.7128Z" fill="var(--fill-0, #6D6D6D)"/>
<g id="Group_5">
<path id="Vector_12" d="M279.971 98.2125H311.07V68.8215H279.971V98.2125Z" fill="var(--fill-0, #6D6D6D)"/>
<path id="Vector_13" d="M280.043 95.6663H303.277V66.2753H280.043V95.6663Z" fill="var(--fill-0, #6D6D6D)"/>
</g>
<g id="Group_6">
<path id="Vector_14" d="M223.89 98.2125H254.99V68.8215H223.89V98.2125Z" fill="var(--fill-0, #6D6D6D)"/>
<path id="Vector_15" d="M223.89 95.6663H247.124V66.2753H223.89V95.6663Z" fill="var(--fill-0, #6D6D6D)"/>
</g>
<g id="Group_7">
<path id="Vector_16" d="M29.716 98.1397H60.8158L60.8158 61.6193L29.716 61.6193L29.716 98.1397Z" fill="var(--fill-0, #6D6D6D)"/>
<path id="Vector_17" d="M29.716 95.0115H52.9498L52.9498 58.491H29.716L29.716 95.0115Z" fill="var(--fill-0, #6D6D6D)"/>
</g>
<g id="Group_8">
<path id="Vector_18" d="M149.964 98.1397H183.613V55.3627L149.964 55.3627V98.1397Z" fill="var(--fill-0, #6D6D6D)"/>
<path id="Vector_19" d="M149.964 94.4295H175.091V51.6525H149.964V94.4295Z" fill="var(--fill-0, #6D6D6D)"/>
</g>
<g id="Group_9">
<path id="Vector_20" d="M105.608 98.1397H139.257V64.5293H105.608V98.1397Z" fill="var(--fill-0, #6D6D6D)"/>
<path id="Vector_21" d="M114.785 95.2298H135.251V61.6193H114.785V95.2298Z" fill="var(--fill-0, #6D6D6D)"/>
</g>
<g id="Group_10">
<path id="Vector_22" d="M287.619 35.211H264.458V98.1397H287.619V35.211Z" fill="var(--fill-0, #6D6D6D)"/>
<path id="Vector_23" d="M280.335 31.2825H271.741V94.2112H280.335V31.2825Z" fill="var(--fill-0, #6D6D6D)"/>
</g>
<g id="Group_11">
<path id="Vector_24" d="M23.161 17.751H1.7039e-06V98.2125H23.161V17.751Z" fill="var(--fill-0, #6D6D6D)"/>
<path id="Vector_25" d="M15.8777 12.5858H7.28334V93.0472H15.8777V12.5858Z" fill="var(--fill-0, #6D6D6D)"/>
</g>
</g>
</svg>
