<svg preserveAspectRatio="none" width="100%" height="100%" overflow="visible" style="display: block;" viewBox="0 0 438 291" fill="none" xmlns="http://www.w3.org/2000/svg">
<g id="Skyline-02 1">
<g id="Group">
<path id="Vector" d="M366.022 144.045H351.787V212.066H366.022V144.045Z" fill="var(--fill-0, #565757)"/>
<path id="Vector_2" d="M344.122 103.96H328.135V212.794H344.122V103.96Z" fill="var(--fill-0, #565757)"/>
<path id="Vector_3" d="M355.437 110.435H339.45V214.249H355.437V110.435Z" fill="var(--fill-0, white)"/>
<path id="Vector_4" d="M318.572 170.672H293.752V210.029H318.572V170.672Z" fill="var(--fill-0, #565757)"/>
<path id="Vector_5" d="M271.706 161.869H253.237V203.627H271.706V161.869Z" fill="var(--fill-0, #565757)"/>
<path id="Vector_6" d="M256.23 156.849H268.786L271.706 161.869H253.237L256.23 156.849Z" fill="var(--fill-0, #565757)"/>
<path id="Vector_7" d="M301.709 114.363H270.83V214.249H301.709V114.363Z" fill="var(--fill-0, white)"/>
<path id="Vector_8" d="M245.718 148.846H240.316V211.339H245.718V148.846Z" fill="var(--fill-0, #767676)"/>
<path id="Vector_9" d="M236.082 100.686H212.357V178.747H236.082V100.686Z" fill="var(--fill-0, #868787)"/>
<path id="Vector_10" d="M212.357 100.686L215.277 93.4837H231.556L236.082 100.686H212.357Z" fill="var(--fill-0, #868787)"/>
<path id="Vector_11" d="M227.687 88.9733H216.737V97.0485H227.687V88.9733Z" fill="var(--fill-0, #868787)"/>
<path id="Vector_12" d="M229.658 91.374H218.708V99.4492H229.658V91.374Z" fill="var(--fill-0, #868787)"/>
<path id="Vector_13" d="M225.205 110.362H218.708V135.46H225.205V110.362Z" fill="var(--fill-0, #767676)"/>
<path id="Vector_14" d="M225.205 212.066H241.995V137.498L225.205 126.803V212.066Z" fill="var(--fill-0, #767676)"/>
<path id="Vector_15" d="M212.357 144.045H190.457V196.279H212.357V144.045Z" fill="var(--fill-0, #767676)"/>
<path id="Vector_16" d="M225.205 131.168H208.269V173.8H225.205V131.168Z" fill="var(--fill-0, #565757)"/>
<path id="Vector_17" d="M257.544 170.38H206.079V212.794H257.544V170.38Z" fill="var(--fill-0, white)"/>
<path id="Vector_18" d="M333.391 184.93H307.549V212.794H333.391V184.93Z" fill="var(--fill-0, white)"/>
<path id="Vector_19" d="M120.523 199.044H147.46V80.5343L126.509 76.242L120.523 80.5343V199.044Z" fill="var(--fill-0, #767676)"/>
<path id="Vector_20" d="M155.271 124.257H134.028V207.192H155.271V124.257Z" fill="var(--fill-0, #565757)"/>
<path id="Vector_21" d="M180.821 124.257L184.179 130.004L180.091 133.933L180.821 124.257Z" fill="var(--fill-0, #767676)"/>
<path id="Vector_22" d="M198.414 141.935H156.95V211.339H198.414V141.935Z" fill="var(--fill-0, #565757)"/>
<path id="Vector_23" d="M192.428 137.352H171.404V141.935H192.428V137.352Z" fill="var(--fill-0, #565757)"/>
<path id="Vector_24" d="M192.501 137.352L182.646 122.584L181.551 137.498L192.501 137.352Z" fill="var(--fill-0, #565757)"/>
<path id="Vector_25" d="M171.404 137.352L181.259 122.584L182.281 137.498L171.404 137.352Z" fill="var(--fill-0, #565757)"/>
<path id="Vector_26" d="M169.798 152.484H153.154V212.794H169.798V152.484Z" fill="var(--fill-0, #6D6D6D)"/>
<path id="Vector_27" d="M199.801 162.815H163.301V211.339H199.801V162.815Z" fill="var(--fill-0, white)"/>
<path id="Vector_28" d="M123.589 126.803H111.836V188.568H123.589V126.803Z" fill="var(--fill-0, #565757)"/>
<path id="Vector_29" d="M142.058 137.497H116.362V212.794H142.058V137.497Z" fill="var(--fill-0, #6D6D6D)"/>
<path id="Vector_30" d="M85.337 179.474H74.314V212.721H85.337V179.474Z" fill="var(--fill-0, #565757)"/>
<path id="Vector_31" d="M106.799 140.408V120.328H105.412V113.49H104.317V111.017H103.514V108.688H102.419V106.36H101.397V104.032H100.229V101.705H99.061V93.0473H96.36V88.9733H93.221V93.0473H90.52V101.705H89.279V104.032H88.184V106.36H87.162V108.688H86.067V111.017H85.191V113.49H84.169V120.328H82.782V140.408H80.592V212.794H108.989V140.408H106.799Z" fill="var(--fill-0, #6D6D6D)"/>
<path id="Vector_32" d="M128.772 174.454H104.025V212.794H128.772V174.454Z" fill="var(--fill-0, #BABABA)"/>
<path id="Vector_33" d="M158.775 174.454H134.028V212.794H158.775V174.454Z" fill="var(--fill-0, #BABABA)"/>
<path id="Vector_34" d="M121.326 164.633H107.894V174.454H121.326V164.633Z" fill="var(--fill-0, #BABABA)"/>
<path id="Vector_35" d="M96.652 189.732H77.891V214.758H96.652V189.732Z" fill="var(--fill-0, white)"/>
<path id="Vector_36" d="M147.46 164.124H136.656V178.747H147.46V164.124Z" fill="var(--fill-0, #BABABA)"/>
<path id="Vector_37" d="M151.329 170.38H145.124V178.747H151.329V170.38Z" fill="var(--fill-0, #BABABA)"/>
<path id="Vector_38" d="M129.21 141.935C134.774 141.935 139.284 139.883 139.284 137.352C139.284 134.821 134.774 132.769 129.21 132.769C123.646 132.769 119.136 134.821 119.136 137.352C119.136 139.883 123.646 141.935 129.21 141.935Z" fill="var(--fill-0, #6D6D6D)"/>
<path id="Vector_39" d="M113.442 126.803V123.893L115.267 121.783H118.187V126.803H113.442Z" fill="var(--fill-0, #565757)"/>
<path id="Vector_40" d="M120.523 126.803V123.893L118.771 121.783H115.851V126.803H120.523Z" fill="var(--fill-0, #565757)"/>
<path id="Vector_41" d="M215.277 182.748H179.872V212.794H215.277V182.748Z" fill="var(--fill-0, #BABABA)"/>
<path id="Vector_42" d="M197.611 177.801H184.763V182.748H197.611V177.801Z" fill="var(--fill-0, #BABABA)"/>
<path id="Vector_43" d="M192.428 159.323H178.996V165.725H192.428V159.323Z" fill="var(--fill-0, white)"/>
<path id="Vector_44" d="M173.667 159.323H167.097V164.633H173.667V159.323Z" fill="var(--fill-0, white)"/>
<path id="Vector_45" d="M236.082 164.633H222.212V176.637H236.082V164.633Z" fill="var(--fill-0, white)"/>
<path id="Vector_46" d="M273.166 187.113H240.316V212.066H273.166V187.113Z" fill="var(--fill-0, #BABABA)"/>
<path id="Vector_47" d="M292.438 189.368H276.013V212.066H292.438V189.368Z" fill="var(--fill-0, #BABABA)"/>
<path id="Vector_48" d="M298.57 191.551H279.225V214.249H298.57V191.551Z" fill="var(--fill-0, #BABABA)"/>
<path id="Vector_49" d="M323.828 201.445H300.468V212.794H323.828V201.445Z" fill="var(--fill-0, #BABABA)"/>
<path id="Vector_50" d="M273.239 106.797H270.83V114.363H273.239V106.797Z" fill="var(--fill-0, white)"/>
<path id="Vector_51" d="M273.166 106.797L271.998 103.96L270.83 106.797H273.166Z" fill="var(--fill-0, white)"/>
<path id="Vector_52" d="M277.838 106.797H275.429V114.363H277.838V106.797Z" fill="var(--fill-0, white)"/>
<path id="Vector_53" d="M277.838 106.797L276.67 103.96L275.429 106.797H277.838Z" fill="var(--fill-0, white)"/>
<path id="Vector_54" d="M297.037 106.797H294.628V114.363H297.037V106.797Z" fill="var(--fill-0, white)"/>
<path id="Vector_55" d="M296.964 106.797L295.796 103.96L294.628 106.797H296.964Z" fill="var(--fill-0, white)"/>
<path id="Vector_56" d="M301.636 106.797H299.227V114.363H301.636V106.797Z" fill="var(--fill-0, white)"/>
<path id="Vector_57" d="M301.636 106.797L300.395 103.96L299.227 106.797H301.636Z" fill="var(--fill-0, white)"/>
<path id="Vector_58" d="M285.868 109.78H283.897V116.109H285.868V109.78Z" fill="var(--fill-0, white)"/>
<path id="Vector_59" d="M285.868 109.78L284.846 107.379L283.897 109.78H285.868Z" fill="var(--fill-0, white)"/>
<path id="Vector_60" d="M289.883 109.78H287.912V116.109H289.883V109.78Z" fill="var(--fill-0, white)"/>
<path id="Vector_61" d="M289.883 109.78L288.934 107.379L287.912 109.78H289.883Z" fill="var(--fill-0, white)"/>
<path id="Vector_62" d="M367.701 187.113H336.092V212.794H367.701V187.113Z" fill="var(--fill-0, #BABABA)"/>
<path id="Vector_63" d="M358.868 178.019H346.02V187.04H358.868V178.019Z" fill="var(--fill-0, #BABABA)"/>
</g>
<path id="Vector_64" d="M47.377 212.648C89.571 210.684 133.809 209.884 176.076 209.52C239.075 209.156 306.308 209.447 369.088 211.775L379.819 212.139L390.55 212.648C306.308 213.594 131.619 213.594 47.377 212.648Z" fill="var(--fill-0, #BABABA)"/>
</g>
</svg>
