<svg preserveAspectRatio="none" width="100%" height="100%" overflow="visible" style="display: block;" viewBox="0 0 349.746 76.9695" fill="none" xmlns="http://www.w3.org/2000/svg">
<g id="Group">
<g id="Group_2">
<path id="Vector" d="M253.678 76.8968H279.68V24.0803H253.678V76.8968Z" fill="var(--fill-0, #BEC0C0)"/>
<path id="Vector_2" d="M256.082 29.8275L277.276 29.8275V20.2972H256.082V29.8275Z" fill="var(--fill-0, #BEC0C0)"/>
<path id="Vector_3" d="M257.466 25.3898H271.304V15.8595L257.466 15.8595V25.3898Z" fill="var(--fill-0, #BEC0C0)"/>
</g>
<g id="Group_3">
<path id="Vector_4" d="M335.397 76.9695H349.746V39.9398H335.397V76.9695Z" fill="var(--fill-0, #BEC0C0)"/>
<path id="Vector_5" d="M336.708 43.941H348.362V37.248H336.708V43.941Z" fill="var(--fill-0, #BEC0C0)"/>
</g>
<g id="Group_4">
<path id="Vector_6" d="M108.303 76.8967H138.966V15.4957L108.303 15.4957V76.8967Z" fill="var(--fill-0, #BEC0C0)"/>
<path id="Vector_7" d="M111.143 22.1887L136.125 22.1887V11.1307L111.143 11.1307V22.1887Z" fill="var(--fill-0, #BEC0C0)"/>
</g>
<path id="Vector_8" d="M176.038 76.8968H194.683V15.4958H176.038V76.8968Z" fill="var(--fill-0, #BEC0C0)"/>
<g id="Group_5">
<path id="Vector_9" d="M62.1268 51.1433H33.7218V76.8968H62.1268V51.1433Z" fill="var(--fill-0, #BEC0C0)"/>
<path id="Vector_10" d="M62.1268 48.888H40.8595V74.6415H62.1268V48.888Z" fill="var(--fill-0, #BEC0C0)"/>
</g>
<g id="Group_6">
<path id="Vector_11" d="M113.474 51.1433H85.0693V76.8968H113.474V51.1433Z" fill="var(--fill-0, #BEC0C0)"/>
<path id="Vector_12" d="M113.474 48.888H92.207V74.6415H113.474V48.888Z" fill="var(--fill-0, #BEC0C0)"/>
</g>
<g id="Group_7">
<path id="Vector_13" d="M290.896 44.8867H262.491V76.9695H290.896V44.8867Z" fill="var(--fill-0, #BEC0C0)"/>
<path id="Vector_14" d="M290.969 42.1223H269.702V74.205H290.969V42.1223Z" fill="var(--fill-0, #BEC0C0)"/>
</g>
<g id="Group_8">
<path id="Vector_15" d="M42.2433 39.4305H11.5077V76.8968H42.2433V39.4305Z" fill="var(--fill-0, #BEC0C0)"/>
<path id="Vector_16" d="M42.2433 36.1567H19.228V73.623H42.2433V36.1567Z" fill="var(--fill-0, #BEC0C0)"/>
</g>
<g id="Group_9">
<path id="Vector_17" d="M231.246 32.6648H200.51V76.8968H231.246V32.6648Z" fill="var(--fill-0, #BEC0C0)"/>
<path id="Vector_18" d="M223.671 28.809H215.878V73.041H223.671V28.809Z" fill="var(--fill-0, #BEC0C0)"/>
</g>
<g id="Group_10">
<path id="Vector_19" d="M55.1348 76.8968H76.3293V21.7523H55.1348L55.1348 76.8968Z" fill="var(--fill-0, #BEC0C0)"/>
<path id="Vector_20" d="M152.295 73.4048H162.127V18.2603H152.295V73.4048Z" fill="var(--fill-0, #BEC0C0)"/>
</g>
<path id="Vector_21" d="M53.1683 76.8968H74.3628V21.7523H53.1683L53.1683 76.8968Z" fill="var(--fill-0, #BEC0C0)"/>
<path id="Vector_22" d="M146.395 76.8968H154.261V21.7523H146.395V76.8968Z" fill="var(--fill-0, #BEC0C0)"/>
<path id="Vector_23" d="M0 76.8968H11.4348L11.4348 46.7783H0L0 76.8968Z" fill="var(--fill-0, #BEC0C0)"/>
<g id="Group_11">
<path id="Vector_24" d="M301.312 76.8968H313.693V4.58326H301.312V76.8968Z" fill="var(--fill-0, #BEC0C0)"/>
<path id="Vector_25" d="M305.245 72.3135H309.833V0H305.245V72.3135Z" fill="var(--fill-0, #BEC0C0)"/>
</g>
</g>
</svg>
