<svg preserveAspectRatio="none" width="100%" height="100%" overflow="visible" style="display: block;" viewBox="0 0 325.128 145.427" fill="none" xmlns="http://www.w3.org/2000/svg">
<g id="Group">
<g id="Group_2">
<path id="Vector" d="M137.582 145.354H129.643L131.828 53.9077H135.397L137.582 145.354Z" fill="var(--fill-0, white)"/>
<path id="Vector_2" d="M137.145 51.5798H130.08C129.638 51.5798 129.279 51.938 129.279 52.38V53.544C129.279 53.986 129.638 54.3443 130.08 54.3443H137.145C137.588 54.3443 137.946 53.986 137.946 53.544V52.38C137.946 51.938 137.588 51.5798 137.145 51.5798Z" fill="var(--fill-0, white)"/>
<path id="Vector_3" d="M137.145 45.978H130.08C129.638 45.978 129.279 46.3363 129.279 46.7782V47.9423C129.279 48.3842 129.638 48.7425 130.08 48.7425H137.145C137.588 48.7425 137.946 48.3842 137.946 47.9423V46.7782C137.946 46.3363 137.588 45.978 137.145 45.978Z" fill="var(--fill-0, white)"/>
<path id="Vector_4" d="M138.893 48.015H128.332V52.38H138.893V48.015Z" fill="var(--fill-0, white)"/>
<path id="Vector_5" d="M136.198 40.3763H130.954V46.6327H136.198V40.3763Z" fill="var(--fill-0, white)"/>
<path id="Vector_6" d="M135.834 22.1888H131.318V24.8077H135.834V22.1888Z" fill="var(--fill-0, white)"/>
<path id="Vector_7" d="M135.179 23.9348H131.974V41.613H135.179V23.9348Z" fill="var(--fill-0, white)"/>
<path id="Vector_8" d="M134.596 10.4033H132.557V28.0815H134.596V10.4033Z" fill="var(--fill-0, white)"/>
<path id="Vector_9" d="M133.576 15.9323V0" stroke="var(--stroke-0, white)" stroke-width="1.1" stroke-miterlimit="10"/>
</g>
<path id="Vector_10" d="M252.732 94.3568H241.734V145.354H252.732V94.3568Z" fill="var(--fill-0, white)"/>
<path id="Vector_11" d="M251.129 88.6095H243.482V145.427H251.129V88.6095Z" fill="var(--fill-0, white)"/>
<g id="Group_3">
<path id="Vector_12" d="M125.783 117.346H118.063V145.427H125.783V117.346Z" fill="var(--fill-0, white)"/>
<path id="Vector_13" d="M123.671 115.6H120.248V143.681H123.671V115.6Z" fill="var(--fill-0, white)"/>
</g>
<g id="Group_4">
<path id="Vector_14" d="M190.823 123.238H178.951V145.354H190.823V123.238Z" fill="var(--fill-0, white)"/>
<path id="Vector_15" d="M188.566 119.164H181.209V143.972H188.566V119.164Z" fill="var(--fill-0, white)"/>
</g>
<g id="Group_5">
<path id="Vector_16" d="M230.445 115.963H215.878V145.354H230.445V115.963Z" fill="var(--fill-0, white)"/>
<path id="Vector_17" d="M230.445 113.417H219.592V142.808H230.445V113.417Z" fill="var(--fill-0, white)"/>
</g>
<g id="Group_6">
<path id="Vector_18" d="M209.906 69.9855H195.339V145.354H209.906V69.9855Z" fill="var(--fill-0, white)"/>
<path id="Vector_19" d="M209.906 63.5107H204.443V138.88H209.906V63.5107Z" fill="var(--fill-0, white)"/>
</g>
<g id="Group_7">
<path id="Vector_20" d="M165.113 134.297H136.271V145.354H165.113V134.297Z" fill="var(--fill-0, white)"/>
<path id="Vector_21" d="M150.692 129.349H138.529V142.663H150.692V129.349Z" fill="var(--fill-0, white)"/>
<path id="Vector_22" d="M161.399 127.094H149.236V142.663H161.399V127.094Z" fill="var(--fill-0, white)"/>
</g>
<g id="Group_8">
<path id="Vector_23" d="M294.319 79.443H278.587V145.354H294.319V79.443Z" fill="var(--fill-0, white)"/>
<path id="Vector_24" d="M291.989 77.7698H280.991V83.517H291.989V77.7698Z" fill="var(--fill-0, white)"/>
<g id="Group_9">
<path id="Vector_25" d="M285.725 79.443V65.2568" stroke="var(--stroke-0, white)" stroke-width="1.1" stroke-miterlimit="10"/>
<path id="Vector_26" d="M288.784 79.443V69.4035" stroke="var(--stroke-0, white)" stroke-width="1.1" stroke-miterlimit="10"/>
</g>
</g>
<g id="Group_10">
<path id="Vector_27" d="M325.128 88.2457H309.906V145.354H325.128V88.2457Z" fill="var(--fill-0, white)"/>
<path id="Vector_28" d="M320.394 84.6082H314.713V141.717H320.394V84.6082Z" fill="var(--fill-0, white)"/>
</g>
<g id="Group_11">
<path id="Vector_29" d="M118.281 101.268H96.7955V145.354H118.281V101.268Z" fill="var(--fill-0, white)"/>
<path id="Vector_30" d="M111.508 98.5035H103.569V142.59H111.508V98.5035Z" fill="var(--fill-0, white)"/>
</g>
<g id="Group_12">
<path id="Vector_31" d="M272.979 110.944H254.771V145.354H272.979V110.944Z" fill="var(--fill-0, white)"/>
<path id="Vector_32" d="M258.486 110.944C258.486 107.815 260.889 103.014 263.875 103.014C266.861 103.014 269.265 107.815 269.265 110.944" fill="var(--fill-0, white)"/>
<path id="Vector_33" d="M263.875 105.633V98.5035" stroke="var(--stroke-0, white)" stroke-width="1.1" stroke-miterlimit="10"/>
</g>
<g id="Group_13">
<path id="Vector_34" d="M10.8522 87.1545H4.76837e-08V145.427H10.8522V87.1545Z" fill="var(--fill-0, white)"/>
<path id="Vector_35" d="M13.984 89.8463H3.13183V145.427H13.984V89.8463Z" fill="var(--fill-0, white)"/>
<path id="Vector_36" d="M21.9957 97.2668H9.24983V145.354H21.9957V97.2668Z" fill="var(--fill-0, white)"/>
</g>
<path id="Vector_37" d="M100.947 129.64C94.392 121.347 83.5398 115.963 71.231 115.963C58.9222 115.963 47.9972 121.42 41.515 129.64V145.354H101.02V129.64H100.947Z" fill="var(--fill-0, white)"/>
<g id="Group_14">
<path id="Vector_38" d="M34.4502 132.405H0.582663V145.427H34.4502V132.405Z" fill="var(--fill-0, white)"/>
<path id="Vector_39" d="M17.5528 126.512H3.2775V142.153H17.5528V126.512Z" fill="var(--fill-0, white)"/>
<path id="Vector_40" d="M30.153 123.893H15.8777V142.153H30.153V123.893Z" fill="var(--fill-0, white)"/>
</g>
<path id="Vector_41" d="M184.851 142.081H152.294V145.354H184.851V142.081Z" fill="var(--fill-0, white)"/>
<path id="Vector_42" d="M226.148 132.842H202.622V145.354H226.148V132.842Z" fill="var(--fill-0, white)"/>
<path id="Vector_43" d="M250.692 132.842H230.008V145.354H250.692V132.842Z" fill="var(--fill-0, white)"/>
<g id="Group_15">
<path id="Vector_44" d="M309.906 123.238H298.034V145.354H309.906V123.238Z" fill="var(--fill-0, white)"/>
<path id="Vector_45" d="M307.648 119.164H300.292V143.972H307.648V119.164Z" fill="var(--fill-0, white)"/>
</g>
</g>
</svg>
