<svg width="122" height="121" viewBox="0 0 122 121" fill="none" xmlns="http://www.w3.org/2000/svg">
<g clip-path="url(#clip0_490_3227)">
<path d="M114.335 21.1063C113.545 17.6698 110.812 14.9335 107.318 14.1482C106.527 10.6967 103.782 7.97369 100.303 7.18953C99.3596 3.05935 95.6213 0 91.224 0H49.3687C46.3789 0 43.5683 1.15449 41.4545 3.25125C41.4361 3.26922 41.4185 3.28789 41.4008 3.30656L26.1218 18.4556C24.0087 20.5545 22.8449 23.3437 22.8449 26.309V61.2976C18.6301 69.926 19.1333 80.2684 24.3556 88.4867L21.393 91.4251C19.3204 90.7222 16.9325 91.1821 15.2833 92.8178L2.14913 105.846C1.03132 106.955 0.415588 108.429 0.415588 109.997C0.415588 111.565 1.03132 113.039 2.14889 114.148L7.32689 119.283C8.48091 120.428 9.99619 121 11.5119 121C13.0272 121 14.5432 120.428 15.6967 119.283L21.8851 113.148C22.583 112.456 22.5833 111.334 21.8856 110.642C21.1876 109.949 20.0562 109.949 19.358 110.641L13.1697 116.777C12.2556 117.683 10.7682 117.683 9.85417 116.777L4.67617 111.641C4.23367 111.202 3.98967 110.618 3.98967 109.997C3.98967 109.376 4.23343 108.792 4.67641 108.353L17.8108 95.3239C18.7244 94.4175 20.2135 94.4178 21.1285 95.3239L26.3058 100.458C27.2203 101.367 27.2208 102.843 26.3065 103.75L24.4121 105.629C23.7142 106.321 23.7142 107.443 24.4121 108.136C25.1101 108.828 26.2415 108.828 26.9396 108.136L28.8338 106.257C30.4832 104.621 30.9467 102.253 30.2378 100.197L33.2004 97.2585C36.0475 99.0381 39.1471 100.265 42.343 100.94C42.9206 101.2 43.5159 101.402 44.1269 101.539C45.0729 105.668 48.8109 108.725 53.2075 108.725H112.272C117.407 108.725 121.584 104.581 121.584 99.4872V30.1114C121.584 25.7505 118.5 22.0434 114.335 21.1063ZM100.536 78.612V10.9829C102.45 11.8163 103.823 13.6568 103.965 15.8344C103.973 15.9443 103.977 16.0625 103.977 16.196V85.572C103.977 88.7101 101.403 91.2629 98.2391 91.2629H70.1684C71.0658 90.1737 71.8678 89.0324 72.5751 87.8503H91.224C96.3588 87.8503 100.536 83.7059 100.536 78.612ZM43.8066 5.93389C43.7294 6.35504 43.6867 6.78824 43.6867 7.23136V14.9782C43.6867 18.1162 41.1125 20.6691 37.9488 20.6691H30.1379C29.6892 20.6691 29.2508 20.7117 28.8243 20.7889L43.8066 5.93389ZM26.4192 27.9414C26.4195 27.9277 26.4214 27.9142 26.4214 27.9002C26.4214 25.8678 28.0887 24.2141 30.1379 24.2141H37.9488C43.0836 24.2141 47.2611 20.0709 47.2611 14.9782V7.23136C47.2611 5.19889 48.9284 3.54525 50.9776 3.54525C50.98 3.54525 50.9822 3.54502 50.9845 3.54502H91.224C94.2409 3.54502 96.7556 5.87977 96.95 8.87625C96.9579 8.98544 96.9619 9.10313 96.9619 9.23595V78.612C96.9619 81.7512 94.3877 84.3053 91.224 84.3053H74.3632C78.6111 74.1374 76.5759 61.975 68.2537 53.7207C57.2336 42.7914 39.3037 42.7917 28.2841 53.7207C27.6223 54.377 27.0014 55.0586 26.4192 55.7615V27.9414ZM30.8118 56.2275C35.6252 51.4533 41.9463 49.0673 48.2692 49.0673C54.5905 49.0673 60.914 51.4548 65.7264 56.2275C75.3523 65.7745 75.3523 81.3088 65.7264 90.8557C56.1006 100.403 40.4377 100.403 30.812 90.8557C21.1857 81.3088 21.1857 65.7747 30.8118 56.2275ZM28.1399 97.2642L24.3497 93.5051L26.4793 91.3932C27.0442 92.0705 27.6447 92.7285 28.2841 93.3625C28.9231 93.9964 29.5865 94.592 30.2695 95.1521L28.1399 97.2642ZM118.01 99.4874C118.01 102.627 115.436 105.181 112.272 105.181H53.2078C50.8718 105.181 48.8376 103.781 47.9476 101.766H105.255C110.391 101.766 114.569 97.6225 114.569 92.5297V41.2947C114.569 40.3158 113.769 39.5222 112.782 39.5222C111.795 39.5222 110.995 40.3158 110.995 41.2947V92.5297C110.995 95.6677 108.42 98.2206 105.255 98.2206H61.6729C63.4339 97.281 65.1155 96.1444 66.6825 94.808H98.2389C103.374 94.808 107.551 90.6648 107.551 85.572V17.9385C109.583 18.821 110.995 20.8376 110.995 23.1537V34.2189C110.995 35.1978 111.795 35.9914 112.782 35.9914C113.769 35.9914 114.569 35.1978 114.569 34.2189V24.8974C116.599 25.7806 118.01 27.7965 118.01 30.1114V99.4874H118.01Z" fill="url(#paint0_linear_490_3227)"/>
<path d="M48.2688 93.8773C53.7456 93.8773 58.8947 91.7622 62.7674 87.9212C70.7617 79.9925 70.7617 67.0912 62.7674 59.1624C58.8947 55.3215 53.7458 53.2063 48.2688 53.2063C42.7922 53.2063 37.643 55.3215 33.7704 59.1624C25.7761 67.0912 25.7761 79.9925 33.7704 87.9212C37.6433 91.7622 42.7922 93.8773 48.2688 93.8773ZM36.2982 61.669C39.4955 58.4976 43.747 56.7511 48.2688 56.7511C52.791 56.7511 57.0423 58.4976 60.2396 61.669C66.8405 68.2157 66.8405 78.8677 60.2396 85.4144C57.0423 88.5858 52.7908 90.3323 48.2688 90.3323C43.7468 90.3323 39.4955 88.5858 36.2982 85.4144C29.6973 78.8677 29.6973 68.2157 36.2982 61.669Z" fill="url(#paint1_linear_490_3227)"/>
<path d="M33.3916 42.4271C34.314 42.7755 35.3465 42.3165 35.6979 41.4017L36.3709 39.6493H41.0737L41.7388 41.3967C42.0088 42.1064 42.6888 42.5439 43.4111 42.5439C43.6208 42.5439 43.834 42.507 44.0418 42.4293C44.9652 42.0837 45.4313 41.0609 45.0827 40.1451L40.6608 28.524C40.6548 28.5077 40.6481 28.4914 40.6415 28.4751C40.3229 27.7075 39.5766 27.2117 38.7399 27.2117C38.7392 27.2117 38.7383 27.2117 38.7375 27.2117C37.8997 27.2126 37.1536 27.7101 36.8362 28.4791C36.8308 28.4924 36.8253 28.5058 36.8203 28.5193L32.3576 40.1396C32.0061 41.0547 32.4694 42.0788 33.3916 42.4271ZM39.7245 36.104H37.732L38.7328 33.4979L39.7245 36.104Z" fill="url(#paint2_linear_490_3227)"/>
<path d="M76.4918 42.5432C77.479 42.5432 78.279 41.7496 78.279 40.7707V28.9842C78.279 28.0053 77.479 27.2117 76.4918 27.2117C75.5046 27.2117 74.7047 28.0053 74.7047 28.9842V40.7707C74.7047 41.7496 75.5046 42.5432 76.4918 42.5432Z" fill="url(#paint3_linear_490_3227)"/>
<path d="M60.9221 40.777C60.9237 41.2473 61.1139 41.6973 61.4504 42.0287C61.7849 42.3584 62.2377 42.5432 62.7092 42.5432H62.7159C62.8177 42.5427 65.2196 42.5337 66.1804 42.5169C69.9215 42.4522 72.637 39.2392 72.637 34.8774C72.637 30.2923 69.9904 27.2117 66.0507 27.2117H62.6849C62.2105 27.2117 61.7554 27.3988 61.4199 27.7321C61.0848 28.0653 60.8968 28.5169 60.8978 28.9875C60.8978 28.9877 60.9064 33.5209 60.9064 34.8644C60.9064 36.5034 60.9221 40.777 60.9221 40.777ZM66.0507 30.7567C68.8456 30.7567 69.0627 33.9108 69.0627 34.8774C69.0627 36.8903 68.1522 38.9372 66.1179 38.9724C65.7376 38.979 65.1071 38.9844 64.4904 38.9887C64.4859 37.6196 64.4809 35.806 64.4809 34.8644C64.4809 34.0744 64.4778 32.1832 64.4757 30.7567H66.0507Z" fill="url(#paint4_linear_490_3227)"/>
<path d="M49.3837 41.643C50.3238 42.2388 51.3839 42.5415 52.5341 42.5432H52.5432C53.5314 42.5432 54.46 42.3295 55.3033 41.9081C57.3818 40.8699 58.5263 39.1574 58.5263 37.086V28.9842C58.5263 28.0053 57.7264 27.2117 56.7392 27.2117C55.752 27.2117 54.952 28.0053 54.952 28.9842V37.086C54.952 37.5946 54.8029 38.1889 53.6955 38.742C53.3507 38.9142 52.9738 38.9979 52.5434 38.9979C52.5417 38.9979 52.5403 38.9979 52.5386 38.9979C52.0735 38.9972 51.6708 38.8852 51.3081 38.6555C50.4424 38.1069 50.2687 37.6515 50.2687 37.0945V28.9842C50.2687 28.0053 49.4688 27.2117 48.4816 27.2117C47.4943 27.2117 46.6944 28.0053 46.6944 28.9842V37.0947C46.6944 38.9818 47.5992 40.5121 49.3837 41.643Z" fill="url(#paint5_linear_490_3227)"/>
<path d="M82.7917 30.7567H84.2729V40.7707C84.2729 41.7496 85.0728 42.5432 86.06 42.5432C87.0473 42.5432 87.8472 41.7496 87.8472 40.7707V30.7567H89.3548C90.3421 30.7567 91.142 29.9631 91.142 28.9842C91.142 28.0053 90.3421 27.2117 89.3548 27.2117H82.7917C81.8044 27.2117 81.0045 28.0053 81.0045 28.9842C81.0045 29.9631 81.8047 30.7567 82.7917 30.7567Z" fill="url(#paint6_linear_490_3227)"/>
<path d="M46.6811 87.8718C46.816 87.8718 46.9513 87.8669 47.0864 87.8572C48.9522 87.7225 50.6157 86.6774 51.5352 85.0618L59.8832 70.4013C61.3949 67.747 60.4472 64.3679 57.7708 62.8686C55.0953 61.3702 51.688 62.3094 50.1761 64.9639L45.9507 72.3846L44.7548 70.8548C43.8426 69.6878 42.5265 68.9429 41.0494 68.7573C39.5722 68.5716 38.1106 68.9682 36.9339 69.8728C34.5051 71.7406 34.0609 75.2201 35.9441 77.6293L42.2763 85.7307C43.3243 87.0714 44.9711 87.8718 46.6811 87.8718ZM39.1238 72.6746C39.4781 72.4023 39.9042 72.2584 40.3453 72.2584C40.4298 72.2584 40.5152 72.2636 40.6005 72.2745C41.1304 72.3409 41.6025 72.6082 41.9296 73.027L44.7724 76.6637C45.1391 77.1328 45.7196 77.3885 46.3148 77.3455C46.9115 77.3025 47.4469 76.966 47.741 76.4493L53.2881 66.7076C53.8304 65.7554 55.0531 65.4179 56.0131 65.9558C56.9732 66.4937 57.3132 67.7059 56.7711 68.6583L48.4232 83.3189C48.0932 83.8984 47.4963 84.2734 46.8269 84.3216C46.1611 84.3698 45.507 84.0777 45.1012 83.5587L38.7692 75.4577C38.0932 74.5929 38.2526 73.3446 39.1238 72.6746Z" fill="url(#paint7_linear_490_3227)"/>
</g>
<defs>
<linearGradient id="paint0_linear_490_3227" x1="60.9999" y1="0" x2="60.9999" y2="121" gradientUnits="userSpaceOnUse">
<stop stop-color="white"/>
<stop offset="1" stop-color="white" stop-opacity="0.5"/>
</linearGradient>
<linearGradient id="paint1_linear_490_3227" x1="48.2689" y1="53.2063" x2="48.2689" y2="93.8773" gradientUnits="userSpaceOnUse">
<stop stop-color="white"/>
<stop offset="1" stop-color="white" stop-opacity="0.5"/>
</linearGradient>
<linearGradient id="paint2_linear_490_3227" x1="38.7192" y1="27.2117" x2="38.7192" y2="42.5439" gradientUnits="userSpaceOnUse">
<stop stop-color="white"/>
<stop offset="1" stop-color="white" stop-opacity="0.5"/>
</linearGradient>
<linearGradient id="paint3_linear_490_3227" x1="76.4918" y1="27.2117" x2="76.4918" y2="42.5432" gradientUnits="userSpaceOnUse">
<stop stop-color="white"/>
<stop offset="1" stop-color="white" stop-opacity="0.5"/>
</linearGradient>
<linearGradient id="paint4_linear_490_3227" x1="66.7674" y1="27.2117" x2="66.7674" y2="42.5432" gradientUnits="userSpaceOnUse">
<stop stop-color="white"/>
<stop offset="1" stop-color="white" stop-opacity="0.5"/>
</linearGradient>
<linearGradient id="paint5_linear_490_3227" x1="52.6104" y1="27.2117" x2="52.6104" y2="42.5432" gradientUnits="userSpaceOnUse">
<stop stop-color="white"/>
<stop offset="1" stop-color="white" stop-opacity="0.5"/>
</linearGradient>
<linearGradient id="paint6_linear_490_3227" x1="86.0733" y1="27.2117" x2="86.0733" y2="42.5432" gradientUnits="userSpaceOnUse">
<stop stop-color="white"/>
<stop offset="1" stop-color="white" stop-opacity="0.5"/>
</linearGradient>
<linearGradient id="paint7_linear_490_3227" x1="47.6902" y1="62.1553" x2="47.6902" y2="87.8718" gradientUnits="userSpaceOnUse">
<stop stop-color="white"/>
<stop offset="1" stop-color="white" stop-opacity="0.5"/>
</linearGradient>
<clipPath id="clip0_490_3227">
<rect width="122" height="121" fill="white"/>
</clipPath>
</defs>
</svg>
