<svg preserveAspectRatio="none" width="100%" height="100%" overflow="visible" style="display: block;" viewBox="0 0 44 44" fill="none" xmlns="http://www.w3.org/2000/svg">
<g id="fi_1220856" clip-path="url(#clip0_0_16)">
<path id="Vector" d="M37.9727 -0.0859374H6.0495C5.08304 -0.0859374 4.29684 0.700258 4.29684 1.66672V42.1612C4.29684 43.128 5.08304 43.9142 6.0495 43.9142H37.9727C38.9391 43.9142 39.7253 43.128 39.7253 42.1612V26.5544C39.7253 26.1982 39.437 25.9099 39.0808 25.9099C38.7249 25.9099 38.4362 26.1982 38.4362 26.5544V42.1612C38.4362 42.417 38.2281 42.6251 37.9727 42.6251H6.0495C5.7937 42.6251 5.58591 42.417 5.58591 42.1612V8.07814H38.4362V24.1485C38.4362 24.5043 38.7249 24.793 39.0808 24.793C39.437 24.793 39.7253 24.5043 39.7253 24.1485V1.66672C39.7253 0.700258 38.9391 -0.0859374 37.9727 -0.0859374ZM5.58591 6.78908V1.66672C5.58591 1.41126 5.79404 1.20313 6.0495 1.20313H37.9727C38.2285 1.20313 38.4362 1.41126 38.4362 1.66672V6.78908H5.58591Z" fill="url(#paint0_linear_0_16)"/>
<path id="Vector_2" d="M36.2878 11.564C36.2878 10.8265 35.6879 10.2266 34.9504 10.2266H23.2139C22.858 10.2266 22.5693 10.5149 22.5693 10.8711C22.5693 11.2273 22.858 11.5156 23.2139 11.5156H32.7459L22.0111 16.5403L11.2763 11.5156H20.8076C21.1635 11.5156 21.4521 11.2273 21.4521 10.8711C21.4521 10.5149 21.1635 10.2266 20.8076 10.2266H9.07175C8.33423 10.2266 7.73435 10.8265 7.73435 11.564V22.94C7.73435 23.6775 8.33423 24.2774 9.07175 24.2774H34.9504C35.6879 24.2774 36.2878 23.6775 36.2878 22.94V11.564ZM34.9987 11.8846V22.6197L23.5314 17.252L34.9987 11.8846ZM32.7459 22.9883H11.2763L22.0111 17.9637L32.7459 22.9883ZM9.02341 22.6194V11.8846L20.4907 17.252L9.02341 22.6194Z" fill="url(#paint1_linear_0_16)"/>
<path id="Vector_3" d="M34.9504 26.4258H24.4227C23.6852 26.4258 23.0853 27.0257 23.0853 27.7632V39.1392C23.0853 39.8768 23.6852 40.4766 24.4227 40.4766H34.9504C35.6879 40.4766 36.2878 39.8768 36.2878 39.1392V27.7632C36.2878 27.0257 35.6879 26.4258 34.9504 26.4258ZM34.9987 27.7632V38.1973L25.2133 27.7149H34.9504C34.9773 27.7149 34.9987 27.7367 34.9987 27.7632ZM24.3744 39.1392V28.7052L34.1598 39.1876H24.4227C24.3962 39.1876 24.3744 39.1658 24.3744 39.1392Z" fill="url(#paint2_linear_0_16)"/>
<path id="Vector_4" d="M9.07175 26.4258C8.33423 26.4258 7.73435 27.0257 7.73435 27.7632V39.1392C7.73435 39.8768 8.33423 40.4766 9.07175 40.4766H19.5995C20.337 40.4766 20.9369 39.8768 20.9369 39.1392V27.7632C20.9369 27.0257 20.337 26.4258 19.5995 26.4258H9.07175ZM9.02341 39.1392V28.7052L18.8089 39.1876H9.07175C9.0449 39.1876 9.02341 39.1658 9.02341 39.1392ZM19.6478 27.7632V38.1973L9.86231 27.7149H19.5995C19.626 27.7149 19.6478 27.7367 19.6478 27.7632Z" fill="url(#paint3_linear_0_16)"/>
<path id="Vector_5" d="M29.6867 2.01954C28.5967 2.01954 27.7102 2.9061 27.7102 3.9961C27.7102 5.0861 28.5967 5.97267 29.6867 5.97267C30.7764 5.97267 31.6633 5.0861 31.6633 3.9961C31.6633 2.9061 30.7764 2.01954 29.6867 2.01954ZM29.6867 4.6836C29.3077 4.6836 28.9992 4.3751 28.9992 3.9961C28.9992 3.6171 29.3077 3.3086 29.6867 3.3086C30.0657 3.3086 30.3742 3.6171 30.3742 3.9961C30.3742 4.3751 30.0657 4.6836 29.6867 4.6836Z" fill="url(#paint4_linear_0_16)"/>
<path id="Vector_6" d="M34.3112 2.01954C33.2216 2.01954 32.3347 2.9061 32.3347 3.9961C32.3347 5.0861 33.2216 5.97267 34.3112 5.97267C35.4012 5.97267 36.2878 5.0861 36.2878 3.9961C36.2878 2.9061 35.4012 2.01954 34.3112 2.01954ZM34.3112 4.6836C33.9322 4.6836 33.6237 4.3751 33.6237 3.9961C33.6237 3.6171 33.9322 3.3086 34.3112 3.3086C34.6906 3.3086 34.9987 3.6171 34.9987 3.9961C34.9987 4.3751 34.6906 4.6836 34.3112 4.6836Z" fill="url(#paint5_linear_0_16)"/>
</g>
<defs>
<linearGradient id="paint0_linear_0_16" x1="22.0111" y1="-0.0859374" x2="22.0111" y2="43.9142" gradientUnits="userSpaceOnUse">
<stop stop-color="white"/>
<stop offset="1" stop-color="white" stop-opacity="0.5"/>
</linearGradient>
<linearGradient id="paint1_linear_0_16" x1="22.0111" y1="10.2266" x2="22.0111" y2="24.2774" gradientUnits="userSpaceOnUse">
<stop stop-color="white"/>
<stop offset="1" stop-color="white" stop-opacity="0.5"/>
</linearGradient>
<linearGradient id="paint2_linear_0_16" x1="29.6866" y1="26.4258" x2="29.6866" y2="40.4766" gradientUnits="userSpaceOnUse">
<stop stop-color="white"/>
<stop offset="1" stop-color="white" stop-opacity="0.5"/>
</linearGradient>
<linearGradient id="paint3_linear_0_16" x1="14.3356" y1="26.4258" x2="14.3356" y2="40.4766" gradientUnits="userSpaceOnUse">
<stop stop-color="white"/>
<stop offset="1" stop-color="white" stop-opacity="0.5"/>
</linearGradient>
<linearGradient id="paint4_linear_0_16" x1="29.6867" y1="2.01954" x2="29.6867" y2="5.97267" gradientUnits="userSpaceOnUse">
<stop stop-color="white"/>
<stop offset="1" stop-color="white" stop-opacity="0.5"/>
</linearGradient>
<linearGradient id="paint5_linear_0_16" x1="34.3112" y1="2.01954" x2="34.3112" y2="5.97267" gradientUnits="userSpaceOnUse">
<stop stop-color="white"/>
<stop offset="1" stop-color="white" stop-opacity="0.5"/>
</linearGradient>
<clipPath id="clip0_0_16">
<rect width="44" height="44" fill="white"/>
</clipPath>
</defs>
</svg>
