<svg preserveAspectRatio="none" width="100%" height="100%" overflow="visible" style="display: block;" viewBox="0 0 180 161" fill="none" xmlns="http://www.w3.org/2000/svg">
<g id="Layer_1">
<path id="Vector" d="M90.0003 14.6344C112.512 14.6344 130.818 32.8727 130.818 55.2813C130.818 57.8033 128.764 59.8542 126.226 59.8542C123.688 59.8542 121.634 57.8033 121.634 55.2813C121.634 37.909 107.443 23.7802 90.0003 23.7802C87.462 23.7802 85.4086 21.7292 85.4086 19.2073C85.4086 16.6854 87.462 14.6344 90.0003 14.6344Z" stroke="url(#paint0_linear_0_52)" stroke-width="2" stroke-linecap="round" stroke-linejoin="round"/>
<path id="Vector_2" d="M74.8157 148.533C77.0433 154.868 83.0822 159.608 90.0001 159.608C96.9179 159.608 102.957 154.876 105.184 148.533L105.457 147.758H74.5429L74.8157 148.533ZM63.5487 132.916C63.5487 136.083 66.1324 138.651 69.3072 138.651H110.701C113.868 138.651 116.459 136.083 116.459 132.916V127.18H63.5562V132.916H63.5487ZM142.327 55.2679C142.327 22.4146 112.14 -2.62982 78.6648 4.33584C59.0403 8.42256 43.0604 24.2833 38.9006 43.8205C35.3394 60.5396 39.7037 77.3195 50.8798 89.8303C57.775 97.5556 62.1545 107.423 63.2683 117.511L63.3289 118.027H116.679L116.739 117.511C117.853 107.431 122.24 97.6543 129.378 89.5416C137.728 80.0541 142.327 67.8775 142.327 55.2603V55.2679Z" stroke="url(#paint1_linear_0_52)" stroke-width="2" stroke-linecap="round" stroke-linejoin="round"/>
<path id="Vector_3" d="M74.8157 148.533C77.0433 154.868 83.0822 159.608 90.0001 159.608C96.9179 159.608 102.957 154.876 105.184 148.533L105.457 147.758H74.5429L74.8157 148.533ZM63.5487 132.916C63.5487 136.083 66.1324 138.651 69.3072 138.651H110.701C113.868 138.651 116.459 136.083 116.459 132.916V127.18H63.5562V132.916H63.5487ZM142.327 55.2679C142.327 22.4146 112.14 -2.62982 78.6648 4.33584C59.0403 8.42256 43.0604 24.2833 38.9006 43.8205C35.3394 60.5396 39.7037 77.3195 50.8798 89.8303C57.775 97.5556 62.1545 107.423 63.2683 117.511L63.3289 118.027H116.679L116.739 117.511C117.853 107.431 122.24 97.6543 129.378 89.5416C137.728 80.0541 142.327 67.8775 142.327 55.2603V55.2679Z" stroke="url(#paint2_linear_0_52)" stroke-width="2" stroke-linecap="round" stroke-linejoin="round"/>
<path id="Vector_4" d="M6.86629 55.8525H17.2165C19.7548 55.8525 21.8082 57.9035 21.8082 60.4254C21.8082 62.9473 19.7548 64.9983 17.2165 64.9983H6.86629C4.32799 64.9983 2.27461 62.9473 2.27461 60.4254C2.27461 57.9035 4.32799 55.8525 6.86629 55.8525Z" stroke="url(#paint3_linear_0_52)" stroke-width="2" stroke-linecap="round" stroke-linejoin="round"/>
<path id="Vector_5" d="M5.13098 22.6298C6.92674 20.8447 9.83632 20.8447 11.6321 22.6298L18.9515 29.9145C20.7472 31.6995 20.7472 34.5937 18.9515 36.3788C17.1557 38.1639 14.2461 38.1639 12.4504 36.3788L5.13098 29.0941C3.3428 27.309 3.3428 24.4149 5.13098 22.6298Z" stroke="url(#paint4_linear_0_52)" stroke-width="2" stroke-linecap="round" stroke-linejoin="round"/>
<path id="Vector_6" d="M12.4504 84.4675C14.2461 82.6824 17.1557 82.6824 18.9515 84.4675C20.7472 86.2526 20.7472 89.1467 18.9515 90.9318L11.6321 98.2165C9.83632 100.002 6.92674 100.002 5.13098 98.2165C3.3428 96.4314 3.3428 93.5373 5.13098 91.7522L12.4504 84.4675Z" stroke="url(#paint5_linear_0_52)" stroke-width="2" stroke-linecap="round" stroke-linejoin="round"/>
<path id="Vector_7" d="M162.791 55.8525H173.142C175.68 55.8525 177.733 57.9035 177.733 60.4254C177.733 62.9473 175.68 64.9983 173.142 64.9983H162.791C160.253 64.9983 158.2 62.9473 158.2 60.4254C158.2 57.9035 160.253 55.8525 162.791 55.8525Z" stroke="url(#paint6_linear_0_52)" stroke-width="2" stroke-linecap="round" stroke-linejoin="round"/>
<path id="Vector_8" d="M168.368 22.6298C170.164 20.8447 173.074 20.8447 174.869 22.6298C176.658 24.4149 176.658 27.309 174.869 29.0941L167.55 36.3788C165.754 38.1639 162.845 38.1639 161.049 36.3788C159.261 34.5937 159.261 31.6995 161.049 29.9145L168.368 22.6298Z" stroke="url(#paint7_linear_0_52)" stroke-width="2" stroke-linecap="round" stroke-linejoin="round"/>
<path id="Vector_9" d="M161.056 84.4675C162.852 82.6824 165.761 82.6824 167.557 84.4675L174.876 91.7522C176.665 93.5373 176.665 96.4314 174.876 98.2165C173.081 100.002 170.171 100.002 168.375 98.2165L161.056 90.9318C159.268 89.1467 159.268 86.2526 161.056 84.4675Z" stroke="url(#paint8_linear_0_52)" stroke-width="2" stroke-linecap="round" stroke-linejoin="round"/>
</g>
<defs>
<linearGradient id="paint0_linear_0_52" x1="108.113" y1="14.6344" x2="108.113" y2="59.8542" gradientUnits="userSpaceOnUse">
<stop stop-color="white"/>
<stop offset="1" stop-color="#C9C9C9" stop-opacity="0.2"/>
</linearGradient>
<linearGradient id="paint1_linear_0_52" x1="90.0073" y1="3.16573" x2="90.0073" y2="159.608" gradientUnits="userSpaceOnUse">
<stop stop-color="white"/>
<stop offset="1" stop-color="white" stop-opacity="0.5"/>
</linearGradient>
<linearGradient id="paint2_linear_0_52" x1="90.0073" y1="3.16573" x2="90.0073" y2="159.608" gradientUnits="userSpaceOnUse">
<stop stop-color="white"/>
<stop offset="1" stop-color="white" stop-opacity="0.5"/>
</linearGradient>
<linearGradient id="paint3_linear_0_52" x1="12.0414" y1="55.8525" x2="12.0414" y2="64.9983" gradientUnits="userSpaceOnUse">
<stop stop-color="white"/>
<stop offset="1" stop-color="#C9C9C9" stop-opacity="0.2"/>
</linearGradient>
<linearGradient id="paint4_linear_0_52" x1="12.0441" y1="21.2909" x2="12.0441" y2="37.7176" gradientUnits="userSpaceOnUse">
<stop stop-color="white"/>
<stop offset="1" stop-color="#C9C9C9" stop-opacity="0.2"/>
</linearGradient>
<linearGradient id="paint5_linear_0_52" x1="12.0441" y1="83.1287" x2="12.0441" y2="99.5553" gradientUnits="userSpaceOnUse">
<stop stop-color="white"/>
<stop offset="1" stop-color="#C9C9C9" stop-opacity="0.2"/>
</linearGradient>
<linearGradient id="paint6_linear_0_52" x1="167.966" y1="55.8525" x2="167.966" y2="64.9983" gradientUnits="userSpaceOnUse">
<stop stop-color="white"/>
<stop offset="1" stop-color="#C9C9C9" stop-opacity="0.2"/>
</linearGradient>
<linearGradient id="paint7_linear_0_52" x1="167.959" y1="21.2909" x2="167.959" y2="37.7176" gradientUnits="userSpaceOnUse">
<stop stop-color="white"/>
<stop offset="1" stop-color="#C9C9C9" stop-opacity="0.2"/>
</linearGradient>
<linearGradient id="paint8_linear_0_52" x1="167.966" y1="83.1287" x2="167.966" y2="99.5553" gradientUnits="userSpaceOnUse">
<stop stop-color="white"/>
<stop offset="1" stop-color="#C9C9C9" stop-opacity="0.2"/>
</linearGradient>
</defs>
</svg>
