<svg preserveAspectRatio="none" width="100%" height="100%" overflow="visible" style="display: block;" viewBox="0 0 40 40" fill="none" xmlns="http://www.w3.org/2000/svg">
<g id="fi_2285485" clip-path="url(#clip0_0_9)">
<path id="Vector" d="M39.9529 2.98621C39.8663 1.3973 38.6026 0.133785 37.0137 0.0470666C33.8076 -0.12809 27.5338 0.0423011 21.5348 3.14519C18.4766 4.72707 15.2422 7.40902 12.661 10.5034C12.6292 10.5415 12.5983 10.5799 12.5667 10.6181L6.70891 11.0706C5.74469 11.1451 4.88586 11.6505 4.35258 12.4571L0.356176 18.5018C-0.0482771 19.1135 -0.112574 19.879 0.184067 20.5496C0.480785 21.2202 1.09047 21.6875 1.81508 21.7998L6.75032 22.5642C6.73289 22.6601 6.71539 22.756 6.69938 22.8519C6.53508 23.8347 6.86071 24.8452 7.57055 25.555L14.4449 32.4294C15.0334 33.0179 15.8287 33.3424 16.6435 33.3424C16.8113 33.3424 16.9801 33.3286 17.1481 33.3005C17.244 33.2845 17.3398 33.267 17.4358 33.2496L18.2002 38.1849C18.3124 38.9095 18.7798 39.5193 19.4502 39.8159C19.7292 39.9393 20.0245 40.0003 20.3184 40.0003C20.7311 40.0002 21.1409 39.88 21.4981 39.6439L27.5428 35.6474C28.3495 35.114 28.8548 34.2552 28.9291 33.2911L29.3816 27.4333C29.4198 27.4018 29.4583 27.3708 29.4964 27.339C32.5909 24.7578 35.2729 21.5235 36.8547 18.4652C39.9577 12.4659 40.1278 6.19207 39.9529 2.98621ZM26.2502 33.6922L20.4681 37.5151L19.7231 32.7053C22.1669 31.9868 24.5843 30.8361 26.8873 29.2944L26.5926 33.1104C26.5742 33.3485 26.4494 33.5606 26.2502 33.6922ZM16.1022 30.7721L9.22774 23.8977C9.05235 23.7222 8.97125 23.4757 9.01102 23.2383C9.2154 22.0162 9.53297 20.8528 9.9261 19.7569L20.2408 30.0716C18.9245 30.5431 17.7456 30.8243 16.7616 30.9889C16.5238 31.0284 16.2776 30.9475 16.1022 30.7721ZM6.88946 13.4074L10.7054 13.1126C9.16368 15.4157 8.0129 17.8331 7.29438 20.2768L2.48469 19.5319L6.30766 13.7497C6.43938 13.5505 6.65149 13.4257 6.88946 13.4074ZM27.9953 25.5391C26.1021 27.1182 24.2644 28.2604 22.5705 29.0869L10.9126 17.429C11.9952 15.2178 13.3166 13.3764 14.4608 12.0047C16.8495 9.14105 19.8203 6.67066 22.6116 5.22691C28.1174 2.37902 33.9183 2.22566 36.8861 2.38722C37.2789 2.40863 37.5913 2.72105 37.6127 3.11394C37.7745 6.08175 37.6209 11.8825 34.773 17.3884C33.3293 20.1796 30.8589 23.1504 27.9953 25.5391Z" fill="url(#paint0_linear_0_9)"/>
<path id="Vector_2" d="M27.4001 18.4565C28.9002 18.4563 30.401 17.8852 31.5431 16.7431C32.6498 15.6365 33.2592 14.1651 33.2592 12.6001C33.2592 11.0351 32.6498 9.56367 31.5431 8.45703C29.2586 6.17242 25.5414 6.17258 23.257 8.45703C22.1503 9.56367 21.5409 11.0351 21.5409 12.6001C21.5409 14.1651 22.1504 15.6365 23.257 16.7431C24.3994 17.8855 25.8994 18.4566 27.4001 18.4565ZM24.9141 10.1142C25.5995 9.42883 26.4997 9.08617 27.3999 9.08617C28.3002 9.08617 29.2005 9.42883 29.8858 10.1142C30.5498 10.7782 30.9154 11.661 30.9154 12.6C30.9154 13.539 30.5498 14.4219 29.8858 15.0859C28.5152 16.4566 26.2848 16.4565 24.9141 15.0859C24.2501 14.4219 23.8844 13.5391 23.8844 12.6001C23.8844 11.6611 24.2502 10.7782 24.9141 10.1142Z" fill="url(#paint1_linear_0_9)"/>
<path id="Vector_3" d="M1.19539 32.9639C1.49531 32.9639 1.79523 32.8495 2.02398 32.6206L5.85 28.7946C6.30766 28.337 6.30766 27.595 5.85 27.1373C5.39242 26.6797 4.65039 26.6797 4.19273 27.1373L0.366797 30.9634C-0.0908593 31.421 -0.0908593 32.163 0.366797 32.6206C0.595547 32.8495 0.895469 32.9639 1.19539 32.9639Z" fill="url(#paint2_linear_0_9)"/>
<path id="Vector_4" d="M9.35633 30.6437C8.89875 30.186 8.15672 30.186 7.69906 30.6437L0.343281 37.9995C-0.114375 38.4572 -0.114375 39.1991 0.343281 39.6568C0.572109 39.8856 0.871953 40 1.17188 40C1.4718 40 1.77172 39.8856 2.00047 39.6567L9.35625 32.3009C9.81398 31.8433 9.81398 31.1013 9.35633 30.6437Z" fill="url(#paint3_linear_0_9)"/>
<path id="Vector_5" d="M11.2054 34.15L7.37937 37.976C6.92172 38.4337 6.92172 39.1756 7.37937 39.6333C7.6082 39.8621 7.90812 39.9766 8.20797 39.9766C8.50781 39.9766 8.80781 39.8622 9.03656 39.6333L12.8626 35.8073C13.3202 35.3496 13.3202 34.6077 12.8626 34.15C12.405 33.6923 11.663 33.6923 11.2054 34.15Z" fill="url(#paint4_linear_0_9)"/>
</g>
<defs>
<linearGradient id="paint0_linear_0_9" x1="19.9998" y1="0.000123044" x2="19.9998" y2="40.0003" gradientUnits="userSpaceOnUse">
<stop stop-color="white"/>
<stop offset="1" stop-color="white" stop-opacity="0.5"/>
</linearGradient>
<linearGradient id="paint1_linear_0_9" x1="27.4" y1="6.74363" x2="27.4" y2="18.4565" gradientUnits="userSpaceOnUse">
<stop stop-color="white"/>
<stop offset="1" stop-color="white" stop-opacity="0.5"/>
</linearGradient>
<linearGradient id="paint2_linear_0_9" x1="3.1084" y1="26.7941" x2="3.1084" y2="32.9639" gradientUnits="userSpaceOnUse">
<stop stop-color="white"/>
<stop offset="1" stop-color="white" stop-opacity="0.5"/>
</linearGradient>
<linearGradient id="paint3_linear_0_9" x1="4.8498" y1="30.3004" x2="4.8498" y2="40" gradientUnits="userSpaceOnUse">
<stop stop-color="white"/>
<stop offset="1" stop-color="white" stop-opacity="0.5"/>
</linearGradient>
<linearGradient id="paint4_linear_0_9" x1="10.121" y1="33.8068" x2="10.121" y2="39.9766" gradientUnits="userSpaceOnUse">
<stop stop-color="white"/>
<stop offset="1" stop-color="white" stop-opacity="0.5"/>
</linearGradient>
<clipPath id="clip0_0_9">
<rect width="40" height="40" fill="white"/>
</clipPath>
</defs>
</svg>
