<svg width="1440" height="524" viewBox="0 0 1440 524" fill="none" xmlns="http://www.w3.org/2000/svg">
<path d="M1458.5 394C1382.54 404.418 1215.74 348.549 1029.77 202.698C872.619 79.4426 773.71 156.687 707.608 202.698C629.031 257.392 365.5 468 261.5 468C157.5 468 53.3 408.2 -7.5 345" stroke="url(#paint0_linear_157_1003)" stroke-linecap="round" stroke-linejoin="round"/>
<g filter="url(#filter0_f_157_1003)">
<path fill-rule="evenodd" clip-rule="evenodd" d="M665.7 260.114C665.7 278.813 650.455 293.972 631.65 293.972C612.845 293.972 597.6 278.813 597.6 260.114C597.6 241.414 612.845 226.255 631.65 226.255C650.455 226.255 665.7 241.414 665.7 260.114Z" fill="#1E5CF9" fill-opacity="0.42"/>
</g>
<path d="M621.5 260C621.5 265.523 625.977 270 631.5 270C637.023 270 641.5 265.523 641.5 260C641.5 254.477 637.023 250 631.5 250C625.977 250 621.5 254.477 621.5 260Z" fill="#D6CDFF"/>
<defs>
<filter id="filter0_f_157_1003" x="545.215" y="173.871" width="172.869" height="172.486" filterUnits="userSpaceOnUse" color-interpolation-filters="sRGB">
<feFlood flood-opacity="0" result="BackgroundImageFix"/>
<feBlend mode="normal" in="SourceGraphic" in2="BackgroundImageFix" result="shape"/>
<feGaussianBlur stdDeviation="26.1923" result="effect1_foregroundBlur_157_1003"/>
</filter>
<linearGradient id="paint0_linear_157_1003" x1="168" y1="696" x2="1374" y2="692" gradientUnits="userSpaceOnUse">
<stop stop-color="white" stop-opacity="0"/>
<stop offset="0.0777673" stop-color="#567AAF" stop-opacity="0.24"/>
<stop offset="0.320104" stop-color="#97ADCE" stop-opacity="0.401399"/>
<stop offset="0.382295" stop-color="#A8BAD6"/>
<stop offset="0.451095" stop-color="#BAC9DE" stop-opacity="0.48864"/>
<stop offset="0.708389" stop-color="white" stop-opacity="0.66"/>
<stop offset="0.827999" stop-color="white" stop-opacity="0.24"/>
<stop offset="0.996703" stop-color="white" stop-opacity="0"/>
</linearGradient>
</defs>
</svg>
