<svg width="418" height="496" viewBox="0 0 418 496" fill="none" xmlns="http://www.w3.org/2000/svg">
<path opacity="0.1" d="M99.2498 176.08C134.879 176.08 163.762 147.211 163.762 111.6C163.762 75.9888 134.879 47.1201 99.2498 47.1201C63.6205 47.1201 34.7373 75.9888 34.7373 111.6C34.7373 147.211 63.6205 176.08 99.2498 176.08Z" fill="white"/>
<path opacity="0.18" d="M99.2498 151.28C121.176 151.28 138.95 133.515 138.95 111.6C138.95 89.6853 121.176 71.9199 99.2498 71.9199C77.3241 71.9199 59.5498 89.6853 59.5498 111.6C59.5498 133.515 77.3241 151.28 99.2498 151.28Z" fill="white" fill-opacity="0.79"/>
<g clip-path="url(#clip0_287_1618)">
<path fill-rule="evenodd" clip-rule="evenodd" d="M106.312 120.855C106.312 120.304 106.645 119.72 107.391 119.262C108.521 118.568 110.792 118.059 113.417 118.059C116.042 118.059 118.312 118.568 119.442 119.262C120.188 119.72 120.521 120.304 120.521 120.855V133.12C120.521 133.671 120.188 134.254 119.442 134.712C118.312 135.406 116.042 135.916 113.417 135.916C110.792 135.916 108.521 135.406 107.391 134.712C106.645 134.254 106.312 133.671 106.312 133.12V120.855ZM118.929 120.855C118.896 120.817 118.841 120.756 118.793 120.718C118.641 120.598 118.441 120.489 118.205 120.387C117.126 119.918 115.382 119.628 113.417 119.628C111.451 119.628 109.707 119.918 108.628 120.387C108.392 120.489 108.192 120.598 108.04 120.718C107.992 120.756 107.937 120.817 107.904 120.855C107.937 120.893 107.992 120.955 108.04 120.993C108.192 121.112 108.392 121.221 108.628 121.324C109.707 121.792 111.451 122.083 113.417 122.083C115.382 122.083 117.126 121.792 118.205 121.324C118.441 121.221 118.641 121.112 118.793 120.993C118.841 120.955 118.896 120.893 118.929 120.855ZM118.952 124.915V122.705C117.724 123.264 115.705 123.651 113.417 123.651C111.128 123.651 109.109 123.264 107.881 122.705V124.915C107.901 124.94 107.976 125.031 108.04 125.081C108.192 125.201 108.392 125.309 108.628 125.412C109.707 125.88 111.451 126.171 113.417 126.171C115.382 126.171 117.126 125.88 118.205 125.412C118.441 125.309 118.641 125.201 118.793 125.081C118.857 125.031 118.932 124.94 118.952 124.915ZM118.952 129.003V126.793C117.724 127.352 115.705 127.739 113.417 127.739C111.128 127.739 109.109 127.352 107.881 126.793V129.003C107.9 129.028 107.976 129.119 108.04 129.169C108.192 129.289 108.392 129.397 108.628 129.5C109.707 129.969 111.451 130.259 113.417 130.259C115.382 130.259 117.126 129.969 118.205 129.5C118.441 129.397 118.641 129.289 118.793 129.169C118.857 129.119 118.932 129.028 118.952 129.003ZM107.881 130.881V133.092C107.901 133.116 107.976 133.207 108.04 133.257C108.192 133.377 108.392 133.486 108.628 133.588C109.707 134.057 111.451 134.347 113.417 134.347C115.382 134.347 117.126 134.057 118.205 133.588C118.441 133.486 118.641 133.377 118.793 133.257C118.857 133.207 118.932 133.116 118.952 133.092V130.881C117.724 131.44 115.705 131.827 113.417 131.827C111.128 131.827 109.109 131.44 107.881 130.881ZM108.786 131.762C109.177 131.762 109.494 132.079 109.494 132.47C109.494 132.862 109.177 133.179 108.786 133.179C108.395 133.179 108.077 132.862 108.077 132.47C108.077 132.079 108.395 131.762 108.786 131.762ZM108.786 123.559C109.177 123.559 109.494 123.876 109.494 124.268C109.494 124.659 109.177 124.976 108.786 124.976C108.395 124.976 108.077 124.659 108.077 124.268C108.077 123.876 108.395 123.559 108.786 123.559ZM108.786 127.645C109.177 127.645 109.494 127.963 109.494 128.354C109.494 128.745 109.177 129.062 108.786 129.062C108.395 129.062 108.077 128.745 108.077 128.354C108.077 127.963 108.395 127.645 108.786 127.645ZM80.5387 98.7253H76.978C75.856 98.7253 74.9375 97.8068 74.9375 96.6849V89.3286C74.9375 88.2066 75.856 87.2881 76.978 87.2881H90.8013C91.9233 87.2881 92.8417 88.2066 92.8417 89.3286V96.6849C92.8417 97.8068 91.9233 98.7253 90.8013 98.7253H87.2417V100.133H88.3688C89.4324 100.133 90.2241 100.923 90.2241 101.772V103.118C90.2241 103.551 89.873 103.902 89.4398 103.902H78.3405C77.9074 103.902 77.5562 103.551 77.5562 103.118V101.772C77.5562 100.923 78.348 100.133 79.4116 100.133H80.5387V98.7253ZM85.6731 98.7253H82.1073V100.133H85.6731V98.7253ZM79.1249 101.801V102.334H88.6554V101.801C88.6439 101.79 88.6206 101.769 88.6036 101.759C88.5378 101.721 88.456 101.701 88.3688 101.701H79.4116C79.3244 101.701 79.2425 101.721 79.1768 101.759C79.1598 101.769 79.1365 101.79 79.1249 101.801ZM76.978 88.8567C76.7185 88.8567 76.5061 89.0691 76.5061 89.3286V96.6849C76.5061 96.9444 76.7185 97.1567 76.978 97.1567H90.8013C91.0607 97.1567 91.2731 96.9444 91.2731 96.6849V89.3286C91.2731 89.0691 91.0607 88.8567 90.8013 88.8567H76.978ZM84.674 112.386V120.876C84.674 121.309 84.3225 121.66 83.8897 121.66C83.4567 121.66 83.1053 121.309 83.1053 120.876V106.094C83.1053 105.661 83.4567 105.31 83.8897 105.31C84.3225 105.31 84.674 105.661 84.674 106.094V110.817H88.4043C88.8371 110.817 89.1886 111.169 89.1886 111.602C89.1886 112.035 88.8371 112.386 88.4043 112.386H84.674ZM112.632 112.386H108.902C108.469 112.386 108.118 112.035 108.118 111.602C108.118 111.169 108.469 110.817 108.902 110.817H112.632V103.118C112.632 102.685 112.984 102.334 113.417 102.334C113.849 102.334 114.201 102.685 114.201 103.118V115.103C114.201 115.536 113.849 115.887 113.417 115.887C112.984 115.887 112.632 115.536 112.632 115.103V112.386ZM100.036 128.707H102.383C102.816 128.707 103.167 129.059 103.167 129.492C103.167 129.924 102.816 130.276 102.383 130.276H96.1198C95.6869 130.276 95.3354 129.924 95.3354 129.492C95.3354 129.059 95.6869 128.707 96.1198 128.707H98.4669V122.279C98.4669 121.846 98.8184 121.495 99.2512 121.495C99.6841 121.495 100.036 121.846 100.036 122.279V128.707ZM98.4669 94.4963H96.1198C95.6869 94.4963 95.3354 94.1449 95.3354 93.712C95.3354 93.2792 95.6869 92.9277 96.1198 92.9277H102.383C102.816 92.9277 103.167 93.2792 103.167 93.712C103.167 94.1449 102.816 94.4963 102.383 94.4963H100.036V101.075C100.036 101.507 99.6841 101.859 99.2512 101.859C98.8184 101.859 98.4669 101.507 98.4669 101.075V94.4963ZM105.213 92.8743C105.316 89.7719 107.863 87.2881 110.99 87.2881C112.381 87.2881 113.658 87.7798 114.656 88.5992C115.081 88.4892 115.526 88.4305 115.986 88.4305C118.542 88.4305 120.673 90.2409 121.17 92.6491C122.6 93.2528 123.565 94.6681 123.565 96.2521C123.565 98.4019 121.805 100.162 119.654 100.162H107.179C105.028 100.162 103.268 98.4019 103.268 96.2521C103.268 94.8161 104.052 93.5544 105.213 92.8743ZM119.654 98.5932C120.942 98.5932 121.996 97.5396 121.996 96.2521C121.996 95.1972 121.281 94.2679 120.264 93.9919C119.952 93.9074 119.724 93.6404 119.689 93.3194C119.487 91.4521 117.907 89.9992 115.986 89.9992C115.544 89.9992 115.121 90.0757 114.728 90.2164C114.447 90.3172 114.133 90.2494 113.918 90.0416C113.16 89.3079 112.127 88.8567 110.99 88.8567C108.664 88.8567 106.779 90.7429 106.779 93.0692C106.779 93.1501 106.78 93.2311 106.785 93.3111C106.805 93.6454 106.61 93.9551 106.3 94.0823C105.445 94.433 104.837 95.2745 104.837 96.2521C104.837 97.5396 105.891 98.5932 107.179 98.5932H119.654ZM99.2512 103.12C103.935 103.12 107.733 106.918 107.733 111.602C107.733 116.285 103.935 120.084 99.2512 120.084C94.5678 120.084 90.7693 116.285 90.7693 111.602C90.7693 106.918 94.5678 103.12 99.2512 103.12ZM93.207 108.244C92.6534 109.238 92.3379 110.383 92.3379 111.602C92.3379 112.82 92.6534 113.965 93.207 114.96C93.5687 114.743 93.9525 114.546 94.3557 114.37C94.0947 113.479 93.9577 112.544 93.9577 111.586C93.9577 110.631 94.0958 109.707 94.3533 108.833C93.9509 108.657 93.5679 108.46 93.207 108.244ZM94.1249 116.24C94.6963 116.871 95.3828 117.396 96.1511 117.782C95.6635 117.184 95.2498 116.53 94.9175 115.836C94.6419 115.959 94.3772 116.094 94.1249 116.24ZM102.354 117.781C103.121 117.395 103.807 116.87 104.378 116.24C104.126 116.094 103.861 115.96 103.586 115.837C103.254 116.53 102.841 117.183 102.354 117.781ZM105.295 114.96C105.849 113.965 106.165 112.82 106.165 111.602C106.165 110.383 105.849 109.238 105.295 108.244C104.935 108.459 104.553 108.656 104.151 108.832C104.409 109.706 104.547 110.63 104.547 111.586C104.547 112.544 104.41 113.48 104.149 114.371C104.551 114.547 104.934 114.744 105.295 114.96ZM104.378 106.964C103.805 106.331 103.116 105.805 102.346 105.418C102.832 106.014 103.249 106.667 103.586 107.367C103.861 107.244 104.126 107.109 104.378 106.964ZM96.1594 105.417C95.3877 105.804 94.6984 106.331 94.1249 106.964C94.3773 107.109 94.642 107.244 94.9176 107.367C95.2546 106.667 95.6726 106.013 96.1594 105.417ZM95.8341 109.36C95.6336 110.068 95.5263 110.815 95.5263 111.586C95.5263 112.361 95.6331 113.119 95.8371 113.843C96.6639 113.611 97.5468 113.46 98.4669 113.405V109.798C97.5456 109.743 96.6617 109.592 95.8341 109.36ZM96.409 115.313C96.9069 116.299 97.6034 117.182 98.4669 117.905V114.977C97.7505 115.026 97.0605 115.14 96.409 115.313ZM100.036 117.907C100.899 117.183 101.597 116.3 102.095 115.313C101.443 115.14 100.753 115.026 100.036 114.977V117.907ZM102.668 113.843C102.872 113.12 102.979 112.362 102.979 111.586C102.979 110.815 102.871 110.068 102.671 109.36C101.842 109.592 100.958 109.743 100.036 109.798V113.405C100.956 113.46 101.84 113.611 102.668 113.843ZM102.095 107.891C101.589 106.894 100.885 106.013 100.036 105.301V108.226C100.753 108.178 101.443 108.063 102.095 107.891ZM98.4669 105.302C97.618 106.014 96.9146 106.895 96.4088 107.891C97.0604 108.063 97.7504 108.178 98.4669 108.226V105.302ZM81.4205 131.863C81.1286 132.183 80.6321 132.205 80.3125 131.913C79.993 131.621 79.9705 131.125 80.2625 130.805C81.19 129.79 82.4743 129.168 83.8897 129.168C85.305 129.168 86.5892 129.79 87.5167 130.805C87.8087 131.125 87.7862 131.621 87.4667 131.913C87.1471 132.205 86.6506 132.183 86.3587 131.863C85.7261 131.171 84.855 130.737 83.8897 130.737C82.9244 130.737 82.0532 131.171 81.4205 131.863ZM89.4874 128.648C89.7794 128.968 89.757 129.465 89.4374 129.757C89.1178 130.048 88.6213 130.026 88.3294 129.707C87.1924 128.462 85.6246 127.687 83.8896 127.686C82.1547 127.686 80.5869 128.462 79.4499 129.706C79.1579 130.026 78.6613 130.048 78.3418 129.756C78.0222 129.464 77.9999 128.968 78.2918 128.648C79.7239 127.081 81.7047 126.118 83.8896 126.118C86.0747 126.118 88.0555 127.081 89.4874 128.648ZM77.4793 127.55C77.1872 127.869 76.6907 127.892 76.3712 127.6C76.0516 127.307 76.0293 126.811 76.3212 126.492C78.2575 124.372 80.9351 123.067 83.8897 123.068C86.8443 123.068 89.5216 124.372 91.458 126.492C91.75 126.811 91.7276 127.308 91.4081 127.6C91.0885 127.892 90.592 127.869 90.3 127.55C88.6587 125.753 86.3941 124.636 83.8897 124.636C81.3852 124.636 79.1205 125.753 77.4793 127.55ZM83.8897 132.586C84.5925 132.586 85.1622 133.156 85.1622 133.859C85.1622 134.561 84.5925 135.131 83.8897 135.131C83.1868 135.131 82.6171 134.562 82.6171 133.859C82.6171 133.156 83.1869 132.586 83.8897 132.586Z" fill="white"/>
</g>
<path d="M99 134C99 212.453 248 188.679 248 260" stroke="#B4B2A9" stroke-dasharray="1 1"/>
<foreignObject x="181.625" y="215" width="133" height="143"><div xmlns="http://www.w3.org/1999/xhtml" style="backdrop-filter:blur(5px);clip-path:url(#bgblur_1_287_1618_clip_path);height:100%;width:100%"></div></foreignObject><g filter="url(#filter0_dddi_287_1618)" data-figma-bg-blur-radius="10">
<circle cx="248.125" cy="271.5" r="46.5" fill="url(#paint0_linear_287_1618)" fill-opacity="0.2" shape-rendering="crispEdges"/>
<circle cx="248.125" cy="271.5" r="46" stroke="white" stroke-opacity="0.07" shape-rendering="crispEdges"/>
</g>
<path d="M257.964 308.147C237.716 313.573 216.904 301.557 211.479 281.309C206.053 261.061 218.069 240.249 238.317 234.824C258.565 229.398 279.377 241.414 284.803 261.662C290.228 281.91 278.212 302.722 257.964 308.147ZM238.808 236.657C219.573 241.811 208.158 261.582 213.312 280.818C218.466 300.053 238.238 311.468 257.473 306.314C276.708 301.16 288.124 281.388 282.969 262.153C277.815 242.918 258.044 231.503 238.808 236.657Z" fill="white" fill-opacity="0.1"/>
<g filter="url(#filter1_f_287_1618)" style="mix-blend-mode:plus-lighter">
<g clip-path="url(#paint1_angular_287_1618_clip_path)" data-figma-skip-parse="true"><g transform="matrix(-0.026262 0.026262 -0.026262 -0.026262 248.141 271.485)"><foreignObject x="-1432.78" y="-1432.78" width="2865.57" height="2865.57"><div xmlns="http://www.w3.org/1999/xhtml" style="background:conic-gradient(from 90deg,rgba(255, 255, 255, 0) 0deg,rgba(255, 255, 255, 0) 141.189deg,rgba(255, 255, 255, 1) 278.072deg,rgba(255, 255, 255, 0) 290.946deg,rgba(255, 255, 255, 0) 360deg);height:100%;width:100%;opacity:1"></div></foreignObject></g></g><path d="M257.964 308.147C237.716 313.573 216.904 301.557 211.479 281.309C206.053 261.061 218.069 240.249 238.317 234.824C258.565 229.398 279.377 241.414 284.803 261.662C290.228 281.91 278.212 302.722 257.964 308.147ZM238.808 236.657C219.573 241.811 208.158 261.582 213.312 280.818C218.466 300.053 238.238 311.468 257.473 306.314C276.708 301.16 288.124 281.388 282.969 262.153C277.815 242.918 258.044 231.503 238.808 236.657Z" data-figma-gradient-fill="{&#34;type&#34;:&#34;GRADIENT_ANGULAR&#34;,&#34;stops&#34;:[{&#34;color&#34;:{&#34;r&#34;:1.0,&#34;g&#34;:1.0,&#34;b&#34;:1.0,&#34;a&#34;:0.0},&#34;position&#34;:0.39219087362289429},{&#34;color&#34;:{&#34;r&#34;:1.0,&#34;g&#34;:1.0,&#34;b&#34;:1.0,&#34;a&#34;:1.0},&#34;position&#34;:0.77242261171340942},{&#34;color&#34;:{&#34;r&#34;:1.0,&#34;g&#34;:1.0,&#34;b&#34;:1.0,&#34;a&#34;:0.0},&#34;position&#34;:0.80818378925323486}],&#34;stopsVar&#34;:[],&#34;transform&#34;:{&#34;m00&#34;:-52.523983001708984,&#34;m01&#34;:-52.523983001708984,&#34;m02&#34;:300.66464233398438,&#34;m10&#34;:52.523983001708984,&#34;m11&#34;:-52.523983001708984,&#34;m12&#34;:271.48538208007812},&#34;opacity&#34;:1.0,&#34;blendMode&#34;:&#34;NORMAL&#34;,&#34;visible&#34;:true}"/>
</g>
<path d="M257.964 308.147C237.716 313.573 216.904 301.557 211.479 281.309C206.053 261.061 218.069 240.249 238.317 234.824C258.565 229.398 279.377 241.414 284.803 261.662C290.228 281.91 278.212 302.722 257.964 308.147ZM238.514 235.557C218.671 240.874 206.895 261.27 212.212 281.112C217.529 300.955 237.925 312.731 257.768 307.414C277.611 302.097 289.386 281.701 284.069 261.858C278.752 242.015 258.356 230.24 238.514 235.557Z" fill="url(#paint2_linear_287_1618)"/>
<path d="M257.964 308.147C237.716 313.573 216.904 301.557 211.479 281.309C206.053 261.061 218.069 240.249 238.317 234.824C258.565 229.398 279.377 241.414 284.803 261.662C290.228 281.91 278.212 302.722 257.964 308.147ZM238.514 235.557C218.671 240.874 206.895 261.27 212.212 281.112C217.529 300.955 237.925 312.731 257.768 307.414C277.611 302.097 289.386 281.701 284.069 261.858C278.752 242.015 258.356 230.24 238.514 235.557Z" stroke="white" stroke-opacity="0.1"/>
<path d="M257.964 308.147C237.716 313.573 216.904 301.557 211.479 281.309C206.053 261.061 218.069 240.249 238.317 234.824C258.565 229.398 279.377 241.414 284.803 261.662C290.228 281.91 278.212 302.722 257.964 308.147ZM238.514 235.557C218.671 240.874 206.895 261.27 212.212 281.112C217.529 300.955 237.925 312.731 257.768 307.414C277.611 302.097 289.386 281.701 284.069 261.858C278.752 242.015 258.356 230.24 238.514 235.557Z" stroke="url(#paint3_linear_287_1618)"/>
<g clip-path="url(#clip2_287_1618)">
<path d="M227.791 291.61C227.791 292.015 228.119 292.343 228.523 292.343H235.028C235.432 292.343 235.76 292.015 235.76 291.61C235.76 291.206 235.432 290.878 235.028 290.878H228.523C228.119 290.878 227.791 291.206 227.791 291.61Z" fill="white"/>
<path d="M231.764 269.222H235.75C236.155 269.222 236.483 268.894 236.483 268.49C236.483 268.085 236.155 267.757 235.75 267.757H231.764C231.359 267.757 231.031 268.085 231.031 268.49C231.031 268.894 231.359 269.222 231.764 269.222Z" fill="white"/>
<path d="M231.764 273.125H235.75C236.155 273.125 236.483 272.797 236.483 272.392C236.483 271.988 236.155 271.66 235.75 271.66H231.764C231.359 271.66 231.031 271.988 231.031 272.392C231.031 272.797 231.359 273.125 231.764 273.125Z" fill="white"/>
<path d="M231.764 277.027H235.75C236.155 277.027 236.483 276.699 236.483 276.295C236.483 275.89 236.155 275.562 235.75 275.562H231.764C231.359 275.562 231.031 275.89 231.031 276.295C231.031 276.699 231.359 277.027 231.764 277.027Z" fill="white"/>
<path d="M227.801 269.222H228.219C228.624 269.222 228.952 268.894 228.952 268.49C228.952 268.085 228.624 267.757 228.219 267.757H227.801C227.396 267.757 227.068 268.085 227.068 268.49C227.068 268.894 227.396 269.222 227.801 269.222Z" fill="white"/>
<path d="M227.801 273.125H228.219C228.624 273.125 228.952 272.797 228.952 272.392C228.952 271.988 228.624 271.66 228.219 271.66H227.801C227.396 271.66 227.068 271.988 227.068 272.392C227.068 272.797 227.396 273.125 227.801 273.125Z" fill="white"/>
<path d="M227.801 277.027H228.219C228.624 277.027 228.952 276.699 228.952 276.295C228.952 275.89 228.624 275.562 228.219 275.562H227.801C227.396 275.562 227.068 275.89 227.068 276.295C227.068 276.699 227.396 277.027 227.801 277.027Z" fill="white"/>
<path d="M271.812 258.434H224.188C223.783 258.434 223.455 258.762 223.455 259.166C223.455 259.571 223.783 259.898 224.188 259.898H271.812C272.217 259.898 272.545 259.571 272.545 259.166C272.545 258.762 272.217 258.434 271.812 258.434Z" fill="white"/>
<path d="M231.236 248C230.831 248 230.503 248.328 230.503 248.732V254.471C230.503 254.875 230.831 255.203 231.236 255.203C231.64 255.203 231.968 254.875 231.968 254.471V248.732C231.968 248.328 231.64 248 231.236 248Z" fill="white"/>
<path d="M228.175 248C227.77 248 227.442 248.328 227.442 248.732V252.677C227.442 252.947 227.365 253.297 226.764 253.6C226.579 253.693 226.377 253.738 226.149 253.738H226.146C225.896 253.738 225.679 253.676 225.482 253.551C225.016 253.253 224.92 252.987 224.92 252.681V248.732C224.92 248.328 224.592 248 224.187 248C223.783 248 223.455 248.328 223.455 248.732V252.681C223.455 253.552 223.872 254.26 224.693 254.785C225.126 255.062 225.614 255.202 226.144 255.203H226.149C226.605 255.203 227.034 255.104 227.423 254.908C228.65 254.29 228.907 253.354 228.907 252.677V248.732C228.907 248.328 228.579 248 228.175 248Z" fill="white"/>
<path d="M249.498 251.398L251.079 249.154C251.312 248.824 251.232 248.367 250.902 248.134C250.571 247.901 250.114 247.98 249.881 248.311L248.603 250.125L247.326 248.311C247.094 247.98 246.637 247.901 246.306 248.133C245.975 248.366 245.896 248.823 246.128 249.154L247.707 251.397L245.839 254.049C245.606 254.38 245.685 254.836 246.016 255.069C246.144 255.16 246.291 255.203 246.437 255.203C246.667 255.203 246.894 255.095 247.036 254.892L248.602 252.67L250.165 254.892C250.308 255.095 250.534 255.203 250.765 255.203C250.91 255.203 251.057 255.16 251.185 255.07C251.516 254.837 251.596 254.38 251.363 254.049L249.498 251.398Z" fill="white"/>
<path d="M244.117 248C243.713 248 243.385 248.328 243.385 248.732V252.677C243.385 252.947 243.308 253.297 242.706 253.6C242.521 253.693 242.32 253.738 242.091 253.738H242.089C241.838 253.738 241.621 253.677 241.424 253.551C240.958 253.253 240.862 252.987 240.862 252.681V248.732C240.862 248.328 240.534 248 240.13 248C239.725 248 239.397 248.328 239.397 248.732V252.681C239.397 253.552 239.814 254.26 240.636 254.785C241.068 255.062 241.557 255.202 242.087 255.203H242.091C242.548 255.203 242.976 255.104 243.365 254.908C244.592 254.29 244.85 253.354 244.85 252.677V248.732C244.85 248.328 244.522 248 244.117 248Z" fill="white"/>
<path d="M237.295 248.058C236.923 247.9 236.493 248.075 236.336 248.447L233.909 254.186C233.752 254.558 233.926 254.988 234.298 255.145C234.392 255.185 234.488 255.203 234.583 255.203C234.869 255.203 235.14 255.035 235.258 254.756L237.685 249.018C237.842 248.645 237.668 248.216 237.295 248.058Z" fill="white"/>
<path d="M266.706 249.484H271.812C272.217 249.484 272.544 249.156 272.544 248.752C272.544 248.347 272.217 248.02 271.812 248.02H266.706C266.301 248.02 265.974 248.347 265.974 248.752C265.974 249.156 266.301 249.484 266.706 249.484Z" fill="white"/>
<path d="M271.812 250.869H266.706C266.301 250.869 265.974 251.197 265.974 251.602C265.974 252.006 266.301 252.334 266.706 252.334H271.812C272.217 252.334 272.544 252.006 272.544 251.602C272.544 251.197 272.217 250.869 271.812 250.869Z" fill="white"/>
<path d="M271.812 253.719H266.706C266.301 253.719 265.974 254.047 265.974 254.451C265.974 254.856 266.301 255.184 266.706 255.184H271.812C272.217 255.184 272.544 254.856 272.544 254.451C272.544 254.047 272.217 253.719 271.812 253.719Z" fill="white"/>
<path d="M269.859 263.147H245.87C244.389 263.147 243.185 264.352 243.185 265.833V295.314C243.185 296.795 244.389 298 245.87 298H269.859C271.34 298 272.545 296.795 272.545 295.314V265.833C272.545 264.352 271.34 263.147 269.859 263.147ZM271.08 295.314C271.08 295.987 270.533 296.535 269.859 296.535H245.87C245.197 296.535 244.649 295.987 244.649 295.314V265.833C244.649 265.159 245.197 264.612 245.87 264.612H269.859C270.533 264.612 271.08 265.159 271.08 265.833V295.314Z" fill="white"/>
<path d="M237.411 285.221H231.594C231.189 285.221 230.861 285.549 230.861 285.954C230.861 286.358 231.189 286.686 231.594 286.686H237.411C238.084 286.686 238.631 287.234 238.631 287.907V295.315C238.631 295.988 238.084 296.535 237.411 296.535H226.141C225.467 296.535 224.92 295.988 224.92 295.315V287.907C224.92 287.234 225.467 286.686 226.141 286.686H228.176C228.58 286.686 228.908 286.358 228.908 285.954C228.908 285.549 228.58 285.221 228.176 285.221H226.141C224.66 285.221 223.455 286.426 223.455 287.907V295.315C223.455 296.796 224.66 298 226.141 298H237.411C238.892 298 240.096 296.796 240.096 295.315V287.907C240.096 286.426 238.892 285.221 237.411 285.221Z" fill="white"/>
<path d="M237.411 263.147H226.141C224.66 263.147 223.455 264.352 223.455 265.833V269.017C223.455 269.421 223.783 269.749 224.188 269.749C224.592 269.749 224.92 269.421 224.92 269.017V265.833C224.92 265.159 225.467 264.612 226.141 264.612H237.411C238.084 264.612 238.631 265.159 238.631 265.833V278.952C238.631 279.625 238.084 280.172 237.411 280.172H226.141C225.467 280.172 224.92 279.625 224.92 278.952V272.434C224.92 272.03 224.592 271.702 224.188 271.702C223.783 271.702 223.455 272.03 223.455 272.434V278.952C223.455 280.433 224.66 281.637 226.141 281.637H237.411C238.892 281.637 240.096 280.433 240.096 278.952V265.833C240.096 264.352 238.892 263.147 237.411 263.147Z" fill="white"/>
<path d="M257.865 282.383C255.009 282.383 252.527 280.452 251.828 277.687C251.729 277.295 251.331 277.057 250.939 277.156C250.547 277.255 250.309 277.653 250.408 278.045C251.271 281.462 254.337 283.848 257.865 283.848C262.105 283.848 265.556 280.398 265.556 276.157C265.556 271.916 262.105 268.466 257.865 268.466C254.337 268.466 251.271 270.852 250.408 274.269C250.309 274.661 250.547 275.059 250.939 275.158C251.331 275.257 251.73 275.02 251.828 274.627C252.527 271.862 255.009 269.931 257.865 269.931C261.298 269.931 264.091 272.724 264.091 276.157C264.091 279.59 261.298 282.383 257.865 282.383Z" fill="white"/>
<path d="M264.224 286.851H251.505C249.826 286.851 248.46 288.217 248.46 289.896C248.46 291.575 249.826 292.941 251.505 292.941H264.224C265.903 292.941 267.269 291.575 267.269 289.896C267.269 288.217 265.903 286.851 264.224 286.851ZM264.224 291.476H251.505C250.634 291.476 249.925 290.767 249.925 289.896C249.925 289.025 250.634 288.316 251.505 288.316H264.224C265.096 288.316 265.804 289.025 265.804 289.896C265.804 290.767 265.096 291.476 264.224 291.476Z" fill="white"/>
</g>
<path d="M248 318C248 368.928 149 368.928 149 413" stroke="#1D9E75" stroke-width="1.5" stroke-dasharray="1 1"/>
<path opacity="0.08" d="M148.875 496C184.504 496 213.387 467.131 213.387 431.52C213.387 395.909 184.504 367.04 148.875 367.04C113.246 367.04 84.3623 395.909 84.3623 431.52C84.3623 467.131 113.246 496 148.875 496Z" fill="#1D9E75"/>
<path opacity="0.14" d="M148.875 471.2C170.801 471.2 188.575 453.435 188.575 431.52C188.575 409.605 170.801 391.84 148.875 391.84C126.949 391.84 109.175 409.605 109.175 431.52C109.175 453.435 126.949 471.2 148.875 471.2Z" fill="#1D9E75"/>
<path d="M149.014 439.77C149.452 439.77 149.872 439.944 150.182 440.254C150.492 440.564 150.666 440.984 150.666 441.422C150.666 441.629 150.749 441.828 150.896 441.975C151.043 442.122 151.242 442.205 151.449 442.205C151.657 442.205 151.856 442.122 152.003 441.975C152.15 441.828 152.233 441.629 152.233 441.422C152.231 440.706 151.99 440.012 151.549 439.448C151.108 438.885 150.492 438.485 149.798 438.311V436.552C149.798 436.344 149.715 436.145 149.568 435.998C149.421 435.851 149.222 435.769 149.014 435.769C148.807 435.769 148.608 435.851 148.461 435.998C148.314 436.145 148.231 436.344 148.231 436.552V438.311C147.47 438.501 146.805 438.963 146.36 439.61C145.916 440.256 145.724 441.043 145.821 441.822C145.917 442.601 146.295 443.317 146.883 443.836C147.472 444.355 148.23 444.641 149.014 444.64C149.341 444.64 149.661 444.737 149.932 444.918C150.204 445.1 150.416 445.358 150.541 445.659C150.666 445.961 150.698 446.293 150.635 446.614C150.571 446.934 150.414 447.229 150.182 447.46C149.951 447.691 149.657 447.848 149.337 447.912C149.016 447.975 148.684 447.943 148.382 447.818C148.08 447.693 147.822 447.481 147.641 447.209C147.459 446.937 147.363 446.618 147.363 446.291C147.359 446.086 147.274 445.891 147.128 445.747C146.981 445.604 146.785 445.523 146.579 445.523C146.374 445.523 146.177 445.604 146.031 445.748C145.885 445.891 145.8 446.086 145.796 446.292C145.798 447.007 146.039 447.701 146.48 448.265C146.921 448.828 147.537 449.228 148.231 449.402V451.161C148.231 451.263 148.252 451.365 148.291 451.46C148.33 451.555 148.388 451.642 148.461 451.714C148.533 451.787 148.62 451.845 148.715 451.884C148.81 451.924 148.912 451.944 149.014 451.944C149.117 451.944 149.219 451.924 149.314 451.884C149.409 451.845 149.496 451.787 149.568 451.714C149.641 451.642 149.699 451.555 149.738 451.46C149.777 451.365 149.798 451.263 149.798 451.161V449.402C150.552 449.205 151.21 448.741 151.648 448.096C152.086 447.451 152.275 446.668 152.179 445.894C152.083 445.121 151.709 444.408 151.127 443.889C150.545 443.37 149.794 443.08 149.014 443.073C148.581 443.067 148.167 442.89 147.862 442.581C147.557 442.272 147.387 441.855 147.387 441.422C147.387 440.988 147.558 440.571 147.862 440.262C148.167 439.953 148.581 439.776 149.014 439.77Z" fill="white"/>
<path d="M149.015 431.776C145.812 431.78 142.741 433.054 140.477 435.318C138.212 437.583 136.938 440.654 136.934 443.857C137.598 459.883 160.434 459.879 161.096 443.857C161.092 440.654 159.818 437.583 157.553 435.318C155.288 433.054 152.218 431.78 149.015 431.776ZM149.015 454.371C146.227 454.368 143.555 453.259 141.583 451.288C139.612 449.317 138.503 446.644 138.5 443.857C139.078 429.908 158.954 429.912 159.529 443.857C159.526 446.644 158.417 449.317 156.446 451.288C154.475 453.259 151.802 454.368 149.015 454.371Z" fill="white"/>
<path d="M138.619 430.524C138.306 431.451 138.424 433.53 139.635 433.689C139.775 433.688 139.912 433.649 140.032 433.576C140.152 433.504 140.251 433.401 140.318 433.277C140.385 433.154 140.418 433.015 140.413 432.875C140.408 432.735 140.366 432.598 140.291 432.48C140.149 432.269 140.059 432.029 140.026 431.777C139.993 431.526 140.019 431.27 140.101 431.03C142.993 422.613 155.013 422.63 157.901 431.036C157.978 431.272 158.002 431.522 157.971 431.768C157.939 432.014 157.854 432.251 157.72 432.46C157.606 432.633 157.565 432.845 157.607 433.048C157.649 433.252 157.77 433.43 157.943 433.544C159.449 434.247 159.792 431.45 159.381 430.524C158.826 428.923 157.909 427.472 156.702 426.282C155.495 425.093 154.03 424.197 152.422 423.664C153.304 423.094 154.029 422.312 154.532 421.389C155.035 420.467 155.298 419.433 155.299 418.383C154.985 410.043 143.018 410.035 142.701 418.383C142.702 419.433 142.965 420.467 143.468 421.389C143.971 422.312 144.696 423.094 145.578 423.664C143.966 424.191 142.499 425.085 141.291 426.275C140.083 427.466 139.169 428.92 138.619 430.524ZM144.267 418.383C144.466 412.128 153.535 412.129 153.733 418.383C153.534 424.637 144.465 424.636 144.267 418.383Z" fill="white"/>
<path d="M170.673 428.84C170.262 427.636 169.588 426.539 168.701 425.627C167.814 424.715 166.735 424.012 165.543 423.567C166.166 423.101 166.672 422.495 167.021 421.799C167.369 421.104 167.551 420.336 167.552 419.558C167.318 412.91 157.735 412.903 157.5 419.558C157.5 420.338 157.683 421.107 158.033 421.805C158.383 422.502 158.891 423.108 159.517 423.574C158.818 423.874 157.401 424.244 157.919 425.262C158.024 425.441 158.197 425.571 158.398 425.622C158.599 425.674 158.813 425.643 158.992 425.538C160.069 424.905 161.297 424.575 162.546 424.583C164.012 424.586 165.44 425.047 166.632 425.901C167.823 426.755 168.718 427.96 169.191 429.347C169.244 429.523 169.254 429.708 169.222 429.889C169.19 430.069 169.116 430.239 169.006 430.386C168.896 430.532 168.753 430.651 168.589 430.733C168.425 430.814 168.244 430.856 168.06 430.855L161.898 430.855C161.692 430.858 161.496 430.942 161.351 431.088C161.207 431.235 161.126 431.432 161.126 431.638C161.126 431.843 161.207 432.041 161.351 432.187C161.496 432.334 161.692 432.418 161.898 432.421H168.06C168.492 432.42 168.918 432.317 169.302 432.121C169.687 431.925 170.02 431.641 170.275 431.293C170.529 430.944 170.698 430.54 170.767 430.114C170.836 429.688 170.804 429.251 170.673 428.84ZM159.066 419.558C159.074 418.645 159.442 417.773 160.09 417.131C160.738 416.489 161.613 416.128 162.526 416.128C163.438 416.129 164.313 416.489 164.961 417.131C165.609 417.773 165.977 418.646 165.986 419.558C165.977 420.47 165.609 421.342 164.961 421.985C164.313 422.627 163.438 422.987 162.526 422.987C161.613 422.987 160.738 422.627 160.09 421.984C159.442 421.342 159.074 420.47 159.066 419.558Z" fill="white"/>
<path d="M136.094 430.855H129.939C129.756 430.856 129.575 430.814 129.41 430.733C129.246 430.651 129.103 430.532 128.993 430.385C128.883 430.238 128.809 430.068 128.777 429.887C128.745 429.707 128.756 429.521 128.808 429.345C129.151 428.366 129.704 427.473 130.43 426.731C131.156 425.989 132.036 425.415 133.008 425.052C133.981 424.688 135.021 424.542 136.056 424.625C137.09 424.708 138.094 425.018 138.996 425.532C139.084 425.584 139.183 425.618 139.285 425.632C139.386 425.646 139.49 425.64 139.59 425.614C139.689 425.588 139.782 425.542 139.864 425.48C139.946 425.418 140.015 425.34 140.067 425.251C140.119 425.163 140.153 425.065 140.167 424.963C140.181 424.861 140.175 424.757 140.149 424.658C140.123 424.558 140.077 424.465 140.015 424.383C139.953 424.301 139.875 424.232 139.786 424.18C139.369 423.942 138.932 423.74 138.481 423.576C139.107 423.109 139.615 422.503 139.966 421.806C140.316 421.108 140.499 420.338 140.5 419.558C140.265 412.909 130.684 412.904 130.448 419.558C130.448 420.336 130.63 421.104 130.979 421.8C131.327 422.495 131.833 423.101 132.456 423.567C131.264 424.011 130.186 424.715 129.299 425.626C128.412 426.538 127.738 427.635 127.327 428.838C127.195 429.25 127.163 429.686 127.232 430.113C127.301 430.539 127.47 430.943 127.724 431.292C127.979 431.641 128.312 431.925 128.697 432.121C129.082 432.317 129.507 432.42 129.939 432.421L136.094 432.421C136.299 432.417 136.495 432.333 136.638 432.186C136.782 432.04 136.863 431.843 136.863 431.638C136.863 431.433 136.782 431.236 136.638 431.089C136.495 430.943 136.299 430.859 136.094 430.855ZM132.014 419.558C132.022 418.646 132.39 417.773 133.038 417.131C133.686 416.489 134.561 416.129 135.474 416.129C136.386 416.129 137.262 416.489 137.91 417.131C138.557 417.773 138.926 418.646 138.934 419.558C138.926 420.47 138.557 421.342 137.909 421.985C137.262 422.627 136.386 422.987 135.474 422.987C134.561 422.987 133.686 422.627 133.038 421.985C132.39 421.342 132.022 420.47 132.014 419.558Z" fill="white"/>
<path d="M167.794 436.36C167.691 436.36 167.59 436.38 167.495 436.419C167.399 436.459 167.313 436.516 167.24 436.589C167.168 436.662 167.11 436.748 167.071 436.843C167.031 436.938 167.011 437.04 167.011 437.143V443.071H163.448C163.243 443.075 163.048 443.16 162.904 443.306C162.761 443.452 162.68 443.649 162.68 443.854C162.68 444.06 162.761 444.256 162.904 444.403C163.048 444.549 163.243 444.634 163.448 444.638H167.794C167.897 444.638 167.999 444.617 168.094 444.578C168.189 444.539 168.275 444.481 168.348 444.408C168.421 444.335 168.478 444.249 168.518 444.154C168.557 444.059 168.577 443.957 168.577 443.854V437.143C168.577 437.04 168.557 436.938 168.518 436.843C168.478 436.748 168.421 436.662 168.348 436.589C168.275 436.516 168.189 436.459 168.094 436.419C167.999 436.38 167.897 436.36 167.794 436.36Z" fill="white"/>
<path d="M134.583 443.071H130.989V437.143C130.985 436.938 130.9 436.743 130.754 436.599C130.607 436.455 130.411 436.375 130.205 436.375C130 436.375 129.804 436.455 129.657 436.599C129.511 436.743 129.426 436.938 129.422 437.143V443.854C129.422 443.957 129.443 444.059 129.482 444.154C129.521 444.249 129.579 444.335 129.652 444.408C129.724 444.481 129.811 444.538 129.906 444.578C130.001 444.617 130.103 444.637 130.205 444.637H134.583C134.788 444.633 134.983 444.549 135.127 444.403C135.27 444.256 135.351 444.059 135.351 443.854C135.351 443.649 135.27 443.452 135.127 443.306C134.983 443.159 134.788 443.075 134.583 443.071Z" fill="white"/>
<path d="M413 254C415.761 254 418 256.239 418 259L418 281C418 283.761 415.761 286 413 286L310 286L310 254L413 254Z" fill="url(#paint4_linear_287_1618)" fill-opacity="0.4"/>
<path d="M413 254C415.761 254 418 256.239 418 259L418 281C418 283.761 415.761 286 413 286L310 286L310 254L413 254Z" fill="url(#paint5_radial_287_1618)" fill-opacity="0.2"/>
<path d="M417.5 259L417.5 281C417.5 283.485 415.485 285.5 413 285.5L310.5 285.5L310.5 254.5L413 254.5C415.485 254.5 417.5 256.515 417.5 259Z" stroke="url(#paint6_linear_287_1618)" stroke-opacity="0.3"/>
<path d="M313.051 274V266.3H314.558V274H313.051ZM316.132 274V268.5H317.496L317.584 269.512V274H316.132ZM319.773 274V271.184H321.225V274H319.773ZM319.773 271.184C319.773 270.81 319.729 270.52 319.641 270.315C319.56 270.11 319.443 269.963 319.289 269.875C319.135 269.78 318.955 269.732 318.75 269.732C318.376 269.725 318.086 269.838 317.881 270.073C317.683 270.308 317.584 270.656 317.584 271.118H317.1C317.1 270.531 317.184 270.036 317.353 269.633C317.529 269.222 317.771 268.911 318.079 268.698C318.394 268.478 318.761 268.368 319.179 268.368C319.612 268.368 319.982 268.456 320.29 268.632C320.598 268.808 320.833 269.083 320.994 269.457C321.155 269.824 321.232 270.3 321.225 270.887V271.184H319.773ZM324.76 274.132C324.151 274.132 323.689 273.982 323.374 273.681C323.066 273.38 322.912 272.951 322.912 272.394V266.784H324.364V272.075C324.364 272.31 324.415 272.489 324.518 272.614C324.621 272.731 324.771 272.79 324.969 272.79C325.042 272.79 325.123 272.775 325.211 272.746C325.299 272.709 325.391 272.658 325.486 272.592L325.992 273.681C325.816 273.813 325.618 273.919 325.398 274C325.185 274.088 324.973 274.132 324.76 274.132ZM322.021 269.732V268.5H325.739V269.732H322.021ZM330.66 274L330.572 272.988V268.5H332.024V274H330.66ZM326.931 271.316V268.5H328.383V271.316H326.931ZM328.383 271.316C328.383 271.683 328.423 271.972 328.504 272.185C328.592 272.39 328.713 272.541 328.867 272.636C329.028 272.724 329.208 272.768 329.406 272.768C329.787 272.775 330.077 272.662 330.275 272.427C330.473 272.185 330.572 271.837 330.572 271.382H331.067C331.067 271.969 330.979 272.467 330.803 272.878C330.627 273.281 330.385 273.593 330.077 273.813C329.769 274.026 329.406 274.132 328.988 274.132C328.548 274.132 328.174 274.044 327.866 273.868C327.558 273.692 327.323 273.421 327.162 273.054C327.008 272.68 326.931 272.2 326.931 271.613V271.316H328.383ZM333.48 274V268.5H334.932V274H333.48ZM334.206 267.609C333.986 267.609 333.791 267.528 333.623 267.367C333.454 267.198 333.37 267 333.37 266.773C333.37 266.546 333.454 266.351 333.623 266.19C333.791 266.021 333.986 265.937 334.206 265.937C334.433 265.937 334.627 266.021 334.789 266.19C334.957 266.351 335.042 266.546 335.042 266.773C335.042 267 334.957 267.198 334.789 267.367C334.627 267.528 334.433 267.609 334.206 267.609ZM338.647 274.132C338.038 274.132 337.576 273.982 337.261 273.681C336.953 273.38 336.799 272.951 336.799 272.394V266.784H338.251V272.075C338.251 272.31 338.302 272.489 338.405 272.614C338.507 272.731 338.658 272.79 338.856 272.79C338.929 272.79 339.01 272.775 339.098 272.746C339.186 272.709 339.277 272.658 339.373 272.592L339.879 273.681C339.703 273.813 339.505 273.919 339.285 274C339.072 274.088 338.859 274.132 338.647 274.132ZM335.908 269.732V268.5H339.626V269.732H335.908ZM341.004 274V268.5H342.456V274H341.004ZM341.73 267.609C341.51 267.609 341.316 267.528 341.147 267.367C340.979 267.198 340.894 267 340.894 266.773C340.894 266.546 340.979 266.351 341.147 266.19C341.316 266.021 341.51 265.937 341.73 265.937C341.958 265.937 342.152 266.021 342.313 266.19C342.482 266.351 342.566 266.546 342.566 266.773C342.566 267 342.482 267.198 342.313 267.367C342.152 267.528 341.958 267.609 341.73 267.609ZM345.731 274L347.821 268.5H349.317L347.062 274H345.731ZM345.61 274L343.355 268.5H344.851L346.941 274H345.61ZM352.442 274.132C351.899 274.132 351.419 274.011 351.001 273.769C350.583 273.52 350.253 273.179 350.011 272.746C349.776 272.313 349.659 271.815 349.659 271.25C349.659 270.685 349.78 270.187 350.022 269.754C350.271 269.321 350.608 268.984 351.034 268.742C351.466 268.493 351.961 268.368 352.519 268.368C353.003 268.368 353.446 268.496 353.85 268.753C354.26 269.002 354.587 269.373 354.829 269.864C355.078 270.348 355.203 270.938 355.203 271.635H351.034L351.166 271.503C351.166 271.774 351.232 272.013 351.364 272.218C351.503 272.416 351.679 272.57 351.892 272.68C352.112 272.783 352.346 272.834 352.596 272.834C352.896 272.834 353.142 272.772 353.333 272.647C353.523 272.515 353.67 272.346 353.773 272.141L355.071 272.647C354.917 272.955 354.715 273.223 354.466 273.45C354.224 273.67 353.934 273.839 353.597 273.956C353.259 274.073 352.874 274.132 352.442 274.132ZM351.243 270.689L351.111 270.557H353.762L353.641 270.689C353.641 270.425 353.578 270.216 353.454 270.062C353.329 269.901 353.175 269.783 352.992 269.71C352.816 269.637 352.643 269.6 352.475 269.6C352.306 269.6 352.126 269.637 351.936 269.71C351.745 269.783 351.58 269.901 351.441 270.062C351.309 270.216 351.243 270.425 351.243 270.689ZM359.097 274V266.3H361.561C362.345 266.3 363.038 266.465 363.64 266.795C364.248 267.125 364.721 267.58 365.059 268.159C365.403 268.731 365.576 269.395 365.576 270.15C365.576 270.898 365.403 271.562 365.059 272.141C364.721 272.72 364.248 273.175 363.64 273.505C363.038 273.835 362.345 274 361.561 274H359.097ZM360.604 272.592H361.561C361.913 272.592 362.239 272.53 362.54 272.405C362.84 272.28 363.101 272.108 363.321 271.888C363.548 271.668 363.724 271.411 363.849 271.118C363.973 270.817 364.036 270.495 364.036 270.15C364.036 269.805 363.973 269.486 363.849 269.193C363.724 268.892 363.548 268.632 363.321 268.412C363.101 268.192 362.84 268.02 362.54 267.895C362.239 267.77 361.913 267.708 361.561 267.708H360.604V272.592ZM369.186 274.132C368.643 274.132 368.163 274.011 367.745 273.769C367.327 273.52 366.997 273.179 366.755 272.746C366.52 272.313 366.403 271.815 366.403 271.25C366.403 270.685 366.524 270.187 366.766 269.754C367.015 269.321 367.352 268.984 367.778 268.742C368.21 268.493 368.705 268.368 369.263 268.368C369.747 268.368 370.19 268.496 370.594 268.753C371.004 269.002 371.331 269.373 371.573 269.864C371.822 270.348 371.947 270.938 371.947 271.635H367.778L367.91 271.503C367.91 271.774 367.976 272.013 368.108 272.218C368.247 272.416 368.423 272.57 368.636 272.68C368.856 272.783 369.09 272.834 369.34 272.834C369.64 272.834 369.886 272.772 370.077 272.647C370.267 272.515 370.414 272.346 370.517 272.141L371.815 272.647C371.661 272.955 371.459 273.223 371.21 273.45C370.968 273.67 370.678 273.839 370.341 273.956C370.003 274.073 369.618 274.132 369.186 274.132ZM367.987 270.689L367.855 270.557H370.506L370.385 270.689C370.385 270.425 370.322 270.216 370.198 270.062C370.073 269.901 369.919 269.783 369.736 269.71C369.56 269.637 369.387 269.6 369.219 269.6C369.05 269.6 368.87 269.637 368.68 269.71C368.489 269.783 368.324 269.901 368.185 270.062C368.053 270.216 367.987 270.425 367.987 270.689ZM374.958 274.132C374.606 274.132 374.276 274.081 373.968 273.978C373.66 273.868 373.388 273.714 373.154 273.516C372.919 273.311 372.736 273.061 372.604 272.768L373.847 272.196C373.957 272.372 374.107 272.526 374.298 272.658C374.488 272.783 374.708 272.845 374.958 272.845C375.2 272.845 375.387 272.812 375.519 272.746C375.651 272.673 375.717 272.57 375.717 272.438C375.717 272.306 375.662 272.211 375.552 272.152C375.449 272.086 375.306 272.031 375.123 271.987L374.617 271.855C374.089 271.716 373.671 271.496 373.363 271.195C373.062 270.887 372.912 270.535 372.912 270.139C372.912 269.574 373.091 269.138 373.451 268.83C373.817 268.522 374.334 268.368 375.002 268.368C375.346 268.368 375.665 268.419 375.959 268.522C376.259 268.625 376.516 268.768 376.729 268.951C376.941 269.134 377.088 269.347 377.169 269.589L375.97 270.139C375.918 269.992 375.794 269.875 375.596 269.787C375.398 269.692 375.2 269.644 375.002 269.644C374.804 269.644 374.65 269.688 374.54 269.776C374.437 269.857 374.386 269.97 374.386 270.117C374.386 270.212 374.437 270.293 374.54 270.359C374.642 270.418 374.789 270.469 374.98 270.513L375.695 270.689C376.054 270.777 376.34 270.92 376.553 271.118C376.773 271.309 376.93 271.525 377.026 271.767C377.128 272.002 377.18 272.233 377.18 272.46C377.18 272.79 377.081 273.083 376.883 273.34C376.692 273.589 376.428 273.784 376.091 273.923C375.761 274.062 375.383 274.132 374.958 274.132ZM378.223 274V268.5H379.675V274H378.223ZM378.949 267.609C378.729 267.609 378.534 267.528 378.366 267.367C378.197 267.198 378.113 267 378.113 266.773C378.113 266.546 378.197 266.351 378.366 266.19C378.534 266.021 378.729 265.937 378.949 265.937C379.176 265.937 379.37 266.021 379.532 266.19C379.7 266.351 379.785 266.546 379.785 266.773C379.785 267 379.7 267.198 379.532 267.367C379.37 267.528 379.176 267.609 378.949 267.609ZM383.599 276.343C383.181 276.343 382.81 276.314 382.488 276.255C382.165 276.196 381.894 276.119 381.674 276.024C381.454 275.929 381.274 275.833 381.135 275.738L381.707 274.572C381.809 274.631 381.945 274.697 382.114 274.77C382.282 274.851 382.484 274.917 382.719 274.968C382.953 275.027 383.225 275.056 383.533 275.056C383.826 275.056 384.083 274.997 384.303 274.88C384.53 274.77 384.706 274.594 384.831 274.352C384.963 274.117 385.029 273.817 385.029 273.45V268.5H386.481V273.406C386.481 274.022 386.363 274.55 386.129 274.99C385.894 275.437 385.56 275.775 385.128 276.002C384.702 276.229 384.193 276.343 383.599 276.343ZM383.313 273.846C382.807 273.846 382.367 273.736 381.993 273.516C381.626 273.296 381.34 272.988 381.135 272.592C380.929 272.196 380.827 271.727 380.827 271.184C380.827 270.612 380.929 270.117 381.135 269.699C381.34 269.274 381.626 268.947 381.993 268.72C382.367 268.485 382.807 268.368 383.313 268.368C383.753 268.368 384.134 268.485 384.457 268.72C384.779 268.947 385.029 269.274 385.205 269.699C385.381 270.124 385.469 270.63 385.469 271.217C385.469 271.745 385.381 272.207 385.205 272.603C385.029 272.999 384.779 273.307 384.457 273.527C384.134 273.74 383.753 273.846 383.313 273.846ZM383.731 272.625C383.98 272.625 384.196 272.563 384.38 272.438C384.57 272.306 384.717 272.13 384.82 271.91C384.922 271.683 384.974 271.426 384.974 271.14C384.974 270.847 384.919 270.59 384.809 270.37C384.706 270.15 384.559 269.978 384.369 269.853C384.185 269.728 383.969 269.666 383.72 269.666C383.463 269.666 383.236 269.728 383.038 269.853C382.84 269.978 382.686 270.15 382.576 270.37C382.466 270.59 382.407 270.847 382.4 271.14C382.407 271.426 382.466 271.683 382.576 271.91C382.686 272.13 382.84 272.306 383.038 272.438C383.243 272.563 383.474 272.625 383.731 272.625ZM387.84 274V268.5H389.204L389.292 269.512V274H387.84ZM391.481 274V271.184H392.933V274H391.481ZM391.481 271.184C391.481 270.81 391.437 270.52 391.349 270.315C391.268 270.11 391.151 269.963 390.997 269.875C390.843 269.78 390.663 269.732 390.458 269.732C390.084 269.725 389.794 269.838 389.589 270.073C389.391 270.308 389.292 270.656 389.292 271.118H388.808C388.808 270.531 388.892 270.036 389.061 269.633C389.237 269.222 389.479 268.911 389.787 268.698C390.102 268.478 390.469 268.368 390.887 268.368C391.32 268.368 391.69 268.456 391.998 268.632C392.306 268.808 392.541 269.083 392.702 269.457C392.863 269.824 392.94 270.3 392.933 270.887V271.184H391.481Z" fill="white"/>
<path d="M268 3C270.761 3 273 5.23858 273 8L273 30C273 32.7614 270.761 35 268 35L155 35L155 3L268 3Z" fill="url(#paint7_linear_287_1618)" fill-opacity="0.4"/>
<path d="M268 3C270.761 3 273 5.23858 273 8L273 30C273 32.7614 270.761 35 268 35L155 35L155 3L268 3Z" fill="url(#paint8_radial_287_1618)" fill-opacity="0.2"/>
<path d="M272.5 8L272.5 30C272.5 32.4853 270.485 34.5 268 34.5L155.5 34.5L155.5 3.5L268 3.5C270.485 3.5 272.5 5.51472 272.5 8Z" stroke="url(#paint9_linear_287_1618)" stroke-opacity="0.3"/>
<path d="M162.421 23.132C162.032 23.132 161.669 23.0843 161.332 22.989C160.995 22.8937 160.694 22.7617 160.43 22.593C160.166 22.417 159.946 22.2227 159.77 22.01C159.601 21.7973 159.491 21.5737 159.44 21.339L160.914 20.899C161.009 21.1483 161.178 21.3647 161.42 21.548C161.662 21.724 161.966 21.8157 162.333 21.823C162.722 21.8303 163.037 21.746 163.279 21.57C163.528 21.394 163.653 21.1667 163.653 20.888C163.653 20.646 163.554 20.4443 163.356 20.283C163.165 20.1143 162.901 19.986 162.564 19.898L161.563 19.634C161.189 19.5387 160.859 19.3957 160.573 19.205C160.287 19.007 160.063 18.765 159.902 18.479C159.741 18.193 159.66 17.8593 159.66 17.478C159.66 16.752 159.898 16.1873 160.375 15.784C160.859 15.3733 161.541 15.168 162.421 15.168C162.912 15.168 163.341 15.2413 163.708 15.388C164.082 15.5273 164.394 15.729 164.643 15.993C164.892 16.257 165.083 16.5687 165.215 16.928L163.752 17.379C163.664 17.1297 163.503 16.917 163.268 16.741C163.033 16.565 162.736 16.477 162.377 16.477C162.01 16.477 161.721 16.5613 161.508 16.73C161.303 16.8987 161.2 17.137 161.2 17.445C161.2 17.687 161.281 17.8777 161.442 18.017C161.611 18.1563 161.838 18.2627 162.124 18.336L163.136 18.589C163.796 18.7503 164.309 19.04 164.676 19.458C165.043 19.876 165.226 20.3417 165.226 20.855C165.226 21.3097 165.116 21.7093 164.896 22.054C164.676 22.3913 164.357 22.6553 163.939 22.846C163.521 23.0367 163.015 23.132 162.421 23.132ZM169.004 23.132C168.446 23.132 167.948 23.011 167.508 22.769C167.075 22.5197 166.734 22.1787 166.485 21.746C166.243 21.3133 166.122 20.8147 166.122 20.25C166.122 19.6853 166.243 19.1867 166.485 18.754C166.727 18.3213 167.064 17.984 167.497 17.742C167.929 17.4927 168.424 17.368 168.982 17.368C169.546 17.368 170.045 17.4927 170.478 17.742C170.91 17.984 171.248 18.3213 171.49 18.754C171.732 19.1867 171.853 19.6853 171.853 20.25C171.853 20.8147 171.732 21.3133 171.49 21.746C171.248 22.1787 170.91 22.5197 170.478 22.769C170.052 23.011 169.561 23.132 169.004 23.132ZM169.004 21.79C169.275 21.79 169.513 21.724 169.719 21.592C169.924 21.46 170.082 21.2803 170.192 21.053C170.309 20.8183 170.368 20.5507 170.368 20.25C170.368 19.9493 170.309 19.6853 170.192 19.458C170.074 19.2233 169.909 19.04 169.697 18.908C169.491 18.776 169.253 18.71 168.982 18.71C168.718 18.71 168.479 18.776 168.267 18.908C168.061 19.04 167.9 19.2233 167.783 19.458C167.665 19.6853 167.607 19.9493 167.607 20.25C167.607 20.5507 167.665 20.8183 167.783 21.053C167.9 21.2803 168.065 21.46 168.278 21.592C168.49 21.724 168.732 21.79 169.004 21.79ZM172.92 23L172.92 15.3L174.372 15.3L174.372 23L172.92 23ZM175.825 23L175.825 17.5L177.277 17.5L177.277 23L175.825 23ZM176.551 16.609C176.331 16.609 176.137 16.5283 175.968 16.367C175.8 16.1983 175.715 16.0003 175.715 15.773C175.715 15.5457 175.8 15.3513 175.968 15.19C176.137 15.0213 176.331 14.937 176.551 14.937C176.779 14.937 176.973 15.0213 177.134 15.19C177.303 15.3513 177.387 15.5457 177.387 15.773C177.387 16.0003 177.303 16.1983 177.134 16.367C176.973 16.5283 176.779 16.609 176.551 16.609ZM182.642 23L182.565 21.977L182.565 15.3L184.017 15.3L184.017 23L182.642 23ZM180.915 23.132C180.409 23.132 179.969 23.0147 179.595 22.78C179.229 22.5453 178.943 22.2117 178.737 21.779C178.532 21.3463 178.429 20.8367 178.429 20.25C178.429 19.656 178.532 19.1463 178.737 18.721C178.943 18.2883 179.229 17.9547 179.595 17.72C179.969 17.4853 180.409 17.368 180.915 17.368C181.377 17.368 181.766 17.4853 182.081 17.72C182.404 17.9547 182.65 18.2883 182.818 18.721C182.987 19.1463 183.071 19.656 183.071 20.25C183.071 20.8367 182.987 21.3463 182.818 21.779C182.65 22.2117 182.404 22.5453 182.081 22.78C181.766 23.0147 181.377 23.132 180.915 23.132ZM181.289 21.801C181.539 21.801 181.759 21.735 181.949 21.603C182.147 21.471 182.301 21.2877 182.411 21.053C182.521 20.8183 182.576 20.5507 182.576 20.25C182.576 19.9493 182.521 19.6817 182.411 19.447C182.301 19.2123 182.147 19.0327 181.949 18.908C181.759 18.776 181.535 18.71 181.278 18.71C181.014 18.71 180.783 18.776 180.585 18.908C180.387 19.0327 180.23 19.2123 180.112 19.447C179.995 19.6817 179.936 19.9493 179.936 20.25C179.936 20.5507 179.995 20.8183 180.112 21.053C180.23 21.2877 180.387 21.471 180.585 21.603C180.791 21.735 181.025 21.801 181.289 21.801ZM193.653 23L190.705 15.3L192.212 15.3L195.248 23L193.653 23ZM187.57 23L190.606 15.3L192.113 15.3L189.165 23L187.57 23ZM189 21.306L189 19.975L193.829 19.975L193.829 21.306L189 21.306ZM197.095 20.107C197.095 19.513 197.208 19.0217 197.436 18.633C197.67 18.2443 197.967 17.9547 198.327 17.764C198.693 17.5733 199.075 17.478 199.471 17.478L199.471 18.886C199.133 18.886 198.814 18.9263 198.514 19.007C198.22 19.0877 197.982 19.2197 197.799 19.403C197.615 19.5863 197.524 19.821 197.524 20.107L197.095 20.107ZM196.072 23L196.072 17.5L197.524 17.5L197.524 23L196.072 23ZM203.001 23.132C202.429 23.132 201.919 23.011 201.472 22.769C201.024 22.5197 200.676 22.1787 200.427 21.746C200.177 21.306 200.053 20.8073 200.053 20.25C200.053 19.6853 200.177 19.1867 200.427 18.754C200.676 18.3213 201.021 17.984 201.461 17.742C201.901 17.4927 202.407 17.368 202.979 17.368C203.529 17.368 204.031 17.5037 204.486 17.775C204.94 18.0463 205.27 18.4387 205.476 18.952L204.112 19.436C204.009 19.2233 203.848 19.0547 203.628 18.93C203.415 18.798 203.177 18.732 202.913 18.732C202.641 18.732 202.403 18.798 202.198 18.93C201.992 19.0547 201.831 19.2307 201.714 19.458C201.596 19.6853 201.538 19.9493 201.538 20.25C201.538 20.5507 201.596 20.8147 201.714 21.042C201.831 21.262 201.996 21.438 202.209 21.57C202.421 21.702 202.663 21.768 202.935 21.768C203.199 21.768 203.437 21.6983 203.65 21.559C203.87 21.4197 204.031 21.2363 204.134 21.009L205.509 21.493C205.296 22.0137 204.962 22.417 204.508 22.703C204.06 22.989 203.558 23.132 203.001 23.132ZM206.476 23L206.476 15.3L207.928 15.3L207.928 23L206.476 23ZM210.128 23L210.128 20.184L211.58 20.184L211.58 23L210.128 23ZM210.128 20.184C210.128 19.81 210.084 19.5203 209.996 19.315C209.908 19.1097 209.787 18.963 209.633 18.875C209.479 18.7797 209.299 18.732 209.094 18.732C208.72 18.7247 208.43 18.8383 208.225 19.073C208.027 19.3077 207.928 19.656 207.928 20.118L207.444 20.118C207.444 19.5313 207.528 19.0363 207.697 18.633C207.873 18.2223 208.115 17.9107 208.423 17.698C208.738 17.478 209.105 17.368 209.523 17.368C209.963 17.368 210.333 17.456 210.634 17.632C210.942 17.808 211.176 18.083 211.338 18.457C211.499 18.8237 211.58 19.3003 211.58 19.887L211.58 20.184L210.128 20.184ZM212.936 23L212.936 17.5L214.388 17.5L214.388 23L212.936 23ZM213.662 16.609C213.442 16.609 213.248 16.5283 213.079 16.367C212.91 16.1983 212.826 16.0003 212.826 15.773C212.826 15.5457 212.91 15.3513 213.079 15.19C213.248 15.0213 213.442 14.937 213.662 14.937C213.889 14.937 214.084 15.0213 214.245 15.19C214.414 15.3513 214.498 15.5457 214.498 15.773C214.498 16.0003 214.414 16.1983 214.245 16.367C214.084 16.5283 213.889 16.609 213.662 16.609ZM218.103 23.132C217.494 23.132 217.032 22.9817 216.717 22.681C216.409 22.3803 216.255 21.9513 216.255 21.394L216.255 15.784L217.707 15.784L217.707 21.075C217.707 21.3097 217.758 21.4893 217.861 21.614C217.964 21.7313 218.114 21.79 218.312 21.79C218.385 21.79 218.466 21.7753 218.554 21.746C218.642 21.7093 218.734 21.658 218.829 21.592L219.335 22.681C219.159 22.813 218.961 22.9193 218.741 23C218.528 23.088 218.316 23.132 218.103 23.132ZM215.364 18.732L215.364 17.5L219.082 17.5L219.082 18.732L215.364 18.732ZM222.762 23.132C222.219 23.132 221.739 23.011 221.321 22.769C220.903 22.5197 220.573 22.1787 220.331 21.746C220.096 21.3133 219.979 20.8147 219.979 20.25C219.979 19.6853 220.1 19.1867 220.342 18.754C220.591 18.3213 220.929 17.984 221.354 17.742C221.787 17.4927 222.282 17.368 222.839 17.368C223.323 17.368 223.767 17.4963 224.17 17.753C224.581 18.0023 224.907 18.3727 225.149 18.864C225.398 19.348 225.523 19.9383 225.523 20.635L221.354 20.635L221.486 20.503C221.486 20.7743 221.552 21.0127 221.684 21.218C221.823 21.416 221.999 21.57 222.212 21.68C222.432 21.7827 222.667 21.834 222.916 21.834C223.217 21.834 223.462 21.7717 223.653 21.647C223.844 21.515 223.99 21.3463 224.093 21.141L225.391 21.647C225.237 21.955 225.035 22.2227 224.786 22.45C224.544 22.67 224.254 22.8387 223.917 22.956C223.58 23.0733 223.195 23.132 222.762 23.132ZM221.563 19.689L221.431 19.557L224.082 19.557L223.961 19.689C223.961 19.425 223.899 19.216 223.774 19.062C223.649 18.9007 223.495 18.7833 223.312 18.71C223.136 18.6367 222.964 18.6 222.795 18.6C222.626 18.6 222.447 18.6367 222.256 18.71C222.065 18.7833 221.9 18.9007 221.761 19.062C221.629 19.216 221.563 19.425 221.563 19.689ZM229.128 23.132C228.556 23.132 228.046 23.011 227.599 22.769C227.152 22.5197 226.803 22.1787 226.554 21.746C226.305 21.306 226.18 20.8073 226.18 20.25C226.18 19.6853 226.305 19.1867 226.554 18.754C226.803 18.3213 227.148 17.984 227.588 17.742C228.028 17.4927 228.534 17.368 229.106 17.368C229.656 17.368 230.158 17.5037 230.613 17.775C231.068 18.0463 231.398 18.4387 231.603 18.952L230.239 19.436C230.136 19.2233 229.975 19.0547 229.755 18.93C229.542 18.798 229.304 18.732 229.04 18.732C228.769 18.732 228.53 18.798 228.325 18.93C228.12 19.0547 227.958 19.2307 227.841 19.458C227.724 19.6853 227.665 19.9493 227.665 20.25C227.665 20.5507 227.724 20.8147 227.841 21.042C227.958 21.262 228.123 21.438 228.336 21.57C228.549 21.702 228.791 21.768 229.062 21.768C229.326 21.768 229.564 21.6983 229.777 21.559C229.997 21.4197 230.158 21.2363 230.261 21.009L231.636 21.493C231.423 22.0137 231.09 22.417 230.635 22.703C230.188 22.989 229.685 23.132 229.128 23.132ZM234.858 23.132C234.249 23.132 233.787 22.9817 233.472 22.681C233.164 22.3803 233.01 21.9513 233.01 21.394L233.01 15.784L234.462 15.784L234.462 21.075C234.462 21.3097 234.513 21.4893 234.616 21.614C234.718 21.7313 234.869 21.79 235.067 21.79C235.14 21.79 235.221 21.7753 235.309 21.746C235.397 21.7093 235.488 21.658 235.584 21.592L236.09 22.681C235.914 22.813 235.716 22.9193 235.496 23C235.283 23.088 235.07 23.132 234.858 23.132ZM232.119 18.732L232.119 17.5L235.837 17.5L235.837 18.732L232.119 18.732ZM240.758 23L240.67 21.988L240.67 17.5L242.122 17.5L242.122 23L240.758 23ZM237.029 20.316L237.029 17.5L238.481 17.5L238.481 20.316L237.029 20.316ZM238.481 20.316C238.481 20.6827 238.521 20.9723 238.602 21.185C238.69 21.3903 238.811 21.5407 238.965 21.636C239.126 21.724 239.306 21.768 239.504 21.768C239.885 21.7753 240.175 21.6617 240.373 21.427C240.571 21.185 240.67 20.8367 240.67 20.382L241.165 20.382C241.165 20.9687 241.077 21.4673 240.901 21.878C240.725 22.2813 240.483 22.593 240.175 22.813C239.867 23.0257 239.504 23.132 239.086 23.132C238.646 23.132 238.272 23.044 237.964 22.868C237.656 22.692 237.421 22.4207 237.26 22.054C237.106 21.68 237.029 21.1997 237.029 20.613L237.029 20.316L238.481 20.316ZM244.513 20.107C244.513 19.513 244.626 19.0217 244.854 18.633C245.088 18.2443 245.385 17.9547 245.745 17.764C246.111 17.5733 246.493 17.478 246.889 17.478L246.889 18.886C246.551 18.886 246.232 18.9263 245.932 19.007C245.638 19.0877 245.4 19.2197 245.217 19.403C245.033 19.5863 244.942 19.821 244.942 20.107L244.513 20.107ZM243.49 23L243.49 17.5L244.942 17.5L244.942 23L243.49 23ZM250.254 23.132C249.711 23.132 249.231 23.011 248.813 22.769C248.395 22.5197 248.065 22.1787 247.823 21.746C247.588 21.3133 247.471 20.8147 247.471 20.25C247.471 19.6853 247.592 19.1867 247.834 18.754C248.083 18.3213 248.42 17.984 248.846 17.742C249.278 17.4927 249.773 17.368 250.331 17.368C250.815 17.368 251.258 17.4963 251.662 17.753C252.072 18.0023 252.399 18.3727 252.641 18.864C252.89 19.348 253.015 19.9383 253.015 20.635L248.846 20.635L248.978 20.503C248.978 20.7743 249.044 21.0127 249.176 21.218C249.315 21.416 249.491 21.57 249.704 21.68C249.924 21.7827 250.158 21.834 250.408 21.834C250.708 21.834 250.954 21.7717 251.145 21.647C251.335 21.515 251.482 21.3463 251.585 21.141L252.883 21.647C252.729 21.955 252.527 22.2227 252.278 22.45C252.036 22.67 251.746 22.8387 251.409 22.956C251.071 23.0733 250.686 23.132 250.254 23.132ZM249.055 19.689L248.923 19.557L251.574 19.557L251.453 19.689C251.453 19.425 251.39 19.216 251.266 19.062C251.141 18.9007 250.987 18.7833 250.804 18.71C250.628 18.6367 250.455 18.6 250.287 18.6C250.118 18.6 249.938 18.6367 249.748 18.71C249.557 18.7833 249.392 18.9007 249.253 19.062C249.121 19.216 249.055 19.425 249.055 19.689Z" fill="white"/>
<path d="M324 336C326.761 336 329 338.239 329 341L329 363C329 365.761 326.761 368 324 368L232 368L232 336L324 336Z" fill="url(#paint10_linear_287_1618)" fill-opacity="0.4"/>
<path d="M324 336C326.761 336 329 338.239 329 341L329 363C329 365.761 326.761 368 324 368L232 368L232 336L324 336Z" fill="url(#paint11_radial_287_1618)" fill-opacity="0.2"/>
<path d="M328.5 341L328.5 363C328.5 365.485 326.485 367.5 324 367.5L232.5 367.5L232.5 336.5L324 336.5C326.485 336.5 328.5 338.515 328.5 341Z" stroke="url(#paint12_linear_287_1618)" stroke-opacity="0.3"/>
<path d="M236.836 356L236.836 348.3L238.343 348.3L238.343 356L236.836 356ZM239.917 356L239.917 350.5L241.281 350.5L241.369 351.512L241.369 356L239.917 356ZM243.558 356L243.558 353.184L245.01 353.184L245.01 356L243.558 356ZM243.558 353.184C243.558 352.81 243.514 352.52 243.426 352.315C243.345 352.11 243.228 351.963 243.074 351.875C242.92 351.78 242.74 351.732 242.535 351.732C242.161 351.725 241.871 351.838 241.666 352.073C241.468 352.308 241.369 352.656 241.369 353.118L240.885 353.118C240.885 352.531 240.969 352.036 241.138 351.633C241.314 351.222 241.556 350.911 241.864 350.698C242.179 350.478 242.546 350.368 242.964 350.368C243.396 350.368 243.767 350.456 244.075 350.632C244.383 350.808 244.617 351.083 244.779 351.457C244.94 351.824 245.017 352.3 245.01 352.887L245.01 353.184L243.558 353.184ZM247.954 356L250.044 350.5L251.54 350.5L249.285 356L247.954 356ZM247.833 356L245.578 350.5L247.074 350.5L249.164 356L247.833 356ZM254.665 356.132C254.122 356.132 253.642 356.011 253.224 355.769C252.806 355.52 252.476 355.179 252.234 354.746C251.999 354.313 251.882 353.815 251.882 353.25C251.882 352.685 252.003 352.187 252.245 351.754C252.494 351.321 252.831 350.984 253.257 350.742C253.689 350.493 254.184 350.368 254.742 350.368C255.226 350.368 255.669 350.496 256.073 350.753C256.483 351.002 256.81 351.373 257.052 351.864C257.301 352.348 257.426 352.938 257.426 353.635L253.257 353.635L253.389 353.503C253.389 353.774 253.455 354.013 253.587 354.218C253.726 354.416 253.902 354.57 254.115 354.68C254.335 354.783 254.569 354.834 254.819 354.834C255.119 354.834 255.365 354.772 255.556 354.647C255.746 354.515 255.893 354.346 255.996 354.141L257.294 354.647C257.14 354.955 256.938 355.223 256.689 355.45C256.447 355.67 256.157 355.839 255.82 355.956C255.482 356.073 255.097 356.132 254.665 356.132ZM253.466 352.689L253.334 352.557L255.985 352.557L255.864 352.689C255.864 352.425 255.801 352.216 255.677 352.062C255.552 351.901 255.398 351.783 255.215 351.71C255.039 351.637 254.866 351.6 254.698 351.6C254.529 351.6 254.349 351.637 254.159 351.71C253.968 351.783 253.803 351.901 253.664 352.062C253.532 352.216 253.466 352.425 253.466 352.689ZM260.437 356.132C260.085 356.132 259.755 356.081 259.447 355.978C259.139 355.868 258.867 355.714 258.633 355.516C258.398 355.311 258.215 355.061 258.083 354.768L259.326 354.196C259.436 354.372 259.586 354.526 259.777 354.658C259.967 354.783 260.187 354.845 260.437 354.845C260.679 354.845 260.866 354.812 260.998 354.746C261.13 354.673 261.196 354.57 261.196 354.438C261.196 354.306 261.141 354.211 261.031 354.152C260.928 354.086 260.785 354.031 260.602 353.987L260.096 353.855C259.568 353.716 259.15 353.496 258.842 353.195C258.541 352.887 258.391 352.535 258.391 352.139C258.391 351.574 258.57 351.138 258.93 350.83C259.296 350.522 259.813 350.368 260.481 350.368C260.825 350.368 261.144 350.419 261.438 350.522C261.738 350.625 261.995 350.768 262.208 350.951C262.42 351.134 262.567 351.347 262.648 351.589L261.449 352.139C261.397 351.992 261.273 351.875 261.075 351.787C260.877 351.692 260.679 351.644 260.481 351.644C260.283 351.644 260.129 351.688 260.019 351.776C259.916 351.857 259.865 351.97 259.865 352.117C259.865 352.212 259.916 352.293 260.019 352.359C260.121 352.418 260.268 352.469 260.459 352.513L261.174 352.689C261.533 352.777 261.819 352.92 262.032 353.118C262.252 353.309 262.409 353.525 262.505 353.767C262.607 354.002 262.659 354.233 262.659 354.46C262.659 354.79 262.56 355.083 262.362 355.34C262.171 355.589 261.907 355.784 261.57 355.923C261.24 356.062 260.862 356.132 260.437 356.132ZM265.88 356.132C265.271 356.132 264.809 355.982 264.494 355.681C264.186 355.38 264.032 354.951 264.032 354.394L264.032 348.784L265.484 348.784L265.484 354.075C265.484 354.31 265.535 354.489 265.638 354.614C265.74 354.731 265.891 354.79 266.089 354.79C266.162 354.79 266.243 354.775 266.331 354.746C266.419 354.709 266.51 354.658 266.606 354.592L267.112 355.681C266.936 355.813 266.738 355.919 266.518 356C266.305 356.088 266.092 356.132 265.88 356.132ZM263.141 351.732L263.141 350.5L266.859 350.5L266.859 351.732L263.141 351.732ZM270.539 356.132C269.996 356.132 269.516 356.011 269.098 355.769C268.68 355.52 268.35 355.179 268.108 354.746C267.873 354.313 267.756 353.815 267.756 353.25C267.756 352.685 267.877 352.187 268.119 351.754C268.368 351.321 268.705 350.984 269.131 350.742C269.563 350.493 270.058 350.368 270.616 350.368C271.1 350.368 271.543 350.496 271.947 350.753C272.357 351.002 272.684 351.373 272.926 351.864C273.175 352.348 273.3 352.938 273.3 353.635L269.131 353.635L269.263 353.503C269.263 353.774 269.329 354.013 269.461 354.218C269.6 354.416 269.776 354.57 269.989 354.68C270.209 354.783 270.443 354.834 270.693 354.834C270.993 354.834 271.239 354.772 271.43 354.647C271.62 354.515 271.767 354.346 271.87 354.141L273.168 354.647C273.014 354.955 272.812 355.223 272.563 355.45C272.321 355.67 272.031 355.839 271.694 355.956C271.356 356.073 270.971 356.132 270.539 356.132ZM269.34 352.689L269.208 352.557L271.859 352.557L271.738 352.689C271.738 352.425 271.675 352.216 271.551 352.062C271.426 351.901 271.272 351.783 271.089 351.71C270.913 351.637 270.74 351.6 270.572 351.6C270.403 351.6 270.223 351.637 270.033 351.71C269.842 351.783 269.677 351.901 269.538 352.062C269.406 352.216 269.34 352.425 269.34 352.689ZM278.169 356L278.092 354.977L278.092 348.3L279.544 348.3L279.544 356L278.169 356ZM276.442 356.132C275.936 356.132 275.496 356.015 275.122 355.78C274.756 355.545 274.47 355.212 274.264 354.779C274.059 354.346 273.956 353.837 273.956 353.25C273.956 352.656 274.059 352.146 274.264 351.721C274.47 351.288 274.756 350.955 275.122 350.72C275.496 350.485 275.936 350.368 276.442 350.368C276.904 350.368 277.293 350.485 277.608 350.72C277.931 350.955 278.177 351.288 278.345 351.721C278.514 352.146 278.598 352.656 278.598 353.25C278.598 353.837 278.514 354.346 278.345 354.779C278.177 355.212 277.931 355.545 277.608 355.78C277.293 356.015 276.904 356.132 276.442 356.132ZM276.816 354.801C277.066 354.801 277.286 354.735 277.476 354.603C277.674 354.471 277.828 354.288 277.938 354.053C278.048 353.818 278.103 353.551 278.103 353.25C278.103 352.949 278.048 352.682 277.938 352.447C277.828 352.212 277.674 352.033 277.476 351.908C277.286 351.776 277.062 351.71 276.805 351.71C276.541 351.71 276.31 351.776 276.112 351.908C275.914 352.033 275.757 352.212 275.639 352.447C275.522 352.682 275.463 352.949 275.463 353.25C275.463 353.551 275.522 353.818 275.639 354.053C275.757 354.288 275.914 354.471 276.112 354.603C276.318 354.735 276.552 354.801 276.816 354.801ZM285.474 356L285.474 349.675L283.164 349.675L283.164 348.3L289.28 348.3L289.28 349.675L286.981 349.675L286.981 356L285.474 356ZM291.937 356.132C291.394 356.132 290.914 356.011 290.496 355.769C290.078 355.52 289.748 355.179 289.506 354.746C289.271 354.313 289.154 353.815 289.154 353.25C289.154 352.685 289.275 352.187 289.517 351.754C289.766 351.321 290.103 350.984 290.529 350.742C290.961 350.493 291.456 350.368 292.014 350.368C292.498 350.368 292.941 350.496 293.345 350.753C293.755 351.002 294.082 351.373 294.324 351.864C294.573 352.348 294.698 352.938 294.698 353.635L290.529 353.635L290.661 353.503C290.661 353.774 290.727 354.013 290.859 354.218C290.998 354.416 291.174 354.57 291.387 354.68C291.607 354.783 291.841 354.834 292.091 354.834C292.391 354.834 292.637 354.772 292.828 354.647C293.018 354.515 293.165 354.346 293.268 354.141L294.566 354.647C294.412 354.955 294.21 355.223 293.961 355.45C293.719 355.67 293.429 355.839 293.092 355.956C292.754 356.073 292.369 356.132 291.937 356.132ZM290.738 352.689L290.606 352.557L293.257 352.557L293.136 352.689C293.136 352.425 293.073 352.216 292.949 352.062C292.824 351.901 292.67 351.783 292.487 351.71C292.311 351.637 292.138 351.6 291.97 351.6C291.801 351.6 291.621 351.637 291.431 351.71C291.24 351.783 291.075 351.901 290.936 352.062C290.804 352.216 290.738 352.425 290.738 352.689ZM298.973 356L298.929 354.889L298.929 353.217C298.929 352.887 298.893 352.605 298.819 352.37C298.753 352.135 298.643 351.956 298.489 351.831C298.343 351.699 298.141 351.633 297.884 351.633C297.65 351.633 297.437 351.684 297.246 351.787C297.056 351.89 296.894 352.047 296.762 352.26L295.486 351.82C295.589 351.585 295.739 351.358 295.937 351.138C296.135 350.911 296.392 350.727 296.707 350.588C297.03 350.441 297.422 350.368 297.884 350.368C298.442 350.368 298.904 350.474 299.27 350.687C299.644 350.9 299.919 351.2 300.095 351.589C300.279 351.97 300.367 352.425 300.359 352.953L300.326 356L298.973 356ZM297.433 356.132C296.773 356.132 296.26 355.985 295.893 355.692C295.534 355.399 295.354 354.984 295.354 354.449C295.354 353.862 295.549 353.422 295.937 353.129C296.333 352.828 296.887 352.678 297.598 352.678L298.995 352.678L298.995 353.756L298.104 353.756C297.628 353.756 297.298 353.815 297.114 353.932C296.931 354.042 296.839 354.2 296.839 354.405C296.839 354.566 296.913 354.695 297.059 354.79C297.206 354.878 297.411 354.922 297.675 354.922C297.917 354.922 298.13 354.867 298.313 354.757C298.504 354.64 298.654 354.493 298.764 354.317C298.874 354.134 298.929 353.947 298.929 353.756L299.281 353.756C299.281 354.504 299.138 355.087 298.852 355.505C298.574 355.923 298.101 356.132 297.433 356.132ZM301.627 356L301.627 350.5L302.991 350.5L303.057 351.215C303.225 350.936 303.442 350.727 303.706 350.588C303.97 350.441 304.263 350.368 304.586 350.368C305.033 350.368 305.407 350.463 305.708 350.654C306.016 350.845 306.239 351.138 306.379 351.534C306.54 351.16 306.767 350.874 307.061 350.676C307.354 350.471 307.695 350.368 308.084 350.368C308.729 350.368 309.22 350.573 309.558 350.984C309.895 351.387 310.064 352.011 310.064 352.854L310.064 356L308.612 356L308.612 353.184C308.612 352.81 308.571 352.52 308.491 352.315C308.41 352.11 308.3 351.963 308.161 351.875C308.021 351.78 307.856 351.732 307.666 351.732C307.314 351.725 307.042 351.838 306.852 352.073C306.661 352.308 306.566 352.656 306.566 353.118L306.566 356L305.114 356L305.114 353.184C305.114 352.81 305.073 352.52 304.993 352.315C304.919 352.11 304.809 351.963 304.663 351.875C304.523 351.78 304.358 351.732 304.168 351.732C303.816 351.725 303.544 351.838 303.354 352.073C303.17 352.308 303.079 352.656 303.079 353.118L303.079 356L301.627 356Z" fill="white"/>
<defs>
<filter id="filter0_dddi_287_1618" x="181.625" y="215" width="133" height="143" filterUnits="userSpaceOnUse" color-interpolation-filters="sRGB">
<feFlood flood-opacity="0" result="BackgroundImageFix"/>
<feColorMatrix in="SourceAlpha" type="matrix" values="0 0 0 0 0 0 0 0 0 0 0 0 0 0 0 0 0 0 127 0" result="hardAlpha"/>
<feOffset dy="20"/>
<feGaussianBlur stdDeviation="10"/>
<feComposite in2="hardAlpha" operator="out"/>
<feColorMatrix type="matrix" values="0 0 0 0 0 0 0 0 0 0 0 0 0 0 0 0 0 0 0.1 0"/>
<feBlend mode="normal" in2="BackgroundImageFix" result="effect1_dropShadow_287_1618"/>
<feColorMatrix in="SourceAlpha" type="matrix" values="0 0 0 0 0 0 0 0 0 0 0 0 0 0 0 0 0 0 127 0" result="hardAlpha"/>
<feOffset dy="5"/>
<feGaussianBlur stdDeviation="5"/>
<feComposite in2="hardAlpha" operator="out"/>
<feColorMatrix type="matrix" values="0 0 0 0 0 0 0 0 0 0 0 0 0 0 0 0 0 0 0.05 0"/>
<feBlend mode="normal" in2="effect1_dropShadow_287_1618" result="effect2_dropShadow_287_1618"/>
<feColorMatrix in="SourceAlpha" type="matrix" values="0 0 0 0 0 0 0 0 0 0 0 0 0 0 0 0 0 0 127 0" result="hardAlpha"/>
<feOffset dy="2"/>
<feGaussianBlur stdDeviation="2"/>
<feComposite in2="hardAlpha" operator="out"/>
<feColorMatrix type="matrix" values="0 0 0 0 0 0 0 0 0 0 0 0 0 0 0 0 0 0 0.05 0"/>
<feBlend mode="normal" in2="effect2_dropShadow_287_1618" result="effect3_dropShadow_287_1618"/>
<feBlend mode="normal" in="SourceGraphic" in2="effect3_dropShadow_287_1618" result="shape"/>
<feColorMatrix in="SourceAlpha" type="matrix" values="0 0 0 0 0 0 0 0 0 0 0 0 0 0 0 0 0 0 127 0" result="hardAlpha"/>
<feOffset dy="30"/>
<feGaussianBlur stdDeviation="30"/>
<feComposite in2="hardAlpha" operator="arithmetic" k2="-1" k3="1"/>
<feColorMatrix type="matrix" values="0 0 0 0 1 0 0 0 0 1 0 0 0 0 1 0 0 0 0.15 0"/>
<feBlend mode="normal" in2="shape" result="effect4_innerShadow_287_1618"/>
</filter>
<clipPath id="bgblur_1_287_1618_clip_path" transform="translate(-181.625 -215)"><circle cx="248.125" cy="271.5" r="46.5"/>
</clipPath><filter id="filter1_f_287_1618" x="200.176" y="223.521" width="95.9292" height="95.9287" filterUnits="userSpaceOnUse" color-interpolation-filters="sRGB">
<feFlood flood-opacity="0" result="BackgroundImageFix"/>
<feBlend mode="normal" in="SourceGraphic" in2="BackgroundImageFix" result="shape"/>
<feGaussianBlur stdDeviation="5" result="effect1_foregroundBlur_287_1618"/>
</filter>
<clipPath id="paint1_angular_287_1618_clip_path"><path d="M257.964 308.147C237.716 313.573 216.904 301.557 211.479 281.309C206.053 261.061 218.069 240.249 238.317 234.824C258.565 229.398 279.377 241.414 284.803 261.662C290.228 281.91 278.212 302.722 257.964 308.147ZM238.808 236.657C219.573 241.811 208.158 261.582 213.312 280.818C218.466 300.053 238.238 311.468 257.473 306.314C276.708 301.16 288.124 281.388 282.969 262.153C277.815 242.918 258.044 231.503 238.808 236.657Z"/></clipPath><linearGradient id="paint0_linear_287_1618" x1="248.125" y1="225" x2="248.125" y2="318" gradientUnits="userSpaceOnUse">
<stop stop-opacity="0.1"/>
<stop offset="0.692708" stop-opacity="0.0677083"/>
<stop offset="1"/>
</linearGradient>
<linearGradient id="paint2_linear_287_1618" x1="291.5" y1="286.659" x2="201.655" y2="244.647" gradientUnits="userSpaceOnUse">
<stop stop-color="white"/>
<stop offset="0.75" stop-color="#285299"/>
</linearGradient>
<linearGradient id="paint3_linear_287_1618" x1="288.24" y1="260.741" x2="211.479" y2="281.309" gradientUnits="userSpaceOnUse">
<stop stop-color="#2737CF" stop-opacity="0"/>
<stop offset="1" stop-color="#BDFCFE"/>
</linearGradient>
<linearGradient id="paint4_linear_287_1618" x1="418" y1="273.294" x2="310" y2="273.294" gradientUnits="userSpaceOnUse">
<stop stop-color="#41C990"/>
<stop offset="1" stop-color="#1C1B33" stop-opacity="0.2"/>
</linearGradient>
<radialGradient id="paint5_radial_287_1618" cx="0" cy="0" r="1" gradientUnits="userSpaceOnUse" gradientTransform="translate(434.737 270) rotate(-180) scale(127.895 46.763)">
<stop stop-color="white" stop-opacity="0.8"/>
<stop offset="1" stop-color="white" stop-opacity="0"/>
</radialGradient>
<linearGradient id="paint6_linear_287_1618" x1="418" y1="270" x2="310" y2="270" gradientUnits="userSpaceOnUse">
<stop stop-color="white"/>
<stop offset="1" stop-color="white" stop-opacity="0"/>
</linearGradient>
<linearGradient id="paint7_linear_287_1618" x1="273" y1="22.2941" x2="155" y2="22.2941" gradientUnits="userSpaceOnUse">
<stop stop-color="#41C990"/>
<stop offset="1" stop-color="#1C1B33" stop-opacity="0.2"/>
</linearGradient>
<radialGradient id="paint8_radial_287_1618" cx="0" cy="0" r="1" gradientUnits="userSpaceOnUse" gradientTransform="translate(291.287 19) rotate(-180) scale(139.737 46.763)">
<stop stop-color="white" stop-opacity="0.8"/>
<stop offset="1" stop-color="white" stop-opacity="0"/>
</radialGradient>
<linearGradient id="paint9_linear_287_1618" x1="273" y1="19" x2="155" y2="19" gradientUnits="userSpaceOnUse">
<stop stop-color="white"/>
<stop offset="1" stop-color="white" stop-opacity="0"/>
</linearGradient>
<linearGradient id="paint10_linear_287_1618" x1="329" y1="355.294" x2="232" y2="355.294" gradientUnits="userSpaceOnUse">
<stop stop-color="#41C990"/>
<stop offset="1" stop-color="#1C1B33" stop-opacity="0.2"/>
</linearGradient>
<radialGradient id="paint11_radial_287_1618" cx="0" cy="0" r="1" gradientUnits="userSpaceOnUse" gradientTransform="translate(344.032 352) rotate(-180) scale(114.868 46.763)">
<stop stop-color="white" stop-opacity="0.8"/>
<stop offset="1" stop-color="white" stop-opacity="0"/>
</radialGradient>
<linearGradient id="paint12_linear_287_1618" x1="329" y1="352" x2="232" y2="352" gradientUnits="userSpaceOnUse">
<stop stop-color="white"/>
<stop offset="1" stop-color="white" stop-opacity="0"/>
</linearGradient>
<clipPath id="clip0_287_1618">
<rect width="50" height="50" fill="white" transform="translate(74.2515 86.6021)"/>
</clipPath>
<clipPath id="clip2_287_1618">
<rect width="50" height="50" fill="white" transform="translate(223 248)"/>
</clipPath>
</defs>
</svg>
