<svg width="120" height="120" viewBox="0 0 120 120" fill="none" xmlns="http://www.w3.org/2000/svg">
<path fill-rule="evenodd" clip-rule="evenodd" d="M55.305 79.505C55.9706 80.1706 55.9706 81.2497 55.305 81.9153C54.6394 82.581 53.5603 82.581 52.8947 81.9153L48.2482 77.2688C47.5826 76.6032 47.5826 75.5242 48.2482 74.8585L52.8947 70.2121C53.5603 69.5464 54.6394 69.5464 55.305 70.2121C55.9706 70.8777 55.9706 71.9567 55.305 72.6224L51.8637 76.0637L55.305 79.505ZM67.1055 82.0752C66.4399 82.7408 65.3609 82.7408 64.6952 82.0752C64.0296 81.4096 64.0296 80.3305 64.6952 79.6649L68.1366 76.2235L64.6952 72.7822C64.0296 72.1166 64.0296 71.0375 64.6952 70.3719C65.3609 69.7063 66.4399 69.7063 67.1055 70.3719L71.7518 75.0184C72.4174 75.684 72.4174 76.7631 71.7518 77.4287L67.1055 82.0752ZM59.7127 83.7943C59.4701 84.7025 58.5368 85.2421 57.6286 84.9995C56.7204 84.7569 56.1809 83.8236 56.4234 82.9154L60.2878 68.4929C60.5304 67.5847 61.4637 67.0452 62.3719 67.2878C63.2801 67.5303 63.8196 68.4636 63.577 69.3718L59.7127 83.7943ZM70.0083 66.1356C64.4813 60.6085 55.5195 60.6085 49.9924 66.1356C44.4654 71.6626 44.4654 80.6246 49.9924 86.1514C55.5195 91.6785 64.4815 91.6785 70.0083 86.1514C75.5353 80.6244 75.5353 71.6626 70.0083 66.1356ZM60.0002 58.5814C50.3013 58.5814 42.4381 66.4447 42.4381 76.1436C42.4381 85.8425 50.3013 93.7058 60.0002 93.7058C69.6992 93.7058 77.5624 85.8425 77.5624 76.1436C77.5624 66.4447 69.6992 58.5814 60.0002 58.5814ZM92.9791 74.4392H94.9153C99.8147 74.4392 104.277 72.2333 107.52 68.6792C110.802 65.0818 112.84 60.1096 112.84 54.6313C112.84 43.7366 104.774 34.8228 94.9153 34.8228H90.1359V34.8188C89.2992 34.8198 88.5694 34.2031 88.4515 33.3512C87.5688 26.9788 82.5902 21.6376 76.1194 21.6376C73.3024 21.6376 70.7281 22.6454 68.5957 24.4363L68.595 24.4353C67.7977 25.1007 66.5951 24.9055 66.0523 24.0167C62.4811 18.17 56.4209 14.2862 49.4815 14.2862C44.4839 14.2862 39.9117 16.3138 36.4104 19.6611C32.8399 23.0748 30.3785 27.8617 29.6979 33.2842C29.6145 34.1476 28.8867 34.8226 28.0015 34.8226H25.0852C20.1858 34.8226 15.7235 37.0285 12.4807 40.5826C9.19829 44.18 7.16087 49.1525 7.16087 54.631C7.16087 65.5253 15.2264 74.439 25.0852 74.439H27.0211V72.11C27.0211 71.2731 27.6267 70.5777 28.4236 70.4378L34.2101 69.2647C34.864 66.8026 35.8556 64.4844 37.1693 62.3204L33.9546 57.4712C33.5002 56.7847 33.6089 55.8894 34.17 55.3295L34.1677 55.3271L39.5281 49.9667C40.1386 49.3562 41.0974 49.3058 41.7656 49.8158L46.6334 53.0427C48.8191 51.7738 51.1786 50.8199 53.636 50.2161L54.7887 44.5292C54.9502 43.7216 55.6599 43.1635 56.4532 43.1645V43.1577H64.0336C64.912 43.1577 65.6353 43.8224 65.7279 44.6762L66.8787 50.353C69.341 51.0067 71.6595 51.9981 73.8237 53.3122L78.6724 50.098C79.3589 49.6435 80.2542 49.7523 80.8141 50.3134L80.8165 50.311L86.1769 55.6714C86.7877 56.282 86.8378 57.241 86.3278 57.909L83.1002 62.7777C84.3687 64.9628 85.3233 67.3227 85.9266 69.7792L91.6141 70.9321C92.4218 71.0935 92.9798 71.8032 92.9789 72.5966V74.4392H92.9791ZM27.0213 77.8482V79.6906C27.0206 80.484 27.5787 81.1937 28.3863 81.3552L34.0739 82.5081C34.6774 84.9645 35.632 87.3245 36.9002 89.5096L33.6727 94.3782C33.1627 95.0462 33.2131 96.0052 33.8236 96.6158L39.184 101.976L39.1863 101.974C39.7463 102.535 40.6416 102.643 41.3281 102.189L46.1768 98.975C48.3413 100.289 50.6592 101.281 53.1218 101.934L54.2946 107.72C54.4343 108.517 55.1299 109.123 55.9669 109.123H63.5475C64.3409 109.123 65.0506 108.565 65.212 107.758L66.3649 102.07C68.8219 101.467 71.1809 100.512 73.3664 99.2439L78.2351 102.471C78.9031 102.981 79.8621 102.931 80.4727 102.32L85.8328 96.9601L85.8305 96.9578C86.3916 96.3978 86.5001 95.5025 86.0459 94.816L82.8316 89.9673C84.1456 87.8031 85.1372 85.4844 85.7909 83.0223L91.5769 81.8495C92.3738 81.7098 92.9796 81.0142 92.9796 80.1772V77.8482H94.9156C100.812 77.8482 106.164 75.2138 110.037 70.9698C113.87 66.7688 116.249 60.9847 116.249 54.6313C116.249 41.8618 106.65 31.4138 94.9158 31.4138H91.5558C90.7676 27.868 88.9704 24.748 86.5144 22.4375C81.3265 17.5574 73.8298 16.8444 67.9308 20.6987C63.6452 14.7151 56.9503 10.8774 49.4822 10.8774C37.8054 10.8774 28.587 20.0551 26.5388 31.4138H25.0859C19.189 31.4138 13.837 34.0482 9.96446 38.2925C6.13149 42.4935 3.75235 48.2778 3.75235 54.6315C3.75235 67.4005 13.3519 77.8485 25.0856 77.8485H27.0218L27.0213 77.8482ZM30.417 75.9938V78.3029L35.685 79.3707C36.4038 79.4499 37.0202 79.9848 37.1691 80.732C37.4545 82.1617 37.8649 83.5318 38.3874 84.8305C38.914 86.1395 39.551 87.3828 40.286 88.5486C40.6936 89.1064 40.7344 89.8813 40.3308 90.4911L37.2166 95.1885L40.6113 98.5831L45.2168 95.5302L45.2177 95.5313C45.772 95.1648 46.5145 95.1439 47.1012 95.5367C49.4545 97.1096 52.1569 98.267 54.9363 98.882C55.5736 99.0226 56.0995 99.5263 56.2357 100.207L57.3546 105.727H62.1593L63.2271 100.459C63.3063 99.74 63.8412 99.1236 64.5884 98.9748C66.0181 98.6893 67.3882 98.2789 68.6869 97.7565C69.9959 97.2299 71.2392 96.5928 72.4052 95.8578C72.9631 95.4503 73.7379 95.4095 74.3477 95.8131L79.0451 98.9272L82.4398 95.5325L79.3868 90.927L79.388 90.9261C79.0214 90.3718 79.0005 89.6293 79.3934 89.0427C80.966 86.6893 82.1236 83.9867 82.7384 81.2075C82.879 80.5703 83.3827 80.0443 84.0635 79.9081L89.5835 78.7892V73.9845L84.3152 72.9167C83.5962 72.8375 82.98 72.3027 82.8312 71.5555C82.5457 70.1258 82.1353 68.7556 81.6129 67.457C81.0863 66.1482 80.4492 64.9046 79.7142 63.7388C79.3066 63.181 79.2659 62.4062 79.6695 61.7963L82.7836 57.0988L79.3889 53.7041L74.7834 56.757L74.7825 56.7559C74.2282 57.1224 73.4857 57.1433 72.8991 56.7505C70.5457 55.1776 67.8434 54.0203 65.0639 53.4053C64.4266 53.2646 63.9007 52.761 63.7645 52.0801L62.6468 46.5667H57.8393L56.7729 51.8274C56.6937 52.5463 56.1588 53.1627 55.4116 53.3115C53.9813 53.5972 52.6106 54.0076 51.3117 54.5303C50.003 55.0569 48.7598 55.6937 47.5941 56.4287C47.0363 56.8363 46.2614 56.8773 45.6513 56.4735L40.9547 53.36L37.56 56.7547L40.6132 61.3606L40.612 61.3616C40.9786 61.9156 40.9995 62.6584 40.6066 63.245C39.0345 65.5974 37.8762 68.3017 37.2614 71.0797C37.1208 71.7167 36.6171 72.2427 35.9363 72.3788L30.416 73.4978V75.9936L30.417 75.9938Z" fill="url(#paint0_linear_157_1278)"/>
<defs>
<linearGradient id="paint0_linear_157_1278" x1="60.0007" y1="10.8774" x2="60.0007" y2="109.123" gradientUnits="userSpaceOnUse">
<stop stop-color="white"/>
<stop offset="1" stop-color="white" stop-opacity="0.5"/>
</linearGradient>
</defs>
</svg>
