<svg preserveAspectRatio="none" width="100%" height="100%" overflow="visible" style="display: block;" viewBox="0 0 216 185" fill="none" xmlns="http://www.w3.org/2000/svg">
<g id="SVG">
<path id="Vector" d="M108 127.958C131.859 127.958 151.2 108.632 151.2 84.7917C151.2 60.9514 131.859 41.625 108 41.625C84.1413 41.625 64.8 60.9514 64.8 84.7917C64.8 108.632 84.1413 127.958 108 127.958Z" fill="var(--fill-0, #9FE1CB)" stroke="var(--stroke-0, #1D9E75)"/>
<path id="Vector_2" d="M108 112.542C123.338 112.542 135.771 100.118 135.771 84.7917C135.771 69.4658 123.338 57.0417 108 57.0417C92.6623 57.0417 80.2286 69.4658 80.2286 84.7917C80.2286 100.118 92.6623 112.542 108 112.542Z" fill="var(--fill-0, #E1F5EE)" stroke="var(--stroke-0, #1D9E75)" stroke-width="0.75" stroke-dasharray="3 2"/>
<path id="Vector_3" opacity="0.5" d="M58.6286 64.75C67.1495 64.75 74.0571 57.8477 74.0571 49.3333C74.0571 40.8189 67.1495 33.9167 58.6286 33.9167C50.1076 33.9167 43.2 40.8189 43.2 49.3333C43.2 57.8477 50.1076 64.75 58.6286 64.75Z" fill="var(--fill-0, #5DCAA5)"/>
<path id="Vector_4" opacity="0.3" d="M157.371 60.125C163.336 60.125 168.171 55.2934 168.171 49.3333C168.171 43.3733 163.336 38.5417 157.371 38.5417C151.407 38.5417 146.571 43.3733 146.571 49.3333C146.571 55.2934 151.407 60.125 157.371 60.125Z" fill="var(--fill-0, #5DCAA5)"/>
<path id="Vector_5" opacity="0.25" d="M43.2 114.083C48.3126 114.083 52.4571 109.942 52.4571 104.833C52.4571 99.7247 48.3126 95.5833 43.2 95.5833C38.0874 95.5833 33.9429 99.7247 33.9429 104.833C33.9429 109.942 38.0874 114.083 43.2 114.083Z" fill="var(--fill-0, #5DCAA5)"/>
<path id="Vector_6" opacity="0.4" d="M166.629 129.5C176.854 129.5 185.143 121.217 185.143 111C185.143 100.783 176.854 92.5 166.629 92.5C156.403 92.5 148.114 100.783 148.114 111C148.114 121.217 156.403 129.5 166.629 129.5Z" fill="var(--fill-0, #5DCAA5)"/>
<path id="Vector_7" d="M108 92.5C112.26 92.5 115.714 89.0489 115.714 84.7917C115.714 80.5345 112.26 77.0833 108 77.0833C103.74 77.0833 100.286 80.5345 100.286 84.7917C100.286 89.0489 103.74 92.5 108 92.5Z" fill="var(--fill-0, #0F6E56)"/>
<path id="Vector_8" d="M108 84.7917V53.9583" stroke="var(--stroke-0, #0F6E56)" stroke-width="1.5" stroke-linecap="round"/>
<path id="Vector_9" d="M108 84.7917L131.143 95.5833" stroke="var(--stroke-0, #0F6E56)" stroke-width="1.5" stroke-linecap="round"/>
<path id="Vector_10" opacity="0.5" d="M58.6286 49.3333L95.6571 77.0833" stroke="var(--stroke-0, #1D9E75)" stroke-width="0.75" stroke-dasharray="2 2"/>
<path id="Vector_11" opacity="0.5" d="M157.371 49.3333L120.343 77.0833" stroke="var(--stroke-0, #1D9E75)" stroke-width="0.75" stroke-dasharray="2 2"/>
<path id="Vector_12" opacity="0.5" d="M166.629 111L135.771 92.5" stroke="var(--stroke-0, #1D9E75)" stroke-width="0.75" stroke-dasharray="2 2"/>
<path id="Vector_13" opacity="0.15" d="M128.057 138.75H87.9429C83.6824 138.75 80.2286 142.201 80.2286 146.458V152.625C80.2286 156.882 83.6824 160.333 87.9429 160.333H128.057C132.318 160.333 135.771 156.882 135.771 152.625V146.458C135.771 142.201 132.318 138.75 128.057 138.75Z" fill="var(--fill-0, #1D9E75)" stroke="var(--stroke-0, #1D9E75)" stroke-width="0.75"/>
<path id="Vector_14" opacity="0.5" d="M123.429 146.458H92.5714C90.8672 146.458 89.4857 147.839 89.4857 149.542C89.4857 151.245 90.8672 152.625 92.5714 152.625H123.429C125.133 152.625 126.514 151.245 126.514 149.542C126.514 147.839 125.133 146.458 123.429 146.458Z" fill="var(--fill-0, #1D9E75)"/>
</g>
</svg>
