<svg preserveAspectRatio="none" width="100%" height="100%" overflow="visible" style="display: block;" viewBox="0 0 216 185" fill="none" xmlns="http://www.w3.org/2000/svg">
<g id="SVG">
<path id="Vector" opacity="0.4" d="M57.0857 111H41.6571C39.1009 111 37.0286 113.071 37.0286 115.625V155.708C37.0286 158.263 39.1009 160.333 41.6571 160.333H57.0857C59.642 160.333 61.7143 158.263 61.7143 155.708V115.625C61.7143 113.071 59.642 111 57.0857 111Z" fill="var(--fill-0, #EF9F27)"/>
<path id="Vector_2" opacity="0.55" d="M91.0286 83.25H75.6C73.0437 83.25 70.9714 85.3207 70.9714 87.875V155.708C70.9714 158.263 73.0437 160.333 75.6 160.333H91.0286C93.5849 160.333 95.6571 158.263 95.6571 155.708V87.875C95.6571 85.3207 93.5849 83.25 91.0286 83.25Z" fill="var(--fill-0, #EF9F27)"/>
<path id="Vector_3" opacity="0.7" d="M124.971 58.5833H109.543C106.987 58.5833 104.914 60.654 104.914 63.2083V155.708C104.914 158.263 106.987 160.333 109.543 160.333H124.971C127.528 160.333 129.6 158.263 129.6 155.708V63.2083C129.6 60.654 127.528 58.5833 124.971 58.5833Z" fill="var(--fill-0, #EF9F27)"/>
<path id="Vector_4" d="M158.914 33.9167H143.486C140.929 33.9167 138.857 35.9874 138.857 38.5417V155.708C138.857 158.263 140.929 160.333 143.486 160.333H158.914C161.471 160.333 163.543 158.263 163.543 155.708V38.5417C163.543 35.9874 161.471 33.9167 158.914 33.9167Z" fill="var(--fill-0, #BA7517)"/>
<path id="Vector_5" d="M37.0286 104.833L70.9714 77.0833L104.914 52.4167L138.857 27.75" stroke="var(--stroke-0, #854F0B)" stroke-width="1.5" stroke-linecap="round" stroke-linejoin="round"/>
<path id="Vector_6" d="M37.0286 109.458C39.5849 109.458 41.6571 107.388 41.6571 104.833C41.6571 102.279 39.5849 100.208 37.0286 100.208C34.4723 100.208 32.4 102.279 32.4 104.833C32.4 107.388 34.4723 109.458 37.0286 109.458Z" fill="var(--fill-0, #854F0B)"/>
<path id="Vector_7" d="M70.9714 81.7083C73.5277 81.7083 75.6 79.6377 75.6 77.0833C75.6 74.529 73.5277 72.4583 70.9714 72.4583C68.4151 72.4583 66.3429 74.529 66.3429 77.0833C66.3429 79.6377 68.4151 81.7083 70.9714 81.7083Z" fill="var(--fill-0, #854F0B)"/>
<path id="Vector_8" d="M104.914 57.0417C107.471 57.0417 109.543 54.971 109.543 52.4167C109.543 49.8624 107.471 47.7917 104.914 47.7917C102.358 47.7917 100.286 49.8624 100.286 52.4167C100.286 54.971 102.358 57.0417 104.914 57.0417Z" fill="var(--fill-0, #854F0B)"/>
<path id="Vector_9" d="M138.857 35.4583C143.118 35.4583 146.571 32.0072 146.571 27.75C146.571 23.4928 143.118 20.0417 138.857 20.0417C134.597 20.0417 131.143 23.4928 131.143 27.75C131.143 32.0072 134.597 35.4583 138.857 35.4583Z" fill="var(--fill-0, #633806)"/>
<path id="Vector_10" d="M137 23L141 27.5L137 32" stroke="var(--stroke-0, white)" stroke-width="1.5" stroke-linecap="round" stroke-linejoin="round"/>
<path id="Vector_11" d="M189.771 77.0833H162C157.74 77.0833 154.286 80.5345 154.286 84.7917V97.125C154.286 101.382 157.74 104.833 162 104.833H189.771C194.032 104.833 197.486 101.382 197.486 97.125V84.7917C197.486 80.5345 194.032 77.0833 189.771 77.0833Z" fill="var(--fill-0, #FAEEDA)" stroke="var(--stroke-0, #EF9F27)"/>
<path id="Vector_12" opacity="0.6" d="M187.457 84.7917H164.314C163.036 84.7917 162 85.827 162 87.1042C162 88.3813 163.036 89.4167 164.314 89.4167H187.457C188.735 89.4167 189.771 88.3813 189.771 87.1042C189.771 85.827 188.735 84.7917 187.457 84.7917Z" fill="var(--fill-0, #BA7517)"/>
<path id="Vector_13" opacity="0.4" d="M178.2 94.0417H164.314C163.036 94.0417 162 95.077 162 96.3542C162 97.6313 163.036 98.6667 164.314 98.6667H178.2C179.478 98.6667 180.514 97.6313 180.514 96.3542C180.514 95.077 179.478 94.0417 178.2 94.0417Z" fill="var(--fill-0, #BA7517)"/>
</g>
</svg>
