<svg preserveAspectRatio="none" width="100%" height="100%" overflow="visible" style="display: block;" viewBox="0 0 217 186" fill="none" xmlns="http://www.w3.org/2000/svg">
<g id="SVG">
<path id="Vector" d="M173.6 46.5H43.4C36.5517 46.5 31 52.0517 31 58.9V127.1C31 133.948 36.5517 139.5 43.4 139.5H173.6C180.448 139.5 186 133.948 186 127.1V58.9C186 52.0517 180.448 46.5 173.6 46.5Z" fill="var(--fill-0, #F5C4B3)" stroke="var(--stroke-0, #D85A30)"/>
<path id="Vector_2" opacity="0.5" d="M119.35 68.2H54.25C51.6819 68.2 49.6 70.2819 49.6 72.85V74.4C49.6 76.9681 51.6819 79.05 54.25 79.05H119.35C121.918 79.05 124 76.9681 124 74.4V72.85C124 70.2819 121.918 68.2 119.35 68.2Z" fill="var(--fill-0, #D85A30)"/>
<path id="Vector_3" opacity="0.3" d="M101.525 86.8H53.475C51.3349 86.8 49.6 88.5349 49.6 90.675C49.6 92.8151 51.3349 94.55 53.475 94.55H101.525C103.665 94.55 105.4 92.8151 105.4 90.675C105.4 88.5349 103.665 86.8 101.525 86.8Z" fill="var(--fill-0, #D85A30)"/>
<path id="Vector_4" opacity="0.3" d="M110.825 102.3H53.475C51.3349 102.3 49.6 104.035 49.6 106.175C49.6 108.315 51.3349 110.05 53.475 110.05H110.825C112.965 110.05 114.7 108.315 114.7 106.175C114.7 104.035 112.965 102.3 110.825 102.3Z" fill="var(--fill-0, #D85A30)"/>
<path id="Vector_5" opacity="0.12" d="M161.2 89.9C173.185 89.9 182.9 80.1846 182.9 68.2C182.9 56.2154 173.185 46.5 161.2 46.5C149.215 46.5 139.5 56.2154 139.5 68.2C139.5 80.1846 149.215 89.9 161.2 89.9Z" fill="var(--fill-0, #993C1D)"/>
<path id="Vector_6" opacity="0.7" d="M150.35 68.2C157.583 59.9333 164.817 59.9333 172.05 68.2C164.817 76.4667 157.583 76.4667 150.35 68.2Z" fill="var(--fill-0, #D85A30)"/>
<path id="Vector_7" d="M161.2 72.85C163.768 72.85 165.85 70.7681 165.85 68.2C165.85 65.6319 163.768 63.55 161.2 63.55C158.632 63.55 156.55 65.6319 156.55 68.2C156.55 70.7681 158.632 72.85 161.2 72.85Z" fill="var(--fill-0, #993C1D)"/>
<path id="Vector_8" opacity="0.5" d="M89.9 120.9V148.8M74.4 148.8H105.4" stroke="var(--stroke-0, #D85A30)" stroke-width="1.5" stroke-linecap="round"/>
<path id="Vector_9" d="M89.9 127.1C93.3242 127.1 96.1 124.324 96.1 120.9C96.1 117.476 93.3242 114.7 89.9 114.7C86.4758 114.7 83.7 117.476 83.7 120.9C83.7 124.324 86.4758 127.1 89.9 127.1Z" fill="var(--fill-0, #F0997B)"/>
</g>
</svg>
