<svg width="180" height="154" viewBox="0 0 180 154" fill="none" xmlns="http://www.w3.org/2000/svg">
<path d="M133.714 25.6667H46.2858C42.0253 25.6667 38.5715 29.1142 38.5715 33.3667V89.8334C38.5715 94.086 42.0253 97.5334 46.2858 97.5334H133.714C137.975 97.5334 141.429 94.086 141.429 89.8334V33.3667C141.429 29.1142 137.975 25.6667 133.714 25.6667Z" fill="#B5D4F4" stroke="#378ADD"/>
<path opacity="0.4" d="M128.571 38.5H51.4286C50.0084 38.5 48.8572 39.6491 48.8572 41.0667V42.35C48.8572 43.7675 50.0084 44.9167 51.4286 44.9167H128.571C129.992 44.9167 131.143 43.7675 131.143 42.35V41.0667C131.143 39.6491 129.992 38.5 128.571 38.5Z" fill="#378ADD" fill-opacity="0.5"/>
<path opacity="0.25" d="M110.571 51.3333H51.4286C50.0084 51.3333 48.8572 52.4824 48.8572 53.8999C48.8572 55.3174 50.0084 56.4666 51.4286 56.4666H110.571C111.992 56.4666 113.143 55.3174 113.143 53.8999C113.143 52.4824 111.992 51.3333 110.571 51.3333Z" fill="#378ADD" fill-opacity="0.5"/>
<path opacity="0.25" d="M118.286 62.8833H51.4286C50.0084 62.8833 48.8572 64.0324 48.8572 65.45C48.8572 66.8675 50.0084 68.0166 51.4286 68.0166H118.286C119.706 68.0166 120.857 66.8675 120.857 65.45C120.857 64.0324 119.706 62.8833 118.286 62.8833Z" fill="#378ADD" fill-opacity="0.5"/>
<path opacity="0.25" d="M97.7143 74.4333H51.4286C50.0084 74.4333 48.8572 75.5825 48.8572 77C48.8572 78.4175 50.0084 79.5667 51.4286 79.5667H97.7143C99.1345 79.5667 100.286 78.4175 100.286 77C100.286 75.5825 99.1345 74.4333 97.7143 74.4333Z" fill="#378ADD" fill-opacity="0.5"/>
<path d="M108 133.467C120.781 133.467 131.143 123.124 131.143 110.367C131.143 97.6088 120.781 87.2666 108 87.2666C95.2186 87.2666 84.8572 97.6088 84.8572 110.367C84.8572 123.124 95.2186 133.467 108 133.467Z" fill="#E6F1FB" stroke="#378ADD"/>
<path d="M97.7144 110.367L105.429 118.067L119.571 102.667" stroke="#185FA5" stroke-width="2" stroke-linecap="round" stroke-linejoin="round"/>
<path d="M72 133.467C84.7815 133.467 95.1429 123.124 95.1429 110.367C95.1429 97.6088 84.7815 87.2666 72 87.2666C59.2186 87.2666 48.8572 97.6088 48.8572 110.367C48.8572 123.124 59.2186 133.467 72 133.467Z" fill="#FAECE7" stroke="#D85A30"/>
<path opacity="0.6" d="M66.5446 115.819L77.4542 104.909M66.5547 104.919L77.4441 115.809" stroke="#D85A30" stroke-width="2" stroke-linecap="round"/>
<g clip-path="url(#clip0_213_1266)">
<path d="M81.3209 44.0185L84.2187 49.1312V50.3865C83.828 50.6567 83.5712 51.1072 83.5712 51.617V53.1084C83.5712 53.933 84.2421 54.6037 85.0665 54.6037H85.2186C85.3207 56.3579 86.7796 57.7538 88.5589 57.7538C90.3382 57.7538 91.797 56.3579 91.8992 54.6037H92.0512C92.8757 54.6037 93.5465 53.9329 93.5465 53.1084V51.617C93.5465 51.1071 93.2897 50.6566 92.8989 50.3865V49.1314L95.7968 44.0185C95.8022 44.0091 95.8072 43.9997 95.8121 43.9902C96.398 42.9192 96.7325 41.7566 96.8062 40.5343C96.8306 40.1308 96.5232 39.7841 96.1198 39.7597C95.7157 39.7361 95.3696 40.0427 95.3452 40.4462C95.2841 41.4579 95.006 42.4197 94.5187 43.3045C94.5167 43.3084 94.5145 43.3123 94.5125 43.3162L91.6125 48.4326C91.4966 48.6372 91.4352 48.8696 91.4352 49.1049V50.1217H89.2907V44.3694L93.0115 40.6973C93.2266 40.4849 93.3457 40.2013 93.3467 39.899C93.3476 39.5967 93.2304 39.3126 93.0166 39.099L91.6836 37.7659C91.4708 37.5531 91.1879 37.4359 90.887 37.4359C90.5862 37.4359 90.3033 37.5531 90.0903 37.7658L89.8399 38.0163L89.2112 37.5698C88.8211 37.2927 88.2968 37.2927 87.9066 37.5698L87.2778 38.0164L87.0273 37.766C86.8145 37.5532 86.5316 37.436 86.2307 37.436C85.9298 37.436 85.6469 37.5532 85.4341 37.7659L84.1011 39.099C83.8873 39.3127 83.7701 39.5969 83.771 39.8992C83.772 40.2015 83.8911 40.485 84.1063 40.6973L87.827 44.3694V50.1218H85.6825V49.105C85.6825 48.8698 85.6213 48.6374 85.5053 48.4328L82.6044 43.3148C82.6026 43.3114 82.6008 43.308 82.599 43.3045C82.05 42.3076 81.7598 41.1754 81.7598 40.0303C81.7598 38.2056 82.4728 36.4924 83.7673 35.2064C85.0508 33.9314 86.7506 33.2311 88.5587 33.2311C88.5741 33.2311 88.5899 33.2311 88.6054 33.2313C91.3862 33.2498 93.9226 35.0182 94.9168 37.6315C95.0606 38.0094 95.4832 38.199 95.8611 38.0553C96.2389 37.9116 96.4286 37.4889 96.2849 37.111C95.0775 33.9375 91.9952 31.7901 88.6152 31.7675C88.5963 31.7674 88.5774 31.7673 88.5585 31.7673C86.3614 31.7673 84.2955 32.6186 82.7359 34.1679C81.1626 35.7308 80.2961 37.8127 80.2961 40.0303C80.2961 41.4144 80.6454 42.7836 81.3064 43.9914C81.3109 44.0005 81.3158 44.0096 81.3209 44.0185ZM85.3762 39.8939L86.2308 39.0391L86.4444 39.2526C86.8343 39.6427 87.4437 39.6938 87.8933 39.3745L88.559 38.9017L89.2247 39.3745C89.6743 39.6939 90.2837 39.6428 90.6737 39.2526L90.8872 39.0391L91.7419 39.8939L88.5591 43.035L85.3762 39.8939ZM88.5589 56.2901C87.5871 56.2901 86.7849 55.55 86.6863 54.6037H90.4316C90.333 55.55 89.5308 56.2901 88.5589 56.2901ZM92.0829 53.1084C92.0829 53.1259 92.0686 53.14 92.0513 53.14H85.0666C85.0492 53.14 85.035 53.1258 85.035 53.1084V51.617C85.035 51.5995 85.0493 51.5853 85.0666 51.5853H92.0513C92.0687 51.5853 92.0829 51.5996 92.0829 51.617V53.1084Z" fill="#2670E9"/>
<path d="M98.0798 35.2528C98.2032 35.2528 98.3283 35.2215 98.4432 35.1557L99.3038 34.6623C99.6545 34.4612 99.7758 34.014 99.5747 33.6634C99.3737 33.3127 98.9266 33.1914 98.5758 33.3925L97.7151 33.886C97.3645 34.087 97.2432 34.5342 97.4442 34.8849C97.5794 35.1207 97.8262 35.2528 98.0798 35.2528Z" fill="#2670E9"/>
<path d="M98.0749 40.7377C97.9143 41.1085 98.0845 41.5395 98.4554 41.7003L99.4789 42.1438C99.5737 42.1849 99.6724 42.2043 99.7696 42.2043C100.052 42.2043 100.322 42.0393 100.442 41.7632C100.602 41.3924 100.432 40.9614 100.061 40.8007L99.0375 40.3571C98.6665 40.1964 98.2357 40.3669 98.0749 40.7377Z" fill="#2670E9"/>
<path d="M77.9166 34.6623L78.7774 35.1557C78.8921 35.2215 79.0172 35.2528 79.1407 35.2528C79.3944 35.2528 79.6411 35.1207 79.7763 34.8848C79.9774 34.5342 79.8561 34.0869 79.5054 33.8859L78.6446 33.3924C78.294 33.1915 77.8468 33.3127 77.6456 33.6634C77.4446 34.0139 77.5659 34.4612 77.9166 34.6623Z" fill="#2670E9"/>
<path d="M77.451 42.2043C77.5481 42.2043 77.6468 42.1849 77.7416 42.1438L78.7651 41.7003C79.136 41.5396 79.3064 41.1086 79.1457 40.7377C78.985 40.3668 78.554 40.1964 78.1831 40.3572L77.1596 40.8007C76.7887 40.9614 76.6183 41.3923 76.779 41.7632C76.8987 42.0393 77.1681 42.2043 77.451 42.2043Z" fill="#2670E9"/>
<path d="M96.4199 46.0807C96.4199 46.4849 96.7475 46.8126 97.1518 46.8126H109.708V63.7038C109.708 64.108 110.035 64.4357 110.44 64.4357C110.844 64.4357 111.171 64.108 111.171 63.7038V46.7352C111.171 45.9709 110.549 45.3489 109.785 45.3489H97.1518C96.7476 45.3489 96.4199 45.6766 96.4199 46.0807Z" fill="#2670E9"/>
<path d="M110.44 74.9963C110.035 74.9963 109.708 75.324 109.708 75.7282V78.7687H71.0361C68.6107 78.7687 66.6054 76.8739 66.4709 74.4549C66.4016 73.2095 66.8423 72.0173 67.7119 71.0981C68.598 70.1612 69.8461 69.6239 71.136 69.6239H71.8894C72.5231 69.6239 73.0387 69.1083 73.0387 68.4746V53.5799C73.0387 53.1757 72.711 52.848 72.3068 52.848C71.9027 52.848 71.575 53.1757 71.575 53.5799V68.1602H71.136C69.4455 68.1602 67.81 68.8644 66.6485 70.0922C66.5849 70.1594 66.5237 70.2282 66.4636 70.2975V48.4389C66.4636 45.9096 68.5214 43.8518 71.0508 43.8518H71.5749V50.461C71.5749 50.8652 71.9026 51.1929 72.3067 51.1929C72.7109 51.1929 73.0386 50.8652 73.0386 50.461V46.8124H79.9658C80.37 46.8124 80.6977 46.4847 80.6977 46.0805C80.6977 45.6764 80.37 45.3487 79.9658 45.3487H73.0387V43.5373C73.0387 42.9036 72.5231 42.3879 71.8894 42.3879H71.0509C67.7144 42.388 65 45.1025 65 48.4389C65 48.4389 65.0033 74.4259 65.0095 74.5362C65.1871 77.7304 67.8344 80.2325 71.0361 80.2325H109.785C110.549 80.2325 111.171 79.6106 111.171 78.8461V75.7282C111.171 75.324 110.844 74.9963 110.44 74.9963Z" fill="#2670E9"/>
<path d="M112.335 65.8994H81.6322C81.5093 65.8994 81.3883 65.9303 81.2806 65.9894L76.1969 68.7738C75.8526 68.9624 75.6387 69.3235 75.6387 69.7161C75.6387 70.1087 75.8526 70.4699 76.197 70.6585L81.2807 73.4428C81.3884 73.5018 81.5093 73.5328 81.6323 73.5328H85.9442C86.3484 73.5328 86.6761 73.2051 86.6761 72.8009C86.6761 72.3967 86.3484 72.069 85.9442 72.069H82.3641V67.3631H104.691V72.069H89.0631C88.6589 72.069 88.3312 72.3967 88.3312 72.8009C88.3312 73.2051 88.6589 73.5328 89.0631 73.5328H112.335C113.804 73.5328 115 72.3372 115 70.8675V68.5646C115 67.095 113.804 65.8994 112.335 65.8994ZM80.9003 67.8666V71.5655L77.5235 69.716L80.9003 67.8666ZM106.155 67.3631H107.834V72.069H106.155V67.3631ZM113.536 70.8675C113.536 71.53 112.997 72.069 112.335 72.069H109.298V67.3631H112.335C112.997 67.3631 113.536 67.9021 113.536 68.5647V70.8675Z" fill="#2670E9"/>
<path d="M102.411 60.5786H79.8018C77.5063 60.5786 75.6387 62.4461 75.6387 64.7417V65.4942C75.6387 65.8984 75.9664 66.2261 76.3705 66.2261C76.7747 66.2261 77.1024 65.8984 77.1024 65.4942V64.7417C77.1024 63.2533 78.3133 62.0423 79.8018 62.0423H102.411C104.584 62.0423 106.352 60.2744 106.352 58.1013C106.352 55.9283 104.584 54.1604 102.411 54.1604H95.3193C94.915 54.1604 94.5874 54.4881 94.5874 54.8923C94.5874 55.2964 94.915 55.6241 95.3193 55.6241H102.411C103.777 55.6241 104.888 56.7354 104.888 58.1013C104.888 59.4673 103.777 60.5786 102.411 60.5786Z" fill="#2670E9"/>
</g>
<defs>
<clipPath id="clip0_213_1266">
<rect width="50" height="50" fill="white" transform="translate(65 31)"/>
</clipPath>
</defs>
</svg>
