<svg preserveAspectRatio="none" width="100%" height="100%" overflow="visible" style="display: block;" viewBox="0 0 106.938 115.171" fill="none" xmlns="http://www.w3.org/2000/svg">
<g id="Group">
<g id="Vector">
</g>
<g id="Vector_2">
</g>
<g id="Vector_3">
</g>
<path id="Vector_4" d="M10.9938 72.5235C22.9498 84.3997 41.163 86.8508 55.7801 78.7138L82.6779 110.327C87.8498 116.408 97.1906 116.848 102.907 111.169C108.602 105.512 108.212 96.2043 102.06 91.0389L70.2483 64.3251C80.3402 46.4008 73.9427 23.8682 55.9556 13.7678L57.9061 11.8302C58.5684 11.1712 58.5947 10.1087 57.9675 9.4178C46.5232 -3.13884 26.8905 -2.97619 15.6923 8.93053L15.5934 9.03506C14.9459 9.72366 14.9639 10.8032 15.6344 11.47L18.3448 14.1625C-2.72532 26.5869 -6.28172 55.3586 10.9938 72.5235ZM54.2224 10.569L36.9511 27.7267L19.3366 10.2269C29.1527 1.12327 44.5446 1.23811 54.2224 10.569ZM20.9189 16.7202L35.7204 31.4254C36.0612 31.7629 36.5055 31.9321 36.9511 31.9321C37.3955 31.9321 37.8408 31.7629 38.1816 31.4254L53.3637 16.3429C70.7749 25.4521 76.7845 47.1358 66.51 63.7956C66.0555 64.532 66.21 65.4908 66.8726 66.0477L99.8154 93.7115C104.401 97.5625 104.702 104.467 100.447 108.692C96.2838 112.832 89.2922 112.716 85.3371 108.066L57.4926 75.3402C56.936 74.6856 55.9868 74.5347 55.2553 74.98C41.8085 83.169 24.6213 81.1398 13.4552 70.0464C-2.41758 54.2802 1.11023 27.6951 20.9189 16.7202Z" fill="url(#paint0_linear_0_8)"/>
<path id="Vector_5" d="M16.2424 65.5218C27.4662 76.6705 45.7284 76.6712 56.9552 65.5218C67.818 54.7283 68.2624 37.4125 57.9666 26.0999C57.6462 25.7476 57.1962 25.5421 56.7202 25.5294C56.2247 25.525 55.7838 25.701 55.4452 26.0362L36.9511 44.4098L18.0956 25.6771C17.7628 25.3452 17.3651 25.1645 16.8366 25.1704C16.3662 25.1783 15.9185 25.375 15.5958 25.7181C4.89773 37.049 5.18179 54.5329 16.2424 65.5218ZM16.9491 29.4585L35.7204 48.1082C36.4022 48.7832 37.4998 48.7853 38.1816 48.1082L56.5655 29.8438C64.3638 39.7544 63.5923 54.0055 54.4952 63.0447C44.6278 72.8474 28.5701 72.8474 18.7027 63.0447C9.42351 53.826 8.78601 39.3988 16.9491 29.4585Z" fill="url(#paint1_linear_0_8)"/>
</g>
<defs>
<linearGradient id="paint0_linear_0_8" x1="53.469" y1="1.74614e-07" x2="53.469" y2="115.171" gradientUnits="userSpaceOnUse">
<stop stop-color="white" stop-opacity="0.5"/>
<stop offset="1" stop-color="white"/>
</linearGradient>
<linearGradient id="paint1_linear_0_8" x1="36.5803" y1="25.1702" x2="36.5803" y2="73.8836" gradientUnits="userSpaceOnUse">
<stop stop-color="white" stop-opacity="0.5"/>
<stop offset="1" stop-color="white"/>
</linearGradient>
</defs>
</svg>
