<svg preserveAspectRatio="none" width="100%" height="100%" overflow="visible" style="display: block;" viewBox="0 0 720.776 700.343" fill="none" xmlns="http://www.w3.org/2000/svg">
<path id="Vector" fill-rule="evenodd" clip-rule="evenodd" d="M0.000235373 0.937057C-0.00202877 0.933434 -0.00320606 0.930717 0.772399 0.463386C1.5481 -0.00394686 1.5489 -0.00304302 1.55081 0.000579716L1.55959 0.015077L1.59545 0.0739484C1.6276 0.127384 1.67588 0.20707 1.74045 0.31213C1.8696 0.524065 2.0635 0.839252 2.32206 1.25677C2.83901 2.09181 3.61417 3.33169 4.64508 4.95105C6.70681 8.18797 9.79117 12.9383 13.8787 18.9864C22.0538 31.0819 34.2405 48.3659 50.2808 69.1097C82.3622 110.597 129.853 165.914 191.489 221.23C314.768 331.868 494.561 442.438 720.77 442.438V444.249C493.946 444.249 313.74 333.379 190.279 222.577C128.544 167.173 80.9795 111.77 48.8478 70.2174C32.7816 49.441 20.5722 32.1252 12.378 20.0008C8.28093 13.9381 5.18739 9.17424 3.11724 5.92377C2.08216 4.29897 1.30302 3.05183 0.782086 2.21045C0.52171 1.79021 0.325817 1.47142 0.194768 1.25677C0.129289 1.149 0.0800208 1.06838 0.0470549 1.01404L0.00974301 0.952453L0.000235373 0.937057ZM0.0864535 134.191C0.0841894 134.188 0.0829219 134.187 0.772399 133.599C1.46179 133.012 1.46251 133.013 1.46432 133.015L1.47301 133.025L1.5086 133.067L1.57154 133.14L1.65305 133.234C1.70812 133.298 1.77496 133.375 1.85366 133.466L1.97945 133.611C2.0558 133.699 2.14048 133.796 2.23349 133.902C2.74971 134.491 3.52414 135.368 4.55424 136.513C6.61443 138.801 9.69726 142.161 13.7832 146.439C21.9551 154.994 34.1386 167.221 50.1756 181.895C82.2503 211.243 129.736 250.381 191.369 289.518C314.636 367.794 494.469 446.06 720.77 446.06V447.872C494.038 447.872 313.872 369.455 190.398 291.047C128.661 251.844 81.0914 212.638 48.9529 183.231C32.8833 168.527 20.6708 156.272 12.4734 147.69C8.37467 143.399 5.27967 140.026 3.20798 137.725C2.17218 136.573 1.39213 135.69 0.870571 135.094C0.609651 134.796 0.413486 134.57 0.282076 134.418C0.216415 134.342 0.166966 134.285 0.133729 134.246L0.0961441 134.202L0.0864535 134.191ZM0.772399 225.979C0.189337 226.672 0.190604 226.674 0.192959 226.675L0.202649 226.684L0.240413 226.715L0.338316 226.797L0.389122 226.838C0.520714 226.948 0.717152 227.11 0.978258 227.324C1.50028 227.751 2.28068 228.384 3.31703 229.21C5.38944 230.861 8.48533 233.279 12.5848 236.354C20.7837 242.507 32.9973 251.292 49.0675 261.831C81.2079 282.911 128.776 311.011 190.509 339.108C313.974 395.304 494.101 451.494 720.77 451.494V449.683C494.406 449.683 314.534 393.569 191.259 337.46C129.621 309.405 82.1338 281.352 50.0609 260.317C34.0246 249.799 21.8422 241.037 13.6718 234.906C9.58667 231.841 6.50457 229.433 4.4452 227.793C3.41555 226.973 2.64159 226.345 2.12582 225.923C2.01514 225.832 1.91633 225.751 1.82948 225.679C1.71391 225.584 1.61945 225.506 1.5461 225.445C1.48179 225.392 1.4337 225.351 1.40201 225.325L1.3665 225.295L1.35791 225.288C1.35791 225.288 1.35691 225.287 1.33898 225.308C1.33047 225.318 1.31797 225.332 1.29959 225.354C1.26562 225.394 1.21174 225.457 1.1257 225.56L0.772399 225.979ZM0.385139 327.329C0.385139 327.329 0.384596 327.329 0.385139 327.327C0.385683 327.325 0.387129 327.321 0.39048 327.313C0.397182 327.298 0.411585 327.267 0.441653 327.204C0.492913 327.095 0.589909 326.891 0.772399 326.51C0.949005 326.14 1.04591 325.938 1.09934 325.828C1.12425 325.776 1.13965 325.745 1.14934 325.725C1.15866 325.706 1.16246 325.698 1.16418 325.696C1.16527 325.694 1.16573 325.694 1.16573 325.694L1.17432 325.698L1.20992 325.716L1.3542 325.784C1.4828 325.844 1.67624 325.935 1.93426 326.055C2.4503 326.295 3.22464 326.653 4.25465 327.12C6.31465 328.051 9.39757 329.421 13.4837 331.164C21.6559 334.651 33.841 339.634 49.8806 345.614C81.96 357.577 129.458 373.53 191.111 389.484C314.416 421.392 494.339 453.306 720.77 453.306V455.117C494.168 455.117 314.092 423.18 190.657 391.237C128.939 375.267 81.3816 359.294 49.2479 347.312C33.1809 341.321 20.97 336.328 12.7729 332.831C8.67444 331.082 5.57945 329.707 3.50758 328.77C2.47169 328.301 1.69154 327.94 1.1697 327.697C0.908875 327.576 0.712535 327.484 0.581034 327.422L0.432504 327.351L0.39483 327.333L0.385139 327.329ZM0.772399 407.116C0.649411 407.763 0.616444 407.94 0.608565 407.988C0.605576 408.006 0.606661 408.006 0.606661 408.006L0.616079 408.008L0.653211 408.015L0.800745 408.043C0.931526 408.068 1.12714 408.104 1.38733 408.152L1.63114 408.197L1.93127 408.253C2.09692 408.282 2.27815 408.316 2.47477 408.351C2.83775 408.417 3.25318 408.493 3.72086 408.577C5.78965 408.949 8.88174 409.494 12.977 410.188C21.1677 411.576 33.3719 413.558 49.4315 415.936C81.5508 420.693 129.092 427.035 190.791 433.376C314.19 446.059 494.22 458.74 720.77 458.74V456.929C494.287 456.929 314.319 444.251 190.977 431.574C129.305 425.236 81.7908 418.898 49.6969 414.145C33.65 411.768 21.4582 409.789 13.2796 408.402C9.19027 407.709 6.10427 407.165 4.04136 406.794C3.00991 406.609 2.23412 406.467 1.71672 406.371C1.45798 406.323 1.26381 406.287 1.13439 406.263L0.989126 406.236L0.953071 406.228L0.944196 406.227C0.944196 406.227 0.9432 406.227 0.939487 406.244C0.935955 406.261 0.929443 406.294 0.917035 406.358L0.8895 406.501C0.864323 406.632 0.827101 406.828 0.772399 407.116ZM0.782269 456.023C0.780186 456.023 0.779192 456.023 0.772399 456.929C0.765516 457.834 0.766603 457.834 0.768595 457.834H0.77774H0.792955L0.81433 457.835H0.841861H0.87537H0.915034L0.96077 457.836H1.01257L1.07044 457.837H1.13439L1.20439 457.838H1.28057L1.3627 457.839L1.45092 457.84L1.54519 457.841H1.64555L1.75186 457.842L1.86425 457.842L1.98272 457.843L2.10734 457.844L2.23785 457.845L2.37441 457.847L2.51697 457.848L2.66558 457.849L2.82017 457.85L2.98094 457.851L3.14757 457.852L3.32028 457.853L3.49887 457.855L3.68354 457.856L3.87428 457.858L4.07098 457.86L4.27357 457.861L4.48224 457.862L4.69688 457.864L4.9175 457.866L5.1441 457.868L5.37666 457.87L5.61521 457.871L5.85974 457.873L6.11016 457.875L6.36664 457.877L6.62901 457.879L6.89736 457.88L7.17159 457.882L7.45181 457.885L7.73799 457.887L8.03007 457.89L8.32812 457.891L8.63206 457.894L8.94196 457.896L9.25774 457.899L9.57943 457.901L9.9071 457.903L10.2406 457.906L10.5801 457.909L10.9255 457.911L11.2768 457.914L11.6339 457.917L11.997 457.919L12.366 457.922L12.7408 457.925L13.1215 457.928L13.5081 457.93L13.9005 457.934L14.2989 457.937L14.7031 457.939L15.1132 457.943L15.5291 457.946L15.9509 457.949L16.3786 457.952L16.812 457.956L17.2513 457.959L17.6966 457.962L18.1476 457.966L18.6045 457.969L19.0671 457.973L19.5357 457.976L20.01 457.979L20.4902 457.983L20.9761 457.987L21.4679 457.991L21.9656 457.995L22.4689 457.998L22.9782 458.002L23.4932 458.006L24.014 458.01L24.5406 458.014L25.0731 458.018L25.6112 458.022L26.1551 458.026L26.7049 458.03L27.2604 458.034L27.8217 458.039L28.3888 458.043L28.9616 458.047L29.5401 458.052L30.1244 458.056L30.7145 458.061L31.3103 458.065L31.9119 458.07L32.5192 458.074L33.1322 458.079L33.7511 458.083L34.3755 458.088L35.0058 458.092L35.6418 458.098L36.2835 458.102L36.9308 458.108L37.584 458.112L38.2428 458.117L38.9073 458.122L39.5775 458.128L40.2535 458.132L40.9351 458.138L41.6224 458.143L42.3154 458.148L43.0141 458.153L43.7185 458.159L44.4285 458.164L45.1441 458.169L45.8655 458.175L46.5926 458.18L47.3253 458.186L48.0637 458.191L48.8077 458.197L49.5574 458.203L50.3127 458.208L51.0737 458.214L51.8403 458.22L52.6125 458.226L53.3904 458.232L54.1739 458.237L54.963 458.244L55.7578 458.249L56.5581 458.255L57.3642 458.262L58.1757 458.268L58.9929 458.274L59.8157 458.28L60.6442 458.286L61.4782 458.293L62.3178 458.299L63.163 458.305L64.0137 458.312L64.8701 458.318L65.732 458.325L66.5995 458.331L67.4727 458.338L68.3512 458.344L69.2354 458.351L70.1252 458.358L71.0206 458.365L71.9215 458.371L72.8279 458.379L73.7399 458.385L74.6574 458.392L75.5805 458.399L76.509 458.406L77.4432 458.413L78.3828 458.42L79.3281 458.427L80.2787 458.435L81.2349 458.442L82.1967 458.449L83.1639 458.456L84.1367 458.464L85.115 458.471L86.0987 458.478L87.0879 458.485L88.0827 458.494L89.0829 458.501L90.0886 458.508L91.1001 458.516L92.1162 458.523L93.1387 458.532L94.1666 458.539L95.1991 458.547L96.2379 458.555L97.2821 458.562L98.3318 458.571L99.3859 458.579L100.446 458.587L101.512 458.595L102.584 458.603L103.661 458.611L104.743 458.619L105.83 458.628L106.923 458.636L108.021 458.644L109.125 458.652L110.235 458.66L111.349 458.669L112.469 458.677L113.595 458.686L114.726 458.695L115.862 458.703L117.004 458.712L118.15 458.72L119.303 458.729L120.461 458.738L121.624 458.746L122.793 458.755L123.966 458.764L125.146 458.773L126.33 458.783L127.52 458.791L128.716 458.8L129.917 458.809L131.123 458.818L132.334 458.828L133.551 458.837L134.773 458.846L136.001 458.855L137.233 458.864L138.471 458.874L139.715 458.883L140.964 458.892L142.218 458.902L143.477 458.911L144.742 458.921L146.012 458.931L147.287 458.94L148.568 458.95L149.854 458.96L151.145 458.969L152.442 458.979L153.743 458.989L155.05 458.999L156.363 459.009L157.68 459.019L159.004 459.029L160.331 459.039L161.665 459.049L163.004 459.059L164.348 459.069L165.697 459.08L167.051 459.09L168.412 459.1L169.776 459.11L171.147 459.12L172.521 459.13L173.903 459.141L175.288 459.151L176.679 459.162L178.076 459.173L179.477 459.183L180.884 459.194L182.296 459.205L183.714 459.215L185.135 459.226L186.563 459.236L187.995 459.247L189.434 459.258L190.877 459.269L192.325 459.28L193.779 459.292L195.238 459.302L196.702 459.313L198.171 459.324L199.645 459.335L201.124 459.347L202.608 459.358L204.098 459.369L205.593 459.38L207.093 459.392L208.598 459.403L210.109 459.415L211.624 459.426L213.145 459.437L214.67 459.449L216.201 459.46L217.736 459.472L219.278 459.484L220.824 459.495L222.375 459.507L223.932 459.519L225.493 459.531L227.06 459.542L228.631 459.554L230.208 459.566L231.79 459.578L233.377 459.59L234.969 459.602L236.566 459.614L238.168 459.626L239.775 459.638L241.388 459.65L243.005 459.663L244.628 459.675L246.255 459.687L247.887 459.699L249.526 459.712L251.168 459.724L252.816 459.737L254.469 459.749L256.126 459.762L257.789 459.774L259.457 459.787L261.13 459.8L262.808 459.812L264.491 459.825L266.179 459.838L267.872 459.85L269.57 459.863L271.272 459.876L272.981 459.889L274.693 459.902L276.411 459.915L278.135 459.928L279.863 459.941L281.595 459.954L283.333 459.967L285.076 459.98L286.823 459.993L288.577 460.007L290.334 460.02L292.097 460.033L293.865 460.047L295.637 460.06L297.415 460.073L299.197 460.087L300.985 460.1L302.778 460.114L304.574 460.127L306.377 460.141L308.184 460.155L309.997 460.168L311.813 460.182L313.635 460.195L315.462 460.21L317.293 460.223L319.13 460.237L320.972 460.252L322.819 460.265L324.67 460.279L326.527 460.293L328.388 460.307L330.253 460.321L332.124 460.335L334 460.349L335.881 460.364L337.767 460.377L339.657 460.392L341.552 460.406L343.452 460.421L345.357 460.435L347.267 460.45L349.182 460.464L351.102 460.479L353.026 460.493L354.955 460.508L356.889 460.522L358.828 460.537L360.771 460.551L362.72 460.566L364.674 460.581L366.632 460.596L368.594 460.61L370.562 460.626L372.535 460.64L374.512 460.655L376.494 460.67L378.481 460.685L380.473 460.7L382.47 460.715L384.471 460.731L386.477 460.745L388.488 460.761L390.504 460.776L392.525 460.791L394.55 460.807L396.579 460.822L398.614 460.838L400.654 460.853L402.698 460.868L404.747 460.884L406.8 460.899L408.859 460.914L410.922 460.93L412.991 460.945L415.063 460.962L417.14 460.977L419.222 460.992L421.309 461.009L423.401 461.024L425.497 461.04L427.598 461.056L429.704 461.072L431.814 461.087L433.929 461.104L436.049 461.12L438.173 461.135L440.303 461.152L442.436 461.168L444.574 461.184L446.717 461.2L448.865 461.216L451.018 461.232L453.176 461.249L455.337 461.265L457.504 461.281L459.674 461.298L461.85 461.314L464.031 461.331L466.216 461.347L468.406 461.364L470.599 461.38L472.799 461.397L475.003 461.414L477.211 461.431L479.423 461.447L481.641 461.463L483.863 461.481L486.09 461.497L488.321 461.514L490.557 461.531L492.797 461.548L495.042 461.565L497.292 461.582L499.546 461.599L501.805 461.615L504.069 461.633L506.337 461.65L508.609 461.667L510.887 461.684L513.168 461.702L515.454 461.719L517.745 461.736L520.04 461.753L522.341 461.771L524.645 461.788L526.954 461.806L529.268 461.823L531.585 461.841L533.908 461.858L536.235 461.875L538.567 461.894L540.904 461.911L543.244 461.929L545.59 461.946L547.939 461.964L550.294 461.982L552.652 462L555.016 462.018L557.383 462.036L559.756 462.053L562.132 462.071L564.513 462.089L566.9 462.107L569.29 462.125L571.684 462.144L574.083 462.162L576.487 462.18L578.895 462.198L581.308 462.216L583.725 462.234L586.146 462.252L588.572 462.271L591.003 462.289L593.437 462.307L595.876 462.326L598.321 462.345L600.769 462.363L603.221 462.382L605.678 462.4L608.139 462.419L610.605 462.437L613.076 462.456L615.55 462.474L618.029 462.493L620.513 462.512L623.001 462.53L625.492 462.549L627.989 462.568L630.49 462.587L632.996 462.606L635.505 462.625L638.019 462.644L640.538 462.663L643.061 462.682L645.589 462.701L648.12 462.72L650.656 462.739L653.196 462.758L655.741 462.777L658.291 462.797L660.844 462.816L663.401 462.835L665.963 462.854L668.53 462.874L671.1 462.893L673.676 462.913L676.255 462.932L678.839 462.952L681.426 462.971L684.019 462.991L686.616 463.011L689.217 463.03L691.822 463.05L694.432 463.07L697.045 463.089L699.664 463.109L702.286 463.129L704.913 463.149L707.544 463.169L710.179 463.189L712.818 463.209L715.463 463.229L718.111 463.248L720.763 463.268L720.776 461.457L718.125 461.437L715.476 461.417L712.832 461.397L710.193 461.377L707.557 461.357L704.926 461.337L702.3 461.318L699.677 461.298L697.059 461.279L694.445 461.259L691.836 461.239L689.231 461.219L686.629 461.2L684.033 461.18L681.44 461.16L678.853 461.141L676.269 461.121L673.689 461.102L671.114 461.082L668.544 461.063L665.977 461.044L663.415 461.024L660.857 461.005L658.304 460.986L655.755 460.966L653.21 460.947L650.669 460.928L648.134 460.909L645.602 460.89L643.075 460.871L640.551 460.852L638.033 460.833L635.519 460.814L633.009 460.795L630.504 460.776L628.003 460.757L625.506 460.738L623.014 460.719L620.526 460.701L618.043 460.682L615.563 460.663L613.089 460.645L610.619 460.626L608.153 460.607L605.692 460.588L603.235 460.57L600.782 460.551L598.334 460.533L595.89 460.514L593.451 460.496L591.017 460.478L588.586 460.46L586.16 460.441L583.739 460.423L581.321 460.405L578.909 460.386L576.501 460.368L574.097 460.35L571.698 460.332L569.303 460.314L566.913 460.296L564.527 460.278L562.146 460.26L559.77 460.242L557.397 460.224L555.029 460.206L552.666 460.188L550.307 460.171L547.953 460.153L545.603 460.135L543.258 460.117L540.917 460.099L538.581 460.082L536.25 460.064L533.922 460.047L531.599 460.03L529.282 460.012L526.968 459.994L524.659 459.977L522.354 459.96L520.055 459.942L517.759 459.925L515.468 459.907L513.182 459.89L510.9 459.873L508.623 459.856L506.35 459.839L504.082 459.821L501.819 459.805L499.56 459.788L497.305 459.771L495.056 459.753L492.811 459.736L490.571 459.72L488.335 459.703L486.103 459.686L483.876 459.669L481.655 459.652L479.437 459.636L477.224 459.619L475.016 459.602L472.813 459.586L470.614 459.569L468.42 459.552L466.23 459.536L464.044 459.52L461.864 459.503L459.688 459.486L457.517 459.47L455.351 459.454L453.189 459.437L451.032 459.421L448.879 459.405L446.732 459.388L444.588 459.373L442.45 459.357L440.316 459.34L438.187 459.324L436.062 459.309L433.943 459.292L431.827 459.276L429.717 459.261L427.612 459.244L425.51 459.229L423.415 459.213L421.323 459.197L419.236 459.181L417.154 459.166L415.076 459.15L413.004 459.134L410.936 459.119L408.873 459.103L406.814 459.088L404.761 459.072L402.711 459.057L400.667 459.042L398.628 459.026L396.593 459.011L394.563 458.995L392.538 458.98L390.518 458.965L388.502 458.949L386.491 458.934L384.485 458.919L382.484 458.904L380.487 458.888L378.495 458.874L376.508 458.859L374.526 458.844L372.548 458.829L370.576 458.814L368.608 458.799L366.645 458.784L364.687 458.77L362.734 458.754L360.785 458.74L358.841 458.725L356.902 458.711L354.969 458.696L353.04 458.682L351.115 458.668L349.195 458.653L347.281 458.639L345.371 458.624L343.466 458.61L341.566 458.595L339.67 458.581L337.78 458.567L335.895 458.552L334.014 458.538L332.138 458.524L330.267 458.51L328.401 458.495L326.54 458.482L324.684 458.467L322.832 458.454L320.986 458.44L319.145 458.426L317.308 458.412L315.476 458.398L313.649 458.384L311.827 458.37L310.01 458.357L308.198 458.343L306.39 458.33L304.588 458.316L302.791 458.303L300.999 458.289L299.211 458.275L297.429 458.262L295.651 458.248L293.879 458.235L292.111 458.222L290.348 458.208L288.59 458.196L286.837 458.182L285.089 458.168L283.347 458.156L281.609 458.142L279.876 458.13L278.148 458.117L276.425 458.103L274.707 458.091L272.994 458.078L271.286 458.064L269.583 458.052L267.885 458.039L266.193 458.026L264.504 458.014L262.822 458.001L261.144 457.988L259.471 457.976L257.803 457.963L256.14 457.95L254.482 457.938L252.83 457.926L251.182 457.913L249.539 457.9L247.902 457.889L246.269 457.876L244.642 457.863L243.019 457.851L241.401 457.839L239.789 457.827L238.182 457.815L236.579 457.803L234.983 457.791L233.391 457.779L231.804 457.766L230.222 457.755L228.645 457.743L227.074 457.731L225.507 457.719L223.946 457.707L222.389 457.696L220.837 457.684L219.291 457.672L217.751 457.66L216.215 457.649L214.683 457.638L213.158 457.626L211.638 457.614L210.122 457.603L208.612 457.592L207.107 457.581L205.607 457.569L204.112 457.558L202.622 457.546L201.137 457.535L199.658 457.525L198.184 457.513L196.715 457.502L195.252 457.491L193.793 457.48L192.339 457.469L190.891 457.458L189.447 457.447L188.01 457.436L186.577 457.425L185.149 457.415L183.727 457.404L182.31 457.393L180.898 457.382L179.491 457.371L178.089 457.361L176.693 457.351L175.302 457.341L173.916 457.33L172.535 457.319L171.16 457.309L169.79 457.299L168.425 457.288L167.065 457.278L165.711 457.268L164.361 457.257L163.017 457.247L161.679 457.237L160.346 457.227L159.017 457.217L157.694 457.208L156.376 457.198L155.064 457.188L153.757 457.178L152.456 457.168L151.159 457.158L149.867 457.149L148.581 457.139L147.301 457.129L146.025 457.12L144.756 457.11L143.491 457.1L142.232 457.091L140.977 457.082L139.728 457.072L138.485 457.063L137.247 457.053L136.014 457.044L134.787 457.035L133.565 457.025L132.348 457.016L131.136 457.006L129.93 456.997L128.729 456.988L127.534 456.979L126.344 456.971L125.159 456.962L123.98 456.953L122.806 456.944L121.638 456.935L120.474 456.927L119.317 456.918L118.164 456.909L117.017 456.9L115.875 456.891L114.74 456.883L113.608 456.874L112.483 456.866L111.363 456.858L110.248 456.849L109.139 456.841L108.035 456.833L106.936 456.824L105.844 456.816L104.756 456.808L103.674 456.8L102.597 456.792L101.526 456.784L100.46 456.776L99.3995 456.767L98.3453 456.759L97.2957 456.751L96.2515 456.744L95.2127 456.736L94.1802 456.728L93.1523 456.72L92.1298 456.712L91.1137 456.705L90.1023 456.698L89.0966 456.689L88.0964 456.682L87.1016 456.675L86.1124 456.667L85.1286 456.66L84.1503 456.652L83.1777 456.645L82.2103 456.638L81.2486 456.631L80.2924 456.623L79.3417 456.616L78.3965 456.609L77.4569 456.602L76.5227 456.594L75.5941 456.588L74.6711 456.581L73.7536 456.574L72.8416 456.567L71.9351 456.56L71.0342 456.554L70.1389 456.546L69.2491 456.54L68.3649 456.533L67.4863 456.526L66.6132 456.52L65.7457 456.514L64.8838 456.507L64.0274 456.5L63.1766 456.494L62.3314 456.488L61.4918 456.481L60.6578 456.475L59.8295 456.468L59.0067 456.462L58.1894 456.457L57.3778 456.45L56.5718 456.444L55.7715 456.438L54.9768 456.432L54.1876 456.426L53.404 456.42L52.6262 456.414L51.854 456.409L51.0873 456.402L50.3264 456.397L49.5711 456.392L48.8214 456.386L48.0773 456.38L47.339 456.374L46.6063 456.369L45.8793 456.363L45.1578 456.358L44.4422 456.353L43.7321 456.347L43.0278 456.342L42.3291 456.336L41.6361 456.332L40.9488 456.326L40.2671 456.321L39.5912 456.316L38.921 456.311L38.2564 456.305L37.5977 456.301L36.9445 456.296L36.2971 456.291L35.6554 456.286L35.0194 456.282L34.3893 456.276L33.7647 456.272L33.1459 456.267L32.5329 456.263L31.9255 456.258L31.324 456.254L30.7282 456.249L30.138 456.245L29.5538 456.24L28.9752 456.236L28.4023 456.231L27.8353 456.228L27.2741 456.223L26.7185 456.219L26.1688 456.215L25.6249 456.21L25.0866 456.207L24.5542 456.202L24.0277 456.199L23.5068 456.195L22.9919 456.19L22.4826 456.187L21.9792 456.183L21.4816 456.18L20.9898 456.176L20.5038 456.172L20.0237 456.169L19.5493 456.165L19.0808 456.161L18.6181 456.158L18.1613 456.154L17.7102 456.151L17.265 456.148L16.8257 456.144L16.3922 456.141L15.9645 456.138L15.5427 456.134L15.1269 456.132L14.7168 456.128L14.3125 456.125L13.9142 456.123L13.5218 456.119L13.1351 456.116L12.7544 456.113L12.3796 456.111L12.0107 456.108L11.6476 456.105L11.2904 456.103L10.9392 456.1L10.5938 456.097L10.2543 456.094L9.92077 456.092L9.5931 456.09L9.27142 456.087L8.95564 456.084L8.64573 456.083L8.34179 456.08L8.04374 456.078L7.75167 456.075L7.46548 456.074L7.18526 456.072L6.91094 456.069L6.64268 456.067L6.38022 456.065L6.12392 456.064L5.87333 456.062L5.6289 456.06L5.39035 456.058L5.15777 456.056L4.93118 456.055L4.71056 456.053L4.49591 456.051L4.28725 456.049L4.08457 456.048L3.88794 456.046L3.69731 456.046L3.51255 456.044L3.33386 456.042L3.16125 456.041L2.99451 456.04L2.83395 456.038L2.67926 456.037L2.53064 456.036L2.38809 456.036L2.25143 456.034L2.12092 456.033L1.99648 456.032L1.87794 456.031L1.76555 456.03H1.65913L1.55887 456.029L1.46459 456.028L1.37638 456.027L1.29415 456.027H1.21808L1.14807 456.026H1.08413L1.02626 456.025H0.974364L0.928718 456.024H0.889047H0.855535H0.828004L0.806723 456.023H0.791417H0.782269ZM0.772399 699.652C0.189337 698.959 0.190604 698.958 0.192959 698.957L0.202649 698.948L0.240413 698.917L0.249289 698.909L0.329078 698.842L0.389122 698.793L0.500157 698.7L0.626316 698.596C0.726391 698.514 0.843763 698.418 0.978258 698.307C1.50028 697.88 2.28068 697.247 3.31703 696.422C5.38944 694.77 8.48525 692.353 12.5848 689.277C20.7837 683.124 32.9973 674.339 49.0675 663.8C81.2079 642.72 128.776 614.621 190.509 586.523C313.974 530.327 494.101 474.137 720.77 474.137V475.948C494.406 475.948 314.534 532.062 191.259 588.171C129.621 616.227 82.1338 644.279 50.0609 665.314C34.0246 675.832 21.8422 684.594 13.6718 690.726C9.58667 693.79 6.50457 696.199 4.4452 697.838C3.41555 698.659 2.64159 699.286 2.12582 699.708C1.86788 699.92 1.67452 700.08 1.5461 700.186C1.49447 700.229 1.45336 700.263 1.42275 700.289L1.40201 700.306L1.3665 700.336L1.35791 700.343C1.35791 700.343 1.35664 700.344 1.31317 700.293C1.25303 700.223 1.11076 700.054 0.772399 699.652ZM0.385139 597.397C0.382785 597.398 0.381518 597.398 0.772399 598.215C1.16319 599.032 1.16392 599.032 1.16573 599.031L1.17432 599.027L1.20992 599.011L1.3542 598.942C1.4828 598.881 1.67624 598.791 1.93426 598.67C2.14609 598.571 2.4014 598.454 2.70008 598.316C2.88257 598.232 3.08128 598.14 3.2961 598.042C3.58618 597.91 3.9057 597.764 4.25465 597.607C6.31465 596.674 9.39757 595.305 13.4837 593.561C21.6559 590.075 33.841 585.092 49.8806 579.111C81.96 567.149 129.458 551.196 191.111 535.241C314.416 503.333 494.339 471.42 720.77 471.42V469.608C494.168 469.608 314.092 501.545 190.657 533.488C128.939 549.459 81.3816 565.431 49.2479 577.414C33.1809 583.405 20.97 588.398 12.7729 591.896C8.67444 593.643 5.57945 595.018 3.50758 595.957C2.47169 596.425 1.69154 596.785 1.1697 597.028C1.0229 597.097 0.896563 597.156 0.790692 597.206C0.708367 597.244 0.638543 597.277 0.581034 597.304L0.432504 597.374L0.39483 597.392L0.385139 597.397ZM0.772399 516.704C0.603313 515.814 0.604488 515.814 0.606661 515.814L0.616079 515.812L0.653211 515.804L0.800745 515.777C0.931526 515.753 1.12714 515.716 1.38733 515.668C1.90772 515.572 2.68642 515.429 3.72086 515.243C5.78965 514.871 8.88174 514.325 12.977 513.632C21.1677 512.244 33.3719 510.262 49.4315 507.883C81.5508 503.127 129.092 496.785 190.791 490.443C314.19 477.761 494.22 465.08 720.77 465.08V466.891C494.287 466.891 314.319 479.569 190.977 492.246C129.305 498.584 81.7908 504.922 49.6969 509.675C33.65 512.051 21.4582 514.032 13.2796 515.418C9.19027 516.111 6.10427 516.655 4.04136 517.025C3.41836 517.138 2.88865 517.234 2.45276 517.313C2.16702 517.366 1.92158 517.411 1.71672 517.449C1.45798 517.497 1.26381 517.533 1.13439 517.557L0.989126 517.585L0.953071 517.591L0.944196 517.593C0.942294 517.593 0.941398 517.594 0.772399 516.704Z" fill="var(--fill-0, white)" fill-opacity="0.08"/>
</svg>
