<svg preserveAspectRatio="none" width="100%" height="100%" overflow="visible" style="display: block;" viewBox="0 0 16 12.9159" fill="none" xmlns="http://www.w3.org/2000/svg">
<g id="Group">
<path id="Vector" d="M4.10962 9.64578C4.44656 9.54413 4.75466 9.78772 4.76472 9.79584L4.94328 9.94594L5.24487 9.58709L5.06544 9.43631C5.04516 9.41922 4.56119 9.02025 3.97444 9.19697C3.68316 9.28475 3.47719 9.51363 3.43691 9.79434C3.39925 10.0567 3.51291 10.309 3.7335 10.4528C3.74384 10.4595 3.75472 10.4654 3.766 10.4705C3.77888 10.4762 4.08484 10.6124 4.42953 10.7396C4.65856 10.824 4.77559 10.9528 4.75056 11.093C4.72509 11.2358 4.55591 11.3834 4.31687 11.3834C4.08275 11.3834 3.85694 11.2886 3.71294 11.1296L3.55553 10.956L3.20822 11.2708L3.36559 11.4444C3.597 11.6997 3.95262 11.8522 4.31687 11.8522C4.75831 11.8522 5.14313 11.5612 5.21203 11.1754C5.26441 10.882 5.12897 10.4979 4.59175 10.2998C4.3105 10.196 4.04919 10.0829 3.97669 10.0511C3.91819 10.0065 3.89 9.93656 3.90084 9.86091C3.90775 9.81303 3.94184 9.69631 4.10962 9.64578Z" fill="var(--fill-0, #1E7663)"/>
<path id="Vector_2" d="M7.69334 11.8522V9.59934H7.22459V9.86731C7.06509 9.76422 6.87531 9.70406 6.67166 9.70406C6.10828 9.70406 5.64994 10.1624 5.64994 10.7257C5.64994 11.2891 6.10828 11.7475 6.67166 11.7475C6.87531 11.7475 7.06509 11.6873 7.22459 11.5842V11.8522H7.69334ZM6.67163 11.2788C6.36672 11.2788 6.11866 11.0307 6.11866 10.7258C6.11866 10.4209 6.36672 10.1728 6.67163 10.1728C6.97653 10.1728 7.22456 10.4209 7.22456 10.7258C7.22456 11.0307 6.97653 11.2788 6.67163 11.2788Z" fill="var(--fill-0, #1E7663)"/>
<path id="Vector_3" d="M10.2055 11.8522V9.59934H9.73675V9.86731C9.57722 9.76419 9.38744 9.70406 9.18378 9.70406C8.62044 9.70406 8.16209 10.1624 8.16209 10.7257C8.16209 11.2891 8.62044 11.7475 9.18378 11.7475C9.38747 11.7475 9.57725 11.6873 9.73675 11.5842V11.8522H10.2055ZM9.18378 11.2788C8.87888 11.2788 8.63084 11.0307 8.63084 10.7258C8.63084 10.4209 8.87891 10.1728 9.18378 10.1728C9.48866 10.1728 9.73675 10.4209 9.73675 10.7258C9.73675 11.0307 9.48869 11.2788 9.18378 11.2788Z" fill="var(--fill-0, #1E7663)"/>
<path id="Vector_4" d="M11.7893 11.3834C11.5551 11.3834 11.3293 11.2885 11.1853 11.1296L11.0279 10.9559L10.6806 11.2707L10.8379 11.4444C11.0693 11.6997 11.425 11.8522 11.7893 11.8522C12.2307 11.8522 12.6155 11.5612 12.6844 11.1753C12.7368 10.882 12.6013 10.4979 12.0641 10.2998C11.7829 10.196 11.5216 10.0828 11.4491 10.0511C11.3906 10.0065 11.3623 9.93653 11.3732 9.86088C11.3801 9.81303 11.4142 9.69628 11.582 9.64575C11.9186 9.54413 12.2265 9.78731 12.237 9.79581L12.4156 9.94591L12.7172 9.58709L12.5378 9.43628C12.5175 9.41922 12.0335 9.02022 11.4468 9.19694C11.1555 9.28472 10.9495 9.51359 10.9092 9.79431C10.8716 10.0566 10.9853 10.3089 11.2058 10.4528C11.2162 10.4595 11.2271 10.4654 11.2383 10.4704C11.2512 10.4762 11.5572 10.6123 11.9019 10.7395C12.1309 10.824 12.2479 10.9528 12.2229 11.0929C12.1974 11.2358 12.0283 11.3834 11.7893 11.3834Z" fill="var(--fill-0, #1E7663)"/>
<path id="Vector_5" d="M10.7578 12.4472H11.2266V12.9159H10.7578V12.4472Z" fill="var(--fill-0, #1E7663)"/>
<path id="Vector_6" d="M16 7.10578C16 6.39178 15.6905 5.71478 15.1509 5.24841C14.6775 4.83922 14.0708 4.62812 13.4514 4.65081C13.4201 4.29581 13.2726 3.95672 13.0287 3.69169C12.7228 3.35934 12.288 3.16875 11.8359 3.16875C11.5947 3.16875 11.3582 3.22266 11.1431 3.32422C11.0424 2.47947 10.6619 1.69828 10.0485 1.09162C9.33672 0.387687 8.39334 0 7.39216 0C6.50634 0 5.62978 0.348281 4.92403 0.980625L5.23684 1.32975C5.85653 0.774531 6.62197 0.46875 7.39219 0.46875C8.26916 0.46875 9.09544 0.808312 9.71887 1.42491C10.3418 2.04097 10.6906 2.86244 10.7011 3.73797L10.707 4.23847L11.0876 3.91337C11.2959 3.7355 11.5617 3.6375 11.8359 3.6375C12.1621 3.6375 12.4632 3.7695 12.6838 4.00916C12.9051 4.24956 13.0121 4.56159 12.985 4.88772L12.9606 5.18175L13.2525 5.13903C13.826 5.05512 14.4062 5.22425 14.8444 5.60309C15.2809 5.98034 15.5312 6.52806 15.5312 7.10578C15.5312 7.62647 15.3286 8.1095 14.9605 8.46597C14.6432 8.77322 14.2293 8.96325 13.7782 9.01269C13.6643 8.48494 13.1942 8.08816 12.6328 8.08816H3.36719C2.82394 8.08816 2.36597 8.45975 2.23381 8.96206C1.77013 8.8075 1.35372 8.52103 1.04294 8.13769C0.672656 7.68097 0.46875 7.10491 0.46875 6.51566C0.46875 5.18119 1.34906 4.39234 2.17287 4.09903C2.66781 3.92284 3.19144 3.894 3.68712 4.01559C4.21716 4.14562 4.68622 4.446 5.04362 4.88434L5.40691 4.58812C5.04759 4.14741 4.59053 3.82966 4.08606 3.64866C4.11847 2.93734 4.41281 2.23187 4.925 1.64562L4.57203 1.33722C4.01444 1.97541 3.68384 2.74219 3.62416 3.52369C3.10319 3.42675 2.55078 3.46687 2.01566 3.65737C1.43872 3.86275 0.945531 4.22225 0.589375 4.69697C0.203813 5.211 0 5.83987 0 6.51566C0 7.21203 0.241094 7.89294 0.678844 8.43294C1.07012 8.91559 1.60344 9.26834 2.19531 9.44091V11.7441C2.19531 12.3902 2.721 12.9159 3.36719 12.9159H10.2891V12.4472H3.36719C2.9795 12.4472 2.66406 12.1317 2.66406 11.7441V9.26006C2.66406 8.87237 2.9795 8.55697 3.36719 8.55697H12.6328C13.0205 8.55697 13.3359 8.87237 13.3359 9.26006V11.7441C13.3359 12.1317 13.0205 12.4472 12.6328 12.4472H11.6953V12.9159H12.6328C13.279 12.9159 13.8047 12.3902 13.8047 11.7441V9.48109C15.0529 9.35619 16 8.35284 16 7.10578Z" fill="var(--fill-0, #1E7663)"/>
<path id="Vector_7" d="M9.64781 3.07972H10.1166V3.54847H9.64781V3.07972Z" fill="var(--fill-0, #1E7663)"/>
<path id="Vector_8" d="M9.17906 2.14222H9.64781V2.61097H9.17906V2.14222Z" fill="var(--fill-0, #1E7663)"/>
</g>
</svg>
