<svg preserveAspectRatio="none" width="100%" height="100%" overflow="visible" style="display: block;" viewBox="0 0 16 16" fill="none" xmlns="http://www.w3.org/2000/svg">
<g id="SVG">
<path id="Vector" d="M5.5 2H3.5C2.67157 2 2 2.67157 2 3.5V5.5C2 6.32843 2.67157 7 3.5 7H5.5C6.32843 7 7 6.32843 7 5.5V3.5C7 2.67157 6.32843 2 5.5 2Z" fill="var(--fill-0, #534AB7)"/>
<path id="Vector_2" opacity="0.4" d="M12.5 2H10.5C9.67157 2 9 2.67157 9 3.5V5.5C9 6.32843 9.67157 7 10.5 7H12.5C13.3284 7 14 6.32843 14 5.5V3.5C14 2.67157 13.3284 2 12.5 2Z" fill="var(--fill-0, #534AB7)"/>
<path id="Vector_3" opacity="0.4" d="M5.5 9H3.5C2.67157 9 2 9.67157 2 10.5V12.5C2 13.3284 2.67157 14 3.5 14H5.5C6.32843 14 7 13.3284 7 12.5V10.5C7 9.67157 6.32843 9 5.5 9Z" fill="var(--fill-0, #534AB7)"/>
<path id="Vector_4" d="M12.5 9H10.5C9.67157 9 9 9.67157 9 10.5V12.5C9 13.3284 9.67157 14 10.5 14H12.5C13.3284 14 14 13.3284 14 12.5V10.5C14 9.67157 13.3284 9 12.5 9Z" fill="var(--fill-0, #534AB7)"/>
</g>
</svg>
