<svg preserveAspectRatio="none" width="100%" height="100%" overflow="visible" style="display: block;" viewBox="0 0 16 16" fill="none" xmlns="http://www.w3.org/2000/svg">
<g id="fi_3041005" clip-path="url(#clip0_0_4)">
<path id="Vector" d="M5.5 5.75H3.75V4C3.75 3.9337 3.72366 3.87011 3.67678 3.82322C3.62989 3.77634 3.5663 3.75 3.5 3.75C3.05499 3.75 2.61998 3.88196 2.24997 4.12919C1.87996 4.37643 1.59157 4.72783 1.42127 5.13896C1.25097 5.5501 1.20642 6.0025 1.29323 6.43895C1.38005 6.87541 1.59434 7.27632 1.90901 7.59099C2.22368 7.90566 2.62459 8.11995 3.06105 8.20677C3.4975 8.29358 3.9499 8.24903 4.36104 8.07873C4.77217 7.90843 5.12357 7.62004 5.37081 7.25003C5.61804 6.88002 5.75 6.44501 5.75 6C5.75 5.9337 5.72366 5.87011 5.67678 5.82322C5.62989 5.77634 5.5663 5.75 5.5 5.75ZM3.25 4.26775V5.8965L2.1 7.0465C1.91746 6.80387 1.80134 6.51784 1.76309 6.21663C1.72485 5.91542 1.7658 5.60945 1.88191 5.3289C1.99801 5.04835 2.18526 4.80292 2.42518 4.61683C2.6651 4.43074 2.94939 4.31042 3.25 4.26775ZM3.5 7.75C3.12258 7.74998 2.75542 7.62713 2.454 7.4L3.604 6.25H5.23275C5.17207 6.66638 4.96363 7.04703 4.6455 7.32243C4.32737 7.59783 3.92078 7.7496 3.5 7.75Z" fill="var(--fill-0, #9D492F)"/>
<path id="Vector_2" d="M4.5 5.25H6.5C6.5663 5.25 6.62989 5.22366 6.67678 5.17678C6.72366 5.12989 6.75 5.0663 6.75 5C6.74927 4.40349 6.51199 3.83161 6.09019 3.40981C5.66839 2.98801 5.09651 2.75073 4.5 2.75C4.4337 2.75 4.37011 2.77634 4.32322 2.82322C4.27634 2.87011 4.25 2.9337 4.25 3V5C4.25 5.0663 4.27634 5.12989 4.32322 5.17678C4.37011 5.22366 4.4337 5.25 4.5 5.25ZM4.75 3.26775C5.12369 3.32238 5.46978 3.49613 5.73682 3.76318C6.00387 4.03022 6.17762 4.37631 6.23225 4.75H4.75V3.26775Z" fill="var(--fill-0, #9D492F)"/>
<path id="Vector_3" d="M9.75 6.5C9.10721 6.5 8.47886 6.69061 7.9444 7.04772C7.40994 7.40484 6.99338 7.91242 6.74739 8.50628C6.50141 9.10014 6.43705 9.75361 6.56245 10.384C6.68785 11.0145 6.99738 11.5936 7.4519 12.0481C7.90642 12.5026 8.48552 12.8122 9.11596 12.9376C9.74639 13.063 10.3999 12.9986 10.9937 12.7526C11.5876 12.5066 12.0952 12.0901 12.4523 11.5556C12.8094 11.0211 13 10.3928 13 9.75C12.999 8.88835 12.6563 8.06228 12.047 7.453C11.4377 6.84372 10.6116 6.50099 9.75 6.5ZM8.5 8.75V7.3035C8.65982 7.22163 8.82729 7.15565 9 7.1065V8.75H8.5ZM11.5 9.25V9.75H8V9.25H11.5ZM10.5 8.75V7.1065C10.6727 7.15565 10.8402 7.22163 11 7.3035V8.75H10.5ZM10 7.01275V8.75H9.5V7.01275C9.5825 7.00525 9.6655 7 9.75 7C9.8345 7 9.9175 7.00525 10 7.01275ZM8 7.63025V8.75H7.75C7.6837 8.75 7.62011 8.77634 7.57322 8.82322C7.52634 8.87011 7.5 8.9337 7.5 9V10C7.5 10.0663 7.52634 10.1299 7.57322 10.1768C7.62011 10.2237 7.6837 10.25 7.75 10.25H11.75C11.8163 10.25 11.8799 10.2237 11.9268 10.1768C11.9737 10.1299 12 10.0663 12 10V9C12 8.9337 11.9737 8.87011 11.9268 8.82322C11.8799 8.77634 11.8163 8.75 11.75 8.75H11.5V7.63025C11.9476 7.99779 12.267 8.49783 12.4124 9.05842C12.5578 9.61902 12.5216 10.2113 12.309 10.75H7.191C6.97844 10.2113 6.94224 9.61902 7.08761 9.05842C7.23298 8.49783 7.55243 7.99779 8 7.63025ZM9.75 12.5C9.29261 12.4995 8.84256 12.385 8.44061 12.1667C8.03865 11.9484 7.69749 11.6334 7.448 11.25H12.052C11.8025 11.6334 11.4613 11.9484 11.0594 12.1667C10.6574 12.385 10.2074 12.4995 9.75 12.5Z" fill="var(--fill-0, #9D492F)"/>
<path id="Vector_4" d="M15.4178 13.8142L14.3363 12.7327C14.3862 12.6386 14.4048 12.5309 14.3893 12.4255C14.3738 12.32 14.325 12.2223 14.25 12.1465L13.6138 11.5103C13.9202 10.8441 14.0478 10.1096 13.984 9.37916C13.9202 8.6487 13.6673 7.94745 13.25 7.3445V1C13.25 0.801088 13.171 0.610322 13.0303 0.46967C12.8897 0.329018 12.6989 0.25 12.5 0.25H1C0.801088 0.25 0.610322 0.329018 0.46967 0.46967C0.329018 0.610322 0.25 0.801088 0.25 1V10.5C0.25 10.6989 0.329018 10.8897 0.46967 11.0303C0.610322 11.171 0.801088 11.25 1 11.25H5.7785C5.98237 11.7949 6.29635 12.2919 6.70086 12.71C7.10537 13.1282 7.59171 13.4585 8.12955 13.6803C8.66738 13.9021 9.24516 14.0106 9.82683 13.9992C10.4085 13.9877 10.9816 13.8565 11.5103 13.6138L12.1465 14.25C12.2217 14.326 12.3195 14.3755 12.4252 14.391C12.531 14.4066 12.6389 14.3874 12.7327 14.3363L13.8142 15.4178C14.0269 15.6304 14.3153 15.7498 14.616 15.7498C14.9167 15.7498 15.2051 15.6304 15.4178 15.4178C15.6304 15.2051 15.7498 14.9167 15.7498 14.616C15.7498 14.3153 15.6304 14.0269 15.4178 13.8142ZM1 0.75H12.5C12.5663 0.75 12.6299 0.776339 12.6768 0.823223C12.7237 0.870107 12.75 0.933696 12.75 1V1.75H0.75V1C0.75 0.933696 0.776339 0.870107 0.823223 0.823223C0.870107 0.776339 0.933696 0.75 1 0.75ZM1 10.75C0.933696 10.75 0.870107 10.7237 0.823223 10.6768C0.776339 10.6299 0.75 10.5663 0.75 10.5V2.25H12.75V6.74275C12.3882 6.38321 11.9648 6.09151 11.5 5.8815V3C11.5 2.9337 11.4737 2.87011 11.4268 2.82322C11.3799 2.77634 11.3163 2.75 11.25 2.75H10.25C10.1837 2.75 10.1201 2.77634 10.0732 2.82322C10.0263 2.87011 10 2.9337 10 3V5.51275C9.91675 5.50775 9.8345 5.5 9.75 5.5C9.6655 5.5 9.58325 5.50775 9.5 5.51275V4.5C9.5 4.4337 9.47366 4.37011 9.42678 4.32322C9.37989 4.27634 9.3163 4.25 9.25 4.25H8.25C8.1837 4.25 8.12011 4.27634 8.07322 4.32322C8.02634 4.37011 8 4.4337 8 4.5V5.8815C7.09587 6.28544 6.36257 6.99445 5.92839 7.88446C5.49422 8.77447 5.38682 9.7888 5.625 10.75H1ZM11 5.68825C10.8359 5.63876 10.6689 5.59935 10.5 5.57025V3.25H11V5.68825ZM9 5.57025C8.83108 5.59935 8.66411 5.63876 8.5 5.68825V4.75H9V5.57025ZM6 9.75C6 9.00832 6.21993 8.2833 6.63199 7.66661C7.04404 7.04993 7.62971 6.56928 8.31494 6.28545C9.00016 6.00162 9.75416 5.92736 10.4816 6.07206C11.209 6.21675 11.8772 6.5739 12.4017 7.09835C12.9261 7.6228 13.2833 8.29098 13.4279 9.01841C13.5726 9.74584 13.4984 10.4998 13.2145 11.1851C12.9307 11.8703 12.4501 12.456 11.8334 12.868C11.2167 13.2801 10.4917 13.5 9.75 13.5C8.75578 13.4989 7.80261 13.1034 7.09959 12.4004C6.39657 11.6974 6.00112 10.7442 6 9.75ZM11.9705 13.367C12.5386 13.0169 13.0169 12.5386 13.367 11.9705L13.8965 12.5L12.5 13.8965L11.9705 13.367ZM14.616 15.25C14.5327 15.2502 14.4502 15.2339 14.3733 15.202C14.2963 15.1701 14.2265 15.1233 14.1678 15.0642L13.1035 14L14 13.1035L15.0642 14.1678C15.1529 14.2564 15.2133 14.3694 15.2377 14.4923C15.2622 14.6153 15.2496 14.7428 15.2016 14.8586C15.1537 14.9744 15.0724 15.0734 14.9682 15.1431C14.8639 15.2128 14.7414 15.25 14.616 15.25Z" fill="var(--fill-0, #9D492F)"/>
<path id="Vector_5" d="M4.5 8.75H1.5C1.4337 8.75 1.37011 8.77634 1.32322 8.82322C1.27634 8.87011 1.25 8.9337 1.25 9V10C1.25 10.0663 1.27634 10.1299 1.32322 10.1768C1.37011 10.2237 1.4337 10.25 1.5 10.25H4.5C4.5663 10.25 4.62989 10.2237 4.67678 10.1768C4.72366 10.1299 4.75 10.0663 4.75 10V9C4.75 8.9337 4.72366 8.87011 4.67678 8.82322C4.62989 8.77634 4.5663 8.75 4.5 8.75ZM4.25 9.75H1.75V9.25H4.25V9.75Z" fill="var(--fill-0, #9D492F)"/>
</g>
<defs>
<clipPath id="clip0_0_4">
<rect width="16" height="16" fill="white"/>
</clipPath>
</defs>
</svg>
