<svg preserveAspectRatio="none" width="100%" height="100%" overflow="visible" style="display: block;" viewBox="0 0 120 120" fill="none" xmlns="http://www.w3.org/2000/svg">
<g id="fi_10074820">
<path id="Vector" d="M95.1649 98.2552C95.8971 98.9873 95.8971 100.174 95.1649 100.907C87.4929 108.579 77.7991 113.573 67.1318 115.349C64.2659 115.826 61.3898 116.064 58.5298 116.064C52.518 116.064 46.5722 115.013 40.909 112.95L42.4739 115.169C43.0706 116.016 42.8684 117.185 42.022 117.782C41.6937 118.014 41.3166 118.125 40.943 118.125C40.354 118.125 39.7744 117.848 39.409 117.33L33.9572 109.598C33.5974 109.088 33.5152 108.432 33.7378 107.849C33.9602 107.266 34.4585 106.832 35.0667 106.691L43.406 104.761C44.4157 104.527 45.4223 105.157 45.6555 106.165C45.889 107.174 45.2604 108.181 44.2516 108.415L41.3107 109.095C58.868 115.864 79.0641 111.704 92.513 98.2549C93.2454 97.523 94.4325 97.523 95.1649 98.2552ZM71.0077 17.9962C89.3796 22.9188 103.08 38.3288 105.997 56.9184L103.937 54.712C103.23 53.9552 102.044 53.9142 101.287 54.6209C100.53 55.3275 100.489 56.5139 101.196 57.2709L107.037 63.5278C107.394 63.9108 107.892 64.1234 108.407 64.1234C108.506 64.1234 108.605 64.1156 108.704 64.0997C109.321 64.001 109.847 63.6019 110.109 63.0352L114.079 54.4477C114.514 53.5078 114.104 52.3936 113.164 51.9591C112.225 51.5241 111.11 51.934 110.676 52.8741L109.537 55.3359C107.995 46.5759 104.228 38.3873 98.5024 31.4302C91.6303 23.0801 82.4583 17.182 71.978 14.374C70.9781 14.1063 69.9499 14.6998 69.6816 15.6998C69.4139 16.6999 70.0076 17.7281 71.0077 17.9962ZM10.4416 79.1107C10.6024 79.1107 10.7655 79.0898 10.928 79.0465C11.9283 78.7784 12.522 77.7504 12.2538 76.7501C7.33102 58.3781 13.8262 38.8083 28.4672 26.9871L27.5862 29.8746C27.2838 30.8651 27.8419 31.913 28.8321 32.2153C29.0145 32.2709 29.1987 32.2973 29.3801 32.2973C30.1833 32.2973 30.9263 31.7773 31.1726 30.9691L33.6708 22.782C33.8529 22.185 33.7261 21.5362 33.3323 21.052C32.9386 20.5678 32.3313 20.3107 31.7079 20.3674L22.286 21.2229C21.2548 21.3164 20.4947 22.2286 20.5884 23.2596C20.6817 24.2909 21.5932 25.0498 22.6252 24.9574L25.3259 24.7123C18.5105 30.428 13.3024 37.7843 10.1402 46.2218C6.345 56.3484 5.82305 67.2405 8.63133 77.7206C8.85633 78.5583 9.61383 79.1107 10.4416 79.1107ZM40.0664 13.4939C40.0664 7.08703 45.2787 1.875 51.6853 1.875C58.092 1.875 63.3042 7.08727 63.3042 13.4939C63.3042 19.9005 58.092 25.1128 51.6853 25.1128C45.2787 25.1128 40.0664 19.9005 40.0664 13.4939ZM43.8164 13.4939C43.8164 17.8329 47.3466 21.3628 51.6853 21.3628C56.0241 21.3628 59.5542 17.8329 59.5542 13.4939C59.5542 9.15492 56.0243 5.625 51.6853 5.625C47.3463 5.625 43.8164 9.15492 43.8164 13.4939ZM44.332 64.3336C44.332 56.4708 50.7288 50.074 58.5916 50.074C66.4545 50.074 72.8515 56.4708 72.8515 64.3336C72.8515 72.1964 66.4545 78.5932 58.5916 78.5932C50.7288 78.5932 44.332 72.1964 44.332 64.3336ZM48.082 64.3336C48.082 70.1287 52.7965 74.8432 58.5916 74.8432C64.3868 74.8432 69.1015 70.1285 69.1015 64.3336C69.1015 58.5387 64.3868 53.824 58.5916 53.824C52.7965 53.824 48.082 58.5387 48.082 64.3336ZM35.1309 57.7055C35.6491 55.8684 36.3816 54.102 37.3165 52.4337L35.8151 49.0535C35.5003 48.3445 35.6543 47.5151 36.2027 46.9666L41.2242 41.9452C41.7729 41.3967 42.6019 41.2423 43.3111 41.5575L46.6901 43.0582C48.3584 42.1228 50.1255 41.3902 51.9638 40.872L53.291 37.4238C53.5695 36.6998 54.2651 36.2224 55.0409 36.2224H62.1422C62.918 36.2224 63.6134 36.7001 63.892 37.4238L65.2198 40.8734C67.0568 41.3913 68.823 42.1238 70.4913 43.0589L73.872 41.5575C74.5809 41.243 75.4102 41.3967 75.9588 41.9454L80.9803 46.9666C81.5287 47.5151 81.6827 48.3448 81.368 49.0535L79.867 52.4325C80.8024 54.1008 81.5348 55.8673 82.0533 57.7059L85.5016 59.0332C86.2254 59.3116 86.703 60.0073 86.703 60.783V67.8844C86.703 68.6602 86.2254 69.3555 85.5016 69.6342L82.0526 70.9617C81.5344 72.7995 80.802 74.5659 79.8668 76.234L81.368 79.6137C81.6827 80.3227 81.5287 81.1521 80.9803 81.7005L75.9588 86.722C75.4102 87.2705 74.5809 87.4247 73.872 87.1099L70.4913 85.6085C68.8235 86.5437 67.057 87.2761 65.2198 87.7943L63.892 91.2436C63.6136 91.9673 62.918 92.445 62.1422 92.445H55.0409C54.2651 92.445 53.5697 91.9673 53.291 91.2436L51.9635 87.7943C50.1262 87.2761 48.3598 86.5437 46.692 85.6085L43.3113 87.1099C42.6023 87.4247 41.7729 87.2705 41.2247 86.722L36.203 81.7005C35.6543 81.1521 35.5003 80.3227 35.8151 79.6137L37.3158 76.2347C36.3804 74.5662 35.648 72.7995 35.1298 70.9613L31.6814 69.634C30.9577 69.3555 30.48 68.6599 30.48 67.8841V60.7828C30.48 60.007 30.9577 59.3116 31.6814 59.033L35.1309 57.7055ZM34.23 62.0705V66.597L37.3753 67.8077C37.9523 68.0297 38.3827 68.5221 38.5256 69.1235C39.0309 71.2474 39.8691 73.2691 41.0168 75.1327C41.3412 75.6593 41.3848 76.3118 41.134 76.8769L39.7648 79.9596L42.9656 83.1605L46.0498 81.7908C46.6144 81.54 47.2673 81.5836 47.7937 81.908C49.6573 83.0555 51.6785 83.8934 53.8015 84.3987C54.4029 84.5419 54.8951 84.9722 55.117 85.5492L56.328 88.6955H60.8543L62.0655 85.5492C62.2875 84.9724 62.7799 84.5419 63.3811 84.3987C65.5041 83.8934 67.5253 83.0555 69.3888 81.908C69.9152 81.5836 70.5682 81.5402 71.1328 81.7908L74.217 83.1605L77.4176 79.9596L76.0479 76.8762C75.7971 76.3109 75.8407 75.6584 76.1651 75.1317C77.3126 73.2687 78.1505 71.2472 78.656 69.1238C78.799 68.5223 79.2295 68.0302 79.8063 67.8082L82.9523 66.5972V62.0705L79.807 60.8597C79.23 60.6377 78.7997 60.1453 78.6567 59.5439C78.1512 57.4195 77.313 55.3978 76.1653 53.535C75.8409 53.0084 75.7971 52.3556 76.0481 51.7905L77.4176 48.7078L74.217 45.5072L71.1328 46.8769C70.5682 47.1274 69.9157 47.0841 69.3888 46.7599C67.5251 45.6124 65.5038 44.7743 63.3813 44.2692C62.7799 44.126 62.2875 43.6957 62.0655 43.1187L60.8543 39.9722H56.328L55.1173 43.1175C54.8953 43.6945 54.4029 44.1251 53.8015 44.268C51.6776 44.7734 49.6559 45.6115 47.7923 46.759C47.2655 47.0836 46.6127 47.127 46.0481 46.8762L42.9654 45.507L39.7648 48.7076L41.1347 51.7915C41.3855 52.3566 41.3419 53.0091 41.0177 53.5357C39.8702 55.3992 39.0321 57.4205 38.5268 59.5432C38.3838 60.1446 37.9533 60.6368 37.3765 60.8588L34.23 62.0705ZM58.703 68.3355C57.863 68.3557 56.8104 68.0428 56.5744 67.0971C56.3238 66.0923 55.3057 65.4811 54.3014 65.7314C53.2966 65.982 52.6852 66.9996 52.9357 68.0044C53.4021 69.8747 54.8285 71.262 56.7166 71.8186V71.9016C56.7166 72.937 57.5562 73.7766 58.5916 73.7766C59.6271 73.7766 60.4666 72.937 60.4666 71.9016V71.8526C61.6186 71.5526 62.6191 70.9765 63.2925 70.1979C64.0814 69.2855 64.4191 68.1476 64.2684 66.9075C63.9738 64.4789 62.1698 62.9761 58.9064 62.4405C57.682 62.2395 57.0497 61.8994 57.0267 61.4299C56.9913 60.6989 57.8391 60.4491 58.0997 60.39C58.7271 60.2477 59.9133 60.3066 60.3837 61.4266C60.7847 62.3815 61.8841 62.8301 62.8385 62.4295C63.7931 62.0287 64.2422 60.9295 63.8412 59.9749C63.1976 58.4419 61.9608 57.3485 60.4666 56.8608V56.7661C60.4666 55.7306 59.6271 54.8911 58.5916 54.8911C57.5562 54.8911 56.7166 55.7306 56.7166 56.7661V56.8859C54.5365 57.6 53.1757 59.4394 53.2814 61.6118C53.3491 63.0068 54.0909 65.4502 58.2989 66.1411C60.4406 66.4927 60.5142 67.0999 60.5459 67.3594C60.5735 67.5874 60.5191 67.6718 60.4559 67.7449C60.2149 68.0234 59.5357 68.3156 58.703 68.3355ZM33.2756 101.02C33.6359 101.598 33.6544 102.326 33.3239 102.922C32.9932 103.518 32.3655 103.887 31.6845 103.887H4.34766C3.66656 103.887 3.03891 103.518 2.7082 102.922C2.37773 102.326 2.39625 101.598 2.75648 101.02L16.4248 79.091C16.7672 78.5416 17.3686 78.2077 18.0159 78.2077C18.6633 78.2077 19.2647 78.5416 19.6071 79.091L33.2756 101.02ZM28.3064 100.137L18.0162 83.6273L7.72594 100.137H28.3064ZM117.527 74.1942V93.3516C117.527 94.387 116.688 95.2266 115.652 95.2266H96.495C95.4595 95.2266 94.62 94.387 94.62 93.3516V74.1942C94.62 73.1588 95.4595 72.3192 96.495 72.3192H115.652C116.688 72.3192 117.527 73.1585 117.527 74.1942ZM113.777 76.0692H98.37V91.4766H113.777V76.0692Z" fill="url(#paint0_linear_0_4)"/>
</g>
<defs>
<linearGradient id="paint0_linear_0_4" x1="60" y1="1.875" x2="60" y2="118.125" gradientUnits="userSpaceOnUse">
<stop stop-color="white" stop-opacity="0.5"/>
<stop offset="1" stop-color="white"/>
</linearGradient>
</defs>
</svg>
