<svg viewBox="0 0 50 50" fill="none" xmlns="http://www.w3.org/2000/svg">
  <!-- Card body -->
  <g transform="translate(0, 12.5)">
    <path d="M48.4375 18.75C47.575 18.75 46.875 19.45 46.875 20.3125V31.25H3.125V12.5H20.3125C21.175 12.5 21.875 11.8 21.875 10.9375C21.875 10.075 21.175 9.375 20.3125 9.375H3.125V3.125H20.3125C21.175 3.125 21.875 2.425 21.875 1.5625C21.875 0.7 21.175 0 20.3125 0H3.125C1.4 0 0 1.4 0 3.125V31.25C0 32.975 1.4 34.375 3.125 34.375H46.875C48.6 34.375 50 32.975 50 31.25V20.3125C50 19.45 49.3 18.75 48.4375 18.75Z" fill="white"/>
  </g>
  <!-- Bar -->
  <g transform="translate(6.25, 31.25)">
    <path d="M7.8125 0H1.5625C0.7 0 0 0.7 0 1.5625C0 2.425 0.7 3.125 1.5625 3.125H7.8125C8.675 3.125 9.375 2.425 9.375 1.5625C9.375 0.7 8.675 0 7.8125 0Z" fill="white"/>
  </g>
  <!-- Shield -->
  <g transform="translate(25, 3.125)">
    <path d="M24.0531 4.81172L13.1156 0.124219C12.7187 -0.0414062 12.2781 -0.0414062 11.8813 0.124219L0.94375 4.81172C0.371875 5.05859 0 5.62422 0 6.24922V12.4992C0 21.0961 3.17813 26.1211 11.7219 31.043C11.9625 31.1805 12.2312 31.2492 12.5 31.2492C12.7688 31.2492 13.0375 31.1805 13.2781 31.043C21.8219 26.1336 25 21.1086 25 12.4992V6.24922C25 5.62422 24.6281 5.05859 24.0531 4.81172ZM21.875 12.4992C21.875 19.7148 19.4875 23.6867 12.5 27.8742C5.5125 23.6773 3.125 19.7055 3.125 12.4992V7.28047L12.5 3.26172L21.875 7.28047V12.4992Z" fill="white"/>
  </g>
  <!-- Checkmark -->
  <g transform="translate(31.25, 12.5)">
    <path d="M11.9145 0.338648C11.2427 -0.192602 10.2614 -0.0894767 9.71766 0.582398L4.80516 6.72615L2.86141 3.8199C2.37704 3.10115 1.40516 2.91052 0.695786 3.38552C-0.0198394 3.86365 -0.216714 4.83552 0.261411 5.55115L3.38641 10.2386C3.66454 10.6543 4.12079 10.9105 4.62079 10.9355C4.64266 10.9355 4.66766 10.9355 4.68641 10.9355C5.15829 10.9355 5.60829 10.723 5.90829 10.348L12.1583 2.53552C12.6958 1.86052 12.5895 0.879273 11.9145 0.338648Z" fill="white"/>
  </g>
</svg>
