<svg preserveAspectRatio="none" width="100%" height="100%" overflow="visible" style="display: block;" viewBox="0 0 53.547 53.9143" fill="none" xmlns="http://www.w3.org/2000/svg">
<g id="Group">
<path id="Vector" d="M50.3434 9.40442C49.9942 7.87319 48.7867 6.65398 47.2423 6.30405C46.8929 4.76618 45.68 3.55287 44.1426 3.20347C43.7255 1.36317 42.0734 0 40.1301 0H21.6334C20.3122 0 19.0701 0.514412 18.1359 1.44867C18.1278 1.45668 18.12 1.465 18.1123 1.47331L11.3601 8.22333C10.4263 9.15854 9.91199 10.4013 9.91199 11.7226V27.3126C8.04937 31.1572 8.27177 35.7655 10.5796 39.4273L9.27037 40.7366C8.35443 40.4234 7.29918 40.6283 6.57036 41.3572L0.76609 47.1623C0.272107 47.6563 0 48.313 0 49.0117C0 49.7104 0.272107 50.3673 0.765984 50.8612L3.05425 53.1495C3.56424 53.6594 4.23387 53.9143 4.90371 53.9143C5.57334 53.9143 6.24329 53.6593 6.75307 53.1496L9.48782 50.4159C9.79626 50.1075 9.79637 49.6074 9.48803 49.299C9.1796 48.9905 8.67961 48.9905 8.37107 49.2988L5.63631 52.0326C5.23237 52.4364 4.57506 52.4367 4.17111 52.0326L1.88284 49.7443C1.68729 49.5487 1.57946 49.2886 1.57946 49.0117C1.57946 48.7349 1.68719 48.4748 1.88295 48.2791L7.68733 42.4738C8.09107 42.07 8.74911 42.0701 9.15348 42.4738L11.4414 44.7616C11.8456 45.1664 11.8458 45.8243 11.4417 46.2282L10.6046 47.0654C10.2961 47.3738 10.2961 47.8739 10.6046 48.1824C10.913 48.4907 11.413 48.4908 11.7215 48.1824L12.5586 47.3452C13.2875 46.6164 13.4923 45.5611 13.1791 44.6451L14.4883 43.3358C15.7465 44.1288 17.1163 44.6755 18.5286 44.9761C18.7839 45.092 19.0469 45.1821 19.3169 45.2431C19.735 47.0828 21.3869 48.4452 23.3299 48.4452H49.4317C51.7009 48.4452 53.547 46.5986 53.547 44.3288V13.4168C53.5471 11.4738 52.1839 9.82195 50.3434 9.40442ZM44.2454 35.0274V4.89371C45.0911 5.26501 45.698 6.08512 45.7608 7.0554C45.7643 7.10436 45.766 7.15701 45.766 7.21651V38.1286C45.766 39.5269 44.6284 40.6644 43.2303 40.6644H30.8252C31.2218 40.179 31.5763 39.6705 31.8888 39.1438H40.1301C42.3994 39.1438 44.2454 37.2971 44.2454 35.0274ZM19.1754 2.64398C19.1413 2.83164 19.1224 3.02466 19.1224 3.2221V6.67388C19.1224 8.07211 17.9848 9.20961 16.5867 9.20961H13.1349C12.9366 9.20961 12.7429 9.22856 12.5544 9.263L19.1754 2.64398ZM11.4916 12.4499C11.4917 12.4438 11.4925 12.4378 11.4925 12.4316C11.4925 11.526 12.2293 10.7892 13.1349 10.7892H16.5867C18.8559 10.7892 20.702 8.94308 20.702 6.67388V3.2221C20.702 2.31649 21.4388 1.57967 22.3444 1.57967C22.3455 1.57967 22.3464 1.57957 22.3475 1.57957H40.1301C41.4634 1.57957 42.5747 2.61987 42.6606 3.95502C42.6641 4.00367 42.6659 4.05612 42.6659 4.1153V35.0274C42.6659 36.4262 41.5283 37.5642 40.1301 37.5642H32.679C34.5563 33.0337 33.6569 27.6144 29.9791 23.9365C25.1091 19.0667 17.1855 19.0668 12.3157 23.9365C12.0232 24.229 11.7488 24.5327 11.4916 24.8458V12.4499ZM13.4327 25.0535C15.5599 22.9262 18.3533 21.8631 21.1476 21.8631C23.9411 21.8631 26.7355 22.9269 28.8623 25.0535C33.1161 29.3074 33.1161 36.229 28.8623 40.4829C24.6084 44.7368 17.6866 44.7368 13.4328 40.4829C9.17875 36.229 9.17875 29.3075 13.4327 25.0535ZM12.252 43.3384L10.577 41.6634L11.5181 40.7224C11.7678 41.0242 12.0331 41.3173 12.3157 41.5999C12.5981 41.8823 12.8913 42.1477 13.1931 42.3972L12.252 43.3384ZM51.9675 44.3289C51.9675 45.7277 50.8299 46.8657 49.4318 46.8657H23.33C22.2977 46.8657 21.3987 46.242 21.0054 45.3441H46.3306C48.6004 45.3441 50.4469 43.498 50.4469 41.2288V18.3998C50.4469 17.9637 50.0934 17.6101 49.6571 17.6101C49.2209 17.6101 48.8674 17.9637 48.8674 18.3998V41.2288C48.8674 42.627 47.7293 43.7645 46.3306 43.7645H27.0709C27.8491 43.3458 28.5923 42.8394 29.2847 42.2439H43.2302C45.4994 42.2439 47.3455 40.3978 47.3455 38.1286V7.99292C48.2434 8.38613 48.8673 9.28469 48.8673 10.3167V15.247C48.8673 15.6832 49.2208 16.0368 49.657 16.0368C50.0933 16.0368 50.4468 15.6832 50.4468 15.247V11.0936C51.3441 11.4871 51.9674 12.3854 51.9674 13.4168V44.3289H51.9675Z" fill="var(--fill-0, white)"/>
<path id="Vector_2" d="M21.1473 41.8292C23.5677 41.8292 25.8432 40.8868 27.5546 39.1754C31.0875 35.6425 31.0875 29.894 27.5546 26.3612C25.8432 24.6498 23.5678 23.7073 21.1473 23.7073C18.7271 23.7073 16.4516 24.6498 14.7402 26.3612C11.2073 29.894 11.2073 35.6425 14.7402 39.1754C16.4517 40.8868 18.7271 41.8292 21.1473 41.8292ZM15.8573 27.478C17.2702 26.065 19.1491 25.2868 21.1473 25.2868C23.1458 25.2868 25.0246 26.065 26.4375 27.478C29.3546 30.3951 29.3546 35.1414 26.4375 38.0584C25.0246 39.4715 23.1457 40.2497 21.1473 40.2497C19.149 40.2497 17.2702 39.4715 15.8573 38.0584C12.9402 35.1414 12.9402 30.3951 15.8573 27.478Z" fill="var(--fill-0, white)"/>
<path id="Vector_3" d="M14.5728 18.9044C14.9804 19.0596 15.4367 18.8551 15.592 18.4474L15.8894 17.6666H17.9677L18.2616 18.4452C18.3809 18.7615 18.6814 18.9564 19.0006 18.9564C19.0933 18.9564 19.1875 18.9399 19.2794 18.9053C19.6874 18.7513 19.8934 18.2956 19.7393 17.8875L17.7852 12.7095C17.7826 12.7022 17.7796 12.695 17.7767 12.6877C17.6359 12.3457 17.3061 12.1248 16.9363 12.1248C16.936 12.1248 16.9356 12.1248 16.9353 12.1248C16.565 12.1252 16.2353 12.3468 16.0951 12.6895C16.0926 12.6954 16.0902 12.7014 16.088 12.7074L14.1159 17.8851C13.9605 18.2929 14.1652 18.7491 14.5728 18.9044ZM17.3714 16.0869H16.4909L16.9332 14.9257L17.3714 16.0869Z" fill="var(--fill-0, white)"/>
<path id="Vector_4" d="M33.6197 18.9561C34.056 18.9561 34.4095 18.6024 34.4095 18.1663V12.9145C34.4095 12.4784 34.056 12.1248 33.6197 12.1248C33.1834 12.1248 32.8299 12.4784 32.8299 12.9145V18.1663C32.8299 18.6024 33.1834 18.9561 33.6197 18.9561Z" fill="var(--fill-0, white)"/>
<path id="Vector_5" d="M26.7391 18.1691C26.7399 18.3787 26.8239 18.5792 26.9726 18.7268C27.1204 18.8737 27.3205 18.9561 27.5289 18.9561H27.5318C27.5768 18.9559 28.6383 18.9518 29.0629 18.9444C30.7162 18.9155 31.9162 17.4839 31.9162 15.5404C31.9162 13.4974 30.7466 12.1248 29.0056 12.1248H27.5182C27.3085 12.1248 27.1074 12.2082 26.9591 12.3566C26.811 12.5051 26.728 12.7063 26.7284 12.916C26.7284 12.9161 26.7322 14.936 26.7322 15.5346C26.7322 16.2649 26.7391 18.1691 26.7391 18.1691ZM29.0056 13.7043C30.2407 13.7043 30.3366 15.1097 30.3366 15.5404C30.3366 16.4373 29.9343 17.3493 29.0353 17.365C28.8672 17.368 28.5886 17.3704 28.3161 17.3723C28.314 16.7623 28.3118 15.9541 28.3118 15.5346C28.3118 15.1826 28.3105 14.3399 28.3095 13.7043H29.0056Z" fill="var(--fill-0, white)"/>
<path id="Vector_6" d="M21.6401 18.555C22.0555 18.8204 22.524 18.9553 23.0323 18.9561H23.0363C23.473 18.9561 23.8834 18.8609 24.256 18.6731C25.1746 18.2105 25.6804 17.4475 25.6804 16.5245V12.9145C25.6804 12.4784 25.3269 12.1248 24.8906 12.1248C24.4543 12.1248 24.1008 12.4784 24.1008 12.9145V16.5245C24.1008 16.7511 24.0349 17.0159 23.5455 17.2623C23.3932 17.3391 23.2266 17.3764 23.0364 17.3764C23.0357 17.3764 23.035 17.3764 23.0343 17.3764C22.8287 17.3761 22.6508 17.3262 22.4905 17.2238C22.1079 16.9794 22.0312 16.7765 22.0312 16.5283V12.9145C22.0312 12.4784 21.6777 12.1248 21.2414 12.1248C20.8051 12.1248 20.4516 12.4784 20.4516 12.9145V16.5284C20.4516 17.3692 20.8514 18.0511 21.6401 18.555Z" fill="var(--fill-0, white)"/>
<path id="Vector_7" d="M36.4037 13.7043H37.0583V18.1663C37.0583 18.6024 37.4118 18.9561 37.8481 18.9561C38.2844 18.9561 38.6379 18.6024 38.6379 18.1663V13.7043H39.3041C39.7404 13.7043 40.0939 13.3507 40.0939 12.9145C40.0939 12.4784 39.7404 12.1248 39.3041 12.1248H36.4037C35.9675 12.1248 35.614 12.4784 35.614 12.9145C35.614 13.3507 35.9676 13.7043 36.4037 13.7043Z" fill="var(--fill-0, white)"/>
<path id="Vector_8" d="M20.4457 39.1533C20.5053 39.1533 20.5651 39.1511 20.6248 39.1468C21.4494 39.0868 22.1845 38.6211 22.5909 37.9013L26.28 31.3689C26.948 30.1863 26.5292 28.6806 25.3465 28.0126C24.1641 27.3449 22.6584 27.7634 21.9902 28.9462L20.1229 32.2526L19.5944 31.571C19.1913 31.051 18.6097 30.7191 17.9569 30.6364C17.3042 30.5537 16.6582 30.7304 16.1382 31.1335C15.0649 31.9657 14.8686 33.5161 15.7008 34.5896L18.4992 38.1993C18.9623 38.7967 19.69 39.1533 20.4457 39.1533ZM17.106 32.3818C17.2626 32.2605 17.4508 32.1964 17.6458 32.1964C17.6831 32.1964 17.7208 32.1987 17.7585 32.2036C17.9927 32.2332 18.2014 32.3523 18.3459 32.5389L19.6022 34.1593C19.7643 34.3683 20.0208 34.4823 20.2839 34.4631C20.5475 34.4439 20.7842 34.294 20.9141 34.0638L23.3655 29.7231C23.6052 29.2989 24.1455 29.1485 24.5697 29.3881C24.994 29.6278 25.1443 30.1679 24.9047 30.5923L21.2156 37.1247C21.0697 37.3829 20.806 37.55 20.5102 37.5715C20.2159 37.5929 19.9269 37.4628 19.7475 37.2315L16.9493 33.6219C16.6505 33.2366 16.721 32.6804 17.106 32.3818Z" fill="var(--fill-0, white)"/>
</g>
</svg>
