<svg preserveAspectRatio="none" width="100%" height="100%" overflow="visible" style="display: block;" viewBox="0 0 50 45" fill="none" xmlns="http://www.w3.org/2000/svg">
<g id="Layer_1" clip-path="url(#clip0_0_12)">
<path id="Vector" d="M25.0001 4.09037C31.2532 4.09037 36.3383 9.18803 36.3383 15.4513C36.3383 16.1562 35.7679 16.7294 35.0628 16.7294C34.3577 16.7294 33.7873 16.1562 33.7873 15.4513C33.7873 10.5957 29.8452 6.64663 25.0001 6.64663C24.295 6.64663 23.7246 6.07339 23.7246 5.3685C23.7246 4.66362 24.295 4.09037 25.0001 4.09037Z" stroke="var(--stroke-0, white)" stroke-width="2" stroke-linecap="round" stroke-linejoin="round"/>
<path id="Vector_2" d="M20.7821 41.5155C21.4009 43.2862 23.0784 44.611 25 44.611C26.9216 44.611 28.5991 43.2883 29.2179 41.5155L29.2937 41.2989H20.7064L20.7821 41.5155ZM17.6524 37.1503C17.6524 38.0357 18.3701 38.7533 19.252 38.7533H30.7501C31.6299 38.7533 32.3497 38.0357 32.3497 37.1503V35.5473H17.6545V37.1503H17.6524ZM39.5353 15.4475C39.5353 6.26496 31.15 -0.735041 21.8513 1.21188C16.4001 2.35413 11.9612 6.78725 10.8057 12.248C9.81649 16.921 11.0288 21.611 14.1333 25.1078C16.0486 27.2671 17.2651 30.025 17.5745 32.8446L17.5914 32.989H32.4108L32.4276 32.8446C32.737 30.0272 33.9557 27.2947 35.9383 25.0272C38.2577 22.3754 39.5353 18.972 39.5353 15.4454V15.4475Z" stroke="url(#paint0_linear_0_12)" stroke-width="2" stroke-linecap="round" stroke-linejoin="round"/>
<path id="Vector_3" d="M20.7821 41.5155C21.4009 43.2862 23.0784 44.611 25 44.611C26.9216 44.611 28.5991 43.2883 29.2179 41.5155L29.2937 41.2989H20.7064L20.7821 41.5155ZM17.6524 37.1503C17.6524 38.0357 18.3701 38.7533 19.252 38.7533H30.7501C31.6299 38.7533 32.3497 38.0357 32.3497 37.1503V35.5473H17.6545V37.1503H17.6524ZM39.5353 15.4475C39.5353 6.26496 31.15 -0.735041 21.8513 1.21188C16.4001 2.35413 11.9612 6.78725 10.8057 12.248C9.81649 16.921 11.0288 21.611 14.1333 25.1078C16.0486 27.2671 17.2651 30.025 17.5745 32.8446L17.5914 32.989H32.4108L32.4276 32.8446C32.737 30.0272 33.9557 27.2947 35.9383 25.0272C38.2577 22.3754 39.5353 18.972 39.5353 15.4454V15.4475Z" stroke="url(#paint1_linear_0_12)" stroke-width="2" stroke-linecap="round" stroke-linejoin="round"/>
<path id="Vector_4" d="M1.9073 15.611H4.78237C5.48745 15.611 6.05783 16.1842 6.05783 16.8891C6.05783 17.594 5.48745 18.1672 4.78237 18.1672H1.9073C1.20222 18.1672 0.631836 17.594 0.631836 16.8891C0.631836 16.1842 1.20222 15.611 1.9073 15.611Z" stroke="var(--stroke-0, white)" stroke-width="2" stroke-linecap="round" stroke-linejoin="round"/>
<path id="Vector_5" d="M1.42527 6.32509C1.92409 5.82615 2.73231 5.82615 3.23113 6.32509L5.2643 8.36118C5.76312 8.86012 5.76312 9.66904 5.2643 10.168C4.76548 10.6669 3.95726 10.6669 3.45844 10.168L1.42527 8.13188C0.928555 7.63295 0.928555 6.82403 1.42527 6.32509Z" stroke="var(--stroke-0, white)" stroke-width="2" stroke-linecap="round" stroke-linejoin="round"/>
<path id="Vector_6" d="M3.45844 23.6089C3.95726 23.11 4.76548 23.11 5.2643 23.6089C5.76312 24.1079 5.76312 24.9168 5.2643 25.4157L3.23113 27.4518C2.73231 27.9508 1.92409 27.9508 1.42527 27.4518C0.928555 26.9529 0.928555 26.144 1.42527 25.645L3.45844 23.6089Z" stroke="var(--stroke-0, white)" stroke-width="2" stroke-linecap="round" stroke-linejoin="round"/>
<path id="Vector_7" d="M45.2198 15.611H48.0949C48.8 15.611 49.3703 16.1842 49.3703 16.8891C49.3703 17.594 48.8 18.1672 48.0949 18.1672H45.2198C44.5147 18.1672 43.9443 17.594 43.9443 16.8891C43.9443 16.1842 44.5147 15.611 45.2198 15.611Z" stroke="var(--stroke-0, white)" stroke-width="2" stroke-linecap="round" stroke-linejoin="round"/>
<path id="Vector_8" d="M46.769 6.32509C47.2678 5.82615 48.076 5.82615 48.5749 6.32509C49.0716 6.82403 49.0716 7.63295 48.5749 8.13188L46.5417 10.168C46.0429 10.6669 45.2346 10.6669 44.7358 10.168C44.2391 9.66904 44.2391 8.86012 44.7358 8.36118L46.769 6.32509Z" stroke="var(--stroke-0, white)" stroke-width="2" stroke-linecap="round" stroke-linejoin="round"/>
<path id="Vector_9" d="M44.7378 23.6089C45.2366 23.11 46.0448 23.11 46.5436 23.6089L48.5768 25.645C49.0735 26.144 49.0735 26.9529 48.5768 27.4518C48.078 27.9508 47.2698 27.9508 46.7709 27.4518L44.7378 25.4157C44.2411 24.9168 44.2411 24.1079 44.7378 23.6089Z" stroke="var(--stroke-0, white)" stroke-width="2" stroke-linecap="round" stroke-linejoin="round"/>
</g>
<defs>
<linearGradient id="paint0_linear_0_12" x1="25.002" y1="0.884831" x2="25.002" y2="44.611" gradientUnits="userSpaceOnUse">
<stop stop-color="white"/>
<stop offset="1" stop-color="white" stop-opacity="0.5"/>
</linearGradient>
<linearGradient id="paint1_linear_0_12" x1="25.002" y1="0.884831" x2="25.002" y2="44.611" gradientUnits="userSpaceOnUse">
<stop stop-color="white"/>
<stop offset="1" stop-color="white" stop-opacity="0.5"/>
</linearGradient>
<clipPath id="clip0_0_12">
<rect width="50" height="45" fill="white"/>
</clipPath>
</defs>
</svg>
