<svg preserveAspectRatio="none" width="100%" height="100%" overflow="visible" style="display: block;" viewBox="0 0 120 120" fill="none" xmlns="http://www.w3.org/2000/svg">
<g id="fi_1835948" clip-path="url(#clip0_0_15)">
<path id="Vector" d="M21.1057 92.8006C19.4257 92.8006 17.8107 93.2199 16.3779 94.0073C8.83026 84.332 4.6875 72.3129 4.6875 60C4.6875 29.5001 29.5001 4.6875 60 4.6875C63.7079 4.6875 67.4139 5.05646 71.0156 5.7843C72.2827 6.04065 73.5205 5.22034 73.7769 3.95142C74.0332 2.6825 73.2129 1.44653 71.944 1.18927C68.0374 0.400085 64.0192 0 60 0C43.9737 0 28.9059 6.24115 17.5735 17.5735C6.24115 28.9059 0 43.9737 0 60C0 73.4811 4.57764 86.6373 12.9117 97.1841C11.8387 98.7872 11.2619 100.671 11.2619 102.644C11.2619 105.274 12.2864 107.746 14.1458 109.604C16.0043 111.464 18.4763 112.488 21.1057 112.488C23.735 112.488 26.207 111.464 28.0664 109.604C29.9258 107.746 30.9494 105.273 30.9494 102.643C30.9494 100.015 29.9258 97.5421 28.0664 95.6836C26.207 93.8242 23.735 92.8006 21.1057 92.8006ZM24.7513 106.29C23.7781 107.264 22.4826 107.801 21.1057 107.801C19.7287 107.801 18.4341 107.264 17.46 106.29C16.4859 105.316 15.9494 104.021 15.9494 102.644C15.9494 101.266 16.4859 99.9719 17.46 98.9978C18.4332 98.0237 19.7287 97.4881 21.1057 97.4881C22.4826 97.4881 23.7772 98.0246 24.7513 98.9978C25.7254 99.9719 26.2619 101.266 26.2619 102.644C26.2619 104.021 25.7254 105.316 24.7513 106.29Z" fill="url(#paint0_linear_0_15)"/>
<path id="Vector_2" d="M107.086 22.8131C109.634 18.9908 109.225 13.765 105.855 10.3949C103.996 8.53638 101.524 7.5119 98.8943 7.5119C96.265 7.5119 93.793 8.53638 91.9336 10.3949C90.0742 12.2543 89.0506 14.7263 89.0506 17.3557C89.0506 19.985 90.0742 22.457 91.9336 24.3164C93.793 26.1758 96.265 27.1994 98.8943 27.1994C100.574 27.1994 102.189 26.7801 103.622 25.9927C111.17 35.6689 115.312 47.6871 115.312 60C115.312 90.4999 90.4999 115.312 60 115.312C56.3287 115.312 52.6575 114.951 49.0897 114.237C47.8207 113.983 46.5857 114.806 46.3312 116.075C46.0776 117.345 46.9006 118.579 48.1696 118.834C52.0395 119.607 56.0202 120 60 120C76.0263 120 91.0941 113.759 102.426 102.426C113.759 91.0941 120 76.0263 120 60C120 46.5179 115.421 33.3609 107.086 22.8131ZM95.2487 21.0022C94.2746 20.0281 93.7381 18.7335 93.7381 17.3557C93.7381 15.9787 94.2746 14.6841 95.2487 13.71C96.2219 12.7359 97.5174 12.1994 98.8943 12.1994C100.271 12.1994 101.567 12.7359 102.541 13.71C104.55 15.7205 104.55 18.9917 102.541 21.0022C101.567 21.9754 100.271 22.5119 98.8943 22.5119C97.5165 22.5119 96.2219 21.9754 95.2487 21.0022Z" fill="url(#paint1_linear_0_15)"/>
<path id="Vector_3" d="M50.3284 100.312C50.3284 101.607 51.3785 102.656 52.6721 102.656H67.327C68.6215 102.656 69.6707 101.607 69.6707 100.312V95.7687C72.7524 94.9393 75.6985 93.718 78.4671 92.1231L81.6751 95.3311C82.1146 95.7706 82.7106 96.0178 83.3331 96.0178C83.9539 96.0178 84.5508 95.7706 84.9902 95.3302L95.3485 84.9646C96.2631 84.0491 96.2631 82.565 95.3485 81.6504L92.1442 78.446C93.739 75.6775 94.9603 72.7313 95.7898 69.6497H100.316C101.611 69.6497 102.66 68.6005 102.66 67.3059V52.6511C102.66 51.3565 101.611 50.3073 100.316 50.3073H95.7889C94.9594 47.2266 93.739 44.2804 92.1442 41.5118L95.3311 38.3249C95.7706 37.8854 96.0178 37.2885 96.0178 36.6669C96.0168 36.0452 95.7696 35.4483 95.3302 35.0088L84.9637 24.6506C84.0491 23.736 82.565 23.736 81.6495 24.6515L78.4671 27.8348C75.6985 26.2399 72.7524 25.0186 69.6707 24.1891V19.6875C69.6707 18.3929 68.6215 17.3437 67.327 17.3437H52.6721C51.3785 17.3437 50.3284 18.3929 50.3284 19.6875V24.1901C47.2476 25.0186 44.3015 26.2399 41.5329 27.8348L38.3496 24.6515C37.435 23.7369 35.9509 23.736 35.0354 24.6506L24.6698 35.0098C24.2294 35.4492 23.9822 36.0452 23.9822 36.6669C23.9822 37.2885 24.2294 37.8854 24.6689 38.3249L27.8558 41.5118C26.261 44.2804 25.0397 47.2256 24.2102 50.3073H19.6921C18.3975 50.3073 17.3483 51.3565 17.3483 52.6501L17.3401 67.305C17.3392 67.9266 17.5864 68.5236 18.0258 68.963C18.4653 69.4025 19.0613 69.6497 19.6838 69.6497H24.2102C25.0397 72.7313 26.261 75.6775 27.8558 78.446L24.6515 81.6504C23.7369 82.565 23.736 84.0491 24.6515 84.9646L35.0098 95.3302C35.4492 95.7697 36.0452 96.0178 36.6669 96.0178H36.6678C37.2894 96.0178 37.8854 95.7706 38.3249 95.3311L41.532 92.1231C44.3015 93.718 47.2476 94.9393 50.3284 95.7687V100.312ZM42.4512 87.1939C41.5237 86.5942 40.3033 86.7242 39.5215 87.5052L36.6678 90.3589L29.6228 83.3084L32.4738 80.4565C33.2547 79.6756 33.3847 78.4552 32.785 77.5278C30.6601 74.2392 29.166 70.6348 28.3456 66.8134C28.1131 65.7339 27.1591 64.9622 26.0541 64.9622H22.0285L22.034 54.9948H26.0541C27.1591 54.9948 28.1131 54.2239 28.3456 53.1436C29.166 49.3231 30.6601 45.7187 32.785 42.4301C33.3847 41.5027 33.2547 40.2823 32.4738 39.5013L29.6411 36.6678L36.6916 29.6228L39.5215 32.4536C40.3033 33.2346 41.5228 33.3636 42.4512 32.7649C45.7388 30.64 49.3433 29.1458 53.1647 28.3255C54.2441 28.093 55.0159 27.1381 55.0159 26.0339V22.0312H64.9832V26.033C64.9832 27.1381 65.7541 28.093 66.8344 28.3246C70.6549 29.1458 74.2603 30.639 77.5479 32.764C78.4753 33.3636 79.6957 33.2346 80.4767 32.4527L83.3075 29.6228L90.358 36.6678L87.5253 39.5004C86.7435 40.2823 86.6144 41.5027 87.214 42.4301C89.339 45.7187 90.8322 49.3231 91.6534 53.1436C91.8851 54.2239 92.84 54.9948 93.945 54.9948H97.9724V64.9622H93.945C92.84 64.9622 91.886 65.7339 91.6534 66.8134C90.8331 70.6338 89.339 74.2392 87.214 77.5269C86.6144 78.4552 86.7444 79.6756 87.5253 80.4565L90.3763 83.3075L83.3313 90.358L80.4776 87.5052C79.6957 86.7233 78.4753 86.5942 77.5479 87.1939C74.2593 89.3188 70.6549 90.8121 66.8344 91.6333C65.7541 91.8658 64.9832 92.8198 64.9832 93.9249V97.9687H55.0159V93.9249C55.0159 92.8207 54.2441 91.8658 53.1647 91.6333C49.3442 90.813 45.7397 89.3188 42.4512 87.1939Z" fill="url(#paint2_linear_0_15)"/>
<path id="Vector_4" d="M79.3661 60C79.3661 49.3213 70.6787 40.6338 60 40.6338C49.3213 40.6338 40.6338 49.3213 40.6338 60C40.6338 70.6787 49.3213 79.3661 60 79.3661C70.6787 79.3661 79.3661 70.6787 79.3661 60ZM45.3213 60C45.3213 51.9058 51.9058 45.3213 60 45.3213C68.0942 45.3213 74.6786 51.9067 74.6786 60C74.6786 68.0933 68.0942 74.6786 60 74.6786C51.9058 74.6786 45.3213 68.0942 45.3213 60Z" fill="url(#paint3_linear_0_15)"/>
<path id="Vector_5" d="M81.5808 8.86413C82.1979 8.86413 82.8021 8.61328 83.2379 8.17749C83.6737 7.73895 83.9246 7.1347 83.9246 6.51764C83.9246 5.90423 83.6746 5.29907 83.2379 4.86053C82.8021 4.42474 82.1979 4.17389 81.5808 4.17389C80.9619 4.17389 80.3604 4.42474 79.9246 4.86053C79.4879 5.29907 79.2371 5.90149 79.2371 6.51764C79.2371 7.13653 79.4879 7.73895 79.9246 8.17749C80.3604 8.61328 80.9619 8.86413 81.5808 8.86413Z" fill="url(#paint4_linear_0_15)"/>
<path id="Vector_6" d="M38.5217 111.178C37.9056 111.178 37.3004 111.429 36.8646 111.865C36.4288 112.3 36.178 112.906 36.178 113.522C36.178 114.141 36.4288 114.743 36.8646 115.179C37.3004 115.615 37.9056 115.865 38.5217 115.865C39.1379 115.865 39.743 115.615 40.1788 115.179C40.6146 114.743 40.8655 114.138 40.8655 113.522C40.8655 112.906 40.6146 112.3 40.1788 111.865C39.743 111.429 39.1379 111.178 38.5217 111.178Z" fill="url(#paint5_linear_0_15)"/>
</g>
<defs>
<linearGradient id="paint0_linear_0_15" x1="36.9119" y1="0" x2="36.9119" y2="112.488" gradientUnits="userSpaceOnUse">
<stop stop-color="white" stop-opacity="0.5"/>
<stop offset="1" stop-color="white"/>
</linearGradient>
<linearGradient id="paint1_linear_0_15" x1="83.1426" y1="7.5119" x2="83.1426" y2="120" gradientUnits="userSpaceOnUse">
<stop stop-color="white" stop-opacity="0.5"/>
<stop offset="1" stop-color="white"/>
</linearGradient>
<linearGradient id="paint2_linear_0_15" x1="60" y1="17.3437" x2="60" y2="102.656" gradientUnits="userSpaceOnUse">
<stop stop-color="white" stop-opacity="0.5"/>
<stop offset="1" stop-color="white"/>
</linearGradient>
<linearGradient id="paint3_linear_0_15" x1="60" y1="40.6338" x2="60" y2="79.3661" gradientUnits="userSpaceOnUse">
<stop stop-color="white" stop-opacity="0.5"/>
<stop offset="1" stop-color="white"/>
</linearGradient>
<linearGradient id="paint4_linear_0_15" x1="81.5808" y1="4.17389" x2="81.5808" y2="8.86413" gradientUnits="userSpaceOnUse">
<stop stop-color="white" stop-opacity="0.5"/>
<stop offset="1" stop-color="white"/>
</linearGradient>
<linearGradient id="paint5_linear_0_15" x1="38.5217" y1="111.178" x2="38.5217" y2="115.865" gradientUnits="userSpaceOnUse">
<stop stop-color="white" stop-opacity="0.5"/>
<stop offset="1" stop-color="white"/>
</linearGradient>
<clipPath id="clip0_0_15">
<rect width="120" height="120" fill="white"/>
</clipPath>
</defs>
</svg>
