<svg preserveAspectRatio="none" width="100%" height="100%" overflow="visible" style="display: block;" viewBox="0 0 117.815 120" fill="none" xmlns="http://www.w3.org/2000/svg">
<g id="Group">
<path id="Vector" d="M10.4067 104.665C10.4067 105.636 11.1938 106.423 12.1645 106.423H27.7746C28.7454 106.423 29.5324 105.636 29.5324 104.665C29.5324 103.694 28.7454 102.907 27.7746 102.907H12.1645C11.1938 102.907 10.4067 103.694 10.4067 104.665Z" fill="url(#paint0_linear_0_26)"/>
<path id="Vector_2" d="M19.9409 50.9334H29.509C30.4798 50.9334 31.2668 50.1464 31.2668 49.1756C31.2668 48.2048 30.4798 47.4178 29.509 47.4178H19.9409C18.9701 47.4178 18.183 48.2048 18.183 49.1756C18.183 50.1464 18.9701 50.9334 19.9409 50.9334Z" fill="url(#paint1_linear_0_26)"/>
<path id="Vector_3" d="M19.9409 60.2993H29.509C30.4798 60.2993 31.2668 59.5123 31.2668 58.5415C31.2668 57.5707 30.4798 56.7837 29.509 56.7837H19.9409C18.9701 56.7837 18.183 57.5707 18.183 58.5415C18.183 59.5123 18.9701 60.2993 19.9409 60.2993Z" fill="url(#paint2_linear_0_26)"/>
<path id="Vector_4" d="M19.9409 69.6654H29.509C30.4798 69.6654 31.2668 68.8784 31.2668 67.9076C31.2668 66.9368 30.4798 66.1498 29.509 66.1498H19.9409C18.9701 66.1498 18.183 66.9368 18.183 67.9076C18.183 68.8784 18.9701 69.6654 19.9409 69.6654Z" fill="url(#paint3_linear_0_26)"/>
<path id="Vector_5" d="M10.4299 50.9334H11.4342C12.405 50.9334 13.192 50.1464 13.192 49.1756C13.192 48.2048 12.405 47.4178 11.4342 47.4178H10.4299C9.45914 47.4178 8.67211 48.2048 8.67211 49.1756C8.67211 50.1464 9.45914 50.9334 10.4299 50.9334Z" fill="url(#paint4_linear_0_26)"/>
<path id="Vector_6" d="M10.4299 60.2993H11.4342C12.405 60.2993 13.192 59.5123 13.192 58.5415C13.192 57.5707 12.405 56.7837 11.4342 56.7837H10.4299C9.45914 56.7837 8.67211 57.5707 8.67211 58.5415C8.67211 59.5123 9.45914 60.2993 10.4299 60.2993Z" fill="url(#paint5_linear_0_26)"/>
<path id="Vector_7" d="M10.4299 69.6654H11.4342C12.405 69.6654 13.192 68.8784 13.192 67.9076C13.192 66.9368 12.405 66.1498 11.4342 66.1498H10.4299C9.45914 66.1498 8.67211 66.9368 8.67211 67.9076C8.67211 68.8784 9.45914 69.6654 10.4299 69.6654Z" fill="url(#paint6_linear_0_26)"/>
<path id="Vector_8" d="M116.057 25.0409H1.75781C0.787031 25.0409 5.21541e-08 25.8279 5.21541e-08 26.7987C5.21541e-08 27.7695 0.787031 28.5565 1.75781 28.5565H116.057C117.028 28.5565 117.815 27.7695 117.815 26.7987C117.815 25.8279 117.028 25.0409 116.057 25.0409Z" fill="url(#paint7_linear_0_26)"/>
<g id="Group_2">
<path id="Vector_9" d="M18.6745 0.000468784C17.7037 0.000468784 16.9167 0.7875 16.9167 1.75828V15.5299C16.9167 16.5007 17.7037 17.2877 18.6745 17.2877C19.6453 17.2877 20.4323 16.5007 20.4323 15.5299V1.75828C20.4323 0.7875 19.6453 0.000468784 18.6745 0.000468784Z" fill="url(#paint8_linear_0_26)"/>
<path id="Vector_10" d="M11.3271 0.000468784C10.3563 0.000468784 9.5693 0.7875 9.5693 1.75828V11.2247C9.5693 11.8741 9.38414 12.7125 7.94086 13.4393C7.49648 13.6631 7.01391 13.7719 6.465 13.7719H6.45914C5.85867 13.7712 5.33695 13.624 4.86492 13.3223C3.74531 12.607 3.51586 11.9702 3.51586 11.2345V1.75828C3.51586 0.7875 2.72883 0.000468784 1.75805 0.000468784C0.787266 0.000468784 0.000234522 0.7875 0.000234522 1.75828V11.2348C0.000234522 13.3261 1.00008 15.0253 2.97211 16.2853C4.01062 16.9488 5.1825 17.2861 6.45445 17.2877H6.465C7.5607 17.2877 8.58938 17.0494 9.52242 16.5795C12.4669 15.0966 13.0849 12.8489 13.0849 11.2247V1.75828C13.0849 0.7875 12.2979 0.000468784 11.3271 0.000468784Z" fill="url(#paint9_linear_0_26)"/>
<path id="Vector_11" d="M62.5036 8.15555L66.2972 2.77055C66.8564 1.97695 66.6663 0.880313 65.8725 0.321094C65.0782 -0.238125 63.982 -0.0475781 63.4233 0.745781L60.3551 5.10117L57.2918 0.746719C56.733 -0.0473437 55.6366 -0.237891 54.8426 0.320391C54.0485 0.878906 53.8577 1.97555 54.4162 2.76961L58.2042 8.15414L53.7216 14.5174C53.1626 15.311 53.3527 16.4077 54.1462 16.9669C54.454 17.1837 54.8072 17.2877 55.1571 17.2877C55.7095 17.2877 56.2533 17.028 56.5957 16.5422L60.353 11.2085L64.1044 16.5412C64.4466 17.0278 64.9905 17.2877 65.5437 17.2877C65.8929 17.2877 66.2459 17.1839 66.5536 16.9676C67.3476 16.4091 67.5384 15.3124 66.9797 14.5184L62.5036 8.15555Z" fill="url(#paint10_linear_0_26)"/>
<path id="Vector_12" d="M49.5895 0.000468784C48.6187 0.000468784 47.8317 0.7875 47.8317 1.75828V11.2247C47.8317 11.8741 47.6466 12.7125 46.2033 13.4393C45.7589 13.6631 45.2763 13.7719 44.7274 13.7719H44.7216C44.1209 13.7712 43.5994 13.6242 43.1271 13.3223C42.0075 12.607 41.778 11.9702 41.778 11.2345V1.75828C41.778 0.7875 40.991 0.000468784 40.0202 0.000468784C39.0495 0.000468784 38.2624 0.7875 38.2624 1.75828V11.2348C38.2624 13.3261 39.2625 15.0253 41.2343 16.2851C42.2728 16.9488 43.4445 17.2861 44.7169 17.2877H44.7274C45.8231 17.2877 46.8518 17.0494 47.7848 16.5795C50.7293 15.0966 51.3476 12.8491 51.3476 11.2249V1.75828C51.3473 0.7875 50.5603 0.000468784 49.5895 0.000468784Z" fill="url(#paint11_linear_0_26)"/>
<path id="Vector_13" d="M33.217 0.139219C32.3231 -0.238828 31.2916 0.179531 30.9134 1.07367L25.0898 14.8453C24.7118 15.7395 25.1299 16.7707 26.0243 17.149C26.2479 17.2434 26.4797 17.2882 26.708 17.2882C27.393 17.2882 28.0441 16.8851 28.3277 16.2145L34.1515 2.44289C34.5295 1.54875 34.1112 0.517266 33.217 0.139219Z" fill="url(#paint12_linear_0_26)"/>
<path id="Vector_14" d="M103.803 3.56297H116.057C117.028 3.56297 117.815 2.77594 117.815 1.80516C117.815 0.834375 117.028 0.0473438 116.057 0.0473438H103.803C102.832 0.0473438 102.045 0.834375 102.045 1.80516C102.045 2.77594 102.832 3.56297 103.803 3.56297Z" fill="url(#paint13_linear_0_26)"/>
<path id="Vector_15" d="M116.057 6.88617H103.803C102.832 6.88617 102.045 7.6732 102.045 8.64398C102.045 9.61477 102.832 10.4018 103.803 10.4018H116.057C117.028 10.4018 117.815 9.61477 117.815 8.64398C117.815 7.6732 117.028 6.88617 116.057 6.88617Z" fill="url(#paint14_linear_0_26)"/>
<path id="Vector_16" d="M116.057 13.725H103.803C102.832 13.725 102.045 14.512 102.045 15.4828C102.045 16.4536 102.832 17.2406 103.803 17.2406H116.057C117.028 17.2406 117.815 16.4536 117.815 15.4828C117.815 14.512 117.028 13.725 116.057 13.725Z" fill="url(#paint15_linear_0_26)"/>
</g>
<path id="Vector_17" d="M111.37 36.3532H53.7956C50.2416 36.3532 47.3503 39.2445 47.3503 42.7985V113.555C47.3503 117.109 50.2416 120 53.7956 120H111.37C114.924 120 117.815 117.109 117.815 113.555V42.7985C117.815 39.2447 114.924 36.3532 111.37 36.3532ZM114.3 113.555C114.3 115.17 112.985 116.484 111.37 116.484H53.7956C52.1801 116.484 50.8659 115.17 50.8659 113.555V42.7985C50.8659 41.183 52.1801 39.8688 53.7956 39.8688H111.37C112.985 39.8688 114.3 41.183 114.3 42.7985V113.555Z" fill="url(#paint16_linear_0_26)"/>
<path id="Vector_18" d="M33.4936 89.3304H19.5326C18.5618 89.3304 17.7748 90.1174 17.7748 91.0882C17.7748 92.059 18.5618 92.846 19.5326 92.846H33.4936C35.1091 92.846 36.4233 94.1602 36.4233 95.7757V113.555C36.4233 115.17 35.1091 116.484 33.4936 116.484H6.44531C4.82977 116.484 3.51563 115.17 3.51563 113.555V95.7757C3.51563 94.1602 4.82977 92.846 6.44531 92.846H11.3295C12.3002 92.846 13.0873 92.059 13.0873 91.0882C13.0873 90.1174 12.3002 89.3304 11.3295 89.3304H6.44531C2.89125 89.3304 5.21541e-08 92.2216 5.21541e-08 95.7757V113.555C5.21541e-08 117.109 2.89125 120 6.44531 120H33.4936C37.0477 120 39.9389 117.109 39.9389 113.555V95.7757C39.9389 92.2216 37.0477 89.3304 33.4936 89.3304Z" fill="url(#paint17_linear_0_26)"/>
<path id="Vector_19" d="M33.4936 36.3532H6.44531C2.89125 36.3532 5.21541e-08 39.2445 5.21541e-08 42.7985V50.4401C5.21541e-08 51.4109 0.787031 52.1979 1.75781 52.1979C2.72859 52.1979 3.51563 51.4109 3.51563 50.4401V42.7985C3.51563 41.183 4.82977 39.8688 6.44531 39.8688H33.4936C35.1091 39.8688 36.4233 41.183 36.4233 42.7985V74.2847C36.4233 75.9002 35.1091 77.2144 33.4936 77.2144H6.44531C4.82977 77.2144 3.51563 75.9002 3.51563 74.2847V58.6432C3.51563 57.6724 2.72859 56.8854 1.75781 56.8854C0.787031 56.8854 5.21541e-08 57.6724 5.21541e-08 58.6432V74.2847C5.21541e-08 77.8388 2.89125 80.73 6.44531 80.73H33.4936C37.0477 80.73 39.9389 77.8388 39.9389 74.2847V42.7985C39.9389 39.2447 37.0477 36.3532 33.4936 36.3532Z" fill="url(#paint18_linear_0_26)"/>
<path id="Vector_20" d="M82.5827 82.5199C75.7294 82.5199 69.772 77.8849 68.0958 71.2486C67.8581 70.3073 66.9016 69.7371 65.9611 69.9748C65.0198 70.2124 64.4496 71.1682 64.6873 72.1095C66.7582 80.3088 74.1169 86.0355 82.5827 86.0355C92.7605 86.0355 101.041 77.7553 101.041 67.5776C101.041 57.3998 92.7605 49.1196 82.5827 49.1196C74.1171 49.1196 66.7582 54.8461 64.6873 63.0455C64.4494 63.9867 65.0198 64.9425 65.9611 65.1802C66.903 65.418 67.8584 64.8478 68.0958 63.9063C69.7718 57.27 75.7291 52.6352 82.5827 52.6352C90.822 52.6352 97.5251 59.3384 97.5251 67.5776C97.5251 75.8168 90.822 82.5199 82.5827 82.5199Z" fill="url(#paint19_linear_0_26)"/>
<path id="Vector_21" d="M97.8459 93.2428H67.3198C63.2902 93.2428 60.0117 96.5213 60.0117 100.551C60.0117 104.58 63.2899 107.859 67.3198 107.859H97.8459C101.876 107.859 105.154 104.58 105.154 100.551C105.154 96.5213 101.876 93.2428 97.8459 93.2428ZM97.8459 104.343H67.3198C65.2287 104.343 63.5273 102.642 63.5273 100.551C63.5273 98.4598 65.2287 96.7584 67.3198 96.7584H97.8459C99.937 96.7584 101.638 98.4598 101.638 100.551C101.638 102.642 99.937 104.343 97.8459 104.343Z" fill="url(#paint20_linear_0_26)"/>
</g>
<defs>
<linearGradient id="paint0_linear_0_26" x1="19.9696" y1="102.907" x2="19.9696" y2="106.423" gradientUnits="userSpaceOnUse">
<stop stop-color="white" stop-opacity="0.5"/>
<stop offset="1" stop-color="white"/>
</linearGradient>
<linearGradient id="paint1_linear_0_26" x1="24.7249" y1="47.4178" x2="24.7249" y2="50.9334" gradientUnits="userSpaceOnUse">
<stop stop-color="white" stop-opacity="0.5"/>
<stop offset="1" stop-color="white"/>
</linearGradient>
<linearGradient id="paint2_linear_0_26" x1="24.7249" y1="56.7837" x2="24.7249" y2="60.2993" gradientUnits="userSpaceOnUse">
<stop stop-color="white" stop-opacity="0.5"/>
<stop offset="1" stop-color="white"/>
</linearGradient>
<linearGradient id="paint3_linear_0_26" x1="24.7249" y1="66.1498" x2="24.7249" y2="69.6654" gradientUnits="userSpaceOnUse">
<stop stop-color="white" stop-opacity="0.5"/>
<stop offset="1" stop-color="white"/>
</linearGradient>
<linearGradient id="paint4_linear_0_26" x1="10.9321" y1="47.4178" x2="10.9321" y2="50.9334" gradientUnits="userSpaceOnUse">
<stop stop-color="white" stop-opacity="0.5"/>
<stop offset="1" stop-color="white"/>
</linearGradient>
<linearGradient id="paint5_linear_0_26" x1="10.9321" y1="56.7837" x2="10.9321" y2="60.2993" gradientUnits="userSpaceOnUse">
<stop stop-color="white" stop-opacity="0.5"/>
<stop offset="1" stop-color="white"/>
</linearGradient>
<linearGradient id="paint6_linear_0_26" x1="10.9321" y1="66.1498" x2="10.9321" y2="69.6654" gradientUnits="userSpaceOnUse">
<stop stop-color="white" stop-opacity="0.5"/>
<stop offset="1" stop-color="white"/>
</linearGradient>
<linearGradient id="paint7_linear_0_26" x1="58.9076" y1="25.0409" x2="58.9076" y2="28.5565" gradientUnits="userSpaceOnUse">
<stop stop-color="white" stop-opacity="0.5"/>
<stop offset="1" stop-color="white"/>
</linearGradient>
<linearGradient id="paint8_linear_0_26" x1="18.6745" y1="0.000468784" x2="18.6745" y2="17.2877" gradientUnits="userSpaceOnUse">
<stop stop-color="white" stop-opacity="0.5"/>
<stop offset="1" stop-color="white"/>
</linearGradient>
<linearGradient id="paint9_linear_0_26" x1="6.54258" y1="0.000468784" x2="6.54258" y2="17.2877" gradientUnits="userSpaceOnUse">
<stop stop-color="white" stop-opacity="0.5"/>
<stop offset="1" stop-color="white"/>
</linearGradient>
<linearGradient id="paint10_linear_0_26" x1="60.3504" y1="0.000197376" x2="60.3504" y2="17.2877" gradientUnits="userSpaceOnUse">
<stop stop-color="white" stop-opacity="0.5"/>
<stop offset="1" stop-color="white"/>
</linearGradient>
<linearGradient id="paint11_linear_0_26" x1="44.805" y1="0.000468784" x2="44.805" y2="17.2877" gradientUnits="userSpaceOnUse">
<stop stop-color="white" stop-opacity="0.5"/>
<stop offset="1" stop-color="white"/>
</linearGradient>
<linearGradient id="paint12_linear_0_26" x1="29.6206" y1="5.20533e-09" x2="29.6206" y2="17.2882" gradientUnits="userSpaceOnUse">
<stop stop-color="white" stop-opacity="0.5"/>
<stop offset="1" stop-color="white"/>
</linearGradient>
<linearGradient id="paint13_linear_0_26" x1="109.93" y1="0.0473438" x2="109.93" y2="3.56297" gradientUnits="userSpaceOnUse">
<stop stop-color="white" stop-opacity="0.5"/>
<stop offset="1" stop-color="white"/>
</linearGradient>
<linearGradient id="paint14_linear_0_26" x1="109.93" y1="6.88617" x2="109.93" y2="10.4018" gradientUnits="userSpaceOnUse">
<stop stop-color="white" stop-opacity="0.5"/>
<stop offset="1" stop-color="white"/>
</linearGradient>
<linearGradient id="paint15_linear_0_26" x1="109.93" y1="13.725" x2="109.93" y2="17.2406" gradientUnits="userSpaceOnUse">
<stop stop-color="white" stop-opacity="0.5"/>
<stop offset="1" stop-color="white"/>
</linearGradient>
<linearGradient id="paint16_linear_0_26" x1="82.5827" y1="36.3532" x2="82.5827" y2="120" gradientUnits="userSpaceOnUse">
<stop stop-color="white" stop-opacity="0.5"/>
<stop offset="1" stop-color="white"/>
</linearGradient>
<linearGradient id="paint17_linear_0_26" x1="19.9695" y1="89.3304" x2="19.9695" y2="120" gradientUnits="userSpaceOnUse">
<stop stop-color="white" stop-opacity="0.5"/>
<stop offset="1" stop-color="white"/>
</linearGradient>
<linearGradient id="paint18_linear_0_26" x1="19.9695" y1="36.3532" x2="19.9695" y2="80.73" gradientUnits="userSpaceOnUse">
<stop stop-color="white" stop-opacity="0.5"/>
<stop offset="1" stop-color="white"/>
</linearGradient>
<linearGradient id="paint19_linear_0_26" x1="82.837" y1="49.1196" x2="82.837" y2="86.0355" gradientUnits="userSpaceOnUse">
<stop stop-color="white" stop-opacity="0.5"/>
<stop offset="1" stop-color="white"/>
</linearGradient>
<linearGradient id="paint20_linear_0_26" x1="82.5828" y1="93.2428" x2="82.5828" y2="107.859" gradientUnits="userSpaceOnUse">
<stop stop-color="white" stop-opacity="0.5"/>
<stop offset="1" stop-color="white"/>
</linearGradient>
</defs>
</svg>
