<svg width="120" height="120" viewBox="0 0 120 120" fill="none" xmlns="http://www.w3.org/2000/svg">
<g clip-path="url(#clip0_157_1399)">
<path d="M118.125 97.5H110.625V80.0555C109.605 80.453 108.52 80.6574 107.425 80.658C107.336 80.658 107.248 80.6567 107.159 80.6541C107.069 80.7505 106.969 80.8364 106.875 80.9284V97.5H94.6876V82.7758C93.5143 82.3002 92.4578 81.5764 91.5906 80.6541C91.5024 80.6566 91.4139 80.6579 91.3253 80.658C91.195 80.658 91.067 80.6446 90.9376 80.6391V97.5H29.0626V37.5C29.0631 37.0029 29.2609 36.5263 29.6124 36.1748C29.9639 35.8233 30.4405 35.6256 30.9376 35.625H89.0626C89.5597 35.6256 90.0362 35.8233 90.3878 36.1748C90.7393 36.5263 90.937 37.0029 90.9376 37.5V43.111C91.067 43.1054 91.1949 43.0921 91.3253 43.0921C91.414 43.0921 91.5024 43.0934 91.5907 43.096C92.4578 42.1736 93.5143 41.4498 94.6876 40.9742V37.5C94.6859 36.0087 94.0928 34.5789 93.0382 33.5243C91.9837 32.4698 90.5539 31.8766 89.0626 31.875H30.9376C29.4462 31.8766 28.0164 32.4698 26.9619 33.5243C25.9073 34.5789 25.3142 36.0087 25.3126 37.5V97.5H13.1251V35.625C13.1256 35.1279 13.3234 34.6513 13.6749 34.2998C14.0264 33.9483 14.503 33.7506 15.0001 33.75H17.8126V91.875C17.8126 92.3723 18.0101 92.8492 18.3617 93.2008C18.7134 93.5525 19.1903 93.75 19.6876 93.75C20.1848 93.75 20.6618 93.5525 21.0134 93.2008C21.365 92.8492 21.5626 92.3723 21.5626 91.875V28.125H98.4376V40.3125H100.714C101.208 40.316 101.701 40.3605 102.188 40.4457V33.75H105C105.497 33.7506 105.974 33.9483 106.325 34.2998C106.677 34.6513 106.874 35.1279 106.875 35.625V42.8217C106.969 42.9137 107.069 42.9995 107.159 43.0959C107.248 43.0934 107.336 43.0921 107.425 43.092C108.52 43.0927 109.605 43.2969 110.625 43.6945V35.625C110.623 34.1337 110.03 32.7039 108.976 31.6493C107.921 30.5948 106.491 30.0016 105 30H102.188V18.8397C102.187 17.8455 101.791 16.8923 101.088 16.1892C100.385 15.4862 99.4318 15.0908 98.4376 15.0897H47.3539C46.8691 15.0908 46.4029 14.9029 46.0543 14.5661L42.291 10.9461C41.2447 9.93552 39.846 9.37205 38.3913 9.37501H21.5626C20.5683 9.37607 19.6151 9.7715 18.9121 10.4745C18.209 11.1776 17.8136 12.1308 17.8126 13.125V30H15.0001C13.5087 30.0016 12.0789 30.5948 11.0244 31.6493C9.96984 32.7039 9.37669 34.1337 9.37506 35.625V97.5H1.87506C1.56862 97.5 1.26684 97.5751 0.996155 97.7188C0.725466 97.8624 0.494106 98.0702 0.322323 98.324C0.150541 98.5778 0.0435695 98.8698 0.0107713 99.1744C-0.0220268 99.4791 0.0203474 99.7872 0.134186 100.072C1.37127 103.193 3.52017 105.87 6.30075 107.752C9.08133 109.635 12.3646 110.636 15.7224 110.625H104.278C107.636 110.636 110.919 109.635 113.699 107.752C116.48 105.87 118.629 103.193 119.866 100.072C119.98 99.7872 120.022 99.4791 119.989 99.1744C119.957 98.8698 119.85 98.5778 119.678 98.324C119.506 98.0702 119.275 97.8624 119.004 97.7188C118.733 97.5751 118.432 97.5 118.125 97.5ZM21.5626 13.125H38.3913C38.8761 13.124 39.3423 13.3118 39.6909 13.6487L43.4542 17.2687C44.5005 18.2792 45.8992 18.8427 47.3539 18.8397H98.4376V24.375H21.5626V13.125ZM104.278 106.875H15.7224C13.6106 106.882 11.5291 106.373 9.65865 105.393C7.78821 104.413 6.18545 102.991 4.98967 101.25H115.01C113.815 102.991 112.212 104.413 110.341 105.393C108.471 106.373 106.389 106.882 104.278 106.875Z" fill="url(#paint0_linear_157_1399)"/>
<path d="M27.1875 20.625C28.223 20.625 29.0625 19.7855 29.0625 18.75C29.0625 17.7145 28.223 16.875 27.1875 16.875C26.152 16.875 25.3125 17.7145 25.3125 18.75C25.3125 19.7855 26.152 20.625 27.1875 20.625Z" fill="url(#paint1_linear_157_1399)"/>
<path d="M34.6875 20.625C35.723 20.625 36.5625 19.7855 36.5625 18.75C36.5625 17.7145 35.723 16.875 34.6875 16.875C33.652 16.875 32.8125 17.7145 32.8125 18.75C32.8125 19.7855 33.652 20.625 34.6875 20.625Z" fill="url(#paint2_linear_157_1399)"/>
<path d="M34.6875 43.125H38.4375C38.9348 43.125 39.4117 42.9275 39.7633 42.5758C40.115 42.2242 40.3125 41.7473 40.3125 41.25C40.3125 40.7527 40.115 40.2758 39.7633 39.9242C39.4117 39.5725 38.9348 39.375 38.4375 39.375H34.6875C34.1902 39.375 33.7133 39.5725 33.3617 39.9242C33.01 40.2758 32.8125 40.7527 32.8125 41.25C32.8125 41.7473 33.01 42.2242 33.3617 42.5758C33.7133 42.9275 34.1902 43.125 34.6875 43.125Z" fill="url(#paint3_linear_157_1399)"/>
<path d="M61.875 50.625C62.3723 50.625 62.8492 50.4275 63.2008 50.0758C63.5525 49.7242 63.75 49.2473 63.75 48.75C63.75 48.2527 63.5525 47.7758 63.2008 47.4242C62.8492 47.0725 62.3723 46.875 61.875 46.875H59.0625C58.5652 46.875 58.0883 47.0725 57.7367 47.4242C57.385 47.7758 57.1875 48.2527 57.1875 48.75C57.1875 49.2473 57.385 49.7242 57.7367 50.0758C58.0883 50.4275 58.5652 50.625 59.0625 50.625H61.875Z" fill="url(#paint4_linear_157_1399)"/>
<path d="M62.8125 63.75C62.8125 64.2473 63.0101 64.7242 63.3617 65.0758C63.7133 65.4274 64.1902 65.625 64.6875 65.625H68.4375C68.9348 65.625 69.4117 65.4275 69.7633 65.0758C70.115 64.7242 70.3125 64.2473 70.3125 63.75C70.3125 63.2527 70.115 62.7758 69.7633 62.4242C69.4117 62.0725 68.9348 61.875 68.4375 61.875H64.6875C64.1902 61.875 63.7133 62.0726 63.3617 62.4242C63.0101 62.7758 62.8125 63.2527 62.8125 63.75Z" fill="url(#paint5_linear_157_1399)"/>
<path d="M53.4375 56.25C53.4375 56.7473 53.6351 57.2242 53.9867 57.5758C54.3383 57.9274 54.8152 58.125 55.3125 58.125H64.6875C65.1848 58.125 65.6617 57.9275 66.0133 57.5758C66.365 57.2242 66.5625 56.7473 66.5625 56.25C66.5625 55.7527 66.365 55.2758 66.0133 54.9242C65.6617 54.5725 65.1848 54.375 64.6875 54.375H55.3125C54.8152 54.375 54.3383 54.5726 53.9867 54.9242C53.6351 55.2758 53.4375 55.7527 53.4375 56.25Z" fill="url(#paint6_linear_157_1399)"/>
<path d="M34.6875 50.625H51.5625C52.0598 50.625 52.5367 50.4275 52.8883 50.0758C53.24 49.7242 53.4375 49.2473 53.4375 48.75C53.4375 48.2527 53.24 47.7758 52.8883 47.4242C52.5367 47.0725 52.0598 46.875 51.5625 46.875H34.6875C34.1902 46.875 33.7133 47.0725 33.3617 47.4242C33.01 47.7758 32.8125 48.2527 32.8125 48.75C32.8125 49.2473 33.01 49.7242 33.3617 50.0758C33.7133 50.4275 34.1902 50.625 34.6875 50.625Z" fill="url(#paint7_linear_157_1399)"/>
<path d="M34.6875 58.125H47.8125C48.3098 58.125 48.7867 57.9275 49.1383 57.5758C49.49 57.2242 49.6875 56.7473 49.6875 56.25C49.6875 55.7527 49.49 55.2758 49.1383 54.9242C48.7867 54.5725 48.3098 54.375 47.8125 54.375H34.6875C34.1902 54.375 33.7133 54.5725 33.3617 54.9242C33.01 55.2758 32.8125 55.7527 32.8125 56.25C32.8125 56.7473 33.01 57.2242 33.3617 57.5758C33.7133 57.9275 34.1902 58.125 34.6875 58.125Z" fill="url(#paint8_linear_157_1399)"/>
<path d="M34.6875 65.625H57.1875C57.6848 65.625 58.1617 65.4275 58.5133 65.0758C58.865 64.7242 59.0625 64.2473 59.0625 63.75C59.0625 63.2527 58.865 62.7758 58.5133 62.4242C58.1617 62.0725 57.6848 61.875 57.1875 61.875H34.6875C34.1902 61.875 33.7133 62.0725 33.3617 62.4242C33.01 62.7758 32.8125 63.2527 32.8125 63.75C32.8125 64.2473 33.01 64.7242 33.3617 65.0758C33.7133 65.4275 34.1902 65.625 34.6875 65.625Z" fill="url(#paint9_linear_157_1399)"/>
<path d="M50.1233 87.323C50.1632 87.598 50.2637 87.8606 50.4176 88.092C50.5715 88.3233 50.7749 88.5175 51.0132 88.6606L59.0341 93.4818C59.3257 93.6573 59.6596 93.75 60 93.75C60.3403 93.75 60.6742 93.6573 60.9659 93.4818L68.9868 88.6606C69.225 88.5175 69.4284 88.3233 69.5823 88.092C69.7362 87.8606 69.8368 87.598 69.8767 87.323L72.1682 71.5192C72.2067 71.253 72.1876 70.9816 72.112 70.7235C72.0364 70.4654 71.9062 70.2265 71.7301 70.0232C71.5541 69.8198 71.3364 69.6567 71.0918 69.5448C70.8472 69.433 70.5814 69.3751 70.3125 69.375H49.6875C49.4185 69.3751 49.1527 69.433 48.9081 69.5448C48.6635 69.6567 48.4458 69.8198 48.2698 70.0232C48.0938 70.2265 47.9636 70.4654 47.888 70.7235C47.8124 70.9816 47.7932 71.253 47.8317 71.5192L50.1233 87.323ZM68.1459 73.125L66.2928 85.9049L60 89.6878L53.7071 85.9049L51.854 73.125H68.1459Z" fill="url(#paint10_linear_157_1399)"/>
<path d="M98.4375 91.8748C98.4375 92.3721 98.635 92.849 98.9867 93.2006C99.3383 93.5523 99.8152 93.7498 100.312 93.7498C100.81 93.7498 101.287 93.5523 101.638 93.2006C101.99 92.849 102.188 92.3721 102.188 91.8748V83.3042C101.701 83.3893 101.208 83.4339 100.714 83.4373H98.4375V91.8748Z" fill="url(#paint11_linear_157_1399)"/>
<path d="M112.917 50.2266L111.023 48.3326C110.305 47.6159 109.39 47.1296 108.394 46.9359C107.398 46.7421 106.367 46.8497 105.433 47.2449C105.052 46.3054 104.4 45.5007 103.559 44.9339C102.719 44.367 101.728 44.0636 100.714 44.0625H98.0357C97.0219 44.0636 96.0314 44.367 95.1909 44.9339C94.3504 45.5008 93.698 46.3054 93.3171 47.2449C92.3827 46.8497 91.3517 46.7421 90.3559 46.9359C89.3601 47.1296 88.4446 47.616 87.7266 48.3327L85.8326 50.2267C85.116 50.9447 84.6297 51.8601 84.4359 52.8559C84.2422 53.8518 84.3498 54.8827 84.745 55.8171C83.8054 56.198 83.0008 56.8504 82.4339 57.6909C81.867 58.5314 81.5636 59.5219 81.5625 60.5357V63.2143C81.5636 64.2287 81.8673 65.2196 82.4347 66.0604C83.0022 66.9012 83.8076 67.5536 84.7479 67.9341C84.352 68.8679 84.2438 69.8986 84.437 70.8942C84.6303 71.8899 85.1162 72.8053 85.8325 73.5232L87.7267 75.4173C88.4447 76.134 89.3601 76.6203 90.356 76.8141C91.3518 77.0078 92.3827 76.9002 93.3171 76.505C93.698 77.4446 94.3504 78.2492 95.1909 78.8161C96.0314 79.383 97.0219 79.6864 98.0357 79.6875H100.714C101.728 79.6864 102.719 79.3831 103.559 78.8161C104.4 78.2492 105.052 77.4445 105.433 76.5049C106.367 76.9002 107.398 77.0078 108.394 76.8141C109.39 76.6204 110.305 76.1341 111.023 75.4174L112.917 73.5233C113.634 72.8054 114.12 71.89 114.313 70.8943C114.506 69.8986 114.398 68.8679 114.003 67.934C114.943 67.5534 115.748 66.901 116.315 66.0603C116.883 65.2195 117.186 64.2286 117.188 63.2143V60.5357C117.186 59.5218 116.883 58.5313 116.316 57.6908C115.749 56.8502 114.945 56.1978 114.005 55.817C114.4 54.8827 114.508 53.8517 114.314 52.8559C114.12 51.8601 113.634 50.9446 112.917 50.2266ZM113.438 63.2143C113.437 63.3902 113.403 63.5643 113.336 63.7268C113.268 63.8893 113.17 64.0369 113.045 64.1613C112.921 64.2857 112.773 64.3843 112.611 64.4516C112.448 64.5189 112.274 64.5536 112.098 64.5535C111.826 64.5531 111.561 64.6397 111.342 64.8006C111.123 64.9616 110.96 65.1884 110.879 65.4481C110.661 66.1492 110.379 66.8287 110.036 67.478C109.909 67.7192 109.863 67.9948 109.904 68.2644C109.945 68.534 110.071 68.7833 110.264 68.9758L110.266 68.9776C110.517 69.2288 110.658 69.5694 110.658 69.9246C110.658 70.2798 110.517 70.6205 110.266 70.8717L108.372 72.7657C108.121 73.0169 107.78 73.1579 107.425 73.1579C107.069 73.1579 106.729 73.0169 106.478 72.7657L106.476 72.7639C106.283 72.5708 106.034 72.4445 105.764 72.4035C105.495 72.3625 105.219 72.409 104.978 72.5363C104.329 72.879 103.649 73.1612 102.948 73.3793C102.688 73.4604 102.462 73.6225 102.301 73.8418C102.14 74.0611 102.053 74.3262 102.054 74.5982C102.054 74.7741 102.019 74.9482 101.952 75.1107C101.884 75.2732 101.786 75.4209 101.661 75.5452C101.537 75.6696 101.389 75.7683 101.227 75.8356C101.064 75.9029 100.89 75.9375 100.714 75.9375H98.0357C97.8598 75.9375 97.6857 75.9028 97.5232 75.8355C97.3607 75.7682 97.2131 75.6696 97.0887 75.5452C96.9643 75.4209 96.8657 75.2732 96.7984 75.1107C96.7311 74.9482 96.6964 74.7741 96.6965 74.5982C96.6969 74.3262 96.6103 74.0611 96.4494 73.8418C96.2885 73.6225 96.0616 73.4604 95.8019 73.3793C95.1008 73.1612 94.4213 72.879 93.772 72.5363C93.5308 72.4091 93.2552 72.3625 92.9856 72.4035C92.716 72.4445 92.4666 72.5708 92.2741 72.7639L92.2723 72.7657C92.148 72.8901 92.0003 72.9887 91.8378 73.056C91.6753 73.1233 91.5012 73.158 91.3253 73.158C91.1494 73.158 90.9753 73.1233 90.8128 73.056C90.6503 72.9887 90.5027 72.89 90.3783 72.7657L88.4843 70.8717C88.2331 70.6205 88.0921 70.2798 88.0921 69.9246C88.0921 69.5694 88.2332 69.2288 88.4844 68.9776L88.4861 68.9758C88.6792 68.7833 88.8054 68.534 88.8464 68.2644C88.8874 67.9948 88.8409 67.7192 88.7137 67.478C88.371 66.8287 88.0888 66.1492 87.8708 65.4481C87.7896 65.1884 87.6275 64.9616 87.4082 64.8006C87.1889 64.6397 86.9238 64.5531 86.6518 64.5536C86.4759 64.5536 86.3018 64.5189 86.1393 64.4516C85.9768 64.3843 85.8291 64.2857 85.7048 64.1613C85.5804 64.037 85.4818 63.8893 85.4145 63.7268C85.3471 63.5643 85.3125 63.3902 85.3125 63.2143V60.5357C85.3125 60.3598 85.3472 60.1857 85.4145 60.0232C85.4818 59.8607 85.5804 59.7131 85.7048 59.5887C85.8291 59.4643 85.9768 59.3657 86.1393 59.2984C86.3018 59.2311 86.4759 59.1964 86.6518 59.1964C86.9238 59.1969 87.1889 59.1103 87.4082 58.9494C87.6275 58.7884 87.7896 58.5616 87.8708 58.3019C88.0889 57.6008 88.3711 56.9213 88.7138 56.2719C88.8409 56.0307 88.8874 55.7551 88.8464 55.4855C88.8055 55.216 88.6792 54.9667 88.4861 54.7741L88.4843 54.7723C88.36 54.648 88.2613 54.5003 88.194 54.3379C88.1267 54.1754 88.0921 54.0012 88.092 53.8254C88.092 53.6495 88.1267 53.4753 88.194 53.3128C88.2613 53.1504 88.3599 53.0027 88.4843 52.8783L90.3783 50.9843C90.5027 50.8599 90.6503 50.7613 90.8128 50.694C90.9753 50.6266 91.1495 50.592 91.3253 50.592C91.5012 50.592 91.6754 50.6266 91.8379 50.694C92.0003 50.7613 92.148 50.8599 92.2723 50.9843L92.2742 50.9861C92.4667 51.1792 92.716 51.3055 92.9856 51.3465C93.2552 51.3875 93.5308 51.341 93.772 51.2137C94.4214 50.871 95.1009 50.5888 95.802 50.3707C96.0616 50.2896 96.2885 50.1275 96.4494 49.9082C96.6104 49.6889 96.697 49.4238 96.6965 49.1518C96.6965 48.7966 96.8376 48.456 97.0887 48.2048C97.3399 47.9536 97.6805 47.8125 98.0357 47.8125H100.714C100.89 47.8125 101.064 47.8471 101.227 47.9144C101.389 47.9817 101.537 48.0804 101.661 48.2048C101.786 48.3291 101.884 48.4768 101.952 48.6393C102.019 48.8018 102.054 48.9759 102.054 49.1518C102.053 49.4238 102.14 49.6889 102.301 49.9082C102.462 50.1275 102.688 50.2896 102.948 50.3707C103.649 50.5888 104.329 50.871 104.978 51.2137C105.219 51.3409 105.495 51.3875 105.764 51.3465C106.034 51.3055 106.283 51.1792 106.476 50.9861L106.478 50.9843C106.602 50.8599 106.75 50.7613 106.912 50.6939C107.075 50.6266 107.249 50.592 107.425 50.592C107.601 50.592 107.775 50.6266 107.937 50.6939C108.1 50.7613 108.247 50.8599 108.372 50.9843L110.266 52.8783C110.517 53.1295 110.658 53.4701 110.658 53.8253C110.658 54.1805 110.517 54.5212 110.266 54.7723L110.264 54.7741C110.071 54.9666 109.945 55.216 109.904 55.4855C109.863 55.7551 109.909 56.0307 110.036 56.2719C110.379 56.9213 110.661 57.6008 110.879 58.3019C110.96 58.5616 111.123 58.7884 111.342 58.9494C111.561 59.1103 111.826 59.1969 112.098 59.1964C112.453 59.1964 112.794 59.3375 113.045 59.5887C113.296 59.8399 113.437 60.1805 113.438 60.5357V63.2143Z" fill="url(#paint12_linear_157_1399)"/>
<path d="M99.375 54.375C97.8916 54.375 96.4416 54.8149 95.2082 55.639C93.9749 56.4631 93.0136 57.6344 92.4459 59.0049C91.8782 60.3753 91.7297 61.8833 92.0191 63.3382C92.3085 64.793 93.0228 66.1294 94.0717 67.1783C95.1206 68.2272 96.457 68.9415 97.9118 69.2309C99.3667 69.5203 100.875 69.3718 102.245 68.8041C103.616 68.2364 104.787 67.2751 105.611 66.0418C106.435 64.8084 106.875 63.3584 106.875 61.875C106.873 59.8866 106.082 57.9802 104.676 56.5742C103.27 55.1682 101.363 54.3773 99.375 54.375ZM99.375 65.625C98.6333 65.625 97.9083 65.4051 97.2916 64.993C96.6749 64.581 96.1943 63.9953 95.9105 63.3101C95.6266 62.6248 95.5524 61.8708 95.6971 61.1434C95.8418 60.416 96.1989 59.7478 96.7234 59.2234C97.2478 58.6989 97.916 58.3417 98.6434 58.1971C99.3708 58.0524 100.125 58.1266 100.81 58.4105C101.495 58.6943 102.081 59.1749 102.493 59.7916C102.905 60.4083 103.125 61.1333 103.125 61.875C103.125 62.8696 102.73 63.8234 102.027 64.5267C101.323 65.2299 100.37 65.625 99.375 65.625Z" fill="url(#paint13_linear_157_1399)"/>
</g>
<defs>
<linearGradient id="paint0_linear_157_1399" x1="60.0001" y1="9.375" x2="60.0001" y2="110.625" gradientUnits="userSpaceOnUse">
<stop stop-color="white"/>
<stop offset="1" stop-color="white" stop-opacity="0.5"/>
</linearGradient>
<linearGradient id="paint1_linear_157_1399" x1="27.1875" y1="16.875" x2="27.1875" y2="20.625" gradientUnits="userSpaceOnUse">
<stop stop-color="white"/>
<stop offset="1" stop-color="white" stop-opacity="0.5"/>
</linearGradient>
<linearGradient id="paint2_linear_157_1399" x1="34.6875" y1="16.875" x2="34.6875" y2="20.625" gradientUnits="userSpaceOnUse">
<stop stop-color="white"/>
<stop offset="1" stop-color="white" stop-opacity="0.5"/>
</linearGradient>
<linearGradient id="paint3_linear_157_1399" x1="36.5625" y1="39.375" x2="36.5625" y2="43.125" gradientUnits="userSpaceOnUse">
<stop stop-color="white"/>
<stop offset="1" stop-color="white" stop-opacity="0.5"/>
</linearGradient>
<linearGradient id="paint4_linear_157_1399" x1="60.4688" y1="46.875" x2="60.4688" y2="50.625" gradientUnits="userSpaceOnUse">
<stop stop-color="white"/>
<stop offset="1" stop-color="white" stop-opacity="0.5"/>
</linearGradient>
<linearGradient id="paint5_linear_157_1399" x1="66.5625" y1="61.875" x2="66.5625" y2="65.625" gradientUnits="userSpaceOnUse">
<stop stop-color="white"/>
<stop offset="1" stop-color="white" stop-opacity="0.5"/>
</linearGradient>
<linearGradient id="paint6_linear_157_1399" x1="60" y1="54.375" x2="60" y2="58.125" gradientUnits="userSpaceOnUse">
<stop stop-color="white"/>
<stop offset="1" stop-color="white" stop-opacity="0.5"/>
</linearGradient>
<linearGradient id="paint7_linear_157_1399" x1="43.125" y1="46.875" x2="43.125" y2="50.625" gradientUnits="userSpaceOnUse">
<stop stop-color="white"/>
<stop offset="1" stop-color="white" stop-opacity="0.5"/>
</linearGradient>
<linearGradient id="paint8_linear_157_1399" x1="41.25" y1="54.375" x2="41.25" y2="58.125" gradientUnits="userSpaceOnUse">
<stop stop-color="white"/>
<stop offset="1" stop-color="white" stop-opacity="0.5"/>
</linearGradient>
<linearGradient id="paint9_linear_157_1399" x1="45.9375" y1="61.875" x2="45.9375" y2="65.625" gradientUnits="userSpaceOnUse">
<stop stop-color="white"/>
<stop offset="1" stop-color="white" stop-opacity="0.5"/>
</linearGradient>
<linearGradient id="paint10_linear_157_1399" x1="60" y1="69.375" x2="60" y2="93.75" gradientUnits="userSpaceOnUse">
<stop stop-color="white"/>
<stop offset="1" stop-color="white" stop-opacity="0.5"/>
</linearGradient>
<linearGradient id="paint11_linear_157_1399" x1="100.312" y1="83.3042" x2="100.312" y2="93.7498" gradientUnits="userSpaceOnUse">
<stop stop-color="white"/>
<stop offset="1" stop-color="white" stop-opacity="0.5"/>
</linearGradient>
<linearGradient id="paint12_linear_157_1399" x1="99.375" y1="44.0625" x2="99.375" y2="79.6875" gradientUnits="userSpaceOnUse">
<stop stop-color="white"/>
<stop offset="1" stop-color="white" stop-opacity="0.5"/>
</linearGradient>
<linearGradient id="paint13_linear_157_1399" x1="99.375" y1="54.375" x2="99.375" y2="69.375" gradientUnits="userSpaceOnUse">
<stop stop-color="white"/>
<stop offset="1" stop-color="white" stop-opacity="0.5"/>
</linearGradient>
<clipPath id="clip0_157_1399">
<rect width="120" height="120" fill="white"/>
</clipPath>
</defs>
</svg>
