<svg preserveAspectRatio="none" width="100%" height="100%" overflow="visible" style="display: block;" viewBox="0 0 44 43.4272" fill="none" xmlns="http://www.w3.org/2000/svg">
<g id="Group">
<path id="Vector" d="M40.1256 35.6783H3.87443C1.73464 35.6783 0 37.413 0 39.5528C0 41.6925 1.73464 43.4272 3.87443 43.4272H40.1256C42.2654 43.4272 44 41.6925 44 39.5528C44 37.413 42.2654 35.6783 40.1256 35.6783Z" fill="var(--fill-0, #1C5AF9)"/>
<path id="Vector_2" d="M34.4318 23.7857H9.53435C7.39456 23.7857 5.65992 25.5203 5.65992 27.6601C5.65992 29.7999 7.39456 31.5345 9.53435 31.5345H34.4318C36.5715 31.5345 38.3062 29.7999 38.3062 27.6601C38.3062 25.5203 36.5715 23.7857 34.4318 23.7857Z" fill="var(--fill-0, #1C5AF9)"/>
<path id="Vector_3" d="M28.2328 11.8928H15.7673C13.6275 11.8928 11.8928 13.6275 11.8928 15.7672C11.8928 17.907 13.6275 19.6417 15.7673 19.6417H28.2328C30.3726 19.6417 32.1072 17.907 32.1072 15.7672C32.1072 13.6275 30.3726 11.8928 28.2328 11.8928Z" fill="var(--fill-0, #1C5AF9)"/>
<path id="Vector_4" d="M18.1259 3.87444C18.1259 6.01423 19.8606 7.74887 22.0003 7.74887C24.1401 7.74887 25.8748 6.01423 25.8748 3.87444C25.8748 1.73465 24.1401 1.43051e-05 22.0003 1.43051e-05C19.8606 1.43051e-05 18.1259 1.73465 18.1259 3.87444Z" fill="var(--fill-0, #1C5AF9)"/>
</g>
</svg>
