<svg preserveAspectRatio="none" width="100%" height="100%" overflow="visible" style="display: block;" viewBox="0 0 70.187 72.9277" fill="none" xmlns="http://www.w3.org/2000/svg">
<g id="Group" filter="url(#filter0_i_0_4)">
<path id="Vector" d="M51.7558 0.249076H18.4312C8.52101 0.249076 0.487228 8.28021 0.487228 18.1871V51.5008C0.487228 61.4078 8.52101 69.4389 18.4312 69.4389H51.7558C61.6659 69.4389 69.6997 61.4078 69.6997 51.5008V18.1871C69.6997 8.28021 61.6659 0.249076 51.7558 0.249076Z" fill="var(--fill-0, #4C4C4C)" fill-opacity="0.2"/>
<path id="Vector_2" d="M51.7558 0.42H18.4312C8.61544 0.42 0.658226 8.37461 0.658226 18.1871V51.5008C0.658226 61.3133 8.61544 69.268 18.4312 69.268H51.7558C61.5715 69.268 69.5287 61.3133 69.5287 51.5008V18.1871C69.5287 8.37461 61.5715 0.42 51.7558 0.42Z" stroke="var(--stroke-0, #1B1B1B)" stroke-width="0.84"/>
<g id="Group_2" filter="url(#filter1_di_0_4)">
<path id="Vector_3" d="M51.6385 4.94707H18.5484C11.169 4.94707 5.18675 10.9273 5.18675 18.3044V51.3836C5.18675 58.7606 11.169 64.7409 18.5484 64.7409H51.6385C59.018 64.7409 65.0002 58.7606 65.0002 51.3836V18.3044C65.0002 10.9273 59.018 4.94707 51.6385 4.94707Z" fill="var(--fill-0, black)"/>
<path id="Vector_4" d="M51.6385 5.07525H18.5484C11.2398 5.07525 5.315 10.9981 5.315 18.3044V51.3836C5.315 58.6898 11.2398 64.6127 18.5484 64.6127H51.6385C58.9471 64.6127 64.8719 58.6898 64.8719 51.3836V18.3044C64.8719 10.9981 58.9471 5.07525 51.6385 5.07525Z" stroke="url(#paint0_linear_0_4)" stroke-width="0.63"/>
<g id="fi_15484268" clip-path="url(#clip0_0_4)">
<path id="Vector_5" d="M55.0935 34.8438C55.0935 32.0225 51.8782 29.5773 46.8723 28.0768C48.1581 22.7427 47.6659 18.5284 45.1732 17.0606C44.6196 16.7586 44.01 16.5732 43.382 16.5158C42.754 16.4585 42.1209 16.5303 41.5217 16.7269C39.0716 17.5775 36.8653 19.0118 35.0935 20.9058C33.3217 19.0118 31.1154 17.5775 28.6653 16.7269C28.0661 16.5302 27.433 16.4584 26.805 16.5158C26.1769 16.5732 25.5673 16.7586 25.0137 17.0606C22.521 18.5284 22.0289 22.7427 23.3147 28.0768C18.3088 29.5773 15.0935 32.0225 15.0935 34.8438C15.0935 37.665 18.3088 40.1103 23.3147 41.6108C22.0289 46.9449 22.521 51.1592 25.0137 52.627C25.6519 52.9984 26.3791 53.1892 27.1174 53.1788C27.6406 53.1736 28.161 53.1003 28.6653 52.9607C31.1154 52.1101 33.3217 50.6758 35.0935 48.7818C36.8653 50.6758 39.0716 52.1101 41.5217 52.9607C42.026 53.1003 42.5463 53.1736 43.0696 53.1788C43.8079 53.1892 44.5351 52.9984 45.1732 52.627C47.6659 51.1592 48.1581 46.9449 46.8723 41.6108C51.8782 40.1103 55.0935 37.665 55.0935 34.8438ZM41.953 18.3366C42.314 18.2358 42.6866 18.1822 43.0614 18.1771C43.5043 18.1675 43.9415 18.2777 44.3269 18.4961C45.9845 19.4729 46.3751 22.9448 45.2534 27.6403C43.516 27.2282 41.7526 26.9344 39.9755 26.7609C38.8499 25.1188 37.6079 23.5595 36.2589 22.0953C37.8273 20.4029 39.7805 19.1136 41.953 18.3366ZM40.913 38.2894C40.3113 39.3527 39.6771 40.3721 39.025 41.3489C37.7722 41.4535 36.4595 41.5105 35.0935 41.5105C33.7274 41.5105 32.4147 41.4535 31.162 41.3489C30.5098 40.3721 29.8756 39.3527 29.274 38.2894C28.6127 37.1208 28.0212 35.9723 27.4996 34.8438C28.024 33.7181 28.6155 32.5696 29.274 31.3982C29.8756 30.3349 30.5098 29.3155 31.162 28.3387C32.4147 28.2341 33.7274 28.1771 35.0935 28.1771C36.4595 28.1771 37.7722 28.2341 39.025 28.3387C39.6771 29.3155 40.3114 30.3349 40.913 31.3982C41.5743 32.5668 42.1658 33.7153 42.6874 34.8438C42.163 35.9695 41.5715 37.118 40.913 38.2894ZM43.5621 36.8502C44.0686 38.0938 44.4832 39.2894 44.8211 40.4319C43.6145 40.7206 42.3939 40.9474 41.1641 41.1113C41.5725 40.4599 41.9749 39.796 42.3632 39.1096C42.7912 38.3533 43.1852 37.6002 43.5621 36.8502ZM35.0935 46.393C34.1297 45.3441 33.2242 44.2433 32.381 43.0953C33.2688 43.1436 34.169 43.1771 35.0935 43.1771C36.018 43.1771 36.9181 43.1436 37.806 43.0953C36.9627 44.2433 36.0572 45.3441 35.0935 46.393ZM29.0229 41.1114C27.7931 40.9475 26.5725 40.7207 25.3659 40.432C25.7038 39.2894 26.1184 38.0938 26.6248 36.8503C27.0017 37.6003 27.3957 38.3534 27.8238 39.1098C28.2121 39.7961 28.6145 40.4599 29.0229 41.1114ZM26.6248 32.8374C26.1184 31.5938 25.7038 30.3982 25.3659 29.2557C26.5725 28.9669 27.7931 28.7402 29.0229 28.5763C28.6145 29.2277 28.2121 29.8916 27.8238 30.5779C27.3957 31.3343 27.0018 32.0873 26.6248 32.8374ZM35.0935 23.2946C36.0572 24.3435 36.9628 25.4443 37.8061 26.5922C36.9182 26.544 36.018 26.5105 35.0935 26.5105C34.169 26.5105 33.2687 26.544 32.3809 26.5922C33.2242 25.4443 34.1297 24.3435 35.0935 23.2946ZM42.3632 30.5778C41.9748 29.8915 41.5725 29.2276 41.164 28.5762C42.3938 28.7401 43.6145 28.9669 44.8211 29.2556C44.4831 30.3982 44.0686 31.5938 43.5621 32.8373C43.1851 32.0873 42.7912 31.3343 42.3632 30.5778ZM25.8601 18.4961C26.2455 18.2778 26.6827 18.1675 27.1255 18.1771C27.5003 18.1822 27.8729 18.2358 28.2339 18.3366C30.4064 19.1136 32.3596 20.4029 33.9279 22.0953C32.5791 23.5595 31.3371 25.1188 30.2115 26.7609C28.4343 26.9344 26.671 27.2282 24.9336 27.6403C23.8118 22.9448 24.2025 19.4729 25.8601 18.4961ZM16.7601 34.8438C16.7601 32.9857 19.39 31.0076 23.7498 29.6919C24.2769 31.4498 24.9197 33.1708 25.674 34.8438C24.9197 36.5168 24.2769 38.2378 23.7498 39.9957C19.39 38.68 16.7601 36.7019 16.7601 34.8438ZM28.2339 51.351C27.8478 51.4852 27.4387 51.5402 27.0308 51.5128C26.623 51.4854 26.2248 51.3761 25.8601 51.1914C24.2025 50.2147 23.8119 46.7428 24.9336 42.0473C26.671 42.4594 28.4344 42.7532 30.2115 42.9267C31.3371 44.5688 32.5792 46.1281 33.9281 47.5923C32.3597 49.2847 30.4065 50.574 28.2339 51.351ZM44.3268 51.1914C43.9621 51.3761 43.564 51.4855 43.1561 51.5129C42.7483 51.5403 42.3391 51.4852 41.953 51.351C39.7804 50.574 37.8272 49.2847 36.2589 47.5923C37.6078 46.1281 38.8498 44.5688 39.9754 42.9267C41.7526 42.7532 43.5159 42.4594 45.2533 42.0473C46.3751 46.7428 45.9845 50.2147 44.3268 51.1914ZM46.4371 39.9957C45.91 38.2378 45.2672 36.5168 44.5129 34.8438C45.2672 33.1708 45.91 31.4498 46.4372 29.6919C50.7969 31.0076 53.4268 32.9857 53.4268 34.8438C53.4268 36.7019 50.7968 38.68 46.4371 39.9957Z" fill="var(--fill-0, #42A5F5)"/>
<path id="Vector_6" d="M35.0935 31.5105C34.4342 31.5105 33.7897 31.706 33.2416 32.0722C32.6934 32.4385 32.2662 32.9591 32.0139 33.5682C31.7616 34.1773 31.6956 34.8475 31.8242 35.4941C31.9528 36.1407 32.2703 36.7346 32.7365 37.2008C33.2026 37.667 33.7966 37.9845 34.4432 38.1131C35.0898 38.2417 35.76 38.1757 36.3691 37.9234C36.9782 37.6711 37.4988 37.2439 37.865 36.6957C38.2313 36.1475 38.4268 35.5031 38.4268 34.8438C38.4258 33.9601 38.0743 33.1128 37.4494 32.4879C36.8245 31.863 35.9772 31.5115 35.0935 31.5105ZM35.0935 36.5105C34.7638 36.5105 34.4416 36.4127 34.1675 36.2296C33.8934 36.0464 33.6798 35.7861 33.5537 35.4816C33.4275 35.1771 33.3945 34.8419 33.4588 34.5186C33.5231 34.1953 33.6819 33.8984 33.915 33.6653C34.1481 33.4322 34.445 33.2735 34.7683 33.2092C35.0916 33.1448 35.4267 33.1779 35.7313 33.304C36.0358 33.4301 36.2961 33.6438 36.4793 33.9178C36.6624 34.1919 36.7601 34.5142 36.7601 34.8438C36.7597 35.2857 36.584 35.7094 36.2715 36.0218C35.959 36.3343 35.5354 36.51 35.0935 36.5105Z" fill="var(--fill-0, #42A5F5)"/>
<path id="Vector_7" d="M55.0935 34.8438C55.0935 32.0225 51.8782 29.5773 46.8723 28.0768C48.1581 22.7427 47.6659 18.5284 45.1732 17.0606C44.6196 16.7586 44.01 16.5732 43.382 16.5158C42.754 16.4585 42.1209 16.5303 41.5217 16.7269C39.0716 17.5775 36.8653 19.0118 35.0935 20.9058C33.3217 19.0118 31.1154 17.5775 28.6653 16.7269C28.0661 16.5302 27.433 16.4584 26.805 16.5158C26.1769 16.5732 25.5673 16.7586 25.0137 17.0606C22.521 18.5284 22.0289 22.7427 23.3147 28.0768C18.3088 29.5773 15.0935 32.0225 15.0935 34.8438C15.0935 37.665 18.3088 40.1103 23.3147 41.6108C22.0289 46.9449 22.521 51.1592 25.0137 52.627C25.6519 52.9984 26.3791 53.1892 27.1174 53.1788C27.6406 53.1736 28.161 53.1003 28.6653 52.9607C31.1154 52.1101 33.3217 50.6758 35.0935 48.7818C36.8653 50.6758 39.0716 52.1101 41.5217 52.9607C42.026 53.1003 42.5463 53.1736 43.0696 53.1788C43.8079 53.1892 44.5351 52.9984 45.1732 52.627C47.6659 51.1592 48.1581 46.9449 46.8723 41.6108C51.8782 40.1103 55.0935 37.665 55.0935 34.8438ZM41.953 18.3366C42.314 18.2358 42.6866 18.1822 43.0614 18.1771C43.5043 18.1675 43.9415 18.2777 44.3269 18.4961C45.9845 19.4729 46.3751 22.9448 45.2534 27.6403C43.516 27.2282 41.7526 26.9344 39.9755 26.7609C38.8499 25.1188 37.6079 23.5595 36.2589 22.0953C37.8273 20.4029 39.7805 19.1136 41.953 18.3366ZM40.913 38.2894C40.3113 39.3527 39.6771 40.3721 39.025 41.3489C37.7722 41.4535 36.4595 41.5105 35.0935 41.5105C33.7274 41.5105 32.4147 41.4535 31.162 41.3489C30.5098 40.3721 29.8756 39.3527 29.274 38.2894C28.6127 37.1208 28.0212 35.9723 27.4996 34.8438C28.024 33.7181 28.6155 32.5696 29.274 31.3982C29.8756 30.3349 30.5098 29.3155 31.162 28.3387C32.4147 28.2341 33.7274 28.1771 35.0935 28.1771C36.4595 28.1771 37.7722 28.2341 39.025 28.3387C39.6771 29.3155 40.3114 30.3349 40.913 31.3982C41.5743 32.5668 42.1658 33.7153 42.6874 34.8438C42.163 35.9695 41.5715 37.118 40.913 38.2894ZM43.5621 36.8502C44.0686 38.0938 44.4832 39.2894 44.8211 40.4319C43.6145 40.7206 42.3939 40.9474 41.1641 41.1113C41.5725 40.4599 41.9749 39.796 42.3632 39.1096C42.7912 38.3533 43.1852 37.6002 43.5621 36.8502ZM35.0935 46.393C34.1297 45.3441 33.2242 44.2433 32.381 43.0953C33.2688 43.1436 34.169 43.1771 35.0935 43.1771C36.018 43.1771 36.9181 43.1436 37.806 43.0953C36.9627 44.2433 36.0572 45.3441 35.0935 46.393ZM29.0229 41.1114C27.7931 40.9475 26.5725 40.7207 25.3659 40.432C25.7038 39.2894 26.1184 38.0938 26.6248 36.8503C27.0017 37.6003 27.3957 38.3534 27.8238 39.1098C28.2121 39.7961 28.6145 40.4599 29.0229 41.1114ZM26.6248 32.8374C26.1184 31.5938 25.7038 30.3982 25.3659 29.2557C26.5725 28.9669 27.7931 28.7402 29.0229 28.5763C28.6145 29.2277 28.2121 29.8916 27.8238 30.5779C27.3957 31.3343 27.0018 32.0873 26.6248 32.8374ZM35.0935 23.2946C36.0572 24.3435 36.9628 25.4443 37.8061 26.5922C36.9182 26.544 36.018 26.5105 35.0935 26.5105C34.169 26.5105 33.2687 26.544 32.3809 26.5922C33.2242 25.4443 34.1297 24.3435 35.0935 23.2946ZM42.3632 30.5778C41.9748 29.8915 41.5725 29.2276 41.164 28.5762C42.3938 28.7401 43.6145 28.9669 44.8211 29.2556C44.4831 30.3982 44.0686 31.5938 43.5621 32.8373C43.1851 32.0873 42.7912 31.3343 42.3632 30.5778ZM25.8601 18.4961C26.2455 18.2778 26.6827 18.1675 27.1255 18.1771C27.5003 18.1822 27.8729 18.2358 28.2339 18.3366C30.4064 19.1136 32.3596 20.4029 33.9279 22.0953C32.5791 23.5595 31.3371 25.1188 30.2115 26.7609C28.4343 26.9344 26.671 27.2282 24.9336 27.6403C23.8118 22.9448 24.2025 19.4729 25.8601 18.4961ZM16.7601 34.8438C16.7601 32.9857 19.39 31.0076 23.7498 29.6919C24.2769 31.4498 24.9197 33.1708 25.674 34.8438C24.9197 36.5168 24.2769 38.2378 23.7498 39.9957C19.39 38.68 16.7601 36.7019 16.7601 34.8438ZM28.2339 51.351C27.8478 51.4852 27.4387 51.5402 27.0308 51.5128C26.623 51.4854 26.2248 51.3761 25.8601 51.1914C24.2025 50.2147 23.8119 46.7428 24.9336 42.0473C26.671 42.4594 28.4344 42.7532 30.2115 42.9267C31.3371 44.5688 32.5792 46.1281 33.9281 47.5923C32.3597 49.2847 30.4065 50.574 28.2339 51.351ZM44.3268 51.1914C43.9621 51.3761 43.564 51.4855 43.1561 51.5129C42.7483 51.5403 42.3391 51.4852 41.953 51.351C39.7804 50.574 37.8272 49.2847 36.2589 47.5923C37.6078 46.1281 38.8498 44.5688 39.9754 42.9267C41.7526 42.7532 43.5159 42.4594 45.2533 42.0473C46.3751 46.7428 45.9845 50.2147 44.3268 51.1914ZM46.4371 39.9957C45.91 38.2378 45.2672 36.5168 44.5129 34.8438C45.2672 33.1708 45.91 31.4498 46.4372 29.6919C50.7969 31.0076 53.4268 32.9857 53.4268 34.8438C53.4268 36.7019 50.7968 38.68 46.4371 39.9957Z" fill="url(#paint1_linear_0_4)"/>
<path id="Vector_8" d="M35.0935 31.5105C34.4342 31.5105 33.7897 31.706 33.2416 32.0722C32.6934 32.4385 32.2662 32.9591 32.0139 33.5682C31.7616 34.1773 31.6956 34.8475 31.8242 35.4941C31.9528 36.1407 32.2703 36.7346 32.7365 37.2008C33.2026 37.667 33.7966 37.9845 34.4432 38.1131C35.0898 38.2417 35.76 38.1757 36.3691 37.9234C36.9782 37.6711 37.4988 37.2439 37.865 36.6957C38.2313 36.1475 38.4268 35.5031 38.4268 34.8438C38.4258 33.9601 38.0743 33.1128 37.4494 32.4879C36.8245 31.863 35.9772 31.5115 35.0935 31.5105ZM35.0935 36.5105C34.7638 36.5105 34.4416 36.4127 34.1675 36.2296C33.8934 36.0464 33.6798 35.7861 33.5537 35.4816C33.4275 35.1771 33.3945 34.8419 33.4588 34.5186C33.5231 34.1953 33.6819 33.8984 33.915 33.6653C34.1481 33.4322 34.445 33.2735 34.7683 33.2092C35.0916 33.1448 35.4267 33.1779 35.7313 33.304C36.0358 33.4301 36.2961 33.6438 36.4793 33.9178C36.6624 34.1919 36.7601 34.5142 36.7601 34.8438C36.7597 35.2857 36.584 35.7094 36.2715 36.0218C35.959 36.3343 35.5354 36.51 35.0935 36.5105Z" fill="url(#paint2_linear_0_4)"/>
</g>
</g>
</g>
<defs>
<filter id="filter0_i_0_4" x="0.238226" y="0" width="69.7105" height="69.688" filterUnits="userSpaceOnUse" color-interpolation-filters="sRGB">
<feFlood flood-opacity="0" result="BackgroundImageFix"/>
<feBlend mode="normal" in="SourceGraphic" in2="BackgroundImageFix" result="shape"/>
<feColorMatrix in="SourceAlpha" type="matrix" values="0 0 0 0 0 0 0 0 0 0 0 0 0 0 0 0 0 0 127 0" result="hardAlpha"/>
<feOffset/>
<feGaussianBlur stdDeviation="10.494"/>
<feComposite in2="hardAlpha" operator="arithmetic" k2="-1" k3="1"/>
<feColorMatrix type="matrix" values="0 0 0 0 0 0 0 0 0 0 0 0 0 0 0 0 0 0 0.25 0"/>
<feBlend mode="normal" in2="shape" result="effect1_innerShadow_0_4"/>
</filter>
<filter id="filter1_di_0_4" x="0" y="2.76025" width="70.187" height="70.1675" filterUnits="userSpaceOnUse" color-interpolation-filters="sRGB">
<feFlood flood-opacity="0" result="BackgroundImageFix"/>
<feColorMatrix in="SourceAlpha" type="matrix" values="0 0 0 0 0 0 0 0 0 0 0 0 0 0 0 0 0 0 127 0" result="hardAlpha"/>
<feOffset dy="3"/>
<feGaussianBlur stdDeviation="2.5"/>
<feComposite in2="hardAlpha" operator="out"/>
<feColorMatrix type="matrix" values="0 0 0 0 0.258824 0 0 0 0 0.647059 0 0 0 0 0.960784 0 0 0 0.4 0"/>
<feBlend mode="normal" in2="BackgroundImageFix" result="effect1_dropShadow_0_4"/>
<feBlend mode="normal" in="SourceGraphic" in2="effect1_dropShadow_0_4" result="shape"/>
<feColorMatrix in="SourceAlpha" type="matrix" values="0 0 0 0 0 0 0 0 0 0 0 0 0 0 0 0 0 0 127 0" result="hardAlpha"/>
<feOffset/>
<feGaussianBlur stdDeviation="2.099"/>
<feComposite in2="hardAlpha" operator="arithmetic" k2="-1" k3="1"/>
<feColorMatrix type="matrix" values="0 0 0 0 0 0 0 0 0 0 0 0 0 0 0 0 0 0 0.6 0"/>
<feBlend mode="normal" in2="shape" result="effect2_innerShadow_0_4"/>
</filter>
<linearGradient id="paint0_linear_0_4" x1="35.0935" y1="4.94704" x2="35.0935" y2="64.7409" gradientUnits="userSpaceOnUse">
<stop stop-color="#2C2B2B"/>
<stop offset="0.5"/>
<stop offset="1" stop-color="#373434"/>
</linearGradient>
<linearGradient id="paint1_linear_0_4" x1="18.3439" y1="27.0332" x2="51.8432" y2="42.6541" gradientUnits="userSpaceOnUse">
<stop stop-color="white" stop-opacity="0.2"/>
<stop offset="1" stop-color="white" stop-opacity="0"/>
</linearGradient>
<linearGradient id="paint2_linear_0_4" x1="18.3439" y1="27.0332" x2="51.8432" y2="42.6541" gradientUnits="userSpaceOnUse">
<stop stop-color="white" stop-opacity="0.2"/>
<stop offset="1" stop-color="white" stop-opacity="0"/>
</linearGradient>
<clipPath id="clip0_0_4">
<rect width="40" height="40" fill="white" transform="translate(15.0935 14.8438)"/>
</clipPath>
</defs>
</svg>
