<svg preserveAspectRatio="none" width="100%" height="100%" overflow="visible" style="display: block;" viewBox="0 0 70.1869 72.9277" fill="none" xmlns="http://www.w3.org/2000/svg">
<g id="Group" filter="url(#filter0_i_0_4)">
<path id="Vector" d="M51.7549 0.249061H18.4303C8.52016 0.249061 0.486392 8.28021 0.486392 18.1871V51.5008C0.486392 61.4077 8.52016 69.4389 18.4303 69.4389H51.7549C61.6651 69.4389 69.6989 61.4077 69.6989 51.5008V18.1871C69.6989 8.28021 61.6651 0.249061 51.7549 0.249061Z" fill="var(--fill-0, #4C4C4C)" fill-opacity="0.2"/>
<path id="Vector_2" d="M51.7549 0.42H18.4303C8.61457 0.42 0.657331 8.37462 0.657331 18.1871V51.5008C0.657331 61.3133 8.61457 69.2679 18.4303 69.2679H51.7549C61.5706 69.2679 69.5279 61.3133 69.5279 51.5008V18.1871C69.5279 8.37462 61.5706 0.42 51.7549 0.42Z" stroke="var(--stroke-0, #1B1B1B)" stroke-width="0.84"/>
<g id="Group_2" filter="url(#filter1_di_0_4)">
<path id="Vector_3" d="M51.6364 4.94705H18.5463C11.1669 4.94705 5.18469 10.9273 5.18469 18.3044V51.3836C5.18469 58.7606 11.1669 64.7409 18.5463 64.7409H51.6364C59.0159 64.7409 64.9981 58.7606 64.9981 51.3836V18.3044C64.9981 10.9273 59.0159 4.94705 51.6364 4.94705Z" fill="var(--fill-0, black)"/>
<path id="Vector_4" d="M51.6384 5.07526H18.5484C11.2398 5.07526 5.315 10.9981 5.315 18.3044V51.3836C5.315 58.6898 11.2398 64.6127 18.5484 64.6127H51.6384C58.947 64.6127 64.8719 58.6898 64.8719 51.3836V18.3044C64.8719 10.9981 58.947 5.07526 51.6384 5.07526Z" stroke="url(#paint0_linear_0_4)" stroke-width="0.63"/>
<g id="Group_3">
<path id="Vector_5" d="M56.8473 31.6981C56.7391 31.6091 55.7646 30.8799 53.6715 30.8799C53.1302 30.8799 52.5707 30.9333 52.0295 31.0222C51.6325 28.3009 49.3408 26.9847 49.2506 26.9136L48.6912 26.5934L48.3303 27.1093C47.8792 27.8029 47.5364 28.5855 47.3379 29.3859C46.959 30.9333 47.1935 32.3918 47.9875 33.6368C47.0311 34.1704 45.4793 34.2949 45.1545 34.3127H19.5313C18.8636 34.3127 18.3223 34.8463 18.3223 35.5044C18.2863 37.7099 18.6651 39.9154 19.4411 41.9963C20.3252 44.273 21.6425 45.9627 23.3387 46.9943C25.2514 48.1504 28.3731 48.8085 31.8918 48.8085C33.4797 48.8085 35.0676 48.6663 36.6375 48.3816C38.8208 47.9903 40.914 47.2433 42.8448 46.1584C44.4271 45.2542 45.8529 44.1011 47.0672 42.7434C49.1062 40.4845 50.3152 37.9589 51.1993 35.7178H51.5602C53.7797 35.7178 55.1511 34.8463 55.9089 34.0992C56.4142 33.6368 56.7931 33.0677 57.0638 32.4274L57.2262 31.9649L56.8473 31.6981Z" fill="var(--fill-0, #1E5CF9)"/>
<path id="Vector_6" d="M21.9132 33.5834H25.3416C25.5041 33.5834 25.6484 33.4589 25.6484 33.2811V30.2574C25.6484 30.0973 25.5221 29.9551 25.3416 29.9551H21.9132C21.7508 29.9551 21.6065 30.0795 21.6065 30.2574V33.2811C21.6245 33.4589 21.7508 33.5835 21.9132 33.5835V33.5834ZM26.6408 33.5834H30.0693C30.2317 33.5834 30.3761 33.4589 30.3761 33.2811V30.2574C30.3761 30.0973 30.2497 29.9551 30.0693 29.9551H26.6408C26.4784 29.9551 26.334 30.0795 26.334 30.2574V33.2811C26.3521 33.4589 26.4784 33.5835 26.6408 33.5835M31.4586 33.5835H34.8871C35.0495 33.5835 35.1939 33.4589 35.1939 33.2811V30.2574C35.1939 30.0973 35.0675 29.9551 34.8871 29.9551H31.4586C31.2962 29.9551 31.1519 30.0795 31.1519 30.2574V33.2811C31.1519 33.4589 31.2782 33.5835 31.4586 33.5835ZM36.2043 33.5835H39.6328C39.7952 33.5835 39.9396 33.4589 39.9396 33.2811V30.2574C39.9396 30.0973 39.8132 29.9551 39.6328 29.9551H36.2043C36.042 29.9551 35.8976 30.0795 35.8976 30.2574V33.2811C35.8976 33.4589 36.042 33.5835 36.2043 33.5835ZM26.6408 29.2614H30.0693C30.2316 29.2614 30.376 29.1192 30.376 28.9591V25.9354C30.376 25.7753 30.2497 25.633 30.0693 25.633H26.6408C26.4784 25.633 26.334 25.7575 26.334 25.9354V28.9591C26.3521 29.1191 26.4785 29.2614 26.6408 29.2614ZM31.4586 29.2614H34.8871C35.0495 29.2614 35.1939 29.1192 35.1939 28.9591V25.9354C35.1939 25.7753 35.0675 25.633 34.8871 25.633H31.4586C31.2962 25.633 31.1519 25.7575 31.1519 25.9354V28.9591C31.1519 29.1191 31.2782 29.2614 31.4586 29.2614ZM36.2043 29.2614H39.6328C39.7952 29.2614 39.9396 29.1192 39.9396 28.9591V25.9354C39.9396 25.7753 39.7952 25.633 39.6328 25.633H36.2043C36.042 25.633 35.8976 25.7575 35.8976 25.9354V28.9591C35.8976 29.1191 36.042 29.2614 36.2043 29.2614ZM36.2043 24.9216H39.6328C39.7952 24.9216 39.9396 24.797 39.9396 24.6192V21.5955C39.9396 21.4354 39.7952 21.2931 39.6328 21.2931H36.2043C36.042 21.2931 35.8976 21.4176 35.8976 21.5955V24.6192C35.8976 24.7792 36.042 24.9216 36.2043 24.9216ZM40.9861 33.5835H44.4146C44.577 33.5835 44.7213 33.4589 44.7213 33.2811V30.2574C44.7213 30.0973 44.5951 29.9551 44.4146 29.9551H40.9862C40.8237 29.9551 40.6794 30.0795 40.6794 30.2574V33.2811C40.6974 33.4589 40.8238 33.5835 40.9862 33.5835" fill="var(--fill-0, #1E5CF9)"/>
</g>
</g>
</g>
<defs>
<filter id="filter0_i_0_4" x="0.237331" y="0" width="69.7106" height="69.6879" filterUnits="userSpaceOnUse" color-interpolation-filters="sRGB">
<feFlood flood-opacity="0" result="BackgroundImageFix"/>
<feBlend mode="normal" in="SourceGraphic" in2="BackgroundImageFix" result="shape"/>
<feColorMatrix in="SourceAlpha" type="matrix" values="0 0 0 0 0 0 0 0 0 0 0 0 0 0 0 0 0 0 127 0" result="hardAlpha"/>
<feOffset/>
<feGaussianBlur stdDeviation="10.494"/>
<feComposite in2="hardAlpha" operator="arithmetic" k2="-1" k3="1"/>
<feColorMatrix type="matrix" values="0 0 0 0 0 0 0 0 0 0 0 0 0 0 0 0 0 0 0.25 0"/>
<feBlend mode="normal" in2="shape" result="effect1_innerShadow_0_4"/>
</filter>
<filter id="filter1_di_0_4" x="0" y="2.76026" width="70.1869" height="70.1674" filterUnits="userSpaceOnUse" color-interpolation-filters="sRGB">
<feFlood flood-opacity="0" result="BackgroundImageFix"/>
<feColorMatrix in="SourceAlpha" type="matrix" values="0 0 0 0 0 0 0 0 0 0 0 0 0 0 0 0 0 0 127 0" result="hardAlpha"/>
<feOffset dy="3"/>
<feGaussianBlur stdDeviation="2.5"/>
<feComposite in2="hardAlpha" operator="out"/>
<feColorMatrix type="matrix" values="0 0 0 0 0.117647 0 0 0 0 0.360784 0 0 0 0 0.972549 0 0 0 0.4 0"/>
<feBlend mode="normal" in2="BackgroundImageFix" result="effect1_dropShadow_0_4"/>
<feBlend mode="normal" in="SourceGraphic" in2="effect1_dropShadow_0_4" result="shape"/>
<feColorMatrix in="SourceAlpha" type="matrix" values="0 0 0 0 0 0 0 0 0 0 0 0 0 0 0 0 0 0 127 0" result="hardAlpha"/>
<feOffset/>
<feGaussianBlur stdDeviation="2.099"/>
<feComposite in2="hardAlpha" operator="arithmetic" k2="-1" k3="1"/>
<feColorMatrix type="matrix" values="0 0 0 0 0 0 0 0 0 0 0 0 0 0 0 0 0 0 0.6 0"/>
<feBlend mode="normal" in2="shape" result="effect2_innerShadow_0_4"/>
</filter>
<linearGradient id="paint0_linear_0_4" x1="35.0926" y1="4.94705" x2="35.0926" y2="64.7409" gradientUnits="userSpaceOnUse">
<stop stop-color="#2C2B2B"/>
<stop offset="0.5"/>
<stop offset="1" stop-color="#373434"/>
</linearGradient>
</defs>
</svg>
