<svg width="120" height="120" viewBox="0 0 120 120" fill="none" xmlns="http://www.w3.org/2000/svg">
<path d="M101.25 22.5H95.625V11.25C95.6221 8.76449 94.6334 6.38163 92.8759 4.62411C91.1184 2.86659 88.7355 1.87793 86.25 1.875H33.75C31.2645 1.87793 28.8816 2.86659 27.1241 4.62411C25.3666 6.38163 24.3779 8.76449 24.375 11.25V22.5H18.75C18.2527 22.5 17.7758 22.6975 17.4242 23.0492C17.0725 23.4008 16.875 23.8777 16.875 24.375V82.5C16.875 82.9973 17.0725 83.4742 17.4242 83.8258C17.7758 84.1775 18.2527 84.375 18.75 84.375H24.375V108.75C24.3779 111.236 25.3666 113.618 27.1241 115.376C28.8816 117.133 31.2645 118.122 33.75 118.125H86.25C88.7355 118.122 91.1184 117.133 92.8759 115.376C94.6334 113.618 95.6221 111.236 95.625 108.75V84.375H101.25C101.747 84.375 102.224 84.1775 102.576 83.8258C102.927 83.4742 103.125 82.9973 103.125 82.5V24.375C103.125 23.8777 102.927 23.4008 102.576 23.0492C102.224 22.6975 101.747 22.5 101.25 22.5ZM28.125 11.25C28.1266 9.75866 28.7198 8.32887 29.7743 7.27433C30.8289 6.2198 32.2587 5.62664 33.75 5.625H86.25C87.7413 5.62664 89.1711 6.2198 90.2257 7.27433C91.2802 8.32887 91.8734 9.75866 91.875 11.25V22.5H28.125V11.25ZM20.625 26.25H99.375V37.5H20.625V26.25ZM91.875 108.75C91.8734 110.241 91.2802 111.671 90.2257 112.726C89.1711 113.78 87.7413 114.373 86.25 114.375H33.75C32.2587 114.373 30.8289 113.78 29.7743 112.726C28.7198 111.671 28.1266 110.241 28.125 108.75V99.375H91.875V108.75ZM91.875 95.625H28.125V84.375H91.875V95.625ZM99.375 80.625H20.625V41.25H99.375V80.625Z" fill="url(#paint0_linear_157_1210)"/>
<path d="M93.75 33.75C94.7855 33.75 95.625 32.9105 95.625 31.875C95.625 30.8395 94.7855 30 93.75 30C92.7145 30 91.875 30.8395 91.875 31.875C91.875 32.9105 92.7145 33.75 93.75 33.75Z" fill="url(#paint1_linear_157_1210)"/>
<path d="M86.25 33.75C87.2855 33.75 88.125 32.9105 88.125 31.875C88.125 30.8395 87.2855 30 86.25 30C85.2145 30 84.375 30.8395 84.375 31.875C84.375 32.9105 85.2145 33.75 86.25 33.75Z" fill="url(#paint2_linear_157_1210)"/>
<path d="M78.75 33.75C79.7855 33.75 80.625 32.9105 80.625 31.875C80.625 30.8395 79.7855 30 78.75 30C77.7145 30 76.875 30.8395 76.875 31.875C76.875 32.9105 77.7145 33.75 78.75 33.75Z" fill="url(#paint3_linear_157_1210)"/>
<path d="M60 112.5C61.1125 112.5 62.2001 112.17 63.1251 111.552C64.0501 110.934 64.7711 110.055 65.1968 109.028C65.6226 108 65.734 106.869 65.5169 105.778C65.2999 104.686 64.7641 103.684 63.9775 102.898C63.1908 102.111 62.1885 101.575 61.0974 101.358C60.0062 101.141 58.8752 101.252 57.8474 101.678C56.8196 102.104 55.9411 102.825 55.323 103.75C54.7049 104.675 54.375 105.762 54.375 106.875C54.3766 108.366 54.9698 109.796 56.0243 110.851C57.0789 111.905 58.5087 112.498 60 112.5ZM60 105C60.3708 105 60.7333 105.11 61.0417 105.316C61.35 105.522 61.5904 105.815 61.7323 106.157C61.8742 106.5 61.9113 106.877 61.839 107.241C61.7666 107.605 61.588 107.939 61.3258 108.201C61.0636 108.463 60.7295 108.642 60.3658 108.714C60.0021 108.786 59.6251 108.749 59.2825 108.607C58.9399 108.465 58.647 108.225 58.441 107.917C58.235 107.608 58.125 107.246 58.125 106.875C58.1253 106.378 58.3229 105.901 58.6745 105.55C59.0261 105.198 59.5028 105 60 105Z" fill="url(#paint4_linear_157_1210)"/>
<path d="M75 108.75H82.5C82.9973 108.75 83.4742 108.552 83.8258 108.201C84.1775 107.849 84.375 107.372 84.375 106.875C84.375 106.378 84.1775 105.901 83.8258 105.549C83.4742 105.198 82.9973 105 82.5 105H75C74.5027 105 74.0258 105.198 73.6742 105.549C73.3225 105.901 73.125 106.378 73.125 106.875C73.125 107.372 73.3225 107.849 73.6742 108.201C74.0258 108.552 74.5027 108.75 75 108.75Z" fill="url(#paint5_linear_157_1210)"/>
<path d="M37.5 108.75H45C45.4973 108.75 45.9742 108.552 46.3258 108.201C46.6775 107.849 46.875 107.372 46.875 106.875C46.875 106.378 46.6775 105.901 46.3258 105.549C45.9742 105.198 45.4973 105 45 105H37.5C37.0027 105 36.5258 105.198 36.1742 105.549C35.8225 105.901 35.625 106.378 35.625 106.875C35.625 107.372 35.8225 107.849 36.1742 108.201C36.5258 108.552 37.0027 108.75 37.5 108.75Z" fill="url(#paint6_linear_157_1210)"/>
<path d="M67.5 9.375H52.5C52.0027 9.375 51.5258 9.57254 51.1742 9.92418C50.8225 10.2758 50.625 10.7527 50.625 11.25C50.625 11.7473 50.8225 12.2242 51.1742 12.5758C51.5258 12.9275 52.0027 13.125 52.5 13.125H67.5C67.9973 13.125 68.4742 12.9275 68.8258 12.5758C69.1775 12.2242 69.375 11.7473 69.375 11.25C69.375 10.7527 69.1775 10.2758 68.8258 9.92418C68.4742 9.57254 67.9973 9.375 67.5 9.375Z" fill="url(#paint7_linear_157_1210)"/>
<path d="M75 13.125C76.0355 13.125 76.875 12.2855 76.875 11.25C76.875 10.2145 76.0355 9.375 75 9.375C73.9645 9.375 73.125 10.2145 73.125 11.25C73.125 12.2855 73.9645 13.125 75 13.125Z" fill="url(#paint8_linear_157_1210)"/>
<path d="M44.6118 70.7005C44.9655 71.0421 45.4391 71.2311 45.9307 71.2268C46.4223 71.2225 46.8926 71.0253 47.2403 70.6777C47.5879 70.3301 47.7851 69.8598 47.7894 69.3682C47.7936 68.8765 47.6046 68.4029 47.2631 68.0493L39.2139 59.9999L47.2631 51.9505C47.6046 51.5969 47.7936 51.1233 47.7894 50.6317C47.7851 50.14 47.5879 49.6698 47.2403 49.3221C46.8926 48.9745 46.4223 48.7773 45.9307 48.773C45.4391 48.7687 44.9655 48.9577 44.6118 49.2993L35.2368 58.6743C34.8853 59.0259 34.6879 59.5027 34.6879 59.9999C34.6879 60.4971 34.8853 60.9739 35.2368 61.3255L44.6118 70.7005Z" fill="url(#paint9_linear_157_1210)"/>
<path d="M72.7368 70.7005C73.0885 71.052 73.5653 71.2495 74.0625 71.2495C74.5596 71.2495 75.0365 71.052 75.3881 70.7005L84.7631 61.3255C85.1146 60.9739 85.3121 60.4971 85.3121 59.9999C85.3121 59.5027 85.1146 59.0259 84.7631 58.6743L75.3881 49.2993C75.0345 48.9577 74.5608 48.7687 74.0692 48.773C73.5776 48.7773 73.1073 48.9745 72.7597 49.3221C72.412 49.6698 72.2148 50.14 72.2106 50.6317C72.2063 51.1233 72.3953 51.5969 72.7368 51.9505L80.786 59.9999L72.7368 68.0493C72.3853 68.4009 72.1879 68.8777 72.1879 69.3749C72.1879 69.8721 72.3853 70.3489 72.7368 70.7005Z" fill="url(#paint10_linear_157_1210)"/>
<path d="M53.6363 74.8489C53.8627 74.946 54.106 74.9975 54.3522 75.0005C54.5985 75.0036 54.843 74.958 55.0717 74.8665C55.3004 74.7751 55.5088 74.6394 55.6851 74.4673C55.8613 74.2953 56.002 74.0902 56.0989 73.8638L67.3489 47.6138C67.5448 47.1566 67.5511 46.6403 67.3664 46.1784C67.1816 45.7166 66.821 45.3471 66.3638 45.1511C65.9066 44.9552 65.3903 44.9489 64.9285 45.1337C64.4666 45.3184 64.0971 45.6791 63.9012 46.1363L52.6512 72.3863C52.5541 72.6126 52.5026 72.8559 52.4995 73.1022C52.4965 73.3485 52.542 73.593 52.6335 73.8217C52.725 74.0504 52.8606 74.2588 53.0327 74.4351C53.2048 74.6113 53.4099 74.7519 53.6363 74.8489Z" fill="url(#paint11_linear_157_1210)"/>
<defs>
<linearGradient id="paint0_linear_157_1210" x1="60" y1="1.875" x2="60" y2="118.125" gradientUnits="userSpaceOnUse">
<stop stop-color="white"/>
<stop offset="1" stop-color="white" stop-opacity="0.5"/>
</linearGradient>
<linearGradient id="paint1_linear_157_1210" x1="93.75" y1="30" x2="93.75" y2="33.75" gradientUnits="userSpaceOnUse">
<stop stop-color="white"/>
<stop offset="1" stop-color="white" stop-opacity="0.5"/>
</linearGradient>
<linearGradient id="paint2_linear_157_1210" x1="86.25" y1="30" x2="86.25" y2="33.75" gradientUnits="userSpaceOnUse">
<stop stop-color="white"/>
<stop offset="1" stop-color="white" stop-opacity="0.5"/>
</linearGradient>
<linearGradient id="paint3_linear_157_1210" x1="78.75" y1="30" x2="78.75" y2="33.75" gradientUnits="userSpaceOnUse">
<stop stop-color="white"/>
<stop offset="1" stop-color="white" stop-opacity="0.5"/>
</linearGradient>
<linearGradient id="paint4_linear_157_1210" x1="60" y1="101.25" x2="60" y2="112.5" gradientUnits="userSpaceOnUse">
<stop stop-color="white"/>
<stop offset="1" stop-color="white" stop-opacity="0.5"/>
</linearGradient>
<linearGradient id="paint5_linear_157_1210" x1="78.75" y1="105" x2="78.75" y2="108.75" gradientUnits="userSpaceOnUse">
<stop stop-color="white"/>
<stop offset="1" stop-color="white" stop-opacity="0.5"/>
</linearGradient>
<linearGradient id="paint6_linear_157_1210" x1="41.25" y1="105" x2="41.25" y2="108.75" gradientUnits="userSpaceOnUse">
<stop stop-color="white"/>
<stop offset="1" stop-color="white" stop-opacity="0.5"/>
</linearGradient>
<linearGradient id="paint7_linear_157_1210" x1="60" y1="9.375" x2="60" y2="13.125" gradientUnits="userSpaceOnUse">
<stop stop-color="white"/>
<stop offset="1" stop-color="white" stop-opacity="0.5"/>
</linearGradient>
<linearGradient id="paint8_linear_157_1210" x1="75" y1="9.375" x2="75" y2="13.125" gradientUnits="userSpaceOnUse">
<stop stop-color="white"/>
<stop offset="1" stop-color="white" stop-opacity="0.5"/>
</linearGradient>
<linearGradient id="paint9_linear_157_1210" x1="41.2386" y1="48.7729" x2="41.2386" y2="71.2269" gradientUnits="userSpaceOnUse">
<stop stop-color="white"/>
<stop offset="1" stop-color="white" stop-opacity="0.5"/>
</linearGradient>
<linearGradient id="paint10_linear_157_1210" x1="78.75" y1="48.7729" x2="78.75" y2="71.2495" gradientUnits="userSpaceOnUse">
<stop stop-color="white"/>
<stop offset="1" stop-color="white" stop-opacity="0.5"/>
</linearGradient>
<linearGradient id="paint11_linear_157_1210" x1="60" y1="44.9995" x2="60" y2="75.0007" gradientUnits="userSpaceOnUse">
<stop stop-color="white"/>
<stop offset="1" stop-color="white" stop-opacity="0.5"/>
</linearGradient>
</defs>
</svg>
