<svg preserveAspectRatio="none" width="100%" height="100%" overflow="visible" style="display: block;" viewBox="0 0 190 47" fill="none" xmlns="http://www.w3.org/2000/svg">
<g id="logo 1" clip-path="url(#clip0_0_22)">
<path id="Vector" d="M36.4921 40.7839C32.5714 43.8161 27.746 45.4839 22.7698 45.4839C17.6429 45.4839 12.8175 43.6645 9.04762 40.7839H36.4921ZM42.373 34.1129C41.619 35.4774 40.7143 36.8419 39.6587 37.9032C39.6587 37.9032 39.6587 37.9032 39.5079 37.9032H5.88095C5.88095 37.9032 5.88095 37.9032 5.73016 37.9032C4.6746 36.6903 3.76984 35.4774 3.01587 34.1129H42.2222M44.9365 27.2903C44.6349 28.6548 44.3333 29.8677 43.7302 31.2323C43.7302 31.2323 43.7302 31.2323 43.5794 31.2323H1.80952C1.80952 31.2323 1.80952 31.2323 1.65873 31.2323C1.20635 30.0194 0.753968 28.6548 0.452381 27.2903H44.7857M22.4683 0C35.1349 0 45.2381 10.1581 45.2381 22.7419C45.2381 23.3484 45.2381 23.8032 45.2381 24.4097H0C0 23.8032 0 23.3484 0 22.7419C0 10.4613 10.254 0 22.4683 0Z" fill="var(--fill-0, white)"/>
<path id="Vector_2" d="M58.9603 8.94516H71.3254C77.2063 8.94516 80.0714 11.6742 80.0714 16.071C80.0714 20.4677 78.5635 21.0742 76.3016 21.9839C79.0159 22.7419 81.127 24.8645 81.127 28.3516C81.127 33.3548 77.6587 36.2355 71.3254 36.2355H58.9603V8.94516ZM69.9683 13.4935H64.5397V20.3161H69.9683C72.9841 20.3161 74.4921 19.4065 74.4921 16.9806C74.4921 14.5548 72.9841 13.6452 69.9683 13.6452M70.7222 24.5613H64.3889V31.6871H70.7222C73.7381 31.6871 75.3968 30.7774 75.3968 28.0484C75.3968 25.3194 73.7381 24.4097 70.7222 24.4097M95.9048 36.2355V33.2032C94.5476 35.4774 91.8333 36.6903 88.8175 36.6903C85.8016 36.6903 82.1825 34.7194 82.1825 30.929C82.1825 27.1387 84.746 25.6226 88.5159 24.8645L95.6032 23.6516V23.1968C95.6032 21.0742 94.0952 20.1645 91.8333 20.1645C89.5714 20.1645 88.3651 21.2258 88.2143 22.8935H82.9365C83.0873 18.8 86.4048 16.5258 91.8333 16.5258C97.2619 16.5258 100.73 18.9516 100.73 24.1065V36.2355H95.9048ZM95.6032 28.2V27.2903L90.3254 28.2C88.2143 28.5032 87.3095 29.1097 87.3095 30.6258C87.3095 32.1419 88.5159 32.7484 90.3254 32.7484C92.1349 32.7484 95.6032 31.0806 95.6032 28.2ZM111.286 16.5258C115.96 16.5258 119.881 18.4968 120.032 22.7419H114.905C114.905 21.3774 113.548 20.1645 111.286 20.1645C109.024 20.1645 108.119 20.9226 108.119 22.1355C108.119 23.3484 109.024 23.6516 110.683 23.9548L115.056 24.8645C118.524 25.471 120.484 27.2903 120.484 30.4742C120.484 33.6581 117.468 36.6903 111.738 36.6903C106.008 36.6903 102.841 34.1129 102.54 30.0194H107.968C107.968 31.6871 109.325 33.0516 111.889 33.0516C114.452 33.0516 115.357 32.1419 115.357 31.0806C115.357 30.0194 114.452 29.4129 112.794 29.1097L108.421 28.3516C104.952 27.7452 102.992 25.9258 102.992 22.7419C102.992 19.5581 106.31 16.6774 111.286 16.6774V16.5258ZM131.04 16.5258C137.222 16.5258 140.841 20.1645 140.841 26.5323V28.2H126.214C126.214 30.6258 128.175 32.7484 130.889 32.7484C133.603 32.7484 134.659 31.6871 135.111 30.0194H140.54C139.635 34.2645 135.865 36.6903 130.889 36.6903C125.913 36.6903 120.937 33.0516 120.937 26.6839C120.937 20.3161 124.857 16.6774 131.04 16.6774V16.5258ZM135.563 24.5613C135.563 22.1355 133.452 20.3161 131.19 20.3161C128.929 20.3161 126.667 22.2871 126.365 24.5613H135.563ZM159.841 36.2355V30.6258H146.571V26.0774L158.786 9.09677H165.119V36.3871H159.841V36.2355ZM159.841 14.8581L151.849 26.229H159.841V14.8581ZM180.5 30.6258H167.079V26.0774L179.444 9.09677H185.778V26.229H189.095V30.6258H185.778V36.2355H180.5V30.6258ZM180.5 14.8581L172.508 26.229H180.5V14.8581Z" fill="var(--fill-0, white)"/>
<path id="Vector_3" d="M36.4921 131.297C32.5714 134.329 27.746 135.997 22.7698 135.997C17.6429 135.997 12.8175 134.177 9.04762 131.297H36.4921ZM42.373 124.626C41.619 125.99 40.7143 127.355 39.6587 128.416C39.6587 128.416 39.6587 128.416 39.5079 128.416H5.88095C5.88095 128.416 5.88095 128.416 5.73016 128.416C4.6746 127.203 3.76984 125.99 3.01587 124.626H42.2222M44.9365 117.803C44.6349 119.168 44.3333 120.381 43.7302 121.745C43.7302 121.745 43.7302 121.745 43.5794 121.745H1.80952C1.80952 121.745 1.80952 121.745 1.65873 121.745C1.20635 120.532 0.753968 119.168 0.452381 117.803H44.7857M22.4683 90.5129C35.1349 90.5129 45.2381 100.671 45.2381 113.255C45.2381 113.861 45.2381 114.316 45.2381 114.923H0C0 114.316 0 113.861 0 113.255C0 100.823 10.254 90.5129 22.4683 90.3613" fill="var(--fill-0, #FF631F)"/>
<path id="Vector_4" d="M58.9603 99.4581H71.3254C77.2063 99.4581 80.0714 102.187 80.0714 106.584C80.0714 110.981 78.5635 111.587 76.3016 112.497C79.0159 113.255 81.127 115.377 81.127 118.865C81.127 123.868 77.6587 126.748 71.3254 126.748H58.9603V99.4581ZM69.9683 104.006H64.5397V110.829H69.9683C72.9841 110.829 74.4921 109.919 74.4921 107.494C74.4921 105.068 72.9841 104.158 69.9683 104.158M70.7222 115.074H64.3889V122.2H70.7222C73.7381 122.2 75.3968 121.29 75.3968 118.561C75.3968 115.832 73.7381 114.923 70.7222 114.923M95.9048 126.748V123.716C94.5476 125.99 91.8333 127.203 88.8175 127.203C85.8016 127.203 82.1825 125.232 82.1825 121.442C82.1825 117.652 84.746 116.135 88.5159 115.377L95.6032 114.165V113.71C95.6032 111.587 94.0952 110.677 91.8333 110.677C89.5714 110.677 88.3651 111.739 88.2143 113.406H82.9365C83.0873 109.313 86.4048 107.039 91.8333 107.039C97.2619 107.039 100.73 109.465 100.73 114.619V126.748H95.9048ZM95.6032 118.713V117.803L90.3254 118.713C88.2143 119.016 87.3095 119.623 87.3095 121.139C87.3095 122.655 88.5159 123.261 90.3254 123.261C92.1349 123.261 95.6032 121.594 95.6032 118.713ZM111.286 107.039C115.96 107.039 119.881 109.01 120.032 113.255H114.905C114.905 111.89 113.548 110.677 111.286 110.677C109.024 110.677 108.119 111.435 108.119 112.648C108.119 113.861 109.024 114.165 110.683 114.468L115.056 115.377C118.524 115.984 120.484 117.803 120.484 120.987C120.484 124.171 117.468 127.203 111.738 127.203C106.008 127.203 102.841 124.626 102.54 120.532H107.968C107.968 122.2 109.325 123.565 111.889 123.565C114.452 123.565 115.357 122.655 115.357 121.594C115.357 120.532 114.452 119.926 112.794 119.623L108.421 118.865C104.952 118.258 102.992 116.439 102.992 113.255C102.992 110.071 106.31 107.19 111.286 107.19V107.039ZM131.04 107.039C137.222 107.039 140.841 110.677 140.841 117.045V118.713H126.214C126.214 121.139 128.175 123.261 130.889 123.261C133.603 123.261 134.659 122.2 135.111 120.532H140.54C139.635 124.777 135.865 127.203 130.889 127.203C125.913 127.203 120.937 123.565 120.937 117.197C120.937 110.829 124.857 107.19 131.04 107.19V107.039ZM135.563 115.074C135.563 112.648 133.452 110.829 131.19 110.829C128.929 110.829 126.667 112.8 126.365 115.074H135.563ZM159.841 126.748V121.139H146.571V116.59L158.786 99.6097H165.119V126.9H159.841V126.748ZM159.841 105.371L151.849 116.742H159.841V105.371ZM180.5 121.139H167.079V116.59L179.444 99.6097H185.778V116.742H189.095V121.139H185.778V126.748H180.5V121.139ZM180.5 105.371L172.508 116.742H180.5V105.371Z" fill="var(--fill-0, black)"/>
</g>
<defs>
<clipPath id="clip0_0_22">
<rect width="190" height="47" fill="white"/>
</clipPath>
</defs>
</svg>
