<svg preserveAspectRatio="none" width="100%" height="100%" overflow="visible" style="display: block;" viewBox="0 0 49.6444 49.2307" fill="none" xmlns="http://www.w3.org/2000/svg">
<g id="Group">
<g id="Vector">
</g>
<g id="Group_2">
<path id="Vector_2" d="M27.8949 14.4957H37.6834C41.6525 14.4957 44.87 17.6865 44.87 21.6225V30.8797H40.8496V21.6225C40.8496 21.5276 40.8458 21.4335 40.8386 21.3402L31.0501 30.878C31.0832 30.8791 31.1163 30.8797 31.1494 30.8797H40.8496V34.6453H31.1494C27.1804 34.6453 23.8745 31.4231 23.8745 27.4871V18.2546H27.8949V27.4871C27.8949 27.6649 27.9087 27.8405 27.9357 28.0128L37.9394 18.265C37.8552 18.2581 37.7697 18.2546 37.6834 18.2546H27.8949V14.4957Z" fill="var(--fill-0, white)"/>
<path id="Vector_3" d="M18.0078 33.9517L3.86123 18.2529H9.55255L17.8581 27.4696V18.2529H22.1018V32.402C22.1018 34.5375 19.4428 35.544 18.0078 33.9517Z" fill="var(--fill-0, white)"/>
</g>
</g>
</svg>
