<svg preserveAspectRatio="none" width="100%" height="100%" overflow="visible" style="display: block;" viewBox="0 0 143.411 22.1315" fill="none" xmlns="http://www.w3.org/2000/svg">
<g id="Group">
<path id="Vector" d="M0 21.6323V0.415999H3.82726V21.6323H0Z" fill="var(--fill-0, white)"/>
<path id="Vector_2" d="M11.5095 22.0483C10.4279 22.0483 9.48494 21.8542 8.62519 21.4937C7.76545 21.1331 7.09984 20.5784 6.60063 19.8574C6.10142 19.1363 5.85182 18.2765 5.85182 17.2227C5.85182 16.1688 6.10142 15.3368 6.60063 14.6434C7.09984 13.9501 7.79318 13.4231 8.65292 13.0626C9.5404 12.7021 10.5388 12.5357 11.6759 12.5357H15.8082V11.6759C15.8082 10.9826 15.5864 10.4002 15.1426 9.92868C14.6989 9.48494 13.9778 9.23533 13.0349 9.23533C12.0919 9.23533 11.3708 9.4572 10.9271 9.90094C10.4556 10.3447 10.1506 10.8994 10.0119 11.5927L6.48969 10.4002C6.7393 9.62361 7.12757 8.93026 7.65451 8.29239C8.18145 7.65451 8.90253 7.12757 9.81775 6.7393C10.733 6.35102 11.8146 6.15689 13.1181 6.15689C15.0872 6.15689 16.668 6.6561 17.8051 7.65451C18.9421 8.65293 19.5246 10.0673 19.5246 11.9532V17.5555C19.5246 18.1656 19.8019 18.4707 20.3843 18.4707H21.6046V21.6323H19.0531C18.3043 21.6323 17.6941 21.4382 17.1949 21.0776C16.7235 20.7171 16.4738 20.2179 16.4738 19.6355L15.8914 19.6078C15.8082 19.8574 15.6418 20.1624 15.3368 20.5507C15.0317 20.939 14.6157 21.2995 14.0055 21.6046C13.3954 21.9097 12.5634 22.0483 11.5095 22.0483ZM12.1751 18.9421C13.2567 18.9421 14.1165 18.6371 14.8098 18.0547C15.5032 17.4723 15.836 16.668 15.836 15.6696V15.3645H11.981C11.2599 15.3645 10.7052 15.5032 10.317 15.8082C9.90095 16.1133 9.70681 16.5293 9.70681 17.084C9.70681 17.6387 9.92868 18.0824 10.3447 18.4152C10.7607 18.748 11.3986 18.9421 12.2028 18.9421H12.1751Z" fill="var(--fill-0, white)"/>
<path id="Vector_3" d="M28.4548 21.8542C27.29 21.8542 26.2638 21.5769 25.3764 21.0499C24.4889 20.523 23.8233 19.7742 23.3241 18.8312C22.8249 17.8883 22.603 16.7789 22.603 15.5586V6.60063H26.4302V15.2813C26.4302 16.4184 26.7076 17.2504 27.2623 17.8328C27.8169 18.3875 28.6212 18.6926 29.6474 18.6926C30.8122 18.6926 31.7274 18.3043 32.3653 17.5277C33.0031 16.7512 33.336 15.6696 33.336 14.2829V6.6561H37.1632V21.6878H33.3914V19.7187H32.8367C32.5871 20.2179 32.1434 20.7171 31.4778 21.2163C30.8122 21.7155 29.8138 21.9374 28.4548 21.9374V21.8542Z" fill="var(--fill-0, white)"/>
<path id="Vector_4" d="M40.1862 21.6323V6.60063H43.9303V8.56972H44.4849C44.7345 8.04278 45.1783 7.54357 45.8439 7.0721C46.5095 6.60063 47.5079 6.35102 48.8669 6.35102C50.0317 6.35102 51.0578 6.62836 51.9453 7.1553C52.8328 7.68224 53.4984 8.43105 53.9976 9.374C54.4691 10.3169 54.7187 11.3986 54.7187 12.6743V21.6323H50.8914V12.9517C50.8914 11.8146 50.6141 10.9826 50.0594 10.4002C49.5047 9.84548 48.7005 9.5404 47.6743 9.5404C46.5095 9.5404 45.5943 9.92868 44.9564 10.7052C44.3185 11.4818 43.9857 12.5634 43.9857 13.9501V21.5769H40.1585L40.1862 21.6323Z" fill="var(--fill-0, white)"/>
<path id="Vector_5" d="M64.7029 22.0483C63.2607 22.0483 61.9295 21.7433 60.7369 21.1331C59.5444 20.523 58.6292 19.6355 57.9358 18.4984C57.2425 17.3336 56.9097 15.9469 56.9097 14.3106V13.8946C56.9097 12.2583 57.2425 10.8716 57.9358 9.70681C58.6292 8.54199 59.5444 7.68225 60.7369 7.0721C61.9295 6.46196 63.233 6.15689 64.7029 6.15689C66.1727 6.15689 67.3653 6.40649 68.3914 6.9057C69.4176 7.40491 70.2496 8.09825 70.8875 8.98573C71.5254 9.87321 71.9414 10.8716 72.1355 11.981L68.4469 12.7575C68.3637 12.1474 68.1973 11.5927 67.8922 11.1212C67.5872 10.6498 67.1989 10.2615 66.6997 9.95641C66.1727 9.67908 65.5349 9.54041 64.786 9.54041C64.0372 9.54041 63.3162 9.70681 62.706 10.0396C62.0959 10.3724 61.5967 10.8716 61.2639 11.5372C60.9033 12.2028 60.7369 13.0071 60.7369 13.9501V14.2551C60.7369 15.1981 60.9033 16.0024 61.2639 16.668C61.6244 17.3336 62.0959 17.8328 62.706 18.1656C63.3162 18.4984 64.0095 18.6648 64.786 18.6648C65.9509 18.6648 66.8106 18.3597 67.4208 17.7773C68.0309 17.1949 68.3914 16.3906 68.5578 15.42L72.2464 16.3074C71.9968 17.3891 71.5254 18.3597 70.8875 19.2195C70.2496 20.107 69.4176 20.8003 68.3914 21.2995C67.3653 21.7987 66.1173 22.0483 64.7029 22.0483Z" fill="var(--fill-0, white)"/>
<path id="Vector_6" d="M74.1878 21.6323V0.415999H78.0151V8.45879H78.5697C78.7361 8.12598 78.9858 7.82091 79.3186 7.48811C79.6514 7.1553 80.1228 6.9057 80.7052 6.68383C81.2877 6.46196 82.0087 6.37876 82.8962 6.37876C84.061 6.37876 85.0872 6.6561 85.9746 7.18304C86.8621 7.70998 87.5277 8.45879 88.027 9.40174C88.4984 10.3447 88.748 11.4263 88.748 12.7021V21.6601H84.9208V12.9794C84.9208 11.8423 84.6434 11.0103 84.0887 10.4279C83.5341 9.87321 82.7298 9.56814 81.7037 9.56814C80.5388 9.56814 79.6236 9.95641 78.9857 10.733C78.3479 11.5095 78.0151 12.5911 78.0151 13.9778V21.6046H74.1878V21.6323Z" fill="var(--fill-0, white)"/>
<path id="Vector_7" d="M93.5459 4.82567C92.8526 4.82567 92.2702 4.6038 91.7987 4.16006C91.3273 3.71632 91.0776 3.13391 91.0776 2.41284C91.0776 1.69176 91.3273 1.10935 91.7987 0.665609C92.2702 0.221869 92.8526 0 93.5459 0C94.2393 0 94.8494 0.221869 95.2932 0.665609C95.7646 1.10935 95.9865 1.69176 95.9865 2.41284C95.9865 3.13391 95.7646 3.71632 95.2932 4.16006C94.8217 4.6038 94.2393 4.82567 93.5459 4.82567ZM91.6323 21.6323V6.60063H95.4596V21.6323H91.6323Z" fill="var(--fill-0, white)"/>
<path id="Vector_8" d="M105.333 22.0483C103.835 22.0483 102.532 21.7433 101.367 21.1054C100.23 20.4675 99.3423 19.58 98.7044 18.4152C98.0666 17.2504 97.7615 15.8914 97.7615 14.3106V13.9501C97.7615 12.3693 98.0666 11.0103 98.7044 9.84549C99.3423 8.68067 100.202 7.79319 101.339 7.15531C102.476 6.51743 103.78 6.21236 105.277 6.21236C106.775 6.21236 108.023 6.54517 109.132 7.21078C110.214 7.87639 111.074 8.76387 111.684 9.92869C112.294 11.0935 112.599 12.4525 112.599 13.9778V15.2813H101.672C101.7 16.3075 102.088 17.1395 102.837 17.8051C103.558 18.4429 104.445 18.7758 105.499 18.7758C106.553 18.7758 107.357 18.5539 107.857 18.0824C108.356 17.6109 108.744 17.1117 109.021 16.5293L112.155 18.1656C111.878 18.6926 111.462 19.275 110.935 19.8851C110.408 20.4952 109.687 21.0222 108.8 21.4659C107.912 21.9097 106.775 22.1315 105.416 22.1315L105.333 22.0483ZM101.672 12.3693H108.716C108.633 11.5095 108.3 10.8162 107.662 10.2892C107.052 9.76228 106.248 9.51268 105.25 9.51268C104.251 9.51268 103.391 9.76228 102.781 10.2892C102.171 10.8162 101.811 11.5095 101.672 12.3693Z" fill="var(--fill-0, white)"/>
<path id="Vector_9" d="M117.48 21.6323L112.682 6.60063H116.731L120.226 18.8312H120.781L124.275 6.60063H128.324L123.526 21.6323H117.452H117.48Z" fill="var(--fill-0, white)"/>
<path id="Vector_10" d="M136.145 22.0483C134.647 22.0483 133.344 21.7433 132.179 21.1054C131.042 20.4675 130.155 19.58 129.517 18.4152C128.879 17.2504 128.574 15.8914 128.574 14.3106V13.9501C128.574 12.3693 128.879 11.0103 129.517 9.84549C130.155 8.68067 131.014 7.79319 132.151 7.15531C133.288 6.51743 134.592 6.21236 136.09 6.21236C137.587 6.21236 138.835 6.54517 139.945 7.21078C141.026 7.87639 141.886 8.76387 142.496 9.92869C143.106 11.0935 143.411 12.4525 143.411 13.9778V15.2813H132.484C132.512 16.3075 132.9 17.1395 133.649 17.8051C134.37 18.4429 135.258 18.7758 136.311 18.7758C137.365 18.7758 138.17 18.5539 138.669 18.0824C139.168 17.6109 139.556 17.1117 139.834 16.5293L142.968 18.1656C142.69 18.6926 142.274 19.275 141.747 19.8851C141.22 20.4952 140.499 21.0222 139.612 21.4659C138.724 21.9097 137.587 22.1315 136.228 22.1315L136.145 22.0483ZM132.484 12.3693H139.529C139.445 11.5095 139.113 10.8162 138.475 10.2892C137.864 9.76228 137.06 9.51268 136.062 9.51268C135.063 9.51268 134.204 9.76228 133.594 10.2892C132.983 10.8162 132.623 11.5095 132.484 12.3693Z" fill="var(--fill-0, white)"/>
</g>
</svg>
