<svg preserveAspectRatio="none" width="100%" height="100%" overflow="visible" style="display: block;" viewBox="0 0 30 30" fill="none" xmlns="http://www.w3.org/2000/svg">
<g id="fi_2285485" clip-path="url(#clip0_0_36)">
<path id="Vector" d="M29.9646 2.23969C29.8996 1.04801 28.9519 0.10037 27.7602 0.0353307C25.3556 -0.0960365 20.6503 0.0317566 16.151 2.35892C13.8574 3.54533 11.4316 5.5568 9.4957 7.87758C9.47185 7.90617 9.44865 7.93494 9.42498 7.96359L5.03162 8.30297C4.30846 8.35887 3.66434 8.73791 3.26437 9.34283L0.26707 13.8763C-0.0362702 14.3351 -0.0844929 14.9093 0.137988 15.4122C0.360527 15.9152 0.817792 16.2657 1.36125 16.3499L5.06268 16.9232C5.04961 16.9951 5.03648 17.067 5.02447 17.139C4.90125 17.8761 5.14547 18.6339 5.67785 19.1662L10.8336 24.3221C11.275 24.7635 11.8714 25.0068 12.4826 25.0068C12.6084 25.0068 12.735 24.9964 12.861 24.9754C12.9329 24.9634 13.0048 24.9503 13.0768 24.9372L13.6501 28.6387C13.7343 29.1821 14.0848 29.6395 14.5876 29.862C14.7969 29.9545 15.0183 30.0002 15.2387 30.0002C15.5483 30.0002 15.8556 29.9101 16.1235 29.7329L20.657 26.7356C21.262 26.3355 21.641 25.6914 21.6968 24.9683L22.0362 20.575C22.0648 20.5513 22.0937 20.5281 22.1222 20.5043C24.4431 18.5684 26.4546 16.1426 27.641 13.8489C29.9682 9.34945 30.0958 4.64408 29.9646 2.23969ZM19.6876 25.2692L15.351 28.1364L14.7923 24.529C16.6251 23.9902 18.4382 23.1271 20.1654 21.9708L19.9444 24.8329C19.9306 25.0114 19.837 25.1705 19.6876 25.2692ZM12.0766 23.0791L6.92074 17.9233C6.7892 17.7917 6.72838 17.6068 6.7582 17.4288C6.91148 16.5122 7.14967 15.6397 7.44451 14.8177L15.1805 22.5537C14.1933 22.9073 13.3091 23.1183 12.5711 23.2417C12.3928 23.2713 12.2081 23.2107 12.0766 23.0791ZM5.16703 10.0556L8.02898 9.83449C6.87269 11.5618 6.00961 13.3748 5.47072 15.2077L1.86346 14.649L4.73068 10.3123C4.82947 10.1629 4.98855 10.0693 5.16703 10.0556ZM20.9964 19.1544C19.5765 20.3387 18.1982 21.1954 16.9278 21.8152L8.18437 13.0718C8.99637 11.4134 9.98736 10.0324 10.8455 9.00357C12.637 6.85582 14.8652 5.00303 16.9587 3.92021C21.088 1.7843 25.4387 1.66928 27.6645 1.79045C27.9591 1.8065 28.1934 2.04082 28.2095 2.33549C28.3308 4.56135 28.2156 8.91193 26.0797 13.0413C24.9969 15.1348 23.1441 17.3629 20.9964 19.1544Z" fill="var(--fill-0, white)"/>
<path id="Vector_2" d="M20.5501 13.8424C21.6752 13.8422 22.8008 13.4139 23.6573 12.5573C24.4874 11.7274 24.9444 10.6238 24.9444 9.45006C24.9444 8.27631 24.4873 7.17275 23.6573 6.34277C21.9439 4.62932 19.1561 4.62943 17.4428 6.34277C16.6127 7.17275 16.1556 8.27631 16.1556 9.45006C16.1556 10.6238 16.6128 11.7274 17.4428 12.5573C18.2995 13.4141 19.4245 13.8425 20.5501 13.8424ZM18.6856 7.58566C19.1996 7.07162 19.8748 6.81463 20.5499 6.81463C21.2252 6.81463 21.9004 7.07162 22.4143 7.58566C22.9123 8.08365 23.1865 8.74576 23.1865 9.45C23.1865 10.1542 22.9123 10.8164 22.4143 11.3144C21.3864 12.3424 19.7136 12.3424 18.6855 11.3144C18.1876 10.8164 17.9133 10.1543 17.9133 9.45006C17.9133 8.74582 18.1876 8.08365 18.6856 7.58566Z" fill="var(--fill-0, white)"/>
<path id="Vector_3" d="M0.896543 24.7229C1.12148 24.7229 1.34643 24.6371 1.51799 24.4655L4.3875 21.596C4.73074 21.2527 4.73074 20.6963 4.3875 20.353C4.04432 20.0098 3.48779 20.0098 3.14455 20.353L0.275098 23.2225C-0.0681445 23.5658 -0.0681445 24.1222 0.275098 24.4655C0.44666 24.6371 0.671602 24.7229 0.896543 24.7229Z" fill="var(--fill-0, white)"/>
<path id="Vector_4" d="M7.01725 22.9828C6.67406 22.6395 6.11754 22.6395 5.7743 22.9828L0.257461 28.4996C-0.0857812 28.8429 -0.0857812 29.3994 0.257461 29.7426C0.429082 29.9142 0.653965 30 0.878906 30C1.10385 30 1.32879 29.9142 1.50035 29.7425L7.01719 24.2257C7.36049 23.8825 7.36049 23.326 7.01725 22.9828Z" fill="var(--fill-0, white)"/>
<path id="Vector_5" d="M8.40404 25.6125L5.53453 28.482C5.19129 28.8253 5.19129 29.3817 5.53453 29.725C5.70615 29.8966 5.93109 29.9824 6.15598 29.9824C6.38086 29.9824 6.60586 29.8966 6.77742 29.725L9.64693 26.8555C9.99018 26.5122 9.99018 25.9557 9.64693 25.6125C9.30375 25.2693 8.74723 25.2693 8.40404 25.6125Z" fill="var(--fill-0, white)"/>
</g>
<defs>
<clipPath id="clip0_0_36">
<rect width="30" height="30" fill="white"/>
</clipPath>
</defs>
</svg>
