<svg preserveAspectRatio="none" width="100%" height="100%" overflow="visible" style="display: block;" viewBox="0 0 27.6427 30" fill="none" xmlns="http://www.w3.org/2000/svg">
<g id="Group">
<path id="Vector" d="M26.3293 7.47573H26.0252C25.8455 6.8444 25.5943 6.23867 25.2751 5.66599L25.4913 5.44978C25.7386 5.20258 25.8747 4.87288 25.8747 4.52139C25.8747 4.16989 25.7386 3.84025 25.4911 3.59276L24.0509 2.15426C23.8036 1.90542 23.4735 1.76843 23.1213 1.76843C22.7692 1.76843 22.4391 1.90542 22.193 2.15303L21.9771 2.36894C21.404 2.04874 20.798 1.79714 20.1671 1.61744V1.3134C20.1672 0.589204 19.578 0 18.8538 0H16.8176C16.0934 0 15.5042 0.589204 15.5042 1.3134V1.61744C14.8734 1.79708 14.267 2.04874 13.6928 2.36918L13.4779 2.15426C13.2304 1.90542 12.9003 1.76843 12.5482 1.76849C12.1962 1.76849 11.866 1.90554 11.62 2.15309L10.1801 3.59305C9.93274 3.84025 9.79663 4.16995 9.79663 4.52145C9.79663 4.87294 9.93274 5.20258 10.18 5.44978L10.3961 5.66593C10.0755 6.24037 9.82428 6.84621 9.64552 7.47573H9.34031C8.61611 7.47573 8.02691 8.06493 8.02691 8.78913V10.8271C8.02691 11.5513 8.61611 12.1405 9.34031 12.1405H9.64552C9.82428 12.7699 10.0755 13.3758 10.3961 13.9503L10.18 14.1664C9.93268 14.4136 9.79657 14.7433 9.79657 15.0948C9.79657 15.4463 9.93268 15.776 10.1799 16.0232L11.6187 17.462C11.866 17.7108 12.1961 17.8478 12.5482 17.8478H12.5482C12.9003 17.8478 13.2305 17.7108 13.4766 17.4632L13.6927 17.247C14.2676 17.5678 14.8739 17.8191 15.5041 17.9978V18.3029C15.5041 19.0271 16.0933 19.6163 16.8175 19.6163H18.8537C19.5779 19.6163 20.1671 19.0271 20.1671 18.3029V17.9978C20.7975 17.819 21.4033 17.5678 21.9771 17.2473L22.1918 17.462C22.4391 17.7108 22.7692 17.8478 23.1213 17.8478C23.4734 17.8478 23.8036 17.7107 24.0494 17.4634L25.4913 16.0232C25.7385 15.7759 25.8746 15.4462 25.8746 15.0948C25.8746 14.7433 25.7385 14.4136 25.4913 14.1664L25.2751 13.9502C25.5943 13.3775 25.8453 12.7718 26.0252 12.1405H26.3293C27.0535 12.1405 27.6427 11.5513 27.6427 10.8271V8.78913C27.6427 8.06493 27.0536 7.47573 26.3293 7.47573ZM18.9953 18.3028C18.9953 18.3796 18.9305 18.4444 18.8538 18.4444H16.8176C16.7408 18.4444 16.676 18.3796 16.676 18.3028V17.5421V13.8483C16.676 13.6032 16.5235 13.3841 16.2939 13.2989C14.7194 12.715 13.6615 11.1997 13.6615 9.52827C13.6615 8.20368 14.3211 6.96199 15.4256 6.20703C15.4752 6.17316 15.519 6.14551 15.5573 6.12283C15.5552 6.199 15.5498 6.27142 15.5469 6.30921C15.5425 6.36869 15.539 6.41562 15.539 6.4622V9.22758C15.539 10.4969 16.5308 11.5569 17.7968 11.6409C17.8227 11.6426 17.8486 11.6426 17.8744 11.6409C19.1395 11.557 20.1305 10.4969 20.1305 9.22758V6.4622C20.1305 6.41585 20.1271 6.36921 20.1228 6.31009C20.1199 6.27213 20.1145 6.1993 20.1125 6.12277C20.1507 6.14539 20.1943 6.17299 20.2437 6.20679C21.3484 6.96193 22.008 8.20362 22.008 9.52821C22.008 11.1994 20.9508 12.7148 19.3772 13.2989C19.1476 13.3842 18.9952 13.6032 18.9952 13.8482V17.5421V18.3028H18.9953ZM26.4709 10.8271C26.4709 10.9025 26.4047 10.9686 26.3293 10.9686H25.5703C25.2966 10.9686 25.0593 11.1582 24.9989 11.4252C24.8133 12.2451 24.4919 13.0204 24.0436 13.7295C23.8973 13.9611 23.9309 14.2632 24.1246 14.4569L24.6628 14.995C24.6977 15.03 24.7029 15.0725 24.7029 15.0948C24.7029 15.117 24.6977 15.1596 24.6629 15.1943L23.2199 16.6357C23.1869 16.6689 23.148 16.6759 23.1213 16.6759C23.0947 16.6759 23.0559 16.6689 23.0217 16.6345L22.4835 16.0963C22.2895 15.9023 21.9871 15.869 21.7555 16.0157C21.2554 16.3326 20.723 16.5841 20.1672 16.7699V14.238C21.9849 13.392 23.18 11.5485 23.18 9.52816C23.18 7.81627 22.3295 6.21295 20.9051 5.23932C20.6869 5.0902 20.0234 4.63652 19.443 4.97056C18.8732 5.29867 18.9299 6.06781 18.9541 6.39628C18.9562 6.42482 18.9583 6.44878 18.9588 6.4622V9.22758C18.9588 9.86893 18.4686 10.4066 17.8357 10.4684C17.2019 10.4066 16.7109 9.86887 16.7109 9.22758L16.7109 6.46642C16.7114 6.44878 16.7135 6.42482 16.7156 6.39617C16.74 6.06787 16.7973 5.29914 16.2279 4.97085C15.6478 4.63623 14.9832 5.09008 14.7646 5.23932C13.3401 6.21301 12.4897 7.81632 12.4897 9.52821C12.4897 11.5489 13.6854 13.3925 15.5042 14.2382V16.77C14.9482 16.5841 14.4152 16.3325 13.9136 16.0154C13.8171 15.9545 13.7086 15.9248 13.6006 15.9248C13.4493 15.9248 13.2992 15.9833 13.1861 16.0964L12.6468 16.6357C12.6139 16.669 12.575 16.6759 12.5483 16.6759C12.5216 16.6759 12.4828 16.669 12.4486 16.6346L11.0087 15.1946C10.9737 15.1596 10.9685 15.117 10.9685 15.0948C10.9685 15.0726 10.9737 15.03 11.0087 14.995L11.5468 14.4569C11.7405 14.2632 11.7741 13.9611 11.6278 13.7295C11.1772 13.0166 10.8559 12.2417 10.6728 11.4262C10.6128 11.1587 10.3752 10.9686 10.1011 10.9686H9.34043C9.26502 10.9686 9.19887 10.9024 9.19887 10.827V8.78907C9.19887 8.71232 9.26367 8.64751 9.34043 8.64751H10.1011C10.3752 8.64751 10.6127 8.45738 10.6728 8.18991C10.8559 7.37442 11.1771 6.59942 11.6278 5.88659C11.7741 5.65503 11.7405 5.35293 11.5468 5.15922L11.0086 4.62105C10.9737 4.58613 10.9685 4.5436 10.9685 4.52133C10.9685 4.49907 10.9737 4.45653 11.0087 4.42155L12.4499 2.9803C12.4828 2.94713 12.5216 2.94016 12.5484 2.94016C12.5751 2.94016 12.6139 2.94713 12.6481 2.98153L13.1862 3.5197C13.38 3.71346 13.6821 3.74703 13.9136 3.60067C14.6256 3.15056 15.4014 2.8286 16.2193 2.64386C16.4865 2.58351 16.6761 2.34615 16.6761 2.07235V1.3134C16.6761 1.23665 16.7409 1.17185 16.8177 1.17185H18.8539C18.9306 1.17185 18.9954 1.23665 18.9954 1.3134V2.07247C18.9954 2.34633 19.1851 2.58363 19.4522 2.64398C20.2709 2.82889 21.0458 3.15068 21.7557 3.60049C21.9873 3.74721 22.2896 3.71381 22.4836 3.51987L23.023 2.98047C23.0559 2.94731 23.0948 2.94034 23.1214 2.94034C23.1482 2.94034 23.1869 2.94731 23.2214 2.98194L24.6629 4.42172C24.6978 4.45664 24.703 4.49918 24.703 4.52145C24.703 4.54371 24.6978 4.58625 24.6628 4.62123L24.1247 5.1594C23.931 5.35311 23.8974 5.65521 24.0437 5.88676C24.492 6.59591 24.8134 7.37114 24.999 8.19108C25.0594 8.45809 25.2967 8.64763 25.5704 8.64763H26.3294C26.4062 8.64763 26.471 8.71243 26.471 8.78919V10.8271H26.4709Z" fill="var(--fill-0, white)"/>
<path id="Vector_2" d="M21.2497 25.7994C21.0209 26.0282 21.0209 26.3992 21.2497 26.6281C21.3641 26.7425 21.514 26.7997 21.664 26.7997C21.8139 26.7997 21.9639 26.7425 22.0783 26.6281L22.0799 26.6265C22.3087 26.3976 22.3079 26.0275 22.0791 25.7986C21.8502 25.5698 21.4785 25.5707 21.2497 25.7994Z" fill="var(--fill-0, white)"/>
<path id="Vector_3" d="M23.964 20.1235L19.3123 22.5124C18.918 22.104 18.3655 21.8492 17.7543 21.8492H14.5671C14.3886 21.8492 14.345 21.8351 14.3421 21.8341C14.3163 21.8205 14.2346 21.7437 14.169 21.6821L14.14 21.6548C11.5614 19.2275 9.38326 19.3813 6.90627 20.3588C6.5055 20.517 6.49776 20.5174 6.09529 20.5345L5.37461 20.5351C5.1693 19.9157 4.58502 19.4675 3.89767 19.4675H1.55422C0.697189 19.4675 0 20.1655 0 21.0234V27.1737C0 28.0307 0.697189 28.728 1.55422 28.728H3.89767C4.58496 28.728 5.16919 28.2803 5.37455 27.6616H6.69288C6.8093 27.6616 6.8093 27.6616 6.94471 27.6998C6.99392 27.7137 7.05381 27.7305 7.13115 27.7513L13.1951 29.3736C13.4624 29.4458 13.7075 29.5169 13.9447 29.5856C14.7216 29.8107 15.3747 29.9999 16.0553 29.9999C16.8247 29.9999 17.6291 29.7582 18.6871 29.0531C18.6922 29.0497 18.6973 29.0462 18.7023 29.0426L19.86 28.2171C20.1235 28.0292 20.1847 27.6633 19.9968 27.3999C19.8089 27.1363 19.443 27.0751 19.1797 27.263L18.0297 28.083C16.4943 29.1042 15.8424 28.9154 14.2708 28.46C14.0287 28.3899 13.7784 28.3173 13.4994 28.242L7.43501 26.6196C7.36399 26.6005 7.30827 26.5848 7.26257 26.5719C7.04133 26.5096 6.95859 26.4899 6.69294 26.4899H5.45359V21.7074H6.0868C6.09524 21.7074 6.10356 21.7072 6.11199 21.7069L6.14539 21.7054C6.63657 21.6845 6.77397 21.6711 7.33657 21.4489C9.51204 20.5904 11.1913 20.4884 13.3375 22.5089L13.3665 22.5361C13.7333 22.8808 13.9445 23.0212 14.5671 23.0212H17.7543C18.1284 23.0212 18.4546 23.2288 18.6246 23.5348C18.6264 23.5382 18.6285 23.5414 18.6304 23.5448C18.7063 23.6852 18.7496 23.8459 18.7496 24.0165C18.7496 24.5644 18.3032 25.0101 17.7544 25.0101H12.5891C12.2655 25.0101 12.0032 25.2724 12.0032 25.596C12.0032 25.9196 12.2655 26.182 12.5891 26.182H17.7544C18.9493 26.182 19.9214 25.2106 19.9214 24.0165C19.9214 23.8542 19.9029 23.6962 19.8689 23.5441L24.4994 21.1661C24.9376 20.9411 25.5369 20.9652 25.8344 21.448C26.0976 21.8736 25.9529 22.4393 25.4979 22.7636L23.4667 24.2103C23.2031 24.398 23.1415 24.7638 23.3293 25.0275C23.4436 25.1879 23.6239 25.2735 23.807 25.2735C23.9246 25.2735 24.0433 25.2382 24.1464 25.1648L26.1779 23.718C27.1426 23.0302 27.4234 21.7893 26.8315 20.8325C26.2495 19.8879 25.0168 19.5831 23.964 20.1235ZM4.28169 27.1737C4.28169 27.381 4.10585 27.5561 3.89767 27.5561H1.55422C1.34692 27.5561 1.17185 27.381 1.17185 27.1737V21.0234C1.17185 20.8117 1.3434 20.6394 1.55422 20.6394H3.89767C4.10585 20.6394 4.28169 20.8152 4.28169 21.0234V27.1737Z" fill="var(--fill-0, white)"/>
</g>
</svg>
