<svg preserveAspectRatio="none" width="100%" height="100%" overflow="visible" style="display: block;" viewBox="0 0 27.5311 30" fill="none" xmlns="http://www.w3.org/2000/svg">
<g id="Group">
<path id="Vector" d="M27.1792 16L18.4598 1.23034C18.0002 0.451687 17.1855 -0.00528588 16.2816 4.61501e-05C15.3774 0.00836646 14.5717 0.483152 14.1264 1.27018L12.5564 4.04489C12.4203 4.28548 12.505 4.59093 12.7456 4.72704C12.9861 4.86315 13.2915 4.77854 13.4278 4.5379L14.9977 1.76319C15.2648 1.29098 15.7483 1.00604 16.2908 1.00106C16.2957 1.001 16.3005 1.001 16.3052 1.001C16.842 1.001 17.3244 1.27622 17.5977 1.73928L26.3171 16.509C26.5946 16.979 26.5988 17.5427 26.3281 18.0169C26.0575 18.4909 25.57 18.774 25.024 18.774H22.2743C21.9978 18.774 21.7738 18.9981 21.7738 19.2745C21.7738 19.551 21.9979 19.775 22.2743 19.775H25.024C25.9339 19.775 26.7465 19.3033 27.1975 18.5132C27.6487 17.723 27.6418 16.7835 27.1792 16Z" fill="var(--fill-0, white)"/>
<path id="Vector_2" d="M20.0882 21.386C21.0008 19.8057 21.5235 17.9733 21.5235 16.021C21.5235 10.087 16.6958 5.2593 10.7618 5.2593C4.82777 5.2593 0.000117302 10.087 0.000117302 16.021C0.000117302 21.9551 4.82777 26.7827 10.7618 26.7827C12.4506 26.7827 14.0495 26.3913 15.4733 25.695L18.8996 29.1213C19.4662 29.6879 20.2203 30 21.023 30C23.6804 30 25.2929 26.5907 23.3616 24.6593L20.0882 21.386ZM20.5224 16.021C20.5224 17.8496 20.0166 19.562 19.1381 21.0265H5.70381C5.16141 21.0265 4.67525 20.7466 4.40338 20.2777C4.1318 19.8094 4.13016 19.2495 4.39904 18.7796L11.5338 6.29091C12.0558 6.33192 12.5663 6.41471 13.0623 6.53501C12.8729 6.81714 12.7641 7.15428 12.7641 7.51182V13.5184C12.7641 14.4732 13.5618 15.2703 14.516 15.2703C15.482 15.2703 16.2679 14.4844 16.2679 13.5184V7.96616C18.8349 9.72631 20.5224 12.6801 20.5224 16.021ZM15.2667 7.36423V13.5183C15.2667 13.9322 14.9299 14.2691 14.516 14.2691C14.1042 14.2691 13.7651 13.9301 13.7651 13.5183V7.51176C13.7651 7.24018 13.9104 6.9955 14.1384 6.86278C14.5267 7.00639 14.9033 7.17432 15.2667 7.36423ZM1.00119 16.021C1.00119 10.7623 5.18174 6.46223 10.3938 6.268L3.52998 18.2826C3.08191 19.0657 3.08467 19.9993 3.53736 20.7799C3.99041 21.5611 4.80029 22.0275 5.70381 22.0275H18.4502C16.6621 24.3113 13.8805 25.7816 10.7618 25.7816C5.37979 25.7816 1.00119 21.4031 1.00119 16.021ZM22.6567 28.2008C21.8923 29.121 20.4768 29.2827 19.6075 28.4134L16.3863 25.1923C17.6227 24.4312 18.6946 23.4278 19.5345 22.248C19.5345 22.248 22.6503 25.3638 22.6537 25.3672C23.4666 26.1801 23.3197 27.4027 22.6567 28.2008Z" fill="var(--fill-0, white)"/>
<path id="Vector_3" d="M14.5159 16.021C13.4119 16.021 12.5137 16.9192 12.5137 18.0232C12.5137 19.1272 13.4119 20.0253 14.5159 20.0253C15.6199 20.0253 16.5181 19.1272 16.5181 18.0232C16.5181 16.9192 15.6199 16.021 14.5159 16.021ZM14.5159 19.0243C13.9638 19.0243 13.5148 18.5752 13.5148 18.0232C13.5148 17.4712 13.9638 17.0221 14.5159 17.0221C15.068 17.0221 15.517 17.4712 15.517 18.0232C15.517 18.5752 15.068 19.0243 14.5159 19.0243Z" fill="var(--fill-0, white)"/>
</g>
</svg>
