<svg preserveAspectRatio="none" width="100%" height="100%" overflow="visible" style="display: block;" viewBox="0 0 29.4539 30" fill="none" xmlns="http://www.w3.org/2000/svg">
<g id="Group">
<path id="Vector" d="M2.60168 26.1663C2.60168 26.409 2.79844 26.6057 3.04113 26.6057H6.94365C7.18635 26.6057 7.38311 26.409 7.38311 26.1663C7.38311 25.9236 7.18635 25.7268 6.94365 25.7268H3.04113C2.79844 25.7268 2.60168 25.9236 2.60168 26.1663Z" fill="var(--fill-0, white)"/>
<path id="Vector_2" d="M4.98521 12.7334H7.37725C7.61994 12.7334 7.8167 12.5366 7.8167 12.2939C7.8167 12.0512 7.61994 11.8545 7.37725 11.8545H4.98521C4.74252 11.8545 4.54576 12.0512 4.54576 12.2939C4.54576 12.5366 4.74252 12.7334 4.98521 12.7334Z" fill="var(--fill-0, white)"/>
<path id="Vector_3" d="M4.98521 15.0748H7.37725C7.61994 15.0748 7.8167 14.8781 7.8167 14.6354C7.8167 14.3927 7.61994 14.1959 7.37725 14.1959H4.98521C4.74252 14.1959 4.54576 14.3927 4.54576 14.6354C4.54576 14.8781 4.74252 15.0748 4.98521 15.0748Z" fill="var(--fill-0, white)"/>
<path id="Vector_4" d="M4.98521 17.4163H7.37725C7.61994 17.4163 7.8167 17.2196 7.8167 16.9769C7.8167 16.7342 7.61994 16.5374 7.37725 16.5374H4.98521C4.74252 16.5374 4.54576 16.7342 4.54576 16.9769C4.54576 17.2196 4.74252 17.4163 4.98521 17.4163Z" fill="var(--fill-0, white)"/>
<path id="Vector_5" d="M2.60748 12.7334H2.85855C3.10125 12.7334 3.29801 12.5366 3.29801 12.2939C3.29801 12.0512 3.10125 11.8545 2.85855 11.8545H2.60748C2.36479 11.8545 2.16803 12.0512 2.16803 12.2939C2.16803 12.5366 2.36479 12.7334 2.60748 12.7334Z" fill="var(--fill-0, white)"/>
<path id="Vector_6" d="M2.60748 15.0748H2.85855C3.10125 15.0748 3.29801 14.8781 3.29801 14.6354C3.29801 14.3927 3.10125 14.1959 2.85855 14.1959H2.60748C2.36479 14.1959 2.16803 14.3927 2.16803 14.6354C2.16803 14.8781 2.36479 15.0748 2.60748 15.0748Z" fill="var(--fill-0, white)"/>
<path id="Vector_7" d="M2.60748 17.4163H2.85855C3.10125 17.4163 3.29801 17.2196 3.29801 16.9769C3.29801 16.7342 3.10125 16.5374 2.85855 16.5374H2.60748C2.36479 16.5374 2.16803 16.7342 2.16803 16.9769C2.16803 17.2196 2.36479 17.4163 2.60748 17.4163Z" fill="var(--fill-0, white)"/>
<path id="Vector_8" d="M29.0143 6.26021H0.439453C0.196758 6.26021 1.30385e-08 6.45697 1.30385e-08 6.69967C1.30385e-08 6.94236 0.196758 7.13912 0.439453 7.13912H29.0143C29.2571 7.13912 29.4538 6.94236 29.4538 6.69967C29.4538 6.45697 29.2571 6.26021 29.0143 6.26021Z" fill="var(--fill-0, white)"/>
<g id="Group_2">
<path id="Vector_9" d="M4.66863 0.000117196C4.42594 0.000117196 4.22918 0.196875 4.22918 0.43957V3.88248C4.22918 4.12518 4.42594 4.32193 4.66863 4.32193C4.91133 4.32193 5.10809 4.12518 5.10809 3.88248V0.43957C5.10809 0.196875 4.91133 0.000117196 4.66863 0.000117196Z" fill="var(--fill-0, white)"/>
<path id="Vector_10" d="M2.8318 0.000156261C2.5891 0.000156261 2.39234 0.196914 2.39234 0.439609V2.80621C2.39234 2.96857 2.34605 3.17816 1.98523 3.35986C1.87414 3.41582 1.7535 3.44301 1.61627 3.44301H1.6148C1.46469 3.44283 1.33426 3.40604 1.21625 3.33063C0.936348 3.1518 0.878984 2.9926 0.878984 2.80867V0.439609C0.878984 0.196914 0.682227 0.000156261 0.439531 0.000156261C0.196836 0.000156261 7.8164e-05 0.196914 7.8164e-05 0.439609V2.80873C7.8164e-05 3.33156 0.250039 3.75637 0.743047 4.07137C1.00268 4.23725 1.29564 4.32156 1.61363 4.32197H1.61627C1.8902 4.32197 2.14736 4.26238 2.38063 4.1449C3.11674 3.77418 3.27125 3.21227 3.27125 2.80621V0.439609C3.27125 0.196914 3.07449 0.000156261 2.8318 0.000156261Z" fill="var(--fill-0, white)"/>
<path id="Vector_11" d="M15.6259 2.03889L16.5743 0.692637C16.7141 0.494238 16.6666 0.220078 16.4681 0.0802734C16.2696 -0.0595312 15.9955 -0.0118945 15.8558 0.186445L15.0888 1.27529L14.3229 0.18668C14.1833 -0.0118359 13.9092 -0.0594726 13.7106 0.0800977C13.5121 0.219727 13.4644 0.493887 13.6041 0.692402L14.5511 2.03854L13.4304 3.62936C13.2906 3.82775 13.3382 4.10191 13.5366 4.24172C13.6135 4.29592 13.7018 4.32193 13.7893 4.32193C13.9274 4.32193 14.0633 4.25701 14.1489 4.13555L15.0882 2.80213L16.0261 4.13531C16.1116 4.25695 16.2476 4.32193 16.3859 4.32193C16.4732 4.32193 16.5615 4.29598 16.6384 4.24189C16.8369 4.10227 16.8846 3.82811 16.7449 3.62959L15.6259 2.03889Z" fill="var(--fill-0, white)"/>
<path id="Vector_12" d="M12.3974 0.000117196C12.1547 0.000117196 11.9579 0.196875 11.9579 0.43957V2.80617C11.9579 2.96854 11.9116 3.17813 11.5508 3.35982C11.4397 3.41578 11.3191 3.44297 11.1819 3.44297H11.1804C11.0302 3.44279 10.8998 3.40605 10.7818 3.33059C10.5019 3.15176 10.4445 2.99256 10.4445 2.80863V0.43957C10.4445 0.196875 10.2478 0.000117196 10.0051 0.000117196C9.76236 0.000117196 9.56561 0.196875 9.56561 0.43957V2.80869C9.56561 3.33152 9.81563 3.75633 10.3086 4.07127C10.5682 4.23721 10.8611 4.32152 11.1792 4.32193H11.1819C11.4558 4.32193 11.7129 4.26234 11.9462 4.14486C12.6823 3.77414 12.8369 3.21229 12.8369 2.80623V0.43957C12.8368 0.196875 12.6401 0.000117196 12.3974 0.000117196Z" fill="var(--fill-0, white)"/>
<path id="Vector_13" d="M8.30426 0.0348047C8.08078 -0.059707 7.82291 0.0448828 7.72834 0.268418L6.27246 3.71133C6.17795 3.93486 6.28248 4.19268 6.50607 4.28725C6.56197 4.31086 6.61992 4.32205 6.67699 4.32205C6.84826 4.32205 7.01104 4.22127 7.08193 4.05363L8.53787 0.610723C8.63238 0.387188 8.52779 0.129316 8.30426 0.0348047Z" fill="var(--fill-0, white)"/>
<path id="Vector_14" d="M25.9508 0.890742H29.0143C29.2571 0.890742 29.4538 0.693984 29.4538 0.451289C29.4538 0.208594 29.2571 0.0118359 29.0143 0.0118359H25.9508C25.708 0.0118359 25.5113 0.208594 25.5113 0.451289C25.5113 0.693984 25.708 0.890742 25.9508 0.890742Z" fill="var(--fill-0, white)"/>
<path id="Vector_15" d="M29.0143 1.72154H25.9508C25.708 1.72154 25.5113 1.9183 25.5113 2.161C25.5113 2.40369 25.708 2.60045 25.9508 2.60045H29.0143C29.2571 2.60045 29.4538 2.40369 29.4538 2.161C29.4538 1.9183 29.2571 1.72154 29.0143 1.72154Z" fill="var(--fill-0, white)"/>
<path id="Vector_16" d="M29.0143 3.43125H25.9508C25.708 3.43125 25.5113 3.62801 25.5113 3.8707C25.5113 4.1134 25.708 4.31016 25.9508 4.31016H29.0143C29.2571 4.31016 29.4538 4.1134 29.4538 3.8707C29.4538 3.62801 29.2571 3.43125 29.0143 3.43125Z" fill="var(--fill-0, white)"/>
</g>
<path id="Vector_17" d="M27.8425 9.0883H13.4489C12.5604 9.0883 11.8376 9.81111 11.8376 10.6996V28.3887C11.8376 29.2772 12.5604 30 13.4489 30H27.8425C28.7309 30 29.4538 29.2772 29.4538 28.3887V10.6996C29.4538 9.81117 28.7309 9.0883 27.8425 9.0883ZM28.5749 28.3887C28.5749 28.7926 28.2463 29.1211 27.8425 29.1211H13.4489C13.045 29.1211 12.7165 28.7926 12.7165 28.3887V10.6996C12.7165 10.2957 13.045 9.96721 13.4489 9.96721H27.8425C28.2463 9.96721 28.5749 10.2957 28.5749 10.6996V28.3887Z" fill="var(--fill-0, white)"/>
<path id="Vector_18" d="M8.3734 22.3326H4.88314C4.64045 22.3326 4.44369 22.5294 4.44369 22.7721C4.44369 23.0147 4.64045 23.2115 4.88314 23.2115H8.3734C8.77729 23.2115 9.10582 23.54 9.10582 23.9439V28.3887C9.10582 28.7926 8.77729 29.1211 8.3734 29.1211H1.61133C1.20744 29.1211 0.878906 28.7926 0.878906 28.3887V23.9439C0.878906 23.54 1.20744 23.2115 1.61133 23.2115H2.83236C3.07506 23.2115 3.27182 23.0147 3.27182 22.7721C3.27182 22.5294 3.07506 22.3326 2.83236 22.3326H1.61133C0.722813 22.3326 1.30385e-08 23.0554 1.30385e-08 23.9439V28.3887C1.30385e-08 29.2772 0.722813 30 1.61133 30H8.3734C9.26191 30 9.98473 29.2772 9.98473 28.3887V23.9439C9.98473 23.0554 9.26191 22.3326 8.3734 22.3326Z" fill="var(--fill-0, white)"/>
<path id="Vector_19" d="M8.3734 9.0883H1.61133C0.722813 9.0883 1.30385e-08 9.81111 1.30385e-08 10.6996V12.61C1.30385e-08 12.8527 0.196758 13.0495 0.439453 13.0495C0.682148 13.0495 0.878906 12.8527 0.878906 12.61V10.6996C0.878906 10.2957 1.20744 9.96721 1.61133 9.96721H8.3734C8.77729 9.96721 9.10582 10.2957 9.10582 10.6996V18.5712C9.10582 18.9751 8.77729 19.3036 8.3734 19.3036H1.61133C1.20744 19.3036 0.878906 18.9751 0.878906 18.5712V14.6608C0.878906 14.4181 0.682148 14.2213 0.439453 14.2213C0.196758 14.2213 1.30385e-08 14.4181 1.30385e-08 14.6608V18.5712C1.30385e-08 19.4597 0.722813 20.1825 1.61133 20.1825H8.3734C9.26191 20.1825 9.98473 19.4597 9.98473 18.5712V10.6996C9.98473 9.81117 9.26191 9.0883 8.3734 9.0883Z" fill="var(--fill-0, white)"/>
<path id="Vector_20" d="M20.6457 20.63C18.9323 20.63 17.443 19.4712 17.0239 17.8121C16.9645 17.5768 16.7254 17.4343 16.4903 17.4937C16.255 17.5531 16.1124 17.7921 16.1718 18.0274C16.6896 20.0772 18.5292 21.5089 20.6457 21.5089C23.1901 21.5089 25.2602 19.4388 25.2602 16.8944C25.2602 14.35 23.1901 12.2799 20.6457 12.2799C18.5293 12.2799 16.6896 13.7115 16.1718 15.7614C16.1123 15.9967 16.255 16.2356 16.4903 16.295C16.7258 16.3545 16.9646 16.212 17.0239 15.9766C17.443 14.3175 18.9323 13.1588 20.6457 13.1588C22.7055 13.1588 24.3813 14.8346 24.3813 16.8944C24.3813 18.9542 22.7055 20.63 20.6457 20.63Z" fill="var(--fill-0, white)"/>
<path id="Vector_21" d="M24.4615 23.3107H16.8299C15.8225 23.3107 15.0029 24.1303 15.0029 25.1377C15.0029 26.1451 15.8225 26.9647 16.8299 26.9647H24.4615C25.4689 26.9647 26.2885 26.1451 26.2885 25.1377C26.2885 24.1303 25.4689 23.3107 24.4615 23.3107ZM24.4615 26.0858H16.8299C16.3072 26.0858 15.8818 25.6605 15.8818 25.1377C15.8818 24.6149 16.3072 24.1896 16.8299 24.1896H24.4615C24.9843 24.1896 25.4096 24.6149 25.4096 25.1377C25.4096 25.6605 24.9843 26.0858 24.4615 26.0858Z" fill="var(--fill-0, white)"/>
</g>
</svg>
