<svg preserveAspectRatio="none" width="100%" height="100%" overflow="visible" style="display: block;" viewBox="0 0 30 30" fill="none" xmlns="http://www.w3.org/2000/svg">
<g id="fi_1220856" clip-path="url(#clip0_0_118)">
<path id="Vector" d="M25.8904 -0.0585937H4.12466C3.46571 -0.0585937 2.92966 0.477449 2.92966 1.1364V28.7462C2.92966 29.4054 3.46571 29.9415 4.12466 29.9415H25.8904C26.5494 29.9415 27.0854 29.4054 27.0854 28.7462V18.1053C27.0854 17.8624 26.8888 17.6658 26.646 17.6658C26.4034 17.6658 26.2065 17.8624 26.2065 18.1053V28.7462C26.2065 28.9207 26.0646 29.0626 25.8904 29.0626H4.12466C3.95025 29.0626 3.80857 28.9207 3.80857 28.7462V5.50782H26.2065V16.4649C26.2065 16.7075 26.4034 16.9043 26.646 16.9043C26.8888 16.9043 27.0854 16.7075 27.0854 16.4649V1.1364C27.0854 0.477449 26.5494 -0.0585937 25.8904 -0.0585937ZM3.80857 4.62892V1.1364C3.80857 0.962221 3.95048 0.820314 4.12466 0.820314H25.8904C26.0649 0.820314 26.2065 0.962221 26.2065 1.1364V4.62892H3.80857Z" fill="var(--fill-0, white)"/>
<path id="Vector_2" d="M24.7417 7.88454C24.7417 7.38168 24.3327 6.97267 23.8298 6.97267H15.8276C15.585 6.97267 15.3882 7.16928 15.3882 7.41212C15.3882 7.65497 15.585 7.85158 15.8276 7.85158H22.3268L15.0076 11.2775L7.68836 7.85158H14.187C14.4296 7.85158 14.6265 7.65497 14.6265 7.41212C14.6265 7.16928 14.4296 6.97267 14.187 6.97267H6.18529C5.68243 6.97267 5.27342 7.38168 5.27342 7.88454V15.6409C5.27342 16.1438 5.68243 16.5528 6.18529 16.5528H23.8298C24.3327 16.5528 24.7417 16.1438 24.7417 15.6409V7.88454ZM23.8628 8.10312V15.4225L16.0442 11.7627L23.8628 8.10312ZM22.3268 15.6739H7.68836L15.0076 12.2479L22.3268 15.6739ZM6.15233 15.4223V8.10312L13.9709 11.7627L6.15233 15.4223Z" fill="var(--fill-0, white)"/>
<path id="Vector_3" d="M23.8298 18.0176H16.6518C16.149 18.0176 15.74 18.4266 15.74 18.9295V26.6858C15.74 27.1887 16.149 27.5977 16.6518 27.5977H23.8298C24.3327 27.5977 24.7417 27.1887 24.7417 26.6858V18.9295C24.7417 18.4266 24.3327 18.0176 23.8298 18.0176ZM23.8628 18.9295V26.0436L17.1909 18.8965H23.8298C23.8481 18.8965 23.8628 18.9114 23.8628 18.9295ZM16.6189 26.6858V19.5717L23.2908 26.7188H16.6518C16.6338 26.7188 16.6189 26.7039 16.6189 26.6858Z" fill="var(--fill-0, white)"/>
<path id="Vector_4" d="M6.18529 18.0176C5.68243 18.0176 5.27342 18.4266 5.27342 18.9295V26.6858C5.27342 27.1887 5.68243 27.5977 6.18529 27.5977H13.3633C13.8661 27.5977 14.2751 27.1887 14.2751 26.6858V18.9295C14.2751 18.4266 13.8661 18.0176 13.3633 18.0176H6.18529ZM6.15233 26.6858V19.5717L12.8242 26.7188H6.18529C6.16698 26.7188 6.15233 26.7039 6.15233 26.6858ZM13.3962 18.9295V26.0436L6.7243 18.8965H13.3633C13.3813 18.8965 13.3962 18.9114 13.3962 18.9295Z" fill="var(--fill-0, white)"/>
<path id="Vector_5" d="M20.2409 1.37696C19.4978 1.37696 18.8933 1.98143 18.8933 2.72462C18.8933 3.4678 19.4978 4.07227 20.2409 4.07227C20.9839 4.07227 21.5886 3.4678 21.5886 2.72462C21.5886 1.98143 20.9839 1.37696 20.2409 1.37696ZM20.2409 3.19337C19.9825 3.19337 19.7722 2.98302 19.7722 2.72462C19.7722 2.46621 19.9825 2.25586 20.2409 2.25586C20.4994 2.25586 20.7097 2.46621 20.7097 2.72462C20.7097 2.98302 20.4994 3.19337 20.2409 3.19337Z" fill="var(--fill-0, white)"/>
<path id="Vector_6" d="M23.394 1.37696C22.6511 1.37696 22.0464 1.98143 22.0464 2.72462C22.0464 3.4678 22.6511 4.07227 23.394 4.07227C24.1372 4.07227 24.7417 3.4678 24.7417 2.72462C24.7417 1.98143 24.1372 1.37696 23.394 1.37696ZM23.394 3.19337C23.1356 3.19337 22.9253 2.98302 22.9253 2.72462C22.9253 2.46621 23.1356 2.25586 23.394 2.25586C23.6527 2.25586 23.8628 2.46621 23.8628 2.72462C23.8628 2.98302 23.6527 3.19337 23.394 3.19337Z" fill="var(--fill-0, white)"/>
</g>
<defs>
<clipPath id="clip0_0_118">
<rect width="30" height="30" fill="white"/>
</clipPath>
</defs>
</svg>
