<svg width="49" height="49" viewBox="0 0 49 49" fill="none" xmlns="http://www.w3.org/2000/svg">
<path d="M47.1212 43.7167C48.3333 42.5046 48.3333 40.4592 47.1212 39.1713L40.1515 32.2016C39.8485 31.8986 39.3939 31.8986 39.0909 32.2016L39.0152 32.2773L37.0455 30.3077C38.3333 28.1864 38.7879 25.6107 38.4091 23.2622C38.4848 22.9592 38.4091 23.944 38.4848 8.41371V8.33796C38.4848 8.03493 38.3333 7.80765 38.0303 7.65614C26.4394 -0.449923 27.2727 0.00462216 26.8939 0.00462216H0.757576C0.30303 0.00462216 0 0.307652 0 0.762198V47.7319C0 48.1864 0.30303 48.4895 0.757576 48.4895H37.6515C38.1061 48.4895 38.4091 48.1864 38.4091 47.7319V40.3077L42.197 44.0955C43.4848 45.3834 45.4545 45.3834 46.7424 44.0955L47.1212 43.7167ZM37.8788 33.338L36.3636 34.8531L34.6212 33.1107C34.9242 32.8834 35.1515 32.6561 35.4545 32.4289C35.6818 32.2016 35.9848 31.8986 36.2121 31.5955L37.8788 33.338ZM21.5909 31.3683C18.0303 27.8077 18.0303 22.1258 21.5909 18.5652C25.1515 15.0046 30.8333 15.0046 34.3939 18.5652C37.9545 22.1258 37.8788 27.8834 34.3939 31.3683C30.9091 34.8531 25.1515 34.9289 21.5909 31.3683ZM35.303 7.58038H27.6515V2.20159L35.0758 7.42887L35.303 7.58038ZM36.8939 46.9743H1.51515V1.51977H26.1364V8.33796C26.1364 8.7925 26.4394 9.09553 26.8939 9.09553H36.8939V19.3228C36.5152 18.641 35.9848 18.0349 35.3788 17.4289C31.2879 13.338 24.6212 13.2622 20.4545 17.4289C16.3636 21.5198 16.3636 28.1864 20.4545 32.3531C23.9394 35.838 29.2424 36.3683 33.3333 33.944L35.303 35.9137L35.2273 35.9895C34.9242 36.2925 34.9242 36.747 35.2273 37.0501L36.8939 38.7167V46.9743ZM46.0606 42.6561L45.7576 42.9592C45.1515 43.5652 44.0152 43.5652 43.3333 42.9592L36.8939 36.5198L36.9697 36.444L39.5455 33.8683L39.6212 33.7925L46.0606 40.2319C46.6667 40.9137 46.6667 42.0501 46.0606 42.6561Z" fill="white"/>
</svg>
