<svg width="50" height="50" viewBox="0 0 50 50" fill="none" xmlns="http://www.w3.org/2000/svg">
<path d="M11.4577 14.5833H34.3744C34.9502 14.5833 35.4161 14.1174 35.4161 13.5416C35.4161 12.9659 34.9502 12.4999 34.3744 12.4999H11.4577C10.8819 12.4999 10.416 12.9659 10.416 13.5416C10.4161 14.1175 10.882 14.5833 11.4577 14.5833Z" fill="white"/>
<path d="M23.9577 25H11.4577C10.8819 25 10.416 25.4659 10.416 26.0417C10.416 26.6175 10.8819 27.0834 11.4577 27.0834H23.9577C24.5335 27.0834 24.9994 26.6175 24.9994 26.0417C24.9994 25.4659 24.5335 25 23.9577 25Z" fill="white"/>
<path d="M46.0124 6.25001C45.952 6.25001 45.8936 6.26515 45.8334 6.26798V6.25001C45.8334 3.95206 43.9637 2.08331 41.6667 2.08331H4.1667C1.86973 2.08331 0 3.95206 0 6.25001V46.875C0 47.2962 0.254297 47.6766 0.642871 47.8373C0.771094 47.8912 0.907324 47.9167 1.0416 47.9167C1.31221 47.9167 1.57871 47.8109 1.77813 47.6115L11.8896 37.5H41.6667C43.9637 37.5 45.8334 35.6314 45.8334 33.3333V16.0558L48.8322 13.0574C48.8322 13.0574 48.8322 13.0574 48.8322 13.0565C49.5748 12.3139 50 11.2864 50 10.2376C50 8.03839 48.2117 6.25001 46.0124 6.25001ZM43.75 33.3333C43.75 34.4818 42.8161 35.4166 41.6667 35.4166H11.4583C11.1816 35.4166 10.9171 35.5265 10.7218 35.7218L2.0833 44.3604V6.25001C2.0833 5.10157 3.01719 4.16671 4.1666 4.16671H41.6666C42.8162 4.16671 43.75 5.10157 43.75 6.25001V6.96154C43.5522 7.09747 43.3631 7.24698 43.1926 7.41779L31.8586 18.75H11.4583C10.8825 18.75 10.4166 19.2159 10.4166 19.7917C10.4166 20.3675 10.8825 20.8334 11.4583 20.8334H30.1873L29.187 25.8373C29.1179 26.1791 29.2257 26.5321 29.4719 26.7782C29.6692 26.9756 29.9357 27.0834 30.2084 27.0834C30.2756 27.0834 30.3447 27.0763 30.4118 27.0631L35.6182 26.0214C35.8216 25.9807 36.0067 25.882 36.1512 25.7365L43.75 18.1389V33.3333ZM34.902 24.0407L31.5369 24.7142L32.2104 21.345L41.6662 11.8892L44.3603 14.5832L34.902 24.0407ZM47.3592 11.5845L45.8333 13.1104L43.1391 10.4161L44.6654 8.88976C45.0194 8.53673 45.5098 8.33331 46.0123 8.33331C47.0621 8.33331 47.9166 9.18781 47.9166 10.2376C47.9167 10.7381 47.7132 11.2295 47.3592 11.5845Z" fill="white"/>
</svg>
