<svg width="50" height="50" viewBox="0 0 50 50" fill="none" xmlns="http://www.w3.org/2000/svg">
<g clip-path="url(#clip0_375_2302)">
<path d="M28.7382 11.3899C27.5268 11.0579 26.269 10.8895 25 10.8895C17.2194 10.8895 10.8896 17.2194 10.8896 25C10.8896 32.7806 17.2194 39.1104 25 39.1104C32.7806 39.1104 39.1105 32.7806 39.1105 25C39.1105 23.7309 38.9421 22.4732 38.6101 21.2618C38.3819 20.4296 38.8717 19.57 39.7039 19.3419C40.5356 19.1139 41.3957 19.6035 41.6238 20.4357C42.0296 21.9163 42.2355 23.4519 42.2355 25C42.2355 34.5036 34.5036 42.2354 25 42.2354C15.4964 42.2354 7.76455 34.5036 7.76455 25C7.76455 15.4964 15.4964 7.76454 25 7.76454C26.5481 7.76454 28.0837 7.97031 29.5643 8.37617C30.2583 8.5664 30.7142 9.19589 30.7141 9.88241C30.7141 10.019 30.6959 10.1579 30.6581 10.2961C30.4301 11.1283 29.5706 11.6184 28.7382 11.3899ZM47.033 16.8398C46.2056 17.0849 45.7333 17.9541 45.9783 18.7816C46.5733 20.7914 46.875 22.8835 46.875 25C46.875 37.0619 37.0619 46.875 25 46.875C12.9381 46.875 3.125 37.0619 3.125 25C3.125 12.9381 12.9381 3.12499 25 3.12499C27.1166 3.12499 29.2087 3.42665 31.2181 4.02158C32.0456 4.26669 32.9148 3.79423 33.1599 2.96689C33.2036 2.81894 33.2245 2.66982 33.2245 2.52304C33.2247 1.84872 32.7848 1.22636 32.1052 1.02509C29.8075 0.344818 27.4171 -6.30239e-06 25 -6.30239e-06C18.3223 -6.30239e-06 12.0441 2.60048 7.32227 7.32226C2.60049 12.0442 0 18.3223 0 25C0 31.6777 2.60049 37.9559 7.32227 42.6777C12.044 47.3996 18.3223 50 25 50C31.6777 50 37.9558 47.3995 42.6777 42.6777C47.3995 37.9559 50 31.6777 50 25C50 22.5831 49.6551 20.1925 48.9748 17.8945C48.7299 17.0671 47.8604 16.5952 47.033 16.8398ZM25 18.75C25.2298 18.75 25.4618 18.7627 25.6897 18.7877C26.5479 18.8821 27.3193 18.2627 27.4133 17.405C27.5074 16.5472 26.8884 15.7755 26.0306 15.6814C25.6897 15.6439 25.3432 15.625 25 15.625C19.8306 15.625 15.625 19.8306 15.625 25C15.625 30.1694 19.8306 34.375 25 34.375C30.1694 34.375 34.375 30.1694 34.375 25C34.375 24.137 33.6755 23.4375 32.8125 23.4375C31.9495 23.4375 31.25 24.137 31.25 25C31.25 28.4463 28.4463 31.25 25 31.25C21.5537 31.25 18.75 28.4463 18.75 25C18.75 21.5537 21.5537 18.75 25 18.75ZM32.9779 14.8126L33.7562 7.00527C33.792 6.64609 33.951 6.31054 34.2062 6.05536L39.8041 0.457611C40.2354 0.0264585 40.8777 -0.114459 41.4499 0.0965757C42.0219 0.307611 42.4189 0.83222 42.4667 1.44013L42.9105 7.08954L48.5599 7.53329C49.1678 7.58105 49.6924 7.97812 49.9034 8.55009C50.1145 9.12216 49.9735 9.76474 49.5424 10.1959L43.9445 15.7936C43.6895 16.0488 43.3538 16.2078 42.9947 16.2435L35.1876 17.0223L26.1049 26.1049C25.7997 26.41 25.3999 26.5625 25 26.5625C24.6 26.5625 24.2003 26.41 23.8952 26.1048C23.285 25.4946 23.285 24.5053 23.8952 23.8951L32.9779 14.8126ZM36.2215 13.7787L42.1293 13.1894L44.9355 10.3833L41.3351 10.1005C40.5687 10.0402 39.96 9.43144 39.8997 8.66513L39.6169 5.06445L36.8105 7.8707L36.2215 13.7787Z" fill="white"/>
</g>
<defs>
<clipPath id="clip0_375_2302">
<rect width="50" height="50" fill="white"/>
</clipPath>
</defs>
</svg>
