<svg preserveAspectRatio="none" width="100%" height="100%" overflow="visible" style="display: block;" viewBox="0 0 40 39.998" fill="none" xmlns="http://www.w3.org/2000/svg">
<g id="Group">
<path id="Vector" d="M9.605 39.998C5.56439 39.998 2.0462 37.6879 0.634029 34.1126C-0.304699 31.729 -0.198582 29.1087 0.936054 26.7252C2.05436 24.3824 4.02977 22.554 6.51128 21.5744C7.7602 21.0765 9.06625 20.8316 10.3886 20.8316C12.6661 20.8316 14.8374 21.5826 16.5353 22.9294C18.9351 20.8969 21.1146 18.8072 23.0247 16.6849C20.7718 13.9503 20.1677 10.0648 21.5717 6.51395C23.1145 2.62028 26.8123 0 30.7958 0C31.9386 0 33.0569 0.212234 34.118 0.636702C38.9913 2.56313 41.2932 8.33427 39.2606 13.5014C39.2606 13.5014 38.6158 15.0931 38.5586 15.1829C27.6612 32.2433 16.1679 37.9654 14.9517 38.5368C12.862 39.7612 10.9355 39.998 9.605 39.998ZM10.3886 24.162C9.48256 24.162 8.59281 24.3335 7.73571 24.6763C6.03784 25.3456 4.69097 26.5864 3.93998 28.1618C3.20533 29.6964 3.13186 31.378 3.72775 32.8963C4.63383 35.19 6.93575 36.6757 9.605 36.6757C11.8988 36.6757 13.4334 35.5737 13.4905 35.5492C13.6048 35.5002 24.9838 30.1781 35.6608 13.5258L36.1588 12.2769C37.5219 8.82404 36.0608 4.9875 32.8936 3.73859C32.2243 3.47737 31.5223 3.33861 30.7958 3.33861C28.1755 3.33861 25.7185 5.10994 24.6736 7.73838C23.5961 10.4729 24.29 13.6075 26.3715 15.3462C27.2204 16.0563 27.0164 17.1991 26.5674 17.7052C23.9635 20.652 20.9759 23.6396 17.523 26.4476C16.8291 27.0109 15.8169 26.9292 15.2292 26.2599C14.0456 24.9212 12.2824 24.162 10.3886 24.162Z" fill="var(--fill-0, white)"/>
</g>
</svg>
