<svg viewBox="0 0 40 40" width="40" height="40" fill="none" xmlns="http://www.w3.org/2000/svg">
<svg x="19.66" y="18.78" width="1.56" height="1.56" viewBox="0 0 1.5625 1.5623" overflow="visible"><g id="Group">
<path id="Vector" d="M1.33398 0.229101C1.02851 -0.076367 0.533983 -0.076367 0.228515 0.229101C-0.0761717 0.533788 -0.0761717 1.02832 0.228515 1.33379C0.533983 1.63847 1.02851 1.63847 1.33398 1.33379C1.63867 1.02832 1.63867 0.533788 1.33398 0.229101Z" fill="var(--fill-0, white)"/>
</g>
</svg>
<svg x="24.26" y="7.92" width="7.81" height="7.81" viewBox="0 0 7.8113 7.81126" overflow="visible"><g id="Group">
<path id="Vector" d="M6.66638 1.14489C5.13982 -0.381591 2.66857 -0.381669 1.14193 1.14489C-0.380643 2.66747 -0.380722 5.14559 1.14217 6.66941C2.66529 8.1916 5.14341 8.19222 6.66638 6.66925C8.19278 5.14285 8.19309 2.67153 6.66638 1.14489ZM5.56153 5.56434C4.64802 6.47793 3.16099 6.47793 2.24701 5.56449C1.33334 4.65027 1.33326 3.16325 2.24685 2.24973C3.16271 1.33387 4.64552 1.33372 5.56153 2.24973C6.47739 3.16551 6.47755 4.6484 5.56153 5.56434Z" fill="var(--fill-0, white)"/>
</g>
</svg>
<svg x="7.50" y="0.00" width="32.50" height="32.50" viewBox="0 0 32.4984 32.4985" overflow="visible"><g id="Group">
<path id="Vector" d="M32.2696 0.228835C32.1162 0.0754762 31.9068 -0.00764858 31.6892 0.00055453C31.5125 0.00688264 27.3067 0.175945 22.3071 1.94305C18.3008 3.35758 14.9615 5.38281 12.3819 7.96249C11.8039 8.54054 11.2414 9.15351 10.7032 9.7903C8.15256 8.2889 6.10866 8.75968 4.81655 9.45116C1.84148 11.0433 0 15.3665 0 18.4586C0.000234375 18.7746 0.190625 19.0595 0.482499 19.1804C0.57914 19.2204 0.680702 19.2399 0.781327 19.2399C0.984686 19.2399 1.18445 19.1604 1.3339 19.0111C2.90289 17.4421 4.83812 17.5402 5.4703 17.6233L5.74389 17.8969C5.20546 19.1782 4.77171 20.4522 4.45359 21.6914C4.33874 22.1398 4.37749 22.6143 4.54819 23.0484C3.79601 23.395 3.07031 23.904 2.43843 24.5359C0.427422 26.547 0.0190628 31.4481 0.00265657 31.6557C-0.0153121 31.8836 0.0673436 32.108 0.228984 32.2696C0.376093 32.4167 0.575077 32.4985 0.781327 32.4985C0.801795 32.4985 0.822342 32.4977 0.842889 32.496C1.05054 32.4797 5.95179 32.0714 7.9628 30.0603C8.59444 29.4287 9.10334 28.7031 9.44998 27.951C9.90951 28.1317 10.3825 28.154 10.8078 28.045C12.0464 27.727 13.3203 27.2934 14.6017 26.7549L14.8753 27.0285C14.9583 27.6607 15.0565 29.596 13.4876 31.1648C13.2642 31.3882 13.1973 31.7242 13.3183 32.0161C13.4391 32.3081 13.724 32.4984 14.04 32.4984C17.1322 32.4984 21.4552 30.6569 23.0474 27.6818C23.7389 26.3899 24.2096 24.346 22.7082 21.7953C23.3447 21.2573 23.9578 20.6948 24.536 20.1165C27.1157 17.5368 29.1409 14.1976 30.5554 10.1916C32.3226 5.19179 32.4916 0.985865 32.4979 0.809303C32.5057 0.592507 32.423 0.382273 32.2696 0.228835ZM1.74672 16.7783C2.23203 14.4296 3.64163 11.8523 5.55413 10.8287C6.83217 10.1448 8.22913 10.2119 9.71444 11.0249C8.44905 12.6891 7.34897 14.4821 6.43202 16.3754C6.42038 16.3683 6.27975 16.1915 6.0185 16.1326C5.91108 16.1083 3.84398 15.6636 1.74672 16.7783ZM6.85796 28.9554C5.78374 30.0296 3.26382 30.5962 1.67109 30.8275C1.9025 29.2347 2.46914 26.7149 3.54327 25.6407C4.14484 25.0392 4.84233 24.5831 5.54343 24.3262L8.17249 26.9553C7.91561 27.6564 7.4596 28.3539 6.85796 28.9554ZM10.4197 26.5314C10.1936 26.5893 9.9317 26.5043 9.73701 26.31C8.72631 25.2993 8.33092 24.9039 8.20686 24.7799C7.97936 24.5524 7.42147 23.9945 6.18921 22.7622C5.99436 22.5669 5.90936 22.3051 5.9671 22.0794C6.21733 21.1049 6.5446 20.105 6.94256 19.0956L13.4031 25.5561C12.3935 25.9542 11.3938 26.2814 10.4197 26.5314ZM21.67 26.9446C20.6464 28.857 18.0692 30.2667 15.7206 30.7519C16.4694 29.3428 16.6345 27.5489 16.3609 26.4612C16.2974 26.2086 16.1325 26.0815 16.1233 26.0666C18.0165 25.1496 19.8094 24.0496 21.4738 22.7842C22.2868 24.2696 22.3538 25.6668 21.67 26.9446ZM23.4314 19.0117C22.7274 19.7156 21.9693 20.3957 21.1782 21.0329C19.2765 22.5642 17.1834 23.8612 14.9503 24.8937L7.60499 17.5486C8.63748 15.3153 9.93451 13.2222 11.4656 11.3207C12.1034 10.529 12.7834 9.77093 13.4871 9.06733C15.8015 6.75281 18.7886 4.91078 22.3676 3.58484L28.9139 10.1311C27.5881 13.7101 25.746 16.6971 23.4314 19.0117ZM29.476 8.48335L24.0153 3.02274C26.9904 2.09868 29.5786 1.75266 30.8705 1.62829C30.746 2.92039 30.3999 5.50859 29.476 8.48335Z" fill="var(--fill-0, white)"/>
</g>
</svg>
<svg x="15.24" y="32.04" width="3.77" height="3.77" viewBox="0 0 3.77185 3.77261" overflow="visible"><g id="Group">
<path id="Vector" d="M3.54299 0.228731C3.23776 -0.0763468 2.74307 -0.0761919 2.43807 0.228886L0.228701 2.43904C-0.0762986 2.74419 -0.0762206 3.23888 0.228857 3.54388C0.534091 3.84888 1.02878 3.84888 1.33378 3.54372L3.54315 1.33357C3.84815 1.02842 3.84807 0.53373 3.54299 0.228731Z" fill="var(--fill-0, white)"/>
</g>
</svg>
<svg x="4.19" y="20.99" width="3.77" height="3.77" viewBox="0 0 3.77261 3.77183" overflow="visible"><g id="Group">
<path id="Vector" d="M3.54392 0.228887C3.23892 -0.0762688 2.74431 -0.0762699 2.43908 0.228729L0.228925 2.4381C-0.0762304 2.7431 -0.0763084 3.23779 0.228691 3.54294C0.533612 3.84794 1.02822 3.84825 1.33353 3.5431L3.54368 1.33373C3.84884 1.02873 3.84892 0.534042 3.54392 0.228887Z" fill="var(--fill-0, white)"/>
</g>
</svg>
<svg x="6.63" y="33.15" width="6.86" height="6.85" viewBox="0 0 6.85469 6.85385" overflow="visible"><g id="Group">
<path id="Vector" d="M6.6259 0.228818C6.32097 -0.0762593 5.82621 -0.0762599 5.52105 0.22874L0.228877 5.52013C-0.0762792 5.82521 -0.0762791 6.3199 0.228798 6.62498C0.53372 6.93006 1.02848 6.93021 1.33364 6.62505L6.62582 1.33366C6.93097 1.02858 6.93097 0.533896 6.6259 0.228818Z" fill="var(--fill-0, white)"/>
</g>
</svg>
<svg x="0.38" y="33.15" width="6.85" height="6.85" viewBox="0 0 6.85469 6.85385" overflow="visible"><g id="Group">
<path id="Vector" d="M6.6259 0.228818C6.3209 -0.0762593 5.82613 -0.0762599 5.52105 0.22874L0.228877 5.52013C-0.0762791 5.82521 -0.0762791 6.3199 0.228798 6.62498C0.53372 6.93006 1.02848 6.93021 1.33364 6.62505L6.62582 1.33366C6.93097 1.02858 6.93097 0.533896 6.6259 0.228818Z" fill="var(--fill-0, white)"/>
</g>
</svg>
<svg x="0.00" y="26.52" width="6.86" height="6.86" viewBox="0 0 6.85391 6.85471" overflow="visible"><g id="Group">
<path id="Vector" d="M6.62504 0.228741C6.32004 -0.0762587 5.82527 -0.0762605 5.52019 0.228817L0.228798 5.521C-0.0762791 5.82615 -0.0762791 6.32076 0.228877 6.62591C0.533954 6.93099 1.02864 6.93099 1.33372 6.62584L6.62511 1.33366C6.93019 1.0285 6.93019 0.533896 6.62504 0.228741Z" fill="var(--fill-0, white)"/>
</g>
</svg>
<svg x="21.86" y="15.47" width="2.67" height="2.67" viewBox="0 0 2.66722 2.66722" overflow="visible"><g id="Group">
<path id="Vector" d="M2.43841 0.228808C2.13326 -0.0762694 1.63873 -0.0762694 1.33349 0.228808L0.228808 1.33349C-0.0762694 1.63857 -0.0762694 2.13326 0.228808 2.43841C0.533964 2.74349 1.02857 2.74349 1.33373 2.43841L2.43841 1.33373C2.74349 1.02865 2.74349 0.533964 2.43841 0.228808Z" fill="var(--fill-0, white)"/>
</g>
</svg>
</svg>