<svg preserveAspectRatio="none" width="100%" height="100%" overflow="visible" style="display: block;" viewBox="0 0 34.7864 34.7864" fill="none" xmlns="http://www.w3.org/2000/svg">
<g id="Project Scope">
<path id="Vector" d="M12.6263 19.4165C12.3586 18.791 12.2178 18.1186 12.2119 17.4383C12.206 16.7579 12.3353 16.0832 12.5922 15.4532C13.0411 14.3425 13.8612 13.4218 14.9129 12.848C15.9645 12.2742 17.1825 12.0828 18.3595 12.3064C19.5364 12.53 20.5994 13.1547 21.3673 14.0742C22.1353 14.9937 22.5607 16.151 22.571 17.3489C22.5813 18.5469 22.176 19.7113 21.424 20.6439C20.672 21.5765 19.62 22.2195 18.4471 22.4633C17.2742 22.7072 16.053 22.5368 14.9916 21.9813C13.9303 21.4257 13.0944 20.5193 12.6263 19.4165ZM13.7506 15.9213C13.5085 16.5203 13.4179 17.1698 13.4868 17.8122C13.5557 18.4546 13.782 19.0701 14.1456 19.6042C14.5092 20.1383 14.9989 20.5744 15.5713 20.8741C16.1438 21.1737 16.7812 21.3275 17.4273 21.3218C18.0734 21.3162 18.7081 21.1514 19.2752 20.8418C19.8423 20.5323 20.3244 20.0877 20.6786 19.5474C21.0329 19.0071 21.2484 18.3877 21.3061 17.7442C21.3639 17.1007 21.262 16.4529 21.0095 15.8582C20.7155 15.1328 20.2101 14.5126 19.559 14.0781C18.908 13.6436 18.1413 13.4149 17.3586 13.4217C16.5759 13.4286 15.8133 13.6705 15.1699 14.1163C14.5265 14.562 14.032 15.1909 13.7506 15.9213Z" fill="var(--fill-0, white)"/>
<path id="Vector_2" d="M14.5294 27.1414L12.6154 26.3684C12.4074 26.2847 12.2335 26.1336 12.1215 25.9393C12.0096 25.7451 11.9659 25.5189 11.9977 25.2969L12.2211 23.6926C11.8254 23.3674 11.4613 23.0055 11.1334 22.612L9.55629 22.8607C9.3348 22.8967 9.10766 22.857 8.91147 22.7481C8.71527 22.6392 8.56144 22.4674 8.47475 22.2605L7.6685 20.3614C7.58054 20.1551 7.56431 19.9252 7.6224 19.7086C7.6805 19.492 7.80956 19.3012 7.98894 19.1666L9.28227 18.1906C9.23172 17.6807 9.22968 17.1671 9.27617 16.6568L7.98528 15.7175C7.80382 15.5859 7.67171 15.3973 7.61008 15.1819C7.54845 14.9664 7.56085 14.7364 7.64531 14.5288L8.4174 12.6157C8.50137 12.4079 8.65242 12.2342 8.84653 12.1221C9.04063 12.0101 9.26664 11.9662 9.48857 11.9974L11.0938 12.2214C11.4188 11.8255 11.7805 11.4613 12.1741 11.1335L11.9257 9.55597C11.8906 9.33444 11.9307 9.10753 12.0397 8.91148C12.1486 8.71544 12.3202 8.56156 12.5269 8.47444L14.4251 7.66846C14.6311 7.58061 14.8606 7.56431 15.077 7.62217C15.2934 7.68003 15.4842 7.80871 15.6189 7.98767L16.5961 9.28223C17.1058 9.23183 17.6192 9.22978 18.1293 9.27612L19.0686 7.98523C19.2005 7.80432 19.3891 7.67261 19.6043 7.61097C19.8196 7.54934 20.0493 7.5613 20.257 7.64496L22.171 8.41797C22.379 8.50172 22.5529 8.6528 22.6649 8.84705C22.7769 9.0413 22.8205 9.26749 22.7887 9.48944L22.5653 11.0934C22.9611 11.4187 23.3253 11.7806 23.653 12.1744L25.2301 11.9257C25.4513 11.891 25.6776 11.9311 25.8735 12.0394C26.0694 12.1478 26.2235 12.3183 26.3117 12.5241L27.1185 14.425C27.2062 14.6314 27.2223 14.8611 27.1642 15.0777C27.1062 15.2942 26.9773 15.4851 26.7981 15.6198L25.5041 16.5961C25.5547 17.1059 25.5567 17.6194 25.5103 18.1296L26.8011 19.0689C26.9826 19.2004 27.1147 19.389 27.1764 19.6045C27.238 19.82 27.2256 20.05 27.1411 20.2576L26.3691 22.1707C26.2855 22.3788 26.1345 22.5529 25.9403 22.665C25.7461 22.7771 25.5199 22.8207 25.2979 22.789L23.6927 22.565C23.3677 22.9609 23.0059 23.3251 22.6123 23.6529L22.8607 25.2304C22.8959 25.4519 22.8557 25.6788 22.7467 25.8749C22.6378 26.0709 22.4662 26.2248 22.2595 26.3119L20.3613 27.1179C20.1552 27.2056 19.9258 27.2218 19.7094 27.164C19.493 27.1061 19.3023 26.9775 19.1675 26.7987L18.1903 25.5041C17.6806 25.5548 17.1672 25.5569 16.6571 25.5102L15.7178 26.8011C15.5861 26.9824 15.3976 27.1144 15.1822 27.1761C14.9669 27.2377 14.7371 27.2255 14.5294 27.1414ZM13.2617 25.2814L14.82 25.9106L15.8606 24.4803C15.9273 24.3889 16.0175 24.3172 16.1216 24.273C16.2257 24.2287 16.3399 24.2134 16.452 24.2288C17.0924 24.3181 17.7423 24.3156 18.3819 24.2215C18.4928 24.2056 18.6059 24.2196 18.7095 24.2622C18.813 24.3047 18.9033 24.3742 18.9709 24.4635L20.0494 25.8923L21.5961 25.2356L21.3208 23.4878C21.3031 23.3761 21.3161 23.2617 21.3583 23.1568C21.4006 23.0519 21.4705 22.9604 21.5607 22.8921C22.0765 22.5022 22.5345 22.0412 22.9211 21.5228C22.9875 21.4324 23.0772 21.3618 23.1807 21.3186C23.2841 21.2754 23.3974 21.2612 23.5083 21.2775L25.2814 21.5247L25.9106 19.967L24.48 18.9258C24.3886 18.8591 24.317 18.7689 24.2728 18.6647C24.2286 18.5606 24.2135 18.4464 24.2291 18.3344C24.3176 17.6939 24.3152 17.0442 24.2218 16.4044C24.2056 16.2936 24.2196 16.1804 24.2621 16.0767C24.3046 15.9731 24.3741 15.8827 24.4635 15.8151L25.8929 14.7366L25.2362 13.1903L23.4882 13.4659C23.3763 13.4837 23.2617 13.4708 23.1566 13.4284C23.0516 13.386 22.96 13.3158 22.8918 13.2254C22.5018 12.7096 22.0409 12.2514 21.5228 11.8643C21.433 11.7975 21.3628 11.7077 21.3196 11.6044C21.2764 11.5011 21.2619 11.3881 21.2775 11.2772L21.5247 9.50501L19.9664 8.87574L18.9258 10.3061C18.859 10.3974 18.7688 10.4689 18.6647 10.5132C18.5606 10.5575 18.4465 10.5728 18.3344 10.5576C17.694 10.4684 17.0442 10.4709 16.4044 10.5649C16.2936 10.5812 16.1804 10.5673 16.0767 10.5247C15.9731 10.4821 15.8828 10.4124 15.8155 10.3229L14.7369 8.89404L13.1903 9.55078L13.4656 11.2985C13.4833 11.4102 13.4703 11.5246 13.428 11.6296C13.3858 11.7345 13.3159 11.8259 13.2257 11.8942C12.7099 12.2842 12.2518 12.7452 11.8652 13.2635C11.7983 13.3533 11.7085 13.4234 11.6052 13.4666C11.5019 13.5097 11.3889 13.5243 11.2781 13.5089L9.50501 13.2617L8.87573 14.8193L10.3064 15.8606C10.3978 15.9273 10.4694 16.0175 10.5136 16.1216C10.5578 16.2258 10.5728 16.34 10.5572 16.452C10.4687 17.0925 10.4712 17.7422 10.5646 18.3819C10.5807 18.4928 10.5668 18.606 10.5243 18.7096C10.4818 18.8133 10.4122 18.9036 10.3229 18.9712L8.89404 20.0494L9.55078 21.5961L11.2982 21.3205C11.4099 21.3026 11.5244 21.3155 11.6294 21.3577C11.7343 21.4 11.8258 21.47 11.8939 21.5604C12.2842 22.0763 12.7453 22.5346 13.2636 22.9217C13.3534 22.9886 13.4236 23.0783 13.4668 23.1817C13.51 23.285 13.5245 23.398 13.5089 23.5089L13.2617 25.2814Z" fill="var(--fill-0, white)"/>
<path id="Vector_3" d="M34.1614 2.27955e-08H31.5094C31.3436 2.27955e-08 31.1847 0.0658482 31.0675 0.183058C30.9502 0.300269 30.8844 0.45924 30.8844 0.625C30.8844 0.79076 30.9502 0.949732 31.0675 1.06694C31.1847 1.18415 31.3436 1.25 31.5094 1.25H32.6526L26.4331 7.46948C26.3187 7.58726 26.2553 7.74531 26.2565 7.90947C26.2577 8.07363 26.3235 8.23072 26.4395 8.3468C26.5556 8.46289 26.7127 8.52864 26.8769 8.52985C27.041 8.53106 27.1991 8.46763 27.3169 8.35327L33.5364 2.13381V3.27667C33.5364 3.44243 33.6022 3.6014 33.7194 3.71861C33.8366 3.83582 33.9956 3.90167 34.1614 3.90167C34.3271 3.90167 34.4861 3.83582 34.6033 3.71861C34.7205 3.6014 34.7864 3.44243 34.7864 3.27667V0.625C34.7864 0.542918 34.7702 0.461635 34.7388 0.385797C34.7074 0.309958 34.6614 0.24105 34.6034 0.183009C34.5453 0.124968 34.4764 0.0789316 34.4006 0.0475303C34.3247 0.0161289 34.2435 -2.21484e-05 34.1614 2.27955e-08Z" fill="var(--fill-0, white)"/>
<path id="Vector_4" d="M8.35327 7.46948L2.13381 1.25H3.277C3.44276 1.25 3.60173 1.18415 3.71894 1.06694C3.83615 0.949732 3.902 0.79076 3.902 0.625C3.902 0.45924 3.83615 0.300269 3.71894 0.183058C3.60173 0.0658482 3.44276 8.24002e-08 3.277 8.24002e-08H0.625C0.542918 -2.20888e-05 0.461635 0.016129 0.385797 0.0475303C0.309958 0.0789317 0.24105 0.124968 0.183009 0.183009C0.124968 0.24105 0.0789317 0.309958 0.0475303 0.385797C0.016129 0.461635 -2.20888e-05 0.542918 8.24002e-08 0.625V3.27667C8.24002e-08 3.44243 0.0658482 3.6014 0.183058 3.71861C0.300269 3.83582 0.45924 3.90167 0.625 3.90167C0.79076 3.90167 0.949732 3.83582 1.06694 3.71861C1.18415 3.6014 1.25 3.44243 1.25 3.27667V2.13381L7.46948 8.35329C7.5868 8.46991 7.74558 8.53526 7.911 8.53501C8.07642 8.53476 8.235 8.46894 8.35197 8.35197C8.46894 8.23499 8.53476 8.07642 8.535 7.91099C8.53525 7.74557 8.46989 7.5868 8.35327 7.46948Z" fill="var(--fill-0, white)"/>
<path id="Vector_5" d="M33.5364 31.5097V32.6526L27.3169 26.4331C27.1994 26.3173 27.0409 26.2527 26.876 26.2534C26.7111 26.254 26.5531 26.3198 26.4364 26.4364C26.3198 26.553 26.254 26.711 26.2534 26.876C26.2528 27.0409 26.3174 27.1994 26.4331 27.3169L32.6526 33.5364H31.5094C31.3436 33.5364 31.1846 33.6022 31.0674 33.7194C30.9502 33.8366 30.8844 33.9956 30.8844 34.1614C30.8844 34.3271 30.9502 34.4861 31.0674 34.6033C31.1846 34.7205 31.3436 34.7864 31.5094 34.7864H34.1614C34.2435 34.7864 34.3247 34.7702 34.4006 34.7388C34.4764 34.7074 34.5453 34.6614 34.6034 34.6034C34.6614 34.5453 34.7074 34.4764 34.7388 34.4006C34.7702 34.3247 34.7864 34.2435 34.7864 34.1614V31.5097C34.7864 31.3439 34.7205 31.185 34.6033 31.0678C34.4861 30.9506 34.3271 30.8847 34.1614 30.8847C33.9956 30.8847 33.8366 30.9506 33.7194 31.0678C33.6022 31.185 33.5364 31.3439 33.5364 31.5097Z" fill="var(--fill-0, white)"/>
<path id="Vector_6" d="M7.46948 26.4331L1.25 32.6526V31.5097C1.25 31.3439 1.18415 31.185 1.06694 31.0678C0.949732 30.9506 0.79076 30.8847 0.625 30.8847C0.45924 30.8847 0.300269 30.9506 0.183058 31.0678C0.0658482 31.185 2.27955e-08 31.3439 2.27955e-08 31.5097V34.1614C-2.21484e-05 34.2435 0.0161289 34.3247 0.0475303 34.4006C0.0789316 34.4764 0.124968 34.5453 0.183009 34.6034C0.24105 34.6614 0.309958 34.7074 0.385797 34.7388C0.461635 34.7702 0.542918 34.7864 0.625 34.7864H3.27698C3.44274 34.7864 3.60171 34.7205 3.71892 34.6033C3.83613 34.4861 3.90198 34.3271 3.90198 34.1614C3.90198 33.9956 3.83613 33.8366 3.71892 33.7194C3.60171 33.6022 3.44274 33.5364 3.27698 33.5364H2.13381L8.35329 27.3169C8.46945 27.1995 8.53441 27.0409 8.53396 26.8757C8.53351 26.7105 8.4677 26.5523 8.35091 26.4355C8.23412 26.3187 8.07585 26.2529 7.91068 26.2524C7.74552 26.252 7.5869 26.3169 7.46948 26.4331Z" fill="var(--fill-0, white)"/>
<path id="Vector_7" d="M5.90881 16.7682H2.88635L3.69447 15.9601C3.80974 15.8425 3.87394 15.6841 3.87311 15.5195C3.87229 15.3548 3.80651 15.1971 3.69007 15.0807C3.57363 14.9642 3.41594 14.8985 3.25128 14.8977C3.08661 14.8968 2.92828 14.961 2.81069 15.0763L0.935688 16.9513C0.877637 17.0093 0.831587 17.0782 0.800169 17.154C0.76875 17.2299 0.752579 17.3111 0.752579 17.3932C0.752579 17.4753 0.76875 17.5565 0.800169 17.6324C0.831587 17.7082 0.877637 17.7771 0.935688 17.8351L2.81069 19.7101C2.92824 19.8256 3.08664 19.8899 3.25142 19.8892C3.4162 19.8885 3.57402 19.8227 3.69053 19.7062C3.80705 19.5896 3.87283 19.4318 3.87356 19.267C3.87429 19.1023 3.80991 18.9439 3.69444 18.8263L2.88635 18.0182H5.90881C6.07457 18.0182 6.23354 17.9523 6.35075 17.8351C6.46796 17.7179 6.53381 17.5589 6.53381 17.3932C6.53381 17.2274 6.46796 17.0685 6.35075 16.9512C6.23354 16.834 6.07457 16.7682 5.90881 16.7682Z" fill="var(--fill-0, white)"/>
<path id="Vector_8" d="M33.8507 16.9513L31.9757 15.0763C31.858 14.9614 31.6998 14.8975 31.5354 14.8985C31.3709 14.8995 31.2135 14.9653 31.0972 15.0815C30.9809 15.1978 30.9151 15.3553 30.9141 15.5197C30.9132 15.6842 30.977 15.8424 31.0919 15.9601L31.9 16.7682H28.8776C28.7118 16.7682 28.5528 16.834 28.4356 16.9512C28.3184 17.0685 28.2526 17.2274 28.2526 17.3932C28.2526 17.5589 28.3184 17.7179 28.4356 17.8351C28.5528 17.9523 28.7118 18.0182 28.8776 18.0182H31.9L31.0919 18.8263C30.9778 18.9441 30.9146 19.1021 30.9159 19.2661C30.9173 19.4301 30.983 19.587 31.099 19.703C31.215 19.819 31.3719 19.8847 31.5359 19.886C31.6999 19.8874 31.8579 19.8242 31.9757 19.7101L33.8507 17.8351C33.9087 17.777 33.9548 17.7082 33.9862 17.6323C34.0176 17.5565 34.0338 17.4753 34.0338 17.3932C34.0338 17.3111 34.0176 17.2299 33.9862 17.154C33.9548 17.0782 33.9087 17.0093 33.8507 16.9513Z" fill="var(--fill-0, white)"/>
<path id="Vector_9" d="M18.8263 31.0919L18.0182 31.9V28.8776C18.0182 28.7118 17.9523 28.5528 17.8351 28.4356C17.7179 28.3184 17.5589 28.2526 17.3932 28.2526C17.2274 28.2526 17.0685 28.3184 16.9512 28.4356C16.834 28.5528 16.7682 28.7118 16.7682 28.8776V31.9L15.9601 31.0919C15.8425 30.9766 15.6841 30.9124 15.5195 30.9133C15.3548 30.9141 15.1971 30.9799 15.0807 31.0963C14.9642 31.2127 14.8985 31.3704 14.8977 31.5351C14.8968 31.6998 14.961 31.8581 15.0763 31.9757L16.9513 33.8507C17.0093 33.9087 17.0782 33.9548 17.154 33.9862C17.2299 34.0176 17.3111 34.0338 17.3932 34.0338C17.4753 34.0338 17.5565 34.0176 17.6324 33.9862C17.7082 33.9548 17.7771 33.9087 17.8351 33.8507L19.7101 31.9757C19.8254 31.8581 19.8896 31.6998 19.8887 31.5351C19.8879 31.3704 19.8221 31.2127 19.7057 31.0963C19.5893 30.9799 19.4316 30.9141 19.2669 30.9133C19.1022 30.9125 18.9439 30.9767 18.8263 31.0919Z" fill="var(--fill-0, white)"/>
<path id="Vector_10" d="M19.7101 2.81069L17.8351 0.935688C17.777 0.877637 17.7082 0.831587 17.6323 0.800169C17.5565 0.76875 17.4752 0.752579 17.3932 0.752579C17.3111 0.752579 17.2298 0.76875 17.154 0.800169C17.0782 0.831587 17.0093 0.877637 16.9513 0.935688L15.0763 2.81069C14.961 2.92828 14.8968 3.08662 14.8976 3.25128C14.8985 3.41595 14.9642 3.57363 15.0807 3.69007C15.1971 3.8065 15.3548 3.87228 15.5195 3.87309C15.6841 3.87391 15.8425 3.80971 15.9601 3.69444L16.7682 2.88635V5.90881C16.7682 6.07457 16.834 6.23354 16.9512 6.35075C17.0685 6.46796 17.2274 6.53381 17.3932 6.53381C17.5589 6.53381 17.7179 6.46796 17.8351 6.35075C17.9523 6.23354 18.0182 6.07457 18.0182 5.90881V2.88635L18.8263 3.69447C18.9439 3.80995 19.1023 3.87431 19.267 3.87358C19.4318 3.87284 19.5896 3.80705 19.7062 3.69053C19.8227 3.57401 19.8884 3.41619 19.8892 3.25141C19.8899 3.08664 19.8255 2.92824 19.7101 2.81069Z" fill="var(--fill-0, white)"/>
</g>
</svg>
