<svg preserveAspectRatio="none" width="100%" height="100%" overflow="visible" style="display: block;" viewBox="0 0 40 40" fill="none" xmlns="http://www.w3.org/2000/svg">
<g id="fi_8297473" clip-path="url(#clip0_0_13)">
<path id="Vector" d="M2 4V32C2.00106 33.0605 2.42283 34.0773 3.17274 34.8273C3.92266 35.5772 4.93946 35.9989 6 36H9.44867C9.29702 36.5371 9.29244 37.1051 9.4354 37.6445C9.57836 38.184 9.86361 38.6752 10.2613 39.0667C10.5689 39.3679 10.9338 39.6044 11.3343 39.7621C11.7349 39.9199 12.163 39.9957 12.5934 39.985C13.0238 39.9744 13.4477 39.8776 13.84 39.7002C14.2323 39.5229 14.585 39.2687 14.8773 38.9527L17.6593 36H22.9487L26.3087 39.414C26.6876 39.7818 27.1949 39.9875 27.723 39.9875C28.2511 39.9875 28.7584 39.7818 29.1373 39.414L30.08 38.4713C30.3988 38.1515 30.6 37.7332 30.6509 37.2845C30.7017 36.8358 30.5992 36.383 30.36 36H34C35.0605 35.9989 36.0773 35.5772 36.8273 34.8273C37.5772 34.0773 37.9989 33.0605 38 32V4C37.9989 2.93946 37.5772 1.92266 36.8273 1.17274C36.0773 0.422825 35.0605 0.00105791 34 -1.04308e-06L6 -1.04308e-06C4.93946 0.00105791 3.92266 0.422825 3.17274 1.17274C2.42283 1.92266 2.00106 2.93946 2 4ZM13.896 38.0487C13.728 38.2376 13.523 38.3901 13.2937 38.4968C13.0644 38.6035 12.8158 38.662 12.563 38.6688C12.3102 38.6756 12.0587 38.6306 11.824 38.5364C11.5894 38.4423 11.3765 38.301 11.1985 38.1214C11.0205 37.9418 10.8812 37.7276 10.7892 37.4921C10.6972 37.2565 10.6545 37.0046 10.6636 36.7519C10.6728 36.4992 10.7336 36.2511 10.8424 36.0228C10.9511 35.7945 11.1055 35.591 11.296 35.4247L17.5133 29.5667L19.2953 31.3507C19.2163 31.6479 19.2425 31.9632 19.3693 32.2433L13.896 38.0487ZM11.6207 26.6667C11.5332 26.7541 11.4718 26.8641 11.4434 26.9844C11.4149 27.1048 11.4204 27.2306 11.4593 27.348L11.7473 28.2147L10.8607 29.1353L8.028 26.3013L8.938 25.3887L9.796 25.676C9.91327 25.7153 10.0392 25.7212 10.1596 25.6931C10.2801 25.665 10.3903 25.6039 10.478 25.5167L11.3147 24.6847C11.4394 24.5587 11.5094 24.3886 11.5094 24.2113C11.5094 24.0341 11.4394 23.864 11.3147 23.738C11.2666 23.6903 11.2285 23.6335 11.2026 23.5709C11.1767 23.5083 11.1636 23.4412 11.1639 23.3735C11.1643 23.3058 11.1782 23.2388 11.2048 23.1765C11.2313 23.1142 11.27 23.0578 11.3187 23.0107L14.652 19.6627C15.5708 18.7357 16.7859 18.1607 18.0853 18.038C17.4707 18.5047 16.8773 18.9987 16.318 19.5047C16.1295 19.6706 15.9772 19.8736 15.8704 20.1009C15.7637 20.3282 15.7047 20.575 15.6973 20.826C15.6896 21.0777 15.7329 21.3283 15.8245 21.5628C15.9162 21.7974 16.0543 22.0109 16.2307 22.1907L16.6307 22.5907C16.7255 22.6882 16.7786 22.8189 16.7786 22.955C16.7786 23.0911 16.7255 23.2218 16.6307 23.3193L14.1287 25.8287C14.0813 25.8761 14.0249 25.9137 13.9629 25.9392C13.9009 25.9648 13.8344 25.9777 13.7673 25.9773C13.7004 25.9779 13.6341 25.965 13.5723 25.9395C13.5104 25.914 13.4543 25.8763 13.4073 25.8287C13.2815 25.7045 13.1118 25.6349 12.935 25.6349C12.7582 25.6349 12.5885 25.7045 12.4627 25.8287L11.6207 26.6667ZM16.7767 25.0553L21.0487 29.3333L20.1073 30.2747L15.834 26L16.7767 25.0553ZM22.8153 23.9887C22.4609 23.1377 22.3681 22.2004 22.549 21.2965C22.7298 20.3925 23.1761 19.5631 23.8307 18.914C24.3595 18.398 24.9863 17.9931 25.6741 17.7231C26.3618 17.4531 27.0967 17.3236 27.8353 17.342C27.8704 17.3411 27.9048 17.351 27.9339 17.3705C27.9631 17.3899 27.9855 17.418 27.998 17.4507C28.0092 17.4771 28.0115 17.5064 28.0046 17.5343C27.9978 17.5622 27.9821 17.5871 27.96 17.6053L25.7233 19.8493C25.5739 19.995 25.4552 20.1692 25.3744 20.3616C25.2935 20.554 25.2521 20.7606 25.2527 20.9693V22.5167C25.253 22.9337 25.4188 23.3336 25.7136 23.6286C26.0085 23.9235 26.4083 24.0895 26.8253 24.09H28.3727C28.7894 24.0881 29.1887 23.9221 29.484 23.628L31.7307 21.3807C31.7539 21.3565 31.7839 21.3398 31.8167 21.3329C31.8495 21.326 31.8837 21.3292 31.9147 21.342C31.9374 21.3476 31.9576 21.3609 31.9718 21.3796C31.986 21.3982 31.9934 21.4212 31.9927 21.4447C32.0219 22.1934 31.8981 22.9402 31.6288 23.6394C31.3596 24.3386 30.9505 24.9756 30.4267 25.5113C29.7782 26.1659 28.9491 26.6121 28.0455 26.7928C27.1419 26.9734 26.205 26.8803 25.3547 26.5253C25.2296 26.4742 25.0921 26.4619 24.96 26.4901C24.8278 26.5182 24.7073 26.5856 24.614 26.6833L22.8613 28.5413C22.6209 28.4661 22.3641 28.4606 22.1207 28.5253L20.4293 26.8267L22.6567 24.724C22.755 24.6313 22.8229 24.5109 22.8512 24.3787C22.8795 24.2465 22.867 24.1089 22.8153 23.984V23.9887ZM18.9167 34.6667L20.25 33.2553L21.6367 34.6667H18.9167ZM29.1373 37.5287L28.1947 38.4713C28.0703 38.5958 27.9018 38.6661 27.7258 38.6669C27.5499 38.6676 27.3807 38.5988 27.2553 38.4753L20.5787 31.69L22.4667 29.8113L22.47 29.8067L29.1373 36.5853C29.1993 36.6472 29.2485 36.7208 29.282 36.8017C29.3156 36.8826 29.3329 36.9694 29.3329 37.057C29.3329 37.1446 29.3156 37.2314 29.282 37.3123C29.2485 37.3932 29.1993 37.4668 29.1373 37.5287ZM34 34.6667H29.12L23.9093 29.3713L25.2813 27.9167C26.3324 28.2618 27.4588 28.3075 28.5344 28.0484C29.6099 27.7894 30.592 27.2359 31.3707 26.45C32.0245 25.7812 32.5351 24.986 32.871 24.1131C33.207 23.2402 33.3614 22.3079 33.3247 21.3733C33.3127 21.0924 33.2182 20.8213 33.0531 20.5937C32.8879 20.3662 32.6594 20.1924 32.396 20.094C32.124 19.9882 31.827 19.964 31.5415 20.0242C31.2559 20.0845 30.9941 20.2267 30.788 20.4333L28.5413 22.6807C28.4961 22.7249 28.4359 22.7503 28.3727 22.752H26.8253C26.7618 22.7518 26.7009 22.7265 26.6561 22.6815C26.6112 22.6365 26.586 22.5755 26.586 22.512V20.9647C26.5859 20.9331 26.5921 20.9018 26.6044 20.8727C26.6167 20.8436 26.6347 20.8173 26.6573 20.7953L28.9033 18.5427C29.1087 18.342 29.2503 18.0851 29.3103 17.8043C29.3703 17.5234 29.3461 17.2311 29.2407 16.964C29.1354 16.6893 28.9514 16.4518 28.7117 16.2813C28.472 16.1107 28.1873 16.0147 27.8933 16.0053C26.9707 15.9825 26.0527 16.1441 25.1934 16.4806C24.334 16.8172 23.5504 17.322 22.8887 17.9653C22.1033 18.7446 21.5501 19.7269 21.2911 20.8026C21.0321 21.8782 21.0774 23.0047 21.422 24.056L19.4887 25.882L17.7027 24.0933C17.9842 23.7397 18.1262 23.295 18.1016 22.8436C18.077 22.3923 17.8876 21.9656 17.5693 21.6447L17.1747 21.248C17.1253 21.1979 17.0867 21.1382 17.0614 21.0726C17.0361 21.007 17.0245 20.9369 17.0273 20.8667C17.0298 20.7955 17.0469 20.7255 17.0775 20.6612C17.1082 20.5969 17.1517 20.5395 17.2053 20.4927C17.9184 19.8478 18.6667 19.2428 19.4467 18.6807C19.6402 18.544 19.7851 18.3492 19.8603 18.1245C19.9355 17.8998 19.937 17.657 19.8647 17.4313C19.7948 17.2099 19.6563 17.0165 19.4692 16.8791C19.2821 16.7416 19.0562 16.6672 18.824 16.6667C17.8771 16.6503 16.9365 16.8232 16.0574 17.1754C15.1783 17.5275 14.3784 18.0518 13.7047 18.7173L10.3753 22.062C10.11 22.3255 9.93084 22.6632 9.86145 23.0307C9.79206 23.3981 9.83572 23.7779 9.98667 24.12L9.82933 24.2767L9.318 24.1053C9.09564 24.0303 8.85669 24.0191 8.62831 24.0731C8.39992 24.1271 8.19125 24.244 8.026 24.4107L7.03267 25.4067C6.79708 25.6431 6.66479 25.9632 6.66479 26.297C6.66479 26.6308 6.79708 26.9509 7.03267 27.1873L9.94667 30.1027C10.1832 30.3399 10.504 30.4738 10.839 30.475C11.1739 30.4763 11.4957 30.3448 11.734 30.1093L12.728 29.114C12.892 28.9488 13.0068 28.7411 13.0593 28.5143C13.1118 28.2875 13.1001 28.0505 13.0253 27.83L12.854 27.316L13.0167 27.1527C13.2514 27.2555 13.505 27.3084 13.7613 27.308C14.1644 27.307 14.5559 27.1727 14.8747 26.926L16.5707 28.6247L10.394 34.444C10.318 34.5107 10.2607 34.5933 10.19 34.668H6C5.29276 34.668 4.61448 34.387 4.11438 33.887C3.61428 33.3869 3.33333 32.7086 3.33333 32.0013V6.66667H36.6667V32C36.6667 32.7072 36.3857 33.3855 35.8856 33.8856C35.3855 34.3857 34.7072 34.6667 34 34.6667ZM6 1.33333H34C34.7072 1.33333 35.3855 1.61428 35.8856 2.11438C36.3857 2.61448 36.6667 3.29276 36.6667 4V5.33333H3.33333V4C3.33333 3.29276 3.61428 2.61448 4.11438 2.11438C4.61448 1.61428 5.29276 1.33333 6 1.33333Z" fill="var(--fill-0, white)"/>
<path id="Vector_2" d="M6 4H6.66667C6.84348 4 7.01305 3.92976 7.13807 3.80474C7.26309 3.67971 7.33333 3.51014 7.33333 3.33333C7.33333 3.15652 7.26309 2.98695 7.13807 2.86193C7.01305 2.7369 6.84348 2.66667 6.66667 2.66667H6C5.82319 2.66667 5.65362 2.7369 5.52859 2.86193C5.40357 2.98695 5.33333 3.15652 5.33333 3.33333C5.33333 3.51014 5.40357 3.67971 5.52859 3.80474C5.65362 3.92976 5.82319 4 6 4Z" fill="var(--fill-0, white)"/>
<path id="Vector_3" d="M9.33333 4H10C10.1768 4 10.3464 3.92976 10.4714 3.80474C10.5964 3.67971 10.6667 3.51014 10.6667 3.33333C10.6667 3.15652 10.5964 2.98695 10.4714 2.86193C10.3464 2.7369 10.1768 2.66667 10 2.66667H9.33333C9.15652 2.66667 8.98695 2.7369 8.86193 2.86193C8.7369 2.98695 8.66667 3.15652 8.66667 3.33333C8.66667 3.51014 8.7369 3.67971 8.86193 3.80474C8.98695 3.92976 9.15652 4 9.33333 4Z" fill="var(--fill-0, white)"/>
<path id="Vector_4" d="M12.6667 4H13.3333C13.5101 4 13.6797 3.92976 13.8047 3.80474C13.9298 3.67971 14 3.51014 14 3.33333C14 3.15652 13.9298 2.98695 13.8047 2.86193C13.6797 2.7369 13.5101 2.66667 13.3333 2.66667H12.6667C12.4899 2.66667 12.3203 2.7369 12.1953 2.86193C12.0702 2.98695 12 3.15652 12 3.33333C12 3.51014 12.0702 3.67971 12.1953 3.80474C12.3203 3.92976 12.4899 4 12.6667 4Z" fill="var(--fill-0, white)"/>
<path id="Vector_5" d="M20 4H30.6667C30.8435 4 31.013 3.92976 31.1381 3.80474C31.2631 3.67971 31.3333 3.51014 31.3333 3.33333C31.3333 3.15652 31.2631 2.98695 31.1381 2.86193C31.013 2.7369 30.8435 2.66667 30.6667 2.66667H20C19.8232 2.66667 19.6536 2.7369 19.5286 2.86193C19.4036 2.98695 19.3333 3.15652 19.3333 3.33333C19.3333 3.51014 19.4036 3.67971 19.5286 3.80474C19.6536 3.92976 19.8232 4 20 4Z" fill="var(--fill-0, white)"/>
<path id="Vector_6" d="M16.5333 9.6C16.4272 9.45855 16.2693 9.36504 16.0943 9.34003C15.9192 9.31503 15.7414 9.36058 15.6 9.46667L12.9333 11.4667C12.8505 11.5288 12.7833 11.6093 12.737 11.7019C12.6908 11.7944 12.6667 11.8965 12.6667 12C12.6667 12.1035 12.6908 12.2056 12.737 12.2981C12.7833 12.3907 12.8505 12.4712 12.9333 12.5333L15.6 14.5333C15.67 14.5859 15.7497 14.6241 15.8345 14.6458C15.9194 14.6675 16.0076 14.6723 16.0943 14.66C16.1809 14.6476 16.2643 14.6183 16.3397 14.5736C16.415 14.529 16.4808 14.47 16.5333 14.4C16.5859 14.33 16.6241 14.2503 16.6458 14.1655C16.6675 14.0806 16.6723 13.9924 16.66 13.9057C16.6476 13.819 16.6183 13.7357 16.5736 13.6603C16.529 13.585 16.47 13.5192 16.4 13.4667L14.4447 12L16.4 10.5333C16.47 10.4808 16.529 10.415 16.5736 10.3397C16.6183 10.2643 16.6476 10.1809 16.66 10.0943C16.6723 10.0076 16.6675 9.91935 16.6458 9.83455C16.6241 9.74974 16.5859 9.67004 16.5333 9.6Z" fill="var(--fill-0, white)"/>
<path id="Vector_7" d="M24.4 9.46667C24.33 9.41414 24.2503 9.37592 24.1655 9.35419C24.0806 9.33246 23.9924 9.32765 23.9057 9.34003C23.7307 9.36504 23.5728 9.45855 23.4667 9.6C23.3606 9.74145 23.315 9.91925 23.34 10.0943C23.365 10.2693 23.4586 10.4272 23.6 10.5333L25.5553 12L23.6 13.4667C23.4586 13.5728 23.365 13.7307 23.34 13.9057C23.315 14.0808 23.3606 14.2586 23.4667 14.4C23.5728 14.5414 23.7307 14.635 23.9057 14.66C24.0808 14.685 24.2585 14.6394 24.4 14.5333L27.0667 12.5333C27.1495 12.4712 27.2167 12.3907 27.263 12.2981C27.3092 12.2056 27.3333 12.1035 27.3333 12C27.3333 11.8965 27.3092 11.7944 27.263 11.7019C27.2167 11.6093 27.1495 11.5288 27.0667 11.4667L24.4 9.46667Z" fill="var(--fill-0, white)"/>
<path id="Vector_8" d="M20.828 8.68667C20.6565 8.64393 20.475 8.67104 20.3235 8.76205C20.172 8.85306 20.0628 9.00052 20.02 9.172L18.6867 14.5053C18.6439 14.6768 18.671 14.8583 18.7621 15.0098C18.8531 15.1613 19.0005 15.2705 19.172 15.3133C19.2248 15.3264 19.2789 15.3332 19.3333 15.3333C19.4819 15.3331 19.6262 15.2833 19.7432 15.1918C19.8603 15.1002 19.9434 14.9722 19.9793 14.828L21.3127 9.49467C21.3554 9.32325 21.3284 9.14188 21.2375 8.99038C21.1467 8.83888 20.9994 8.72964 20.828 8.68667Z" fill="var(--fill-0, white)"/>
</g>
<defs>
<clipPath id="clip0_0_13">
<rect width="40" height="40" fill="white"/>
</clipPath>
</defs>
</svg>
