<svg viewBox="0 0 180 180" width="180" height="180" fill="none" xmlns="http://www.w3.org/2000/svg">
<svg x="19.69" y="107.95" width="23.02" height="11.32" viewBox="0 0 23.023 11.3207" overflow="visible"><g id="Group">
<path id="Vector" d="M20.2128 11.3207C20.0806 11.3207 19.9456 11.3123 19.8078 11.2926C13.3812 10.3644 7.21624 8.34788 1.48999 5.29632C0.120305 4.56507 -0.400007 2.8607 0.331243 1.4882C1.06531 0.12132 2.76124 -0.398989 4.13937 0.329449C9.28624 3.07726 14.8297 4.88851 20.6094 5.72101C22.1478 5.9432 23.2137 7.36913 22.9944 8.90757C22.7919 10.311 21.5881 11.3207 20.2128 11.3207Z" fill="url(#paint0_linear_0_38)"/>
</g>
<defs>
<linearGradient id="paint0_linear_0_38" x1="11.5115" y1="1.54369e-08" x2="11.5115" y2="11.3207" gradientUnits="userSpaceOnUse">
<stop stop-color="white"/>
<stop offset="1" stop-color="white" stop-opacity="0.5"/>
</linearGradient>
</defs></svg>
<svg x="137.29" y="107.95" width="23.02" height="11.32" viewBox="0 0 23.023 11.3179" overflow="visible"><g id="Group">
<path id="Vector" d="M2.81017 11.3179C1.43485 11.3179 0.231109 10.3082 0.0286087 8.90757C-0.190766 7.36913 0.87517 5.9432 2.41361 5.72101C8.19611 4.88851 13.7367 3.07726 18.8836 0.329449C20.2645 -0.398989 21.9577 0.12132 22.6917 1.4882C23.423 2.85788 22.9027 4.56507 21.533 5.29632C15.8067 8.34788 9.64173 10.3644 3.21517 11.2926C3.07736 11.3094 2.94235 11.3179 2.81017 11.3179Z" fill="url(#paint0_linear_1_36)"/>
</g>
<defs>
<linearGradient id="paint0_linear_1_36" x1="11.5115" y1="1.54369e-08" x2="11.5115" y2="11.3179" gradientUnits="userSpaceOnUse">
<stop stop-color="white"/>
<stop offset="1" stop-color="white" stop-opacity="0.5"/>
</linearGradient>
</defs></svg>
<svg x="107.87" y="79.90" width="21.28" height="14.11" viewBox="0 0 21.2837 14.1103" overflow="visible"><g id="Group">
<path id="Vector" d="M2.81122 14.1103C2.28247 14.1103 1.7509 13.9612 1.2784 13.6547C-0.0237862 12.8053 -0.392223 11.0644 0.457152 9.76218C4.44246 3.65062 11.1756 0 18.4712 0C20.0265 0 21.2837 1.25719 21.2837 2.8125C21.2837 4.36781 20.0265 5.625 18.4712 5.625C13.0825 5.625 8.10997 8.31937 5.17091 12.8334C4.63372 13.6603 3.73372 14.1103 2.81122 14.1103Z" fill="url(#paint0_linear_2_30)"/>
</g>
<defs>
<linearGradient id="paint0_linear_2_30" x1="10.6419" y1="0" x2="10.6419" y2="14.1103" gradientUnits="userSpaceOnUse">
<stop stop-color="white"/>
<stop offset="1" stop-color="white" stop-opacity="0.5"/>
</linearGradient>
</defs></svg>
<svg x="114.19" y="48.76" width="36.77" height="36.77" viewBox="0 0 36.7791 36.7763" overflow="visible"><g id="Group">
<path id="Vector" d="M18.3909 36.7763C8.42063 36.7763 0 28.3556 0 18.3881C0 8.42063 8.42063 0 18.3909 0C28.3584 0 36.7791 8.42063 36.7791 18.3881C36.7791 28.3556 28.3584 36.7763 18.3909 36.7763ZM18.3909 5.625C11.4722 5.625 5.625 11.4694 5.625 18.3881C5.625 25.3069 11.4722 31.1513 18.3909 31.1513C25.3097 31.1513 31.1541 25.3069 31.1541 18.3881C31.1541 11.4694 25.3097 5.625 18.3909 5.625Z" fill="url(#paint0_linear_3_24)"/>
</g>
<defs>
<linearGradient id="paint0_linear_3_24" x1="18.3895" y1="0" x2="18.3895" y2="36.7763" gradientUnits="userSpaceOnUse">
<stop stop-color="white"/>
<stop offset="1" stop-color="white" stop-opacity="0.5"/>
</linearGradient>
</defs></svg>
<svg x="135.99" y="79.92" width="24.32" height="24.30" viewBox="0 0 24.3169 24.3169" overflow="visible"><g id="Group">
<path id="Vector" d="M21.5044 24.3169C19.9491 24.3169 18.6919 23.0597 18.6919 21.5044C18.6919 12.7491 11.5678 5.625 2.8125 5.625C1.25719 5.625 0 4.36781 0 2.8125C0 1.25719 1.25719 0 2.8125 0C14.67 0 24.3169 9.64968 24.3169 21.5044C24.3169 23.0569 23.0597 24.3169 21.5044 24.3169Z" fill="url(#paint0_linear_4_20)"/>
</g>
<defs>
<linearGradient id="paint0_linear_4_20" x1="12.1584" y1="0" x2="12.1584" y2="24.3169" gradientUnits="userSpaceOnUse">
<stop stop-color="white"/>
<stop offset="1" stop-color="white" stop-opacity="0.5"/>
</linearGradient>
</defs></svg>
<svg x="123.53" y="79.90" width="18.09" height="5.63" viewBox="0 0 18.0872 5.625" overflow="visible"><g id="Group">
<path id="Vector" d="M15.2747 5.625H2.8125C1.25719 5.625 0 4.36781 0 2.8125C0 1.25719 1.25719 0 2.8125 0H15.2747C16.83 0 18.0872 1.25719 18.0872 2.8125C18.0872 4.36781 16.8272 5.625 15.2747 5.625Z" fill="url(#paint0_linear_5_28)"/>
</g>
<defs>
<linearGradient id="paint0_linear_5_28" x1="9.04359" y1="0" x2="9.04359" y2="5.625" gradientUnits="userSpaceOnUse">
<stop stop-color="white"/>
<stop offset="1" stop-color="white" stop-opacity="0.5"/>
</linearGradient>
</defs></svg>
<svg x="154.69" y="98.60" width="5.62" height="14.98" viewBox="0 0 5.625 14.9709" overflow="visible"><g id="Group">
<path id="Vector" d="M2.8125 14.9709C1.25719 14.9709 0 13.7138 0 12.1584V2.8125C0 1.25719 1.25719 0 2.8125 0C4.36781 0 5.625 1.25719 5.625 2.8125V12.1584C5.625 13.7138 4.36781 14.9709 2.8125 14.9709Z" fill="url(#paint0_linear_6_18)"/>
</g>
<defs>
<linearGradient id="paint0_linear_6_18" x1="2.8125" y1="0" x2="2.8125" y2="14.9709" gradientUnits="userSpaceOnUse">
<stop stop-color="white"/>
<stop offset="1" stop-color="white" stop-opacity="0.5"/>
</linearGradient>
</defs></svg>
<svg x="53.96" y="85.10" width="30.55" height="30.55" viewBox="0 0 30.5466 30.5466" overflow="visible"><g id="Group">
<path id="Vector" d="M2.8125 30.5466C1.25719 30.5466 0 29.2894 0 27.7341C0 12.4397 12.4425 0 27.7341 0C29.2894 0 30.5466 1.25719 30.5466 2.8125C30.5466 4.36781 29.2894 5.62499 27.7341 5.62499C15.5419 5.62499 5.625 15.5419 5.625 27.7341C5.625 29.2894 4.365 30.5466 2.8125 30.5466Z" fill="url(#paint0_linear_7_26)"/>
</g>
<defs>
<linearGradient id="paint0_linear_7_26" x1="15.2733" y1="0" x2="15.2733" y2="30.5466" gradientUnits="userSpaceOnUse">
<stop stop-color="white"/>
<stop offset="1" stop-color="white" stop-opacity="0.5"/>
</linearGradient>
</defs></svg>
<svg x="78.88" y="85.10" width="22.25" height="5.62" viewBox="0 0 22.2412 5.62499" overflow="visible"><g id="Group">
<path id="Vector" d="M19.4287 5.62499H2.8125C1.25719 5.62499 0 4.36781 0 2.8125C0 1.25719 1.25719 0 2.8125 0H19.4287C20.9841 0 22.2412 1.25719 22.2412 2.8125C22.2412 4.36781 20.9841 5.62499 19.4287 5.62499Z" fill="url(#paint0_linear_8_16)"/>
</g>
<defs>
<linearGradient id="paint0_linear_8_16" x1="11.1206" y1="0" x2="11.1206" y2="5.62499" gradientUnits="userSpaceOnUse">
<stop stop-color="white"/>
<stop offset="1" stop-color="white" stop-opacity="0.5"/>
</linearGradient>
</defs></svg>
<svg x="50.85" y="79.90" width="21.28" height="14.11" viewBox="0 0 21.2837 14.1103" overflow="visible"><g id="Group">
<path id="Vector" d="M18.4725 14.1103C17.5528 14.1103 16.6528 13.6603 16.1128 12.8334C13.1709 8.32218 8.20125 5.625 2.8125 5.625C1.25719 5.625 0 4.36781 0 2.8125C0 1.25719 1.25719 0 2.8125 0C10.1109 0 16.8413 3.65062 20.8266 9.76218C21.6759 11.0644 21.3075 12.8053 20.0053 13.6547C19.53 13.9612 18.9984 14.1103 18.4725 14.1103Z" fill="url(#paint0_linear_9_14)"/>
</g>
<defs>
<linearGradient id="paint0_linear_9_14" x1="10.6419" y1="0" x2="10.6419" y2="14.1103" gradientUnits="userSpaceOnUse">
<stop stop-color="white"/>
<stop offset="1" stop-color="white" stop-opacity="0.5"/>
</linearGradient>
</defs></svg>
<svg x="53.96" y="110.02" width="5.62" height="18.09" viewBox="0 0 5.625 18.0872" overflow="visible"><g id="Group">
<path id="Vector" d="M2.8125 18.0872C1.25719 18.0872 0 16.83 0 15.2747V2.8125C0 1.25719 1.25719 0 2.8125 0C4.36781 0 5.625 1.25719 5.625 2.8125V15.2747C5.625 16.83 4.365 18.0872 2.8125 18.0872Z" fill="url(#paint0_linear_10_12)"/>
</g>
<defs>
<linearGradient id="paint0_linear_10_12" x1="2.8125" y1="0" x2="2.8125" y2="18.0872" gradientUnits="userSpaceOnUse">
<stop stop-color="white"/>
<stop offset="1" stop-color="white" stop-opacity="0.5"/>
</linearGradient>
</defs></svg>
<svg x="66.42" y="43.56" width="47.16" height="47.16" viewBox="0 0 47.1656 47.1656" overflow="visible"><g id="Group">
<path id="Vector" d="M23.5828 47.1656C10.8 47.1656 0 36.3656 0 23.5828C0 10.8 10.8 0 23.5828 0C36.3656 0 47.1656 10.8 47.1656 23.5828C47.1656 36.3656 36.3656 47.1656 23.5828 47.1656ZM23.5828 5.625C13.8487 5.625 5.625 13.8487 5.625 23.5828C5.625 33.3169 13.8487 41.5406 23.5828 41.5406C33.3169 41.5406 41.5406 33.3169 41.5406 23.5828C41.5406 13.8487 33.3169 5.625 23.5828 5.625Z" fill="url(#paint0_linear_11_22)"/>
</g>
<defs>
<linearGradient id="paint0_linear_11_22" x1="23.5828" y1="0" x2="23.5828" y2="47.1656" gradientUnits="userSpaceOnUse">
<stop stop-color="white"/>
<stop offset="1" stop-color="white" stop-opacity="0.5"/>
</linearGradient>
</defs></svg>
<svg x="95.49" y="85.10" width="30.55" height="30.55" viewBox="0 0 30.5466 30.5466" overflow="visible"><g id="Group">
<path id="Vector" d="M27.7341 30.5466C26.1788 30.5466 24.9216 29.2894 24.9216 27.7341C24.9216 15.5419 15.0047 5.62499 2.8125 5.62499C1.25719 5.62499 0 4.36781 0 2.8125C0 1.25719 1.25719 0 2.8125 0C18.1069 0 30.5466 12.4425 30.5466 27.7341C30.5466 29.2894 29.2894 30.5466 27.7341 30.5466Z" fill="url(#paint0_linear_12_10)"/>
</g>
<defs>
<linearGradient id="paint0_linear_12_10" x1="15.2733" y1="0" x2="15.2733" y2="30.5466" gradientUnits="userSpaceOnUse">
<stop stop-color="white"/>
<stop offset="1" stop-color="white" stop-opacity="0.5"/>
</linearGradient>
</defs></svg>
<svg x="120.42" y="110.02" width="5.62" height="18.09" viewBox="0 0 5.625 18.0872" overflow="visible"><g id="Group">
<path id="Vector" d="M2.8125 18.0872C1.25719 18.0872 0 16.83 0 15.2747V2.8125C0 1.25719 1.25719 0 2.8125 0C4.36781 0 5.625 1.25719 5.625 2.8125V15.2747C5.625 16.83 4.36781 18.0872 2.8125 18.0872Z" fill="url(#paint0_linear_13_34)"/>
</g>
<defs>
<linearGradient id="paint0_linear_13_34" x1="2.8125" y1="0" x2="2.8125" y2="18.0872" gradientUnits="userSpaceOnUse">
<stop stop-color="white"/>
<stop offset="1" stop-color="white" stop-opacity="0.5"/>
</linearGradient>
</defs></svg>
<svg x="53.96" y="122.49" width="72.09" height="13.95" viewBox="0 0 72.0916 13.9504" overflow="visible"><g id="Group">
<path id="Vector" d="M36.0444 13.9504C24.1756 13.9504 12.3097 11.0648 1.48999 5.29632C0.120307 4.56226 -0.400007 2.8607 0.331243 1.4882C1.06531 0.121328 2.75843 -0.398991 4.13937 0.329446C24.1194 10.986 47.975 10.986 67.9522 0.329446C69.3303 -0.398991 71.0291 0.121328 71.7603 1.4882C72.4916 2.85789 71.9712 4.56226 70.6016 5.29632C59.7791 11.0619 47.9131 13.9504 36.0444 13.9504Z" fill="url(#paint0_linear_14_8)"/>
</g>
<defs>
<linearGradient id="paint0_linear_14_8" x1="36.0458" y1="8.03594e-10" x2="36.0458" y2="13.9504" gradientUnits="userSpaceOnUse">
<stop stop-color="white"/>
<stop offset="1" stop-color="white" stop-opacity="0.5"/>
</linearGradient>
</defs></svg>
<svg x="29.03" y="48.76" width="36.77" height="36.77" viewBox="0 0 36.7763 36.7763" overflow="visible"><g id="Group">
<path id="Vector" d="M18.3881 36.7763C8.42063 36.7763 0 28.3556 0 18.3881C0 8.42063 8.42063 0 18.3881 0C28.3556 0 36.7763 8.42063 36.7763 18.3881C36.7763 28.3556 28.3556 36.7763 18.3881 36.7763ZM18.3881 5.625C11.4694 5.625 5.625 11.4694 5.625 18.3881C5.625 25.3069 11.4694 31.1513 18.3881 31.1513C25.3069 31.1513 31.1513 25.3069 31.1513 18.3881C31.1513 11.4694 25.3069 5.625 18.3881 5.625Z" fill="url(#paint0_linear_15_6)"/>
</g>
<defs>
<linearGradient id="paint0_linear_15_6" x1="18.3881" y1="0" x2="18.3881" y2="36.7763" gradientUnits="userSpaceOnUse">
<stop stop-color="white"/>
<stop offset="1" stop-color="white" stop-opacity="0.5"/>
</linearGradient>
</defs></svg>
<svg x="19.69" y="79.92" width="24.32" height="24.30" viewBox="0 0 24.3169 24.3169" overflow="visible"><g id="Group">
<path id="Vector" d="M2.8125 24.3169C1.25719 24.3169 0 23.0597 0 21.5044C0 9.64687 9.64969 0 21.5044 0C23.0597 0 24.3169 1.25719 24.3169 2.8125C24.3169 4.36781 23.0597 5.625 21.5044 5.625C12.7491 5.62219 5.625 12.7462 5.625 21.5044C5.625 23.0569 4.36781 24.3169 2.8125 24.3169Z" fill="url(#paint0_linear_16_4)"/>
</g>
<defs>
<linearGradient id="paint0_linear_16_4" x1="12.1584" y1="0" x2="12.1584" y2="24.3169" gradientUnits="userSpaceOnUse">
<stop stop-color="white"/>
<stop offset="1" stop-color="white" stop-opacity="0.5"/>
</linearGradient>
</defs></svg>
<svg x="38.38" y="79.90" width="18.09" height="5.63" viewBox="0 0 18.0872 5.625" overflow="visible"><g id="Group">
<path id="Vector" d="M15.2747 5.625H2.8125C1.25719 5.625 0 4.36781 0 2.8125C0 1.25719 1.25719 0 2.8125 0H15.2747C16.83 0 18.0872 1.25719 18.0872 2.8125C18.0872 4.36781 16.83 5.625 15.2747 5.625Z" fill="url(#paint0_linear_17_32)"/>
</g>
<defs>
<linearGradient id="paint0_linear_17_32" x1="9.04359" y1="0" x2="9.04359" y2="5.625" gradientUnits="userSpaceOnUse">
<stop stop-color="white"/>
<stop offset="1" stop-color="white" stop-opacity="0.5"/>
</linearGradient>
</defs></svg>
</svg>