<svg preserveAspectRatio="none" width="100%" height="100%" overflow="visible" style="display: block;" viewBox="0 0 160 159.294" fill="none" xmlns="http://www.w3.org/2000/svg">
<g id="Group">
<path id="Vector" d="M157.722 41.332C157.722 41.332 157.722 41.332 157.721 41.332L157.716 41.3267L147.389 39.8532C145.937 39.6465 144.928 38.3021 145.135 36.8506C145.234 36.153 145.607 35.5238 146.17 35.101L154.517 28.8408C155.69 27.961 155.928 26.2971 155.048 25.1239L145.49 12.3805C144.611 11.2074 142.947 10.9697 141.774 11.8495L133.429 18.1097C132.261 18.9961 130.596 18.7678 129.709 17.5997C129.279 17.0325 129.094 16.316 129.197 15.6115L130.673 5.28397C130.882 3.83241 129.874 2.48738 128.422 2.27897C128.421 2.27897 128.42 2.27864 128.419 2.27864L112.66 0.0272973C111.209 -0.181111 109.863 0.826418 109.655 2.27798C109.655 2.27831 109.655 2.27831 109.655 2.27864L108.179 12.6061C107.972 14.0577 106.628 15.0669 105.176 14.8601C104.478 14.7609 103.849 14.3882 103.426 13.8247L97.1688 5.47778C96.2891 4.30465 94.6251 4.06704 93.452 4.9468L85.474 10.9336C81.8647 10.5499 78.2249 10.5499 74.6156 10.9336C50.9785 13.6352 32.4424 32.4856 30.1383 56.1649C30.0666 56.9162 30.04 57.6622 30.0029 58.4082H29.2064C27.9467 58.4106 26.8618 59.298 26.6099 60.5321L24.7754 69.2561L17.4267 64.1879C16.372 63.4602 14.9477 63.5899 14.0417 64.4959L6.07704 72.4605C5.17239 73.3662 5.04296 74.7885 5.76907 75.8429L10.8134 83.1783L2.08675 85.0128C0.866162 85.2803 -0.00264882 86.3625 6.06784e-06 87.612V98.2315C-0.000657654 99.4873 0.879105 100.572 2.10799 100.831L10.8346 102.665L5.79031 110.001C5.0642 111.055 5.19363 112.477 6.09828 113.383L14.0629 121.348C14.9689 122.254 16.3933 122.383 17.4479 121.656L24.7834 116.598L26.6179 125.325C26.8698 126.559 27.9546 127.446 29.2144 127.449H39.8339C41.0897 127.449 42.1742 126.569 42.433 125.341L44.2676 116.614L51.603 121.658C52.6573 122.384 54.0797 122.255 54.9853 121.35L59.1084 117.214V124.78C59.1203 128.557 61.1437 132.041 64.4181 133.924V148.674C64.4181 154.539 69.1727 159.294 75.0377 159.294H85.6572C91.5222 159.294 96.2768 154.539 96.2768 148.674V133.924C99.5512 132.041 101.575 128.557 101.587 124.78V114.272C101.659 109.851 103.972 105.769 107.727 103.435C109.931 102.006 112.02 100.408 113.977 98.6563L110.435 94.7005C108.685 96.2696 106.814 97.6996 104.841 98.9776C99.5698 102.286 96.3428 108.049 96.2768 114.272V124.78C96.2768 127.713 93.8997 130.09 90.967 130.09H69.7279C66.7953 130.09 64.4181 127.713 64.4181 124.78V114.052C64.3568 107.946 61.1805 102.295 55.9968 99.0678C34.9546 85.8458 28.6147 58.0694 41.8367 37.0271C50.0403 23.9714 64.3574 16.025 79.7767 15.9699C79.7372 16.0645 79.7023 16.161 79.6731 16.2593C79.5746 16.9562 79.7571 17.664 80.1802 18.2265L86.4378 26.5708C87.0975 27.4247 87.1609 28.5975 86.5971 29.5178C86.0541 30.4437 85.0045 30.9488 83.9422 30.7948L73.6147 29.3187C72.1631 29.1106 70.8181 30.1184 70.6097 31.5697C70.6097 31.5707 70.6093 31.5717 70.6093 31.5726L68.3553 47.34C68.1473 48.7912 69.1551 50.1366 70.6064 50.345C70.6074 50.345 70.6083 50.3453 70.6093 50.3453L80.9368 51.8215C82.3884 52.0282 83.3976 53.3726 83.1908 54.8241C83.0916 55.5217 82.7189 56.1509 82.1554 56.5737L73.8111 62.8313C72.638 63.711 72.4004 65.375 73.2802 66.5481L82.8377 79.2916C83.7175 80.4647 85.3815 80.7023 86.5546 79.8225L94.9015 73.565C96.0757 72.6869 97.7396 72.9268 98.6177 74.1013C99.0379 74.6631 99.2187 75.3686 99.1202 76.0632L97.6467 86.3907C97.4383 87.842 98.4458 89.1877 99.8974 89.3961C99.8977 89.3961 99.8977 89.3961 99.898 89.3961L115.668 91.6501C115.792 91.666 115.917 91.674 116.042 91.674C117.364 91.6756 118.486 90.7046 118.673 89.3961L120.147 79.0686C120.354 77.617 121.698 76.6078 123.15 76.8146C123.847 76.9138 124.476 77.2865 124.899 77.85L131.159 86.1943C132.039 87.3674 133.703 87.605 134.876 86.7252L147.62 77.1677C148.793 76.2879 149.03 74.6239 148.151 73.4508L141.893 65.1065C141.236 64.2513 141.173 63.0805 141.734 62.1596C142.265 61.2214 143.324 60.713 144.389 60.8852L154.716 62.3587C156.167 62.5671 157.513 61.5593 157.721 60.108C157.721 60.1077 157.721 60.1077 157.721 60.1074L159.973 44.3373C160.181 42.8858 159.174 41.5404 157.722 41.332ZM69.7279 135.4H90.967V140.71H69.7279V135.4ZM69.7279 146.019H90.967V148.674C90.967 151.607 88.5899 153.984 85.6572 153.984H75.0377C72.105 153.984 69.7279 151.607 69.7279 148.674V146.019ZM48.5924 100.236C50.0419 101.421 51.5566 102.525 53.1296 103.541C55.6381 105.127 57.5264 107.525 58.4792 110.335L52.7844 116.019L47.2702 112.217C44.8556 110.554 41.5493 111.162 39.885 113.577C39.4861 114.156 39.206 114.808 39.0613 115.496L37.6702 122.125H31.3595L29.9684 115.507C29.3644 112.637 26.5485 110.8 23.6789 111.404C22.991 111.549 22.3385 111.829 21.7594 112.228L16.2426 116.019L11.4054 111.193L15.2045 105.681C16.8701 103.268 16.2635 99.9609 13.8499 98.2952C13.2705 97.8954 12.6173 97.6146 11.9284 97.4696L5.30978 96.0758V89.7677L11.9284 88.3739C14.797 87.7656 16.6295 84.9471 16.0212 82.0782C15.8769 81.3976 15.6004 80.7521 15.2072 80.1783L11.4054 74.6508L16.2426 69.8242L21.7621 73.626C24.1777 75.2883 27.484 74.6777 29.1463 72.2621C29.5446 71.6837 29.824 71.0319 29.9684 70.3446L30.433 68.1357C30.8584 71.1948 31.5629 74.2081 32.5383 77.1385C23.8027 78.1798 17.5654 86.106 18.6068 94.8416C19.6482 103.577 27.5743 109.814 36.3099 108.773C41.5685 108.146 46.1718 104.946 48.5924 100.236ZM44.4693 96.4952C42.4868 102.006 36.4128 104.866 30.9022 102.884C25.3917 100.901 22.5317 94.827 24.5139 89.3164C26.0305 85.1008 30.0331 82.2929 34.5132 82.3022C34.5477 82.3022 34.5796 82.3022 34.6141 82.3022C37.0556 87.5665 40.3898 92.3682 44.4693 96.4952ZM152.826 56.7197L145.127 55.6206C140.772 54.9987 136.738 58.0249 136.116 62.3793C135.817 64.4703 136.362 66.5946 137.629 68.2844L142.294 74.5048L133.798 80.8765L129.131 74.6588C126.492 71.1394 121.5 70.4256 117.981 73.0645C116.291 74.3316 115.174 76.2182 114.874 78.3093L113.799 86.0191L103.288 84.5164L104.387 76.8172C105.011 72.4629 101.986 68.4274 97.6321 67.8042C95.5397 67.5045 93.4145 68.0488 91.7236 69.3172L85.5033 73.9818L79.1315 65.4862L85.3493 60.8189C88.8686 58.1799 89.5825 53.1877 86.9435 49.6687C85.6765 47.9788 83.7899 46.8615 81.6988 46.5621L73.9996 45.463L75.5023 34.9523L83.2015 36.0514C87.5558 36.675 91.5912 33.6504 92.2145 29.2961C92.5141 27.2037 91.9699 25.0785 90.7015 23.3876L86.021 17.1619L94.5166 10.7902L99.1839 17.0106C101.823 20.53 106.815 21.2438 110.334 18.6049C112.024 17.3378 113.141 15.4512 113.441 13.3601L114.54 5.66096L125.05 7.16098L123.951 14.8601C123.329 19.2148 126.355 23.2489 130.71 23.8708C132.801 24.1695 134.925 23.6252 136.615 22.3575L142.836 17.6929L149.207 26.1885L142.987 30.8558C139.467 33.4948 138.754 38.487 141.393 42.006C142.66 43.6959 144.546 44.8132 146.637 45.1126L154.336 46.2117L152.826 56.7197Z" fill="url(#paint0_linear_0_22)"/>
</g>
<defs>
<linearGradient id="paint0_linear_0_22" x1="80" y1="2.99915e-10" x2="80" y2="159.294" gradientUnits="userSpaceOnUse">
<stop stop-color="white"/>
<stop offset="1" stop-color="white" stop-opacity="0.5"/>
</linearGradient>
</defs>
</svg>
