<svg width="120" height="120" viewBox="0 0 120 120" fill="none" xmlns="http://www.w3.org/2000/svg">
<path d="M49.2994 63.3954C49.6557 63.719 50.1228 63.8931 50.604 63.8818C51.0851 63.8705 51.5435 63.6745 51.8842 63.3345C52.2249 62.9946 52.4219 62.5366 52.4342 62.0554C52.4466 61.5743 52.2734 61.1068 51.9506 60.7498L45.7762 54.5623L51.9506 48.3879C52.1451 48.2189 52.3027 48.0116 52.4135 47.779C52.5243 47.5464 52.586 47.2934 52.5946 47.0359C52.6033 46.7784 52.5589 46.5218 52.464 46.2823C52.3691 46.0427 52.2259 45.8253 52.0432 45.6435C51.8606 45.4618 51.6424 45.3197 51.4024 45.226C51.1624 45.1323 50.9056 45.0891 50.6482 45.0991C50.3907 45.109 50.138 45.172 49.906 45.2839C49.6739 45.3959 49.4674 45.5545 49.2994 45.7498L41.7994 53.2498C41.625 53.4239 41.4867 53.6307 41.3924 53.8583C41.298 54.086 41.2495 54.33 41.2495 54.5764C41.2495 54.8228 41.298 55.0667 41.3924 55.2944C41.4867 55.522 41.625 55.7288 41.7994 55.9029L49.2994 63.3954Z" fill="url(#paint0_linear_157_1336)"/>
<path d="M68.0494 63.3958C68.401 63.7473 68.8778 63.9448 69.375 63.9448C69.8722 63.9448 70.349 63.7473 70.7006 63.3958L78.2006 55.8958C78.375 55.7217 78.5133 55.5149 78.6076 55.2872C78.702 55.0596 78.7505 54.8156 78.7505 54.5692C78.7505 54.3228 78.702 54.0788 78.6076 53.8512C78.5133 53.6236 78.375 53.4168 78.2006 53.2427L70.7006 45.7427C70.3488 45.3911 69.8717 45.1937 69.3743 45.1938C68.877 45.194 68.4 45.3918 68.0484 45.7436C67.6969 46.0954 67.4995 46.5725 67.4996 47.0699C67.4998 47.5673 67.6976 48.0442 68.0494 48.3958L74.2238 54.5627L68.0494 60.7502C67.6996 61.1015 67.5032 61.5772 67.5032 62.073C67.5032 62.5688 67.6996 63.0444 68.0494 63.3958Z" fill="url(#paint1_linear_157_1336)"/>
<path d="M56.1525 64.5733C56.3841 64.6572 56.6299 64.6946 56.876 64.6835C57.122 64.6723 57.3635 64.6128 57.5865 64.5084C57.8096 64.4039 58.0098 64.2565 58.1759 64.0746C58.342 63.8927 58.4706 63.6799 58.5544 63.4483L64.9688 45.8233C65.0606 45.5902 65.1048 45.3412 65.0988 45.0908C65.0928 44.8404 65.0367 44.5938 64.9338 44.3654C64.8309 44.1371 64.6833 43.9317 64.4997 43.7613C64.3161 43.591 64.1003 43.4591 63.8649 43.3735C63.6295 43.288 63.3794 43.2505 63.1292 43.2632C62.8791 43.2759 62.634 43.3386 62.4085 43.4475C62.183 43.5565 61.9816 43.7095 61.8163 43.8976C61.6509 44.0857 61.5249 44.305 61.4456 44.5426L55.0331 62.1676C54.9485 62.3991 54.9104 62.6449 54.9208 62.8911C54.9313 63.1373 54.9902 63.3791 55.0942 63.6025C55.1981 63.8259 55.3451 64.0266 55.5267 64.1932C55.7083 64.3598 55.921 64.4889 56.1525 64.5733Z" fill="url(#paint2_linear_157_1336)"/>
<path d="M114.375 90H112.5V20.625C112.5 19.1332 111.907 17.7024 110.852 16.6475C109.798 15.5926 108.367 15 106.875 15H13.125C11.6332 15 10.2024 15.5926 9.14752 16.6475C8.09263 17.7024 7.5 19.1332 7.5 20.625V90H5.625C5.12772 90 4.65081 90.1975 4.29917 90.5492C3.94754 90.9008 3.75 91.3777 3.75 91.875V99.375C3.75 100.867 4.34263 102.298 5.39752 103.352C6.45242 104.407 7.88316 105 9.375 105H110.625C112.117 105 113.548 104.407 114.602 103.352C115.657 102.298 116.25 100.867 116.25 99.375V91.875C116.25 91.3777 116.052 90.9008 115.701 90.5492C115.349 90.1975 114.872 90 114.375 90ZM11.25 20.625C11.25 20.1277 11.4475 19.6508 11.7992 19.2992C12.1508 18.9475 12.6277 18.75 13.125 18.75H106.875C107.372 18.75 107.849 18.9475 108.201 19.2992C108.552 19.6508 108.75 20.1277 108.75 20.625V90H75C74.9088 90.0114 74.8185 90.0296 74.73 90.0544C74.5988 90.067 74.4694 90.0934 74.3438 90.1331C74.2337 90.1811 74.1287 90.2401 74.0306 90.3094C73.9259 90.3653 73.8273 90.4319 73.7363 90.5081C73.5976 90.6839 73.4594 90.8602 73.3219 91.0369L71.9662 93.75H48.0337L46.6875 91.0369C46.5499 90.8602 46.4118 90.6839 46.2731 90.5081C46.1821 90.4319 46.0835 90.3653 45.9787 90.3094C45.8806 90.2401 45.7757 90.1811 45.6656 90.1331C45.54 90.0934 45.4105 90.067 45.2794 90.0544C45.1878 90.0291 45.0944 90.011 45 90H11.25V20.625ZM112.5 99.375C112.5 99.8723 112.302 100.349 111.951 100.701C111.599 101.052 111.122 101.25 110.625 101.25H9.375C8.87772 101.25 8.40081 101.052 8.04918 100.701C7.69754 100.349 7.5 99.8723 7.5 99.375V93.75H43.8413L45.1969 96.4631C45.3526 96.7748 45.5921 97.0369 45.8886 97.2201C46.185 97.4032 46.5266 97.5002 46.875 97.5H73.125C73.475 97.5019 73.8186 97.4058 74.1168 97.2226C74.4151 97.0393 74.656 96.7762 74.8125 96.4631L76.1588 93.75H112.5V99.375Z" fill="url(#paint3_linear_157_1336)"/>
<path d="M105 84.375V24.375C105 23.8777 104.802 23.4008 104.451 23.0492C104.099 22.6975 103.622 22.5 103.125 22.5H16.875C16.3777 22.5 15.9008 22.6975 15.5492 23.0492C15.1975 23.4008 15 23.8777 15 24.375V84.375C15 84.8723 15.1975 85.3492 15.5492 85.7008C15.9008 86.0525 16.3777 86.25 16.875 86.25H103.125C103.622 86.25 104.099 86.0525 104.451 85.7008C104.802 85.3492 105 84.8723 105 84.375ZM101.25 82.5H18.75V26.25H101.25V82.5Z" fill="url(#paint4_linear_157_1336)"/>
<defs>
<linearGradient id="paint0_linear_157_1336" x1="46.9226" y1="45.0977" x2="46.9226" y2="63.8823" gradientUnits="userSpaceOnUse">
<stop stop-color="white"/>
<stop offset="1" stop-color="white" stop-opacity="0.5"/>
</linearGradient>
<linearGradient id="paint1_linear_157_1336" x1="73.1251" y1="45.1938" x2="73.1251" y2="63.9448" gradientUnits="userSpaceOnUse">
<stop stop-color="white"/>
<stop offset="1" stop-color="white" stop-opacity="0.5"/>
</linearGradient>
<linearGradient id="paint2_linear_157_1336" x1="60.0092" y1="43.2607" x2="60.0092" y2="64.6854" gradientUnits="userSpaceOnUse">
<stop stop-color="white"/>
<stop offset="1" stop-color="white" stop-opacity="0.5"/>
</linearGradient>
<linearGradient id="paint3_linear_157_1336" x1="60" y1="15" x2="60" y2="105" gradientUnits="userSpaceOnUse">
<stop stop-color="white"/>
<stop offset="1" stop-color="white" stop-opacity="0.5"/>
</linearGradient>
<linearGradient id="paint4_linear_157_1336" x1="60" y1="22.5" x2="60" y2="86.25" gradientUnits="userSpaceOnUse">
<stop stop-color="white"/>
<stop offset="1" stop-color="white" stop-opacity="0.5"/>
</linearGradient>
</defs>
</svg>
