<svg preserveAspectRatio="none" width="100%" height="100%" overflow="visible" style="display: block;" viewBox="0 0 108 312" fill="none" xmlns="http://www.w3.org/2000/svg">
<g id="Chart">
<path d="M0 9.99999C0 4.47715 4.47715 0 10 0H98C103.523 0 108 4.47715 108 10V302C108 307.523 103.523 312 98 312H10C4.47715 312 0 307.523 0 302V9.99999Z" fill="url(#paint0_linear_0_11)" fill-opacity="0.4"/>
<path d="M0 9.99999C0 4.47715 4.47715 0 10 0H98C103.523 0 108 4.47715 108 10V302C108 307.523 103.523 312 98 312H10C4.47715 312 0 307.523 0 302V9.99999Z" fill="url(#paint1_radial_0_11)" fill-opacity="0.2"/>
<path d="M10 0.5H98C103.247 0.500005 107.5 4.7533 107.5 10V302C107.5 307.247 103.247 311.5 98 311.5H10C4.7533 311.5 0.5 307.247 0.5 302V10C0.5 4.7533 4.75329 0.5 10 0.5Z" stroke="url(#paint2_linear_0_11)" stroke-opacity="0.3"/>
</g>
<defs>
<linearGradient id="paint0_linear_0_11" x1="65.1176" y1="0" x2="65.1176" y2="312" gradientUnits="userSpaceOnUse">
<stop stop-color="#1C5AF9"/>
<stop offset="1" stop-color="#1C1B33" stop-opacity="0.2"/>
</linearGradient>
<radialGradient id="paint1_radial_0_11" cx="0" cy="0" r="1" gradientUnits="userSpaceOnUse" gradientTransform="translate(54 -48.3509) rotate(90) scale(369.474 157.825)">
<stop stop-color="white" stop-opacity="0.8"/>
<stop offset="1" stop-color="white" stop-opacity="0"/>
</radialGradient>
<linearGradient id="paint2_linear_0_11" x1="54" y1="0" x2="54" y2="312" gradientUnits="userSpaceOnUse">
<stop stop-color="white"/>
<stop offset="1" stop-color="white" stop-opacity="0"/>
</linearGradient>
</defs>
</svg>
