<svg preserveAspectRatio="none" width="100%" height="100%" overflow="visible" style="display: block;" viewBox="0 0 75.1701 226.333" fill="none" xmlns="http://www.w3.org/2000/svg">
<g id="Chart">
<path d="M0.5 10.5C0.5 4.97714 4.97715 0.5 10.5 0.5H64.6701C70.193 0.5 74.6701 4.97715 74.6701 10.5V215.833C74.6701 221.356 70.193 225.833 64.6701 225.833H10.5C4.97715 225.833 0.5 221.356 0.5 215.833V10.5Z" fill="url(#paint0_linear_0_9)" fill-opacity="0.4"/>
<path d="M0.5 10.5C0.5 4.97714 4.97715 0.5 10.5 0.5H64.6701C70.193 0.5 74.6701 4.97715 74.6701 10.5V215.833C74.6701 221.356 70.193 225.833 64.6701 225.833H10.5C4.97715 225.833 0.5 221.356 0.5 215.833V10.5Z" fill="url(#paint1_radial_0_9)" fill-opacity="0.2"/>
<path d="M0.5 10.5C0.5 4.97714 4.97715 0.5 10.5 0.5H64.6701C70.193 0.5 74.6701 4.97715 74.6701 10.5V215.833C74.6701 221.356 70.193 225.833 64.6701 225.833H10.5C4.97715 225.833 0.5 221.356 0.5 215.833V10.5Z" stroke="url(#paint2_linear_0_9)" stroke-opacity="0.3" stroke-dasharray="4 4"/>
</g>
<defs>
<linearGradient id="paint0_linear_0_9" x1="45.2202" y1="0.5" x2="45.2202" y2="225.833" gradientUnits="userSpaceOnUse">
<stop stop-color="white"/>
<stop offset="1" stop-color="#1C1B33" stop-opacity="0.2"/>
</linearGradient>
<radialGradient id="paint1_radial_0_9" cx="0" cy="0" r="1" gradientUnits="userSpaceOnUse" gradientTransform="translate(37.5851 -34.4201) rotate(90) scale(266.842 108.388)">
<stop stop-color="white" stop-opacity="0.8"/>
<stop offset="1" stop-color="white" stop-opacity="0"/>
</radialGradient>
<linearGradient id="paint2_linear_0_9" x1="37.5851" y1="0.5" x2="37.5851" y2="225.833" gradientUnits="userSpaceOnUse">
<stop stop-color="white"/>
<stop offset="1" stop-color="white" stop-opacity="0"/>
</linearGradient>
</defs>
</svg>
