<svg preserveAspectRatio="none" width="100%" height="100%" overflow="visible" style="display: block;" viewBox="0 0 74.1701 164.432" fill="none" xmlns="http://www.w3.org/2000/svg">
<g id="Chart">
<path d="M0 9.99998C0 4.47714 4.47715 0 10 0H64.1701C69.693 0 74.1701 4.47715 74.1701 10V154.432C74.1701 159.955 69.693 164.432 64.1701 164.432H9.99999C4.47715 164.432 0 159.955 0 154.432V9.99998Z" fill="url(#paint0_linear_0_6)" fill-opacity="0.4"/>
<path d="M0 9.99998C0 4.47714 4.47715 0 10 0H64.1701C69.693 0 74.1701 4.47715 74.1701 10V154.432C74.1701 159.955 69.693 164.432 64.1701 164.432H9.99999C4.47715 164.432 0 159.955 0 154.432V9.99998Z" fill="url(#paint1_radial_0_6)" fill-opacity="0.2"/>
<path d="M10 0.5H64.1699C69.4166 0.5 73.6699 4.75329 73.6699 10V154.433C73.6698 159.679 69.4166 163.933 64.1699 163.933H10C4.75336 163.933 0.500102 159.679 0.5 154.433V10C0.5 4.91739 4.49142 0.767337 9.51074 0.512695L10 0.5Z" stroke="url(#paint2_linear_0_6)" stroke-opacity="0.3"/>
</g>
<defs>
<linearGradient id="paint0_linear_0_6" x1="44.7202" y1="0" x2="44.7202" y2="164.432" gradientUnits="userSpaceOnUse">
<stop stop-color="#1C5AF9"/>
<stop offset="1" stop-color="#1C1B33" stop-opacity="0.2"/>
</linearGradient>
<radialGradient id="paint1_radial_0_6" cx="0" cy="0" r="1" gradientUnits="userSpaceOnUse" gradientTransform="translate(37.0851 -25.4822) rotate(90) scale(194.723 108.388)">
<stop stop-color="white" stop-opacity="0.8"/>
<stop offset="1" stop-color="white" stop-opacity="0"/>
</radialGradient>
<linearGradient id="paint2_linear_0_6" x1="37.0851" y1="0" x2="37.0851" y2="164.432" gradientUnits="userSpaceOnUse">
<stop stop-color="white"/>
<stop offset="1" stop-color="white" stop-opacity="0"/>
</linearGradient>
</defs>
</svg>
