<svg preserveAspectRatio="none" width="100%" height="100%" overflow="visible" style="display: block;" viewBox="0 0 1998 1419.14" fill="none" xmlns="http://www.w3.org/2000/svg">
<g id="Lines">
<g id="Overlay Background" opacity="0.3">
<mask id="path-1-inside-1_0_4" fill="white">
<path d="M1266 601L1407 460L1548 601L1407 742L1266 601Z"/>
</mask>
<g clip-path="url(#paint0_angular_0_4_clip_path)" data-figma-skip-parse="true" mask="url(#path-1-inside-1_0_4)"><g transform="matrix(0 0.141 -0.141 0 1407 601)"><foreignObject x="-1010.03" y="-1010.03" width="2020.06" height="2020.06"><div xmlns="http://www.w3.org/1999/xhtml" style="background:conic-gradient(from 90deg,rgba(255, 255, 255, 0.5) 0deg,rgba(255, 255, 255, 0.05) 360deg);height:100%;width:100%;opacity:1"></div></foreignObject></g></g><path d="M1266 601L1265.29 600.293L1264.59 601L1265.29 601.707L1266 601ZM1407 460L1407.71 459.293L1407 458.586L1406.29 459.293L1407 460ZM1548 601L1548.71 601.707L1549.41 601L1548.71 600.293L1548 601ZM1407 742L1406.29 742.707L1407 743.414L1407.71 742.707L1407 742ZM1266 601L1266.71 601.707L1407.71 460.707L1407 460L1406.29 459.293L1265.29 600.293L1266 601ZM1407 460L1406.29 460.707L1547.29 601.707L1548 601L1548.71 600.293L1407.71 459.293L1407 460ZM1548 601L1547.29 600.293L1406.29 741.293L1407 742L1407.71 742.707L1548.71 601.707L1548 601ZM1407 742L1407.71 741.293L1266.71 600.293L1266 601L1265.29 601.707L1406.29 742.707L1407 742Z" data-figma-gradient-fill="{&#34;type&#34;:&#34;GRADIENT_ANGULAR&#34;,&#34;stops&#34;:[{&#34;color&#34;:{&#34;r&#34;:1.0,&#34;g&#34;:1.0,&#34;b&#34;:1.0,&#34;a&#34;:0.50},&#34;position&#34;:0.0},{&#34;color&#34;:{&#34;r&#34;:1.0,&#34;g&#34;:1.0,&#34;b&#34;:1.0,&#34;a&#34;:0.050000000745058060},&#34;position&#34;:1.0}],&#34;stopsVar&#34;:[],&#34;transform&#34;:{&#34;m00&#34;:0.0,&#34;m01&#34;:-281.99987792968750,&#34;m02&#34;:1547.9998779296875,&#34;m10&#34;:281.99987792968750,&#34;m11&#34;:0.0,&#34;m12&#34;:460.00006103515625},&#34;opacity&#34;:1.0,&#34;blendMode&#34;:&#34;NORMAL&#34;,&#34;visible&#34;:true}" mask="url(#path-1-inside-1_0_4)"/>
</g>
<rect id="Line" opacity="0.1" width="1409.1" height="1" transform="matrix(-0.747729 0.664004 0.747729 0.664004 1835.99 0.417236)" fill="url(#paint1_linear_0_4)"/>
<rect id="Line_2" opacity="0.1" width="1409.1" height="1" transform="matrix(0.747729 0.664004 -0.747729 0.664004 1.09624 0.417236)" fill="url(#paint2_linear_0_4)"/>
<rect id="Line_3" opacity="0.1" width="1292" height="0.999972" transform="matrix(2.16865e-08 1 1 -8.81047e-08 1406 127.145)" fill="url(#paint3_linear_0_4)"/>
<rect id="Line_4" opacity="0.1" x="431.087" y="127.145" width="1292" height="0.999972" transform="rotate(90 431.087 127.145)" fill="url(#paint4_linear_0_4)"/>
<path id="Line_5" opacity="0.1" d="M1749 458.75L1640.25 458.75L1613.75 432.25H1456.5L1407 382.75" stroke="url(#paint5_linear_0_4)"/>
<path id="Line_6" opacity="0.1" d="M88.0872 458.75L196.837 458.75L223.337 432.25H380.587L430.087 382.75" stroke="url(#paint6_linear_0_4)"/>
<rect id="Line_7" opacity="0.2" width="1409.1" height="1" transform="matrix(-0.747729 0.664004 0.747729 0.664004 1548.97 0)" fill="url(#paint7_linear_0_4)"/>
<rect id="Line_8" opacity="0.2" width="1409.1" height="1" transform="matrix(0.747729 0.664004 -0.747729 0.664004 288.114 0)" fill="url(#paint8_linear_0_4)"/>
<rect id="Line_9" opacity="0.1" width="1998" height="1" transform="matrix(-1 0 0 1 1998 234)" fill="url(#paint9_linear_0_4)"/>
<rect id="Line_10" opacity="0.1" y="862" width="1998" height="1" fill="url(#paint10_linear_0_4)"/>
</g>
<defs>
<clipPath id="paint0_angular_0_4_clip_path"><path d="M1266 601L1265.29 600.293L1264.59 601L1265.29 601.707L1266 601ZM1407 460L1407.71 459.293L1407 458.586L1406.29 459.293L1407 460ZM1548 601L1548.71 601.707L1549.41 601L1548.71 600.293L1548 601ZM1407 742L1406.29 742.707L1407 743.414L1407.71 742.707L1407 742ZM1266 601L1266.71 601.707L1407.71 460.707L1407 460L1406.29 459.293L1265.29 600.293L1266 601ZM1407 460L1406.29 460.707L1547.29 601.707L1548 601L1548.71 600.293L1407.71 459.293L1407 460ZM1548 601L1547.29 600.293L1406.29 741.293L1407 742L1407.71 742.707L1548.71 601.707L1548 601ZM1407 742L1407.71 741.293L1266.71 600.293L1266 601L1265.29 601.707L1406.29 742.707L1407 742Z" mask="url(#path-1-inside-1_0_4)"/></clipPath><linearGradient id="paint1_linear_0_4" x1="0" y1="0" x2="919.181" y2="1.51961e-07" gradientUnits="userSpaceOnUse">
<stop stop-color="#D9D9D9"/>
<stop offset="1" stop-color="#D9D9D9" stop-opacity="0"/>
</linearGradient>
<linearGradient id="paint2_linear_0_4" x1="0" y1="0" x2="919.181" y2="1.51961e-07" gradientUnits="userSpaceOnUse">
<stop stop-color="#D9D9D9"/>
<stop offset="1" stop-color="#D9D9D9" stop-opacity="0"/>
</linearGradient>
<linearGradient id="paint3_linear_0_4" x1="0" y1="0" x2="842.795" y2="1.27758e-07" gradientUnits="userSpaceOnUse">
<stop stop-color="#D9D9D9"/>
<stop offset="1" stop-color="#D9D9D9" stop-opacity="0"/>
</linearGradient>
<linearGradient id="paint4_linear_0_4" x1="431.087" y1="127.145" x2="1273.88" y2="127.145" gradientUnits="userSpaceOnUse">
<stop stop-color="#D9D9D9"/>
<stop offset="1" stop-color="#D9D9D9" stop-opacity="0"/>
</linearGradient>
<linearGradient id="paint5_linear_0_4" x1="1418" y1="412" x2="1784" y2="486" gradientUnits="userSpaceOnUse">
<stop stop-color="white"/>
<stop offset="1" stop-color="white" stop-opacity="0"/>
</linearGradient>
<linearGradient id="paint6_linear_0_4" x1="419.087" y1="412" x2="53.0875" y2="486" gradientUnits="userSpaceOnUse">
<stop stop-color="white"/>
<stop offset="1" stop-color="white" stop-opacity="0"/>
</linearGradient>
<linearGradient id="paint7_linear_0_4" x1="0" y1="0" x2="919.181" y2="1.51961e-07" gradientUnits="userSpaceOnUse">
<stop stop-color="#D9D9D9"/>
<stop offset="1" stop-color="#D9D9D9" stop-opacity="0"/>
</linearGradient>
<linearGradient id="paint8_linear_0_4" x1="0" y1="0" x2="919.181" y2="1.51961e-07" gradientUnits="userSpaceOnUse">
<stop stop-color="#D9D9D9"/>
<stop offset="1" stop-color="#D9D9D9" stop-opacity="0"/>
</linearGradient>
<linearGradient id="paint9_linear_0_4" x1="0" y1="0" x2="1303.33" y2="3.05521e-07" gradientUnits="userSpaceOnUse">
<stop stop-color="#D9D9D9"/>
<stop offset="1" stop-color="#D9D9D9" stop-opacity="0.5"/>
</linearGradient>
<linearGradient id="paint10_linear_0_4" x1="0" y1="862" x2="1303.33" y2="862" gradientUnits="userSpaceOnUse">
<stop stop-color="#D9D9D9"/>
<stop offset="1" stop-color="#D9D9D9" stop-opacity="0.5"/>
</linearGradient>
</defs>
</svg>
