<svg preserveAspectRatio="none" width="100%" height="100%" overflow="visible" style="display: block;" viewBox="0 0 819 138" fill="none" xmlns="http://www.w3.org/2000/svg">
<g id="Lines" opacity="0.8" clip-path="url(#clip0_0_6)">
<g id="line 11">
<path d="M870.125 81.5L631.375 81.5L574.875 25L508.875 25" stroke="url(#paint0_linear_0_6)" stroke-opacity="0.05"/>
<path d="M870.125 81.5L631.375 81.5L574.875 25L508.875 25" stroke="url(#paint1_linear_0_6)"/>
</g>
<g id="line 12">
<path d="M-51.125 82L187.625 82L244.125 25.5L310.125 25.5" stroke="url(#paint2_linear_0_6)" stroke-opacity="0.05"/>
<path d="M-51.125 82L187.625 82L244.125 25.5L310.125 25.5" stroke="url(#paint3_linear_0_6)"/>
</g>
<g id="Lights" opacity="0.8">
<mask id="path-3-inside-1_0_6" fill="white">
<path d="M0 0H819V138H0V0Z"/>
</mask>
<path d="M0 0H819V138H0V0Z" fill="url(#paint4_radial_0_6)"/>
<path d="M0 0V1H819V0V-1H0V0Z" fill="url(#paint5_radial_0_6)" mask="url(#path-3-inside-1_0_6)"/>
</g>
</g>
<defs>
<linearGradient id="paint0_linear_0_6" x1="509.125" y1="24.7498" x2="875.125" y2="98.7498" gradientUnits="userSpaceOnUse">
<stop stop-color="white"/>
<stop offset="1" stop-color="white" stop-opacity="0"/>
</linearGradient>
<linearGradient id="paint1_linear_0_6" x1="508.875" y1="53.25" x2="604.875" y2="53.25" gradientUnits="userSpaceOnUse">
<stop stop-color="#C9DDFA" stop-opacity="0.38"/>
<stop offset="1" stop-color="white" stop-opacity="0"/>
</linearGradient>
<linearGradient id="paint2_linear_0_6" x1="309.875" y1="25.2498" x2="-56.125" y2="99.2498" gradientUnits="userSpaceOnUse">
<stop stop-color="white"/>
<stop offset="1" stop-color="white" stop-opacity="0"/>
</linearGradient>
<linearGradient id="paint3_linear_0_6" x1="310.125" y1="53.75" x2="214.125" y2="53.75" gradientUnits="userSpaceOnUse">
<stop stop-color="#C9DDFA" stop-opacity="0.38"/>
<stop offset="1" stop-color="white" stop-opacity="0"/>
</linearGradient>
<radialGradient id="paint4_radial_0_6" cx="0" cy="0" r="1" gradientTransform="matrix(0 69 -409.5 -0.00170233 410.034 -6.34132e-06)" gradientUnits="userSpaceOnUse">
<stop stop-color="white" stop-opacity="0.05"/>
<stop offset="1" stop-color="white" stop-opacity="0"/>
</radialGradient>
<radialGradient id="paint5_radial_0_6" cx="0" cy="0" r="1" gradientUnits="userSpaceOnUse" gradientTransform="translate(409.81 -6.78419e-06) rotate(90) scale(58 344.217)">
<stop stop-color="white" stop-opacity="0.4"/>
<stop offset="1" stop-color="white" stop-opacity="0"/>
</radialGradient>
<clipPath id="clip0_0_6">
<rect width="819" height="138" fill="white"/>
</clipPath>
</defs>
</svg>
